<?xml version="1.0" standalone="no"?>
<!DOCTYPE svg PUBLIC "-//W3C//DTD SVG 1.1//EN" "http://www.w3.org/Graphics/SVG/1.1/DTD/svg11.dtd" >
<svg xmlns="http://www.w3.org/2000/svg" xmlns:xlink="http://www.w3.org/1999/xlink" version="1.1">
<metadata>
Created by FontForge 20201107 at Tue Oct 26 15:57:38 2021
 By 
Copyright (c) 2021 by Nico Inosanto. All rights reserved.
</metadata>
<defs>
<font id="TBCXMedium" horiz-adv-x="588" >
  <font-face 
    font-family="TBCXMedium"
    font-weight="500"
    font-stretch="normal"
    units-per-em="1000"
    panose-1="0 0 6 0 0 0 0 0 0 0"
    ascent="800"
    descent="-200"
    x-height="513"
    cap-height="748"
    bbox="-352 -309 1216 1070"
    underline-thickness="50"
    underline-position="-100"
    unicode-range="U+000D-FB02"
  />
<missing-glyph horiz-adv-x="711" 
d="M72 748h567v-748h-567v748zM357 446l136 222h-272zM305 373l-148 233v-467zM554 145v456l-144 -228zM492 80l-135 220l-134 -220h269z" />
    <glyph glyph-name="fi" unicode="fi" horiz-adv-x="629" 
d="M351 779v-97q-18 2 -32 2q-43 0 -69.5 -26t-26.5 -71v-74h126v-97h-126v-416h-112v416h-97v97h97v71q0 92 53 145t143 53q25 0 44 -3zM545 740.5q21 -20.5 21 -49.5t-21 -49.5t-50 -20.5t-49.5 20.5t-20.5 49.5t20.5 49.5t49.5 20.5t50 -20.5zM439 513h112v-513h-112v513
z" />
    <glyph glyph-name="f_j" unicode="fj" horiz-adv-x="634" 
d="M351 779v-97q-18 2 -32 2q-43 0 -69.5 -26t-26.5 -71v-74h126v-97h-126v-416h-112v416h-97v97h97v71q0 92 53 145t143 53q25 0 44 -3zM550 740.5q21 -20.5 21 -49.5t-21 -49.5t-50 -20.5t-49.5 20.5t-20.5 49.5t20.5 49.5t49.5 20.5t50 -20.5zM557 -64
q0 -92 -51.5 -144.5t-139.5 -52.5q-24 0 -45 3v98q14 -3 32 -3q42 0 67 25.5t25 70.5v580h112v-577z" />
    <glyph glyph-name=".notdef" horiz-adv-x="711" 
d="M72 748h567v-748h-567v748zM357 446l136 222h-272zM305 373l-148 233v-467zM554 145v456l-144 -228zM492 80l-135 220l-134 -220h269z" />
    <glyph glyph-name=".null" horiz-adv-x="594" 
 />
    <glyph glyph-name="nonmarkingreturn" unicode="&#xd;" horiz-adv-x="594" 
 />
    <glyph glyph-name="space" unicode=" " horiz-adv-x="230" 
 />
    <glyph glyph-name="exclam" unicode="!" horiz-adv-x="293" 
d="M80 748h131l-6 -534h-119zM196.5 113q21.5 -21 21.5 -52q0 -29 -21.5 -50t-51.5 -21q-29 0 -50 21t-21 50q0 31 21 52t50 21q30 0 51.5 -21z" />
    <glyph glyph-name="quotedbl" unicode="&#x22;" horiz-adv-x="364" 
d="M40 748h112l-12 -253h-88zM211 748h112l-12 -253h-88z" />
    <glyph glyph-name="numbersign" unicode="#" horiz-adv-x="644" 
d="M476 748h98l-47 -197h113l-22 -90h-113l-42 -177h117l-21 -90h-117l-46 -194h-99l47 194h-130l-46 -194h-99l46 194h-111l21 90h112l42 177h-116l22 90h115l48 197h98l-47 -197h129zM365 284l42 177h-130l-42 -177h130z" />
    <glyph glyph-name="dollar" unicode="$" horiz-adv-x="653" 
d="M545 56q-63 -55 -166 -64v-110h-94v111q-106 12 -170.5 70.5t-67.5 153.5l121 7q4 -59 51.5 -95t118.5 -36q68 0 108.5 27t40.5 83q0 36 -20 57t-55 33.5t-104 28.5q-79 19 -130 42t-82.5 65t-31.5 110q0 56 25 103t74.5 77.5t121.5 36.5v109h94v-111q94 -13 150.5 -69
t59.5 -144l-121 -7q-3 56 -41.5 88.5t-101.5 32.5q-66 0 -102.5 -31t-36.5 -81q0 -36 18 -56t50 -31.5t98 -26.5q86 -21 141 -46.5t85 -66.5t30 -105q0 -100 -63 -155z" />
    <glyph glyph-name="percent" unicode="%" horiz-adv-x="857" 
d="M323 708.5q47 -49.5 47 -132.5q0 -55 -21.5 -96.5t-60 -64t-87.5 -22.5q-48 0 -86.5 22.5t-60.5 64.5t-22 96q0 55 22 96t60.5 63.5t86.5 22.5q75 0 122 -49.5zM635 748h99l-513 -748h-99zM139 651.5q-24 -27.5 -24 -75.5t24 -76t62 -28t62 27.5t24 76.5q0 48 -23.5 75.5
t-62.5 27.5q-38 0 -62 -27.5zM777 305.5q47 -49.5 47 -132.5q0 -55 -21.5 -96.5t-60 -64t-87.5 -22.5q-48 0 -86.5 22.5t-60.5 64.5t-22 96q0 55 22 96t60.5 63.5t86.5 22.5q75 0 122 -49.5zM592.5 248.5q-23.5 -27.5 -23.5 -75.5t24 -76t62 -28q39 0 62.5 27.5t23.5 76.5
q0 48 -23.5 75.5t-62.5 27.5t-62.5 -27.5z" />
    <glyph glyph-name="ampersand" unicode="&#x26;" horiz-adv-x="701" 
d="M714 79l-72 -89l-121 105q-94 -104 -230 -104q-81 0 -138 27.5t-86 75.5t-29 109q0 69 32 118.5t92 91.5q-29 34 -45.5 70t-16.5 78q0 95 59 146t157 51q86 0 144.5 -47.5t70.5 -130.5l-115 -9q-6 41 -32 63t-68 22q-45 0 -71 -24t-26 -70q0 -29 14.5 -53t31.5 -40.5
t63 -55.5l175 -151q27 59 48 141l105 -28q-29 -105 -71 -185zM442 164l-199 172l-13 12q-35 -26 -53 -58t-18 -76q0 -56 36 -89t98 -33q86 0 149 72z" />
    <glyph glyph-name="quotesingle" unicode="'" horiz-adv-x="193" 
d="M40 748h112l-12 -253h-88z" />
    <glyph glyph-name="parenleft" unicode="(" horiz-adv-x="338" 
d="M303 727q-71 -83 -113 -183t-42 -214t42 -213.5t113 -182.5l-97 -35q-76 86 -123 196t-47 235q0 126 47 236t123 195z" />
    <glyph glyph-name="parenright" unicode=")" horiz-adv-x="338" 
d="M133 761q77 -85 123.5 -195t46.5 -236t-46.5 -235.5t-123.5 -195.5l-97 35q71 83 113 182.5t42 213.5t-42 214t-113 183z" />
    <glyph glyph-name="asterisk" unicode="*" horiz-adv-x="363" 
d="M150 760h63l-2 -123l116 40l20 -60l-117 -37l74 -97l-52 -38l-70 100l-71 -101l-51 39l73 97l-117 37l20 60l116 -40z" />
    <glyph glyph-name="plus" unicode="+" horiz-adv-x="541" 
d="M216 609h109v-188h187v-102h-187v-192h-109v192h-187v102h187v188z" />
    <glyph glyph-name="comma" unicode="," horiz-adv-x="232" 
d="M166.5 111q17.5 -22 17.5 -58q0 -137 -130 -207v48q51 37 62 97q-29 2 -48.5 22t-19.5 48q0 30 19.5 51t49.5 21q32 0 49.5 -22z" />
    <glyph glyph-name="hyphen" unicode="-" horiz-adv-x="398" 
d="M42 334h314v-105h-314v105z" />
    <glyph glyph-name="period" unicode="." horiz-adv-x="232" 
d="M166.5 113q21.5 -21 21.5 -52q0 -29 -21.5 -50t-51.5 -21q-29 0 -50 21t-21 50q0 31 21 52t50 21q30 0 51.5 -21z" />
    <glyph glyph-name="slash" unicode="/" horiz-adv-x="384" 
d="M261 748h117l-254 -815h-118z" />
    <glyph glyph-name="zero" unicode="0" horiz-adv-x="641" 
d="M465.5 713.5q62.5 -44.5 96.5 -131t34 -208.5q0 -121 -34 -207.5t-96.5 -131.5t-144.5 -45q-83 0 -145 45t-96.5 131.5t-34.5 207.5q0 122 34.5 208.5t96.5 131t145 44.5q82 0 144.5 -44.5zM205 581.5q-39 -70.5 -39 -207.5t39 -207.5t116 -70.5q76 0 115 70.5t39 207.5
t-39 207.5t-115 70.5q-77 0 -116 -70.5z" />
    <glyph glyph-name="one" unicode="1" horiz-adv-x="375" 
d="M206 748h87v-748h-118v591l-117 -87l-54 97z" />
    <glyph glyph-name="two" unicode="2" horiz-adv-x="533" 
d="M436 702.5q58 -55.5 58 -155.5q0 -85 -36.5 -151.5t-104.5 -140.5l-139 -149h287v-106h-451v98l215 230q43 46 65.5 76.5t33.5 62.5t11 75q0 51 -26 80.5t-73 29.5q-54 0 -81 -33.5t-28 -96.5l-119 7q2 108 61 168.5t164 60.5t163 -55.5z" />
    <glyph glyph-name="three" unicode="3" horiz-adv-x="556" 
d="M438.5 701q59.5 -57 59.5 -154q0 -60 -27.5 -99.5t-71.5 -60.5q50 -14 82.5 -59.5t32.5 -111.5q0 -69 -29.5 -120.5t-83.5 -78.5t-124 -27q-112 0 -174 59t-67 164l119 7q5 -60 35.5 -92t85.5 -32q56 0 87 32t31 90q0 57 -34 86t-92 29h-75v106h73q49 0 80.5 29t31.5 79
q0 51 -27 78t-76 27q-50 0 -78.5 -30.5t-31.5 -85.5l-118 6q3 101 62.5 158.5t165.5 57.5q104 0 163.5 -57z" />
    <glyph glyph-name="four" unicode="4" horiz-adv-x="593" 
d="M355 748h100v-485h117v-106h-117v-157h-117v157h-314v98zM337 263v270l-182 -270h182z" />
    <glyph glyph-name="five" unicode="5" horiz-adv-x="558" 
d="M407.5 438.5q51.5 -27.5 80.5 -80t29 -125.5q0 -72 -29 -127t-84 -85.5t-129 -30.5q-108 0 -170 57.5t-67 157.5l119 7q5 -55 35 -85.5t84 -30.5q58 0 90 37t32 97t-32 95t-87 35q-58 0 -105 -36h-110v424h424v-105h-306v-204q46 27 109 27q65 0 116.5 -27.5z" />
    <glyph glyph-name="six" unicode="6" horiz-adv-x="593" 
d="M301 485q72 -1 129.5 -32.5t90.5 -87.5t33 -129t-33.5 -129t-91.5 -86.5t-131 -30.5t-131.5 30.5t-92 86t-33.5 129.5q0 45 13.5 83.5t39.5 74.5l258 354h142zM396 135q38 39 38 105t-37.5 103.5t-98.5 37.5q-72 0 -108 -48q-28 -37 -28 -93q0 -66 37.5 -105t98.5 -39
q60 0 98 39z" />
    <glyph glyph-name="seven" unicode="7" horiz-adv-x="534" 
d="M18 748h492v-96l-325 -652h-131l325 643h-361v105z" />
    <glyph glyph-name="eight" unicode="8" horiz-adv-x="600" 
d="M418 733.5q53 -24.5 83.5 -71t30.5 -109.5q0 -54 -24.5 -93.5t-67.5 -62.5q51 -25 81 -72t30 -110q0 -68 -32.5 -119t-89.5 -78.5t-129 -27.5t-129 27.5t-89.5 78.5t-32.5 119q0 63 29.5 109.5t80.5 71.5q-43 22 -67.5 62.5t-24.5 94.5q0 63 30 109.5t82.5 71t119.5 24.5
q66 0 119 -24.5zM218 624q-32 -28 -32 -77q0 -48 32.5 -75.5t81.5 -27.5q50 0 82 27.5t32 75.5q0 49 -32 77t-82 28t-82 -28zM204.5 307.5q-37.5 -32.5 -37.5 -89.5q0 -56 37.5 -89t94.5 -33q58 0 95.5 33t37.5 89q0 57 -37 89.5t-96 32.5q-57 0 -94.5 -32.5z" />
    <glyph glyph-name="nine" unicode="9" horiz-adv-x="593" 
d="M432.5 727.5q58.5 -30.5 92 -86t33.5 -129.5q0 -45 -13.5 -83.5t-39.5 -74.5l-258 -354h-142l193 263q-72 1 -129.5 32.5t-90.5 87.5t-33 129t33.5 129t91.5 86.5t131 30.5t131.5 -30.5zM409 415q28 37 28 93q0 66 -37.5 105t-98.5 39q-60 0 -98 -39t-38 -105
q0 -65 38 -103t98 -38q72 0 108 48z" />
    <glyph glyph-name="colon" unicode=":" horiz-adv-x="232" 
d="M166.5 113q21.5 -21 21.5 -52q0 -29 -21.5 -50t-51.5 -21q-29 0 -50 21t-21 50q0 31 21 52t50 21q30 0 51.5 -21zM166.5 501q21.5 -21 21.5 -52q0 -29 -21.5 -50t-51.5 -21q-29 0 -50 21t-21 50q0 31 21 52t50 21q30 0 51.5 -21z" />
    <glyph glyph-name="semicolon" unicode=";" horiz-adv-x="232" 
d="M166.5 501q21.5 -21 21.5 -52q0 -29 -21.5 -50t-51.5 -21q-29 0 -50 21t-21 50q0 31 21 52t50 21q30 0 51.5 -21zM166.5 111q17.5 -22 17.5 -58q0 -137 -130 -207v48q51 37 62 97q-29 2 -48.5 22t-19.5 48q0 30 19.5 51t49.5 21q32 0 49.5 -22z" />
    <glyph glyph-name="less" unicode="&#x3c;" horiz-adv-x="521" 
d="M25 369l466 247l1 -127l-246 -120l246 -120l-1 -127z" />
    <glyph glyph-name="equal" unicode="=" horiz-adv-x="541" 
d="M29 543h483v-106h-483v106zM29 301h483v-106h-483v106z" />
    <glyph glyph-name="greater" unicode="&#x3e;" horiz-adv-x="521" 
d="M29 489l1 127l466 -247l-466 -247l-1 127l246 120z" />
    <glyph glyph-name="question" unicode="?" horiz-adv-x="550" 
d="M403 731.5q54 -27.5 83 -77.5t29 -115q0 -59 -26 -96t-77 -76q-42 -32 -60.5 -59t-18.5 -65v-29h-119v34q0 47 23.5 83t72.5 76q42 33 62.5 61.5t20.5 68.5q0 53 -31 85t-86 32t-86.5 -30.5t-36.5 -85.5l-119 8q5 98 70.5 155.5t171.5 57.5q73 0 127 -27.5zM323.5 113
q21.5 -21 21.5 -52q0 -29 -21.5 -50t-51.5 -21q-29 0 -50 21t-21 50q0 31 21 52t50 21q30 0 51.5 -21z" />
    <glyph glyph-name="at" unicode="@" horiz-adv-x="864" 
d="M630 609.5q88 -49.5 137.5 -137t49.5 -196.5q0 -100 -46 -152.5t-128 -52.5q-37 0 -61.5 14t-35.5 41q-47 -58 -135 -58q-56 0 -98.5 25.5t-66.5 73t-24 110.5q0 64 24 111.5t66.5 73t98.5 25.5q46 0 79.5 -15t49.5 -40v42h82v-282q0 -49 42 -49q37 0 61 35t24 98
q0 89 -41.5 162t-114 114.5t-161.5 41.5q-91 0 -163 -41.5t-113 -114t-41 -162.5q0 -93 42 -165t113.5 -111.5t156.5 -39.5q57 0 100.5 11.5t82.5 35.5l18 -63q-43 -26 -89.5 -38t-111.5 -12q-106 0 -193 48.5t-137 135.5t-50 198q0 109 49.5 196.5t137 137t198.5 49.5
q110 0 198 -49.5zM536 288q0 59 -30 90.5t-81 31.5q-52 0 -83.5 -35t-31.5 -98t31.5 -98t83.5 -35q51 0 81 32t30 91v21z" />
    <glyph glyph-name="A" unicode="A" horiz-adv-x="753" 
d="M325 748h101l317 -748h-130l-68 167h-338l-69 -167h-129zM500 273l-123 301l-124 -301h247z" />
    <glyph glyph-name="B" unicode="B" horiz-adv-x="679" 
d="M375 748q102 0 164.5 -52t62.5 -151q0 -57 -22 -96t-62 -58q52 -17 84 -63t32 -116q0 -103 -65 -157.5t-170 -54.5h-318v748h294zM199 643v-209h179q48 0 75.5 25t27.5 78q0 52 -32.5 79t-87.5 27h-162zM199 332v-226h186q57 0 92 27.5t35 84.5q0 58 -34.5 86t-87.5 28
h-191z" />
    <glyph glyph-name="C" unicode="C" horiz-adv-x="808" 
d="M228.5 36.5q-84.5 46.5 -133 133.5t-48.5 204t48.5 204t133 133.5t190.5 46.5q89 0 163.5 -34t122.5 -97.5t60 -149.5l-122 -11q-15 88 -76.5 137t-150.5 49q-71 0 -127.5 -33.5t-88.5 -96.5t-32 -148q0 -86 32 -149t88.5 -96t127.5 -33q89 0 149.5 46.5t77.5 131.5
l123 -10q-15 -85 -63.5 -146.5t-121.5 -94.5t-162 -33q-106 0 -190.5 46.5z" />
    <glyph glyph-name="D" unicode="D" horiz-adv-x="792" 
d="M380 748q105 0 188 -44.5t130 -129.5t47 -200t-47.5 -200t-131 -129.5t-188.5 -44.5h-297v748h299zM199 646v-544h180q112 0 179.5 70.5t67.5 201.5t-67 201.5t-179 70.5h-181z" />
    <glyph glyph-name="E" unicode="E" horiz-adv-x="594" 
d="M81 748h470v-105h-351v-206h307v-103h-307v-228h351v-106h-470v748z" />
    <glyph glyph-name="F" unicode="F" horiz-adv-x="579" 
d="M81 748h470v-105h-351v-209h290v-105h-290v-329h-119v748z" />
    <glyph glyph-name="G" unicode="G" horiz-adv-x="815" 
d="M419 392h350v-39q0 -110 -43 -192t-122 -126.5t-185 -44.5q-107 0 -191.5 46t-132.5 133t-48 205q0 119 48 205.5t132 132.5t191 46q86 0 158 -31t120.5 -90t65.5 -140l-123 -20q-15 82 -74 128.5t-148 46.5q-114 0 -181.5 -71.5t-67.5 -206.5q0 -134 68 -206t181 -72
q91 0 150 47.5t73 143.5h-221v105z" />
    <glyph glyph-name="H" unicode="H" horiz-adv-x="751" 
d="M552 748h119v-748h-119v333h-352v-333h-119v748h119v-309h352v309z" />
    <glyph glyph-name="I" unicode="I" horiz-adv-x="280" 
d="M81 748h119v-748h-119v748z" />
    <glyph glyph-name="J" unicode="J" 
d="M513 250q0 -123 -65.5 -191.5t-180.5 -68.5q-110 0 -176.5 64t-72.5 177l119 19q4 -73 38 -113.5t93 -40.5q61 0 93.5 38.5t32.5 112.5v501h119v-498z" />
    <glyph glyph-name="K" unicode="K" horiz-adv-x="689" 
d="M491 748h153l-273 -314l311 -434h-148l-243 340l-91 -105v-235h-119v748h119v-335z" />
    <glyph glyph-name="L" unicode="L" horiz-adv-x="576" 
d="M81 748h119v-642h354v-106h-473v748z" />
    <glyph glyph-name="M" unicode="M" horiz-adv-x="951" 
d="M767 748h104v-748h-118v488l-237 -482h-78l-238 482v-488h-119v748h105l291 -571z" />
    <glyph glyph-name="N" unicode="N" horiz-adv-x="750" 
d="M551 748h119v-748h-101l-369 528v-528h-119v748h100l370 -529v529z" />
    <glyph glyph-name="O" unicode="O" horiz-adv-x="850" 
d="M619 711q86 -47 135 -134t49 -203t-49 -203t-135 -134t-194 -47t-194 47t-135 134t-49 203t49 203t135 134t194 47t194 -47zM292.5 618.5q-58.5 -33.5 -91.5 -96t-33 -148.5t33 -148.5t91.5 -96t132.5 -33.5t132.5 33.5t91.5 96t33 148.5t-33 148.5t-91.5 96t-132.5 33.5
t-132.5 -33.5z" />
    <glyph glyph-name="P" unicode="P" horiz-adv-x="651" 
d="M387 748q68 0 121.5 -27t83.5 -79.5t30 -126.5t-30 -126.5t-83.5 -79.5t-121.5 -27h-187v-282h-119v748h306zM199 643v-255h173q56 0 92 33t36 94q0 62 -36 95t-92 33h-173z" />
    <glyph glyph-name="Q" unicode="Q" horiz-adv-x="867" 
d="M856 8l-83 -85l-130 129q-95 -62 -218 -62q-108 0 -194 47t-135 134t-49 203t49 203t135 134t194 47t194 -47t135 -134t49 -203q0 -141 -73 -241zM563 132l-131 130l83 84l130 -128q37 65 37 156q0 86 -33 148.5t-91.5 96t-132.5 33.5t-132.5 -33.5t-91.5 -96t-33 -148.5
t33 -148.5t91.5 -96t132.5 -33.5q75 0 138 36z" />
    <glyph glyph-name="R" unicode="R" horiz-adv-x="689" 
d="M657 0h-134l-158 286h-165v-286h-119v748h302q68 0 121.5 -26.5t83.5 -78.5t30 -126q0 -79 -34.5 -132.5t-94.5 -78.5zM199 392h169q56 0 92 32.5t36 92.5q0 61 -36 93.5t-92 32.5h-169v-251z" />
    <glyph glyph-name="S" unicode="S" horiz-adv-x="652" 
d="M512.5 700q72.5 -58 76.5 -159l-121 -7q-3 56 -41.5 88.5t-101.5 32.5q-66 0 -102.5 -31t-36.5 -81q0 -36 18 -56t50 -31.5t98 -26.5q86 -21 141 -46.5t85 -66.5t30 -105q0 -110 -75.5 -165.5t-194.5 -55.5q-83 0 -148 26.5t-103 78t-40 122.5l121 7q4 -59 51.5 -95
t118.5 -36q68 0 108.5 27t40.5 83q0 36 -20 57t-55 33.5t-104 28.5q-79 19 -130 42t-82.5 65t-31.5 110q0 61 29 110.5t87.5 79t142.5 29.5q117 0 189.5 -58z" />
    <glyph glyph-name="T" unicode="T" horiz-adv-x="695" 
d="M22 748h651v-105h-266v-643h-119v643h-266v105z" />
    <glyph glyph-name="U" unicode="U" horiz-adv-x="764" 
d="M689 291q0 -143 -82 -222t-225 -79t-225 79t-82 222v457h119v-455q0 -97 48.5 -147t139.5 -50q90 0 139 50.5t49 146.5v455h119v-457z" />
    <glyph glyph-name="V" unicode="V" horiz-adv-x="756" 
d="M614 748h129l-315 -748h-100l-314 748h128l236 -566z" />
    <glyph glyph-name="W" unicode="W" horiz-adv-x="1054" 
d="M912 748h125l-231 -748h-100l-179 529l-178 -529h-101l-231 748h125l158 -537l178 537h98l179 -537z" />
    <glyph glyph-name="X" unicode="X" horiz-adv-x="701" 
d="M533 748h137l-232 -368l244 -380h-138l-193 305l-194 -305h-138l244 380l-232 368h137l183 -292z" />
    <glyph glyph-name="Y" unicode="Y" horiz-adv-x="709" 
d="M559 748h138l-283 -447v-301h-118v301l-284 447h138l205 -329z" />
    <glyph glyph-name="Z" unicode="Z" horiz-adv-x="615" 
d="M43 748h531v-90l-389 -552h398v-106h-550v90l388 553h-378v105z" />
    <glyph glyph-name="bracketleft" unicode="[" horiz-adv-x="287" 
d="M53 748h206v-94h-94v-647h94v-94h-206v835z" />
    <glyph glyph-name="backslash" unicode="\" horiz-adv-x="384" 
d="M6 748h117l255 -815h-117z" />
    <glyph glyph-name="bracketright" unicode="]" horiz-adv-x="287" 
d="M29 748h206v-835h-206v94h94v647h-94v94z" />
    <glyph glyph-name="asciicircum" unicode="^" horiz-adv-x="567" 
d="M26 373l258 391l257 -391h-127l-130 215l-131 -215h-127z" />
    <glyph glyph-name="underscore" unicode="_" horiz-adv-x="600" 
d="M0 -80h600v-83h-600v83z" />
    <glyph glyph-name="grave" unicode="`" horiz-adv-x="244" 
d="M11 787h128l94 -191h-88z" />
    <glyph glyph-name="a" unicode="a" horiz-adv-x="542" 
d="M416 469.5q53 -52.5 53 -150.5v-319h-113v46q-59 -56 -139 -56q-78 0 -124.5 39.5t-46.5 110.5q0 144 188 155l122 7v15q0 51 -22.5 79t-68.5 28q-45 0 -68.5 -25t-23.5 -62l-113 4q0 46 25 87.5t71.5 67.5t107.5 26q99 0 152 -52.5zM250 208q-91 -5 -91 -66
q0 -58 77 -58q56 0 88.5 28.5t32.5 84.5v18z" />
    <glyph glyph-name="b" unicode="b" horiz-adv-x="646" 
d="M250.5 12.5q-44.5 22.5 -66.5 58.5v-71h-106v777h112v-326q22 32 65 51.5t98 19.5q71 0 127.5 -32.5t88 -93t31.5 -140.5t-31.5 -140.5t-88 -93t-127.5 -32.5q-58 0 -102.5 22.5zM444 131.5q42 44.5 42 124.5t-42 125t-109 45q-65 0 -105 -41t-40 -115v-27q0 -74 40 -115
t105 -41q67 0 109 44.5z" />
    <glyph glyph-name="c" unicode="c" horiz-adv-x="578" 
d="M461.5 470q64.5 -52 77.5 -142l-110 -10q-6 50 -40.5 79t-85.5 29q-64 0 -103.5 -45t-39.5 -125q0 -79 40 -124t103 -45q52 0 85.5 27t41.5 75l110 -10q-15 -87 -79 -138t-158 -51q-74 0 -132.5 32t-91.5 92t-33 142q0 83 33 143t91.5 91.5t132.5 31.5q94 0 158.5 -52z
" />
    <glyph glyph-name="d" unicode="d" horiz-adv-x="646" 
d="M165.5 22.5q-56.5 32.5 -88 93t-31.5 140.5t31.5 140.5t88 93t127.5 32.5q55 0 98 -19.5t65 -51.5v326h112v-777h-106v71q-22 -36 -66.5 -58.5t-102.5 -22.5q-71 0 -127.5 32.5zM416 128q40 41 40 115v27q0 74 -40 115t-105 41q-67 0 -109 -45t-42 -125t42 -124.5
t109 -44.5q65 0 105 41z" />
    <glyph glyph-name="e" unicode="e" 
d="M542 214h-377q4 -58 41 -92.5t96 -34.5q48 0 79.5 19t42.5 54l113 -6q-10 -46 -42.5 -83t-82 -59t-107.5 -22q-76 0 -134.5 32t-91.5 92.5t-33 141.5q0 82 32.5 142t90.5 92t133 32q73 0 127 -30.5t83.5 -88t29.5 -134.5v-55zM206.5 393.5q-36.5 -32.5 -40.5 -91.5h263
q-2 57 -34.5 90.5t-93.5 33.5q-58 0 -94.5 -32.5z" />
    <glyph glyph-name="f" unicode="f" horiz-adv-x="361" 
d="M351 779v-97q-18 2 -32 2q-43 0 -69.5 -26t-26.5 -71v-74h126v-97h-126v-416h-112v416h-97v97h97v71q0 92 53 145t143 53q25 0 44 -3z" />
    <glyph glyph-name="g" unicode="g" horiz-adv-x="640" 
d="M141.5 -213.5q-64.5 50.5 -80.5 137.5l112 4q7 -45 45 -71t95 -26q65 0 104 35.5t39 100.5v94q-22 -32 -65 -51.5t-98 -19.5q-71 0 -127.5 32.5t-88 93t-31.5 140.5t31.5 140.5t88 93t127.5 32.5q58 0 102.5 -22.5t66.5 -58.5v72h106v-538q0 -73 -31 -127t-88 -83
t-133 -29q-110 0 -174.5 50.5zM416 127q40 41 40 115v27q0 74 -40 115t-105 41q-67 0 -109 -44.5t-42 -124.5t42 -125t109 -45q65 0 105 41z" />
    <glyph glyph-name="h" unicode="h" horiz-adv-x="603" 
d="M190 455q20 29 56.5 48t87.5 19q59 0 104 -25.5t70.5 -74t25.5 -113.5v-309h-113v294q0 57 -30.5 90.5t-81.5 33.5q-53 0 -86 -35.5t-33 -89.5v-293h-112v777h112v-322z" />
    <glyph glyph-name="i" unicode="i" horiz-adv-x="268" 
d="M184 740.5q21 -20.5 21 -49.5t-21 -49.5t-50 -20.5t-49.5 20.5t-20.5 49.5t20.5 49.5t49.5 20.5t50 -20.5zM78 513h112v-513h-112v513z" />
    <glyph glyph-name="j" unicode="j" horiz-adv-x="273" 
d="M189 740.5q21 -20.5 21 -49.5t-21 -49.5t-50 -20.5t-49.5 20.5t-20.5 49.5t20.5 49.5t49.5 20.5t50 -20.5zM196 -64q0 -92 -51.5 -144.5t-139.5 -52.5q-24 0 -45 3v98q14 -3 32 -3q42 0 67 25.5t25 70.5v580h112v-577z" />
    <glyph glyph-name="k" unicode="k" horiz-adv-x="551" 
d="M78 777h112v-473l199 209h137l-206 -221l227 -292h-142l-164 208l-51 -52v-156h-112v777z" />
    <glyph glyph-name="l" unicode="l" horiz-adv-x="268" 
d="M78 777h112v-777h-112v777z" />
    <glyph glyph-name="m" unicode="m" horiz-adv-x="927" 
d="M762.5 496q43.5 -26 67.5 -74t24 -111v-311h-113v294q0 58 -28 91t-79 33q-47 0 -76.5 -29.5t-34.5 -76.5v-3v-309h-113v294q0 57 -28.5 90.5t-74.5 33.5q-52 0 -84.5 -35.5t-32.5 -89.5v-293h-112v513h106v-68q21 36 57.5 56.5t90.5 20.5q53 0 95.5 -24t67.5 -69
q24 42 66.5 67.5t100.5 25.5q57 0 100.5 -26z" />
    <glyph glyph-name="n" unicode="n" horiz-adv-x="607" 
d="M438 496.5q45 -25.5 70.5 -74t25.5 -113.5v-309h-113v294q0 57 -30.5 90.5t-81.5 33.5q-53 0 -86 -35.5t-33 -89.5v-293h-112v513h106v-68q21 36 58.5 56.5t91.5 20.5q59 0 104 -25.5z" />
    <glyph glyph-name="o" unicode="o" horiz-adv-x="628" 
d="M451 489.5q61 -32.5 95.5 -93t34.5 -140.5q0 -79 -35 -139.5t-95.5 -93.5t-136.5 -33t-137 33t-96 93.5t-35 139.5q0 80 35 140.5t96 93t137 32.5t137 -32.5zM203 380.5q-43 -45.5 -43 -124.5q0 -78 43 -123.5t111 -45.5t111 45.5t43 123.5q0 79 -43 124.5t-111 45.5
t-111 -45.5z" />
    <glyph glyph-name="p" unicode="p" horiz-adv-x="646" 
d="M78 -255v768h106v-72q22 36 66.5 58.5t102.5 22.5q71 0 127.5 -32.5t88 -93t31.5 -140.5t-31.5 -140.5t-88 -93t-127.5 -32.5q-55 0 -98 19.5t-65 51.5v-316h-112zM444 131q42 45 42 125t-42 124.5t-109 44.5q-65 0 -105 -41t-40 -115v-27q0 -74 40 -115t105 -41
q67 0 109 45z" />
    <glyph glyph-name="q" unicode="q" horiz-adv-x="646" 
d="M456 61q-22 -32 -65 -51.5t-98 -19.5q-71 0 -127.5 32.5t-88 93t-31.5 140.5t31.5 140.5t88 93t127.5 32.5q58 0 102.5 -22.5t66.5 -58.5v72h106v-768h-112v316zM416 127q40 41 40 115v27q0 74 -40 115t-105 41q-67 0 -109 -44.5t-42 -124.5t42 -125t109 -45q65 0 105 41
z" />
    <glyph glyph-name="r" unicode="r" horiz-adv-x="371" 
d="M353 410q-46 0 -83.5 -17t-58.5 -47t-21 -67v-279h-112v513h109v-72q20 32 63 55t103 23v-109z" />
    <glyph glyph-name="s" unicode="s" horiz-adv-x="497" 
d="M385.5 476.5q50.5 -45.5 58.5 -117.5l-112 -6q-3 34 -25 53.5t-63 19.5q-39 0 -59.5 -15t-20.5 -42t20 -37.5t69 -21.5q7 -1 23 -5q90 -23 133.5 -55t43.5 -96q0 -77 -53.5 -120.5t-147.5 -43.5q-91 0 -146 43.5t-64 120.5l112 7q5 -36 30 -55t70 -19q39 0 63 15t24 43
q0 21 -10 33t-32 20t-69 19q-63 15 -99 29.5t-57.5 43t-21.5 77.5q0 70 51.5 112.5t143.5 42.5q88 0 138.5 -45.5z" />
    <glyph glyph-name="t" unicode="t" horiz-adv-x="372" 
d="M348 98v-100q-38 -6 -75 -6q-79 0 -125 41t-45 125l1 258h-95v97h95l1 174h113l-1 -174h130v-97h-131l-1 -235q0 -47 23.5 -67.5t61.5 -20.5q18 0 48 5z" />
    <glyph glyph-name="u" unicode="u" horiz-adv-x="590" 
d="M512 513v-513h-106v67q-16 -32 -53 -54.5t-92 -22.5q-86 0 -137 56.5t-51 150.5v316h112v-299q0 -56 27 -87.5t77 -31.5q51 0 81 36.5t30 88.5v293h112z" />
    <glyph glyph-name="v" unicode="v" horiz-adv-x="543" 
d="M418 513h120l-221 -513h-90l-222 513h119l148 -347z" />
    <glyph glyph-name="w" unicode="w" horiz-adv-x="782" 
d="M659 513h115l-176 -513h-90l-117 327l-118 -327h-89l-176 513h115l109 -337l119 337h79l120 -337z" />
    <glyph glyph-name="x" unicode="x" horiz-adv-x="526" 
d="M141 0h-129l168 263l-164 250h131l116 -179l114 179h131l-165 -252l173 -261h-132l-121 188z" />
    <glyph glyph-name="y" unicode="y" horiz-adv-x="543" 
d="M414 513h121l-326 -768h-123l126 291l-203 477h121l142 -355z" />
    <glyph glyph-name="z" unicode="z" horiz-adv-x="445" 
d="M36 513h370v-75l-235 -346h245v-92h-386v74l236 347h-230v92z" />
    <glyph glyph-name="braceleft" unicode="{" horiz-adv-x="288" 
d="M259 748v-94h-6q-36 0 -53.5 -22.5t-17.5 -67.5q0 -23 7 -67q7 -42 7 -71q0 -40 -14.5 -65t-48.5 -30q34 -6 48.5 -31t14.5 -65q0 -29 -7 -71q-7 -45 -7 -67q0 -46 17 -68t54 -22h6v-94h-6q-83 0 -132.5 46t-49.5 129q0 32 7 66q12 51 12 76q0 27 -13 40.5t-43 13.5h-8
v93h8q30 0 43 13.5t13 40.5q0 25 -12 76q-7 34 -7 66q0 83 49.5 129t132.5 46h6z" />
    <glyph glyph-name="bar" unicode="|" horiz-adv-x="263" 
d="M75 748h112v-815h-112v815z" />
    <glyph glyph-name="braceright" unicode="}" horiz-adv-x="288" 
d="M35 748q83 0 133 -46t50 -129q0 -28 -8 -66q-12 -51 -12 -77t13 -39.5t43 -13.5h8v-93h-8q-30 0 -43 -13.5t-13 -39.5t12 -77q8 -38 8 -66q0 -83 -50 -129t-133 -46h-6v94h6q37 0 54 22t17 68q0 22 -7 67q-7 42 -7 71q0 40 14.5 65t48.5 31q-34 5 -48.5 30t-14.5 65
q0 29 7 71q7 44 7 67q0 45 -17.5 67.5t-53.5 22.5h-6v94h6z" />
    <glyph glyph-name="asciitilde" unicode="~" horiz-adv-x="533" 
d="M520 376q-34 -44 -70.5 -66t-84.5 -22q-30 0 -51.5 8t-53.5 24q-24 14 -43 21t-41 7q-36 0 -61 -12.5t-51 -43.5l-51 75q34 43 69.5 64.5t82.5 21.5q26 0 45.5 -7.5t48.5 -22.5t48.5 -22.5t46.5 -7.5q38 0 64 13t51 44z" />
    <glyph glyph-name="exclamdown" unicode="&#xa1;" horiz-adv-x="293" 
d="M96.5 399q-21.5 21 -21.5 52q0 29 21.5 50t51.5 21q29 0 50 -21t21 -50q0 -31 -21 -52t-50 -21q-30 0 -51.5 21zM213 -236h-131l6 534h119z" />
    <glyph glyph-name="cent" unicode="&#xa2;" horiz-adv-x="578" 
d="M540 179q-13 -77 -64.5 -126t-128.5 -60v-111h-94v112q-93 15 -150 84.5t-57 177.5q0 109 56.5 178t150.5 84v109h94v-108q77 -12 129 -62.5t63 -128.5l-110 -10q-6 50 -40.5 79t-85.5 29q-64 0 -103.5 -45t-39.5 -125q0 -79 40 -124t103 -45q52 0 85.5 27t41.5 75z" />
    <glyph glyph-name="sterling" unicode="&#xa3;" horiz-adv-x="565" 
d="M535 106v-106h-498v97q52 16 76 52.5t24 99.5q0 11 -2 37l-3 32h-99v94h91l-7 88q-2 30 -2 42q0 103 52.5 159.5t153.5 56.5q98 0 150 -51.5t54 -141.5l-118 -6q0 43 -22.5 68.5t-65.5 25.5q-46 0 -69 -28t-23 -81q0 -15 1 -23l9 -109h163v-94h-155l3 -34q1 -9 1 -27
q0 -51 -17.5 -87.5t-49.5 -63.5h353z" />
    <glyph glyph-name="currency" unicode="&#xa4;" 
d="M469 232l90 -90l-71 -70l-89 89q-46 -26 -105 -26q-56 0 -104 27l-90 -90l-71 70l92 92q-30 52 -30 118q0 67 30 119l-92 92l71 71l91 -91q48 27 103 27t103 -27l91 91l71 -71l-92 -92q30 -52 30 -119t-28 -120zM212.5 251q30.5 -36 81.5 -36q49 0 80 37t31 100
q0 64 -30.5 101t-80.5 37t-81 -37t-31 -101q0 -65 30.5 -101z" />
    <glyph glyph-name="yen" unicode="&#xa5;" horiz-adv-x="709" 
d="M559 748h138l-251 -397h106v-70h-138v-80h138v-71h-138v-130h-118v130h-138v71h138v80h-138v70h106l-252 397h138l205 -329z" />
    <glyph glyph-name="brokenbar" unicode="&#xa6;" horiz-adv-x="263" 
d="M75 748h112v-319h-112v319zM75 252h112v-319h-112v319z" />
    <glyph glyph-name="section" unicode="&#xa7;" horiz-adv-x="516" 
d="M458 207q15 -28 15 -69q0 -76 -58 -121t-156 -45q-101 0 -160.5 43.5t-59.5 119.5l112 5q1 -39 29 -59t80 -20q47 0 74 18t27 53q0 34 -26.5 49t-94.5 30q-99 21 -149 56.5t-50 105.5q0 40 16 66.5t47 48.5q-52 36 -52 110q0 73 54.5 116.5t144.5 43.5q95 0 150 -41
t56 -113l-112 -4q-1 69 -93 69q-40 0 -64 -17t-24 -51q0 -31 24 -45t86 -27q101 -21 150 -57t49 -105q0 -40 -15 -66t-45 -47q30 -19 45 -47zM159.5 338.5q15.5 -14.5 42.5 -22.5t80 -19l42 -9q23 16 34 32.5t11 41.5t-15.5 39.5t-41.5 22.5t-81 19q-28 6 -41 10
q-23 -16 -34.5 -33t-11.5 -42t15.5 -39.5z" />
    <glyph glyph-name="dieresis" unicode="&#xa8;" horiz-adv-x="322" 
d="M114.5 738q19.5 -19 19.5 -47t-19.5 -47t-47.5 -19q-29 0 -48 19t-19 47t19.5 47t47.5 19t47.5 -19zM302.5 738q19.5 -19 19.5 -47t-19 -47t-48 -19q-28 0 -47.5 19t-19.5 47t19.5 47t47.5 19t47.5 -19z" />
    <glyph glyph-name="copyright" unicode="&#xa9;" horiz-adv-x="582" 
d="M426.5 726.5q60.5 -33.5 95 -91.5t34.5 -129t-34.5 -129t-95 -91.5t-134.5 -33.5q-75 0 -136 33.5t-95.5 91.5t-34.5 129t34.5 129t95.5 91.5t136 33.5q74 0 134.5 -33.5zM178 692q-50 -28 -78.5 -76.5t-28.5 -109.5t28.5 -110t78.5 -76.5t113 -27.5t113 27.5t78.5 76.5
t28.5 110t-28.5 109.5t-78.5 76.5t-113 28t-113 -28zM387 632q39 -31 46 -83l-64 -4q-5 30 -26 46.5t-52 16.5q-38 0 -62 -27.5t-24 -73.5q0 -47 25 -74t62 -27q30 0 51 16t26 44l65 -4q-9 -51 -47.5 -81.5t-93.5 -30.5q-66 0 -109 43t-43 114q0 72 42.5 114t108.5 42
q56 0 95 -31z" />
    <glyph glyph-name="ordfeminine" unicode="&#xaa;" horiz-adv-x="442" 
d="M387 593v-256h-95v40q-17 -21 -49.5 -34.5t-72.5 -13.5q-63 0 -99.5 31t-36.5 88q0 116 171 127l81 5v20q0 33 -17.5 51.5t-50.5 18.5q-35 0 -54.5 -19t-19.5 -46l-99 3q0 37 21 71.5t60.5 55.5t91.5 21q169 0 169 -163zM213 506q-77 -5 -77 -53q0 -47 58 -47
q38 0 65.5 22.5t27.5 66.5v16z" />
    <glyph glyph-name="guillemotleft" unicode="&#xab;" horiz-adv-x="575" 
d="M28 266l172 226l89 -56l-135 -170l135 -171l-89 -56zM286 266l172 226l89 -56l-135 -170l135 -171l-89 -56z" />
    <glyph glyph-name="logicalnot" unicode="&#xac;" horiz-adv-x="570" 
d="M33 430h498v-273h-88v185h-410v88z" />
    <glyph glyph-name="uni00AD" unicode="&#xad;" horiz-adv-x="398" 
d="M42 334h314v-105h-314v105z" />
    <glyph glyph-name="registered" unicode="&#xae;" horiz-adv-x="582" 
d="M426.5 726.5q60.5 -33.5 95 -91.5t34.5 -129t-34.5 -129t-95 -91.5t-134.5 -33.5q-75 0 -136 33.5t-95.5 91.5t-34.5 129t34.5 129t95.5 91.5t136 33.5q74 0 134.5 -33.5zM404 319.5q50 27.5 78.5 76.5t28.5 110t-28.5 109.5t-78.5 76.5t-113 28t-113 -28t-78.5 -76.5
t-28.5 -109.5t28.5 -110t78.5 -76.5t113 -27.5t113 27.5zM394 511.5q-13 -21.5 -35 -33.5l63 -125h-69l-56 113h-55v-113h-62v306h126q44 0 72.5 -25.5t28.5 -70.5q0 -30 -13 -51.5zM242 608v-91h52q22 0 35.5 11t13.5 35q0 23 -13.5 34t-35.5 11h-52z" />
    <glyph glyph-name="macron" unicode="&#xaf;" horiz-adv-x="298" 
d="M-1 712h299v-81h-299v81z" />
    <glyph glyph-name="degree" unicode="&#xb0;" horiz-adv-x="354" 
d="M68 490.5q-42 43.5 -42 111.5q0 69 42 112t109 43t109.5 -43t42.5 -112q0 -68 -42.5 -111.5t-109.5 -43.5t-109 43.5zM230.5 540q20.5 24 20.5 62t-20.5 62t-53.5 24q-34 0 -54 -24t-20 -62t20.5 -62t53.5 -24t53.5 24z" />
    <glyph glyph-name="plusminus" unicode="&#xb1;" horiz-adv-x="541" 
d="M216 714h109v-188h187v-102h-187v-192h-109v192h-187v102h187v188zM29 174h483v-105h-483v105z" />
    <glyph glyph-name="two.numr" unicode="&#xb2;" horiz-adv-x="310" 
d="M251.5 703q33.5 -35 33.5 -93q0 -41 -17.5 -75t-51.5 -71l-62 -66h134v-77h-264v60l129 137q23 24 34 45t11 48q0 23 -11 36.5t-32 13.5q-23 0 -35.5 -14.5t-12.5 -41.5l-85 5q1 60 36 94t95 34q65 0 98.5 -35z" />
    <glyph glyph-name="three.numr" unicode="&#xb3;" horiz-adv-x="320" 
d="M252 706.5q34 -31.5 34 -87.5q0 -31 -14 -52.5t-38 -32.5q26 -9 42.5 -33t16.5 -59q0 -59 -37.5 -93t-98.5 -34q-64 0 -99 33.5t-37 91.5l87 6q2 -25 14.5 -39t34.5 -14q23 0 36 13.5t13 37.5q0 25 -14.5 37.5t-39.5 12.5h-42v74h41q21 0 35.5 12.5t14.5 34.5t-12 34
t-32 12q-21 0 -32.5 -13t-12.5 -37l-85 5q1 58 34.5 90t95.5 32q61 0 95 -31.5z" />
    <glyph glyph-name="acute" unicode="&#xb4;" horiz-adv-x="244" 
d="M106 787h127l-134 -191h-88z" />
    <glyph glyph-name="paragraph" unicode="&#xb6;" horiz-adv-x="680" 
d="M664 748v-84h-69v-731h-88v731h-115v-731h-87v441h-59q-95 0 -152 48.5t-57 139.5q0 90 57 138t152 48h418z" />
    <glyph glyph-name="periodcentered" unicode="&#xb7;" horiz-adv-x="232" 
d="M166.5 359q21.5 -21 21.5 -52q0 -29 -21.5 -50t-51.5 -21q-29 0 -50 21t-21 50q0 31 21 52t50 21q30 0 51.5 -21z" />
    <glyph glyph-name="cedilla" unicode="&#xb8;" horiz-adv-x="268" 
d="M141 -40q48 -6 78 -31t30 -68q0 -53 -39 -81t-96 -28q-55 0 -95 19l19 68q26 -17 66 -17q25 0 43 9.5t18 30.5q0 42 -68 42q-14 0 -34 -4l35 120h58z" />
    <glyph glyph-name="one.numr" unicode="&#xb9;" horiz-adv-x="222" 
d="M129 733h55v-411h-87v297l-62 -47l-35 72z" />
    <glyph glyph-name="ordmasculine" unicode="&#xba;" horiz-adv-x="503" 
d="M362 729.5q49 -26.5 77 -75t28 -112.5t-28 -112t-77 -74.5t-111 -26.5t-111 26.5t-77 74.5t-28 112t28 112.5t77 75t111 26.5t111 -26.5zM169 635.5q-32 -34.5 -32 -93.5t31.5 -93t82.5 -34t83.5 34t32.5 93t-32.5 93.5t-83.5 34.5q-50 0 -82 -34.5z" />
    <glyph glyph-name="guillemotright" unicode="&#xbb;" horiz-adv-x="574" 
d="M28 436l89 56l172 -226l-172 -227l-89 56l135 171zM285 436l89 56l172 -226l-172 -227l-89 56l135 171z" />
    <glyph glyph-name="onequarter" unicode="&#xbc;" horiz-adv-x="718" 
d="M129 733h55v-411h-87v297l-62 -47l-35 72zM551 748h95l-518 -748h-95zM565 411h83v-255h55v-78h-55v-78h-87v78h-172v68zM562 156v137l-96 -137h96z" />
    <glyph glyph-name="onehalf" unicode="&#xbd;" horiz-adv-x="740" 
d="M129 733h55v-411h-87v297l-62 -47l-35 72zM551 748h95l-518 -748h-95zM681.5 382q33.5 -35 33.5 -93q0 -41 -17.5 -75t-51.5 -71l-62 -66h134v-77h-264v60l129 137q23 24 34 45t11 48q0 23 -11 36.5t-32 13.5q-23 0 -35.5 -14.5t-12.5 -41.5l-85 5q1 60 36 94t95 34
q65 0 98.5 -35z" />
    <glyph glyph-name="threequarters" unicode="&#xbe;" horiz-adv-x="804" 
d="M252 706.5q34 -31.5 34 -87.5q0 -31 -14 -52.5t-38 -32.5q26 -9 42.5 -33t16.5 -59q0 -59 -37.5 -93t-98.5 -34q-64 0 -99 33.5t-37 91.5l87 6q2 -25 14.5 -39t34.5 -14q23 0 36 13.5t13 37.5q0 25 -14.5 37.5t-39.5 12.5h-42v74h41q21 0 35.5 12.5t14.5 34.5t-12 34
t-32 12q-21 0 -32.5 -13t-12.5 -37l-85 5q1 58 34.5 90t95.5 32q61 0 95 -31.5zM637 748h95l-518 -748h-95zM651 411h83v-255h55v-78h-55v-78h-87v78h-172v68zM648 156v137l-96 -137h96z" />
    <glyph glyph-name="questiondown" unicode="&#xbf;" horiz-adv-x="550" 
d="M226.5 399q-21.5 21 -21.5 52q0 29 21.5 50t51.5 21q29 0 50 -21t21 -50q0 -31 -21 -52t-50 -21q-30 0 -51.5 21zM147 -219.5q-54 27.5 -83 77.5t-29 115q0 59 26 96t77 76q42 32 60.5 59t18.5 65v29h119v-34q0 -47 -23.5 -83t-72.5 -76q-42 -33 -62.5 -61.5t-20.5 -68.5
q0 -53 31 -85t86 -32t86.5 30.5t36.5 85.5l119 -8q-5 -98 -70.5 -155.5t-171.5 -57.5q-73 0 -127 27.5z" />
    <glyph glyph-name="Agrave" unicode="&#xc0;" horiz-adv-x="753" 
d="M325 748h101l317 -748h-130l-68 167h-338l-69 -167h-129zM500 273l-123 301l-124 -301h247zM125 954h165l139 -147h-114z" />
    <glyph glyph-name="Aacute" unicode="&#xc1;" horiz-adv-x="753" 
d="M325 748h101l317 -748h-130l-68 167h-338l-69 -167h-129zM500 273l-123 301l-124 -301h247zM458 952h165l-190 -147h-114z" />
    <glyph glyph-name="Acircumflex" unicode="&#xc2;" horiz-adv-x="753" 
d="M325 748h101l317 -748h-130l-68 167h-338l-69 -167h-129zM500 273l-123 301l-124 -301h247zM323 955h108l118 -150h-96l-76 84l-77 -84h-95z" />
    <glyph glyph-name="Atilde" unicode="&#xc3;" horiz-adv-x="753" 
d="M325 748h101l317 -748h-130l-68 167h-338l-69 -167h-129zM500 273l-123 301l-124 -301h247zM341.5 948q16.5 -8 40.5 -24q17 -13 29.5 -19.5t26.5 -6.5q22 0 33.5 14t12.5 37h64q4 -55 -23.5 -95t-74.5 -40q-22 0 -38.5 8t-40.5 24q-17 13 -29.5 19t-26.5 6
q-22 0 -33.5 -13.5t-11.5 -36.5h-65q-4 55 23.5 95t74.5 40q22 0 38.5 -8z" />
    <glyph glyph-name="Adieresis" unicode="&#xc4;" horiz-adv-x="753" 
d="M325 748h101l317 -748h-130l-68 167h-338l-69 -167h-129zM500 273l-123 301l-124 -301h247zM330.5 932q19.5 -19 19.5 -47t-19.5 -47t-47.5 -19q-29 0 -48 19t-19 47t19.5 47t47.5 19t47.5 -19zM518.5 932q19.5 -19 19.5 -47t-19 -47t-48 -19q-28 0 -47.5 19t-19.5 47
t19.5 47t47.5 19t47.5 -19z" />
    <glyph glyph-name="Aring" unicode="&#xc5;" horiz-adv-x="753" 
d="M325 748h101l317 -748h-130l-68 167h-338l-69 -167h-129zM500 273l-123 301l-124 -301h247zM453 978q31 -29 31 -73t-31 -73t-76 -29q-46 0 -77.5 29t-31.5 73t31.5 73t77.5 29q45 0 76 -29zM340.5 940q-13.5 -13 -13.5 -35q0 -21 14 -34.5t36 -13.5q21 0 34.5 13.5
t13.5 34.5q0 22 -13.5 35t-34.5 13q-23 0 -36.5 -13z" />
    <glyph glyph-name="AE" unicode="&#xc6;" horiz-adv-x="1032" 
d="M989 748v-105h-351v-206h307v-103h-307v-228h351v-106h-470v167h-263l-108 -167h-144l501 748h484zM519 566l-193 -293h193v293z" />
    <glyph glyph-name="Ccedilla" unicode="&#xc7;" horiz-adv-x="808" 
d="M766 264q-22 -122 -109 -194t-213 -79l-9 -36q48 -6 78 -31t30 -68q0 -53 -39 -81t-96 -28q-55 0 -95 19l19 68q26 -17 66 -17q25 0 43 9.5t18 30.5q0 42 -68 42q-14 0 -34 -4l28 96q-98 8 -174.5 56t-120 132t-43.5 195q0 117 48.5 204t133 133.5t190.5 46.5
q89 0 163.5 -34t122.5 -97.5t60 -149.5l-122 -11q-15 88 -76.5 137t-150.5 49q-71 0 -127.5 -33.5t-88.5 -96.5t-32 -148q0 -86 32 -149t88.5 -96t127.5 -33q89 0 149.5 46.5t77.5 131.5z" />
    <glyph glyph-name="Egrave" unicode="&#xc8;" horiz-adv-x="594" 
d="M81 748h470v-105h-351v-206h307v-103h-307v-228h351v-106h-470v748zM68 954h165l139 -147h-114z" />
    <glyph glyph-name="Eacute" unicode="&#xc9;" horiz-adv-x="594" 
d="M81 748h470v-105h-351v-206h307v-103h-307v-228h351v-106h-470v748zM401 952h165l-190 -147h-114z" />
    <glyph glyph-name="Ecircumflex" unicode="&#xca;" horiz-adv-x="594" 
d="M81 748h470v-105h-351v-206h307v-103h-307v-228h351v-106h-470v748zM266 955h108l118 -150h-96l-76 84l-77 -84h-95z" />
    <glyph glyph-name="Edieresis" unicode="&#xcb;" horiz-adv-x="594" 
d="M81 748h470v-105h-351v-206h307v-103h-307v-228h351v-106h-470v748zM273.5 932q19.5 -19 19.5 -47t-19.5 -47t-47.5 -19q-29 0 -48 19t-19 47t19.5 47t47.5 19t47.5 -19zM461.5 932q19.5 -19 19.5 -47t-19 -47t-48 -19q-28 0 -47.5 19t-19.5 47t19.5 47t47.5 19t47.5 -19
z" />
    <glyph glyph-name="Igrave" unicode="&#xcc;" horiz-adv-x="280" 
d="M81 748h119v-748h-119v748zM-108 954h165l139 -147h-114z" />
    <glyph glyph-name="Iacute" unicode="&#xcd;" horiz-adv-x="280" 
d="M81 748h119v-748h-119v748zM225 952h165l-190 -147h-114z" />
    <glyph glyph-name="Icircumflex" unicode="&#xce;" horiz-adv-x="280" 
d="M81 748h119v-748h-119v748zM90 955h108l118 -150h-96l-76 84l-77 -84h-95z" />
    <glyph glyph-name="Idieresis" unicode="&#xcf;" horiz-adv-x="280" 
d="M103 927.5q19 -18.5 19 -44.5q0 -27 -19 -45.5t-45 -18.5q-27 0 -45.5 18.5t-18.5 45.5q0 26 18.5 44.5t45.5 18.5q26 0 45 -18.5zM277.5 927.5q18.5 -18.5 18.5 -44.5q0 -27 -18.5 -45.5t-45.5 -18.5q-26 0 -45 18.5t-19 45.5q0 26 19 44.5t45 18.5q27 0 45.5 -18.5z
M81 748h119v-748h-119v748z" />
    <glyph glyph-name="Eth" unicode="&#xd0;" horiz-adv-x="821" 
d="M409 748q105 0 188 -44.5t130 -129.5t47 -200t-47.5 -200t-131 -129.5t-188.5 -44.5h-297v328h-98v91h98v329h299zM408 102q112 0 179.5 70.5t67.5 201.5t-67 201.5t-179 70.5h-181v-227h132v-91h-132v-226h180z" />
    <glyph glyph-name="Ntilde" unicode="&#xd1;" horiz-adv-x="750" 
d="M551 748h119v-748h-101l-369 528v-528h-119v748h100l370 -529v529zM335.5 948q16.5 -8 40.5 -24q17 -13 29.5 -19.5t26.5 -6.5q22 0 33.5 14t12.5 37h64q4 -55 -23.5 -95t-74.5 -40q-22 0 -38.5 8t-40.5 24q-17 13 -29.5 19t-26.5 6q-22 0 -33.5 -13.5t-11.5 -36.5h-65
q-4 55 23.5 95t74.5 40q22 0 38.5 -8z" />
    <glyph glyph-name="Ograve" unicode="&#xd2;" horiz-adv-x="850" 
d="M619 711q86 -47 135 -134t49 -203t-49 -203t-135 -134t-194 -47t-194 47t-135 134t-49 203t49 203t135 134t194 47t194 -47zM292.5 618.5q-58.5 -33.5 -91.5 -96t-33 -148.5t33 -148.5t91.5 -96t132.5 -33.5t132.5 33.5t91.5 96t33 148.5t-33 148.5t-91.5 96t-132.5 33.5
t-132.5 -33.5zM170 954h165l139 -147h-114z" />
    <glyph glyph-name="Oacute" unicode="&#xd3;" horiz-adv-x="850" 
d="M619 711q86 -47 135 -134t49 -203t-49 -203t-135 -134t-194 -47t-194 47t-135 134t-49 203t49 203t135 134t194 47t194 -47zM292.5 618.5q-58.5 -33.5 -91.5 -96t-33 -148.5t33 -148.5t91.5 -96t132.5 -33.5t132.5 33.5t91.5 96t33 148.5t-33 148.5t-91.5 96t-132.5 33.5
t-132.5 -33.5zM503 952h165l-190 -147h-114z" />
    <glyph glyph-name="Ocircumflex" unicode="&#xd4;" horiz-adv-x="850" 
d="M619 711q86 -47 135 -134t49 -203t-49 -203t-135 -134t-194 -47t-194 47t-135 134t-49 203t49 203t135 134t194 47t194 -47zM292.5 618.5q-58.5 -33.5 -91.5 -96t-33 -148.5t33 -148.5t91.5 -96t132.5 -33.5t132.5 33.5t91.5 96t33 148.5t-33 148.5t-91.5 96t-132.5 33.5
t-132.5 -33.5zM368 955h108l118 -150h-96l-76 84l-77 -84h-95z" />
    <glyph glyph-name="Otilde" unicode="&#xd5;" horiz-adv-x="850" 
d="M619 711q86 -47 135 -134t49 -203t-49 -203t-135 -134t-194 -47t-194 47t-135 134t-49 203t49 203t135 134t194 47t194 -47zM292.5 618.5q-58.5 -33.5 -91.5 -96t-33 -148.5t33 -148.5t91.5 -96t132.5 -33.5t132.5 33.5t91.5 96t33 148.5t-33 148.5t-91.5 96t-132.5 33.5
t-132.5 -33.5zM386.5 948q16.5 -8 40.5 -24q17 -13 29.5 -19.5t26.5 -6.5q22 0 33.5 14t12.5 37h64q4 -55 -23.5 -95t-74.5 -40q-22 0 -38.5 8t-40.5 24q-17 13 -29.5 19t-26.5 6q-22 0 -33.5 -13.5t-11.5 -36.5h-65q-4 55 23.5 95t74.5 40q22 0 38.5 -8z" />
    <glyph glyph-name="Odieresis" unicode="&#xd6;" horiz-adv-x="850" 
d="M619 711q86 -47 135 -134t49 -203t-49 -203t-135 -134t-194 -47t-194 47t-135 134t-49 203t49 203t135 134t194 47t194 -47zM292.5 618.5q-58.5 -33.5 -91.5 -96t-33 -148.5t33 -148.5t91.5 -96t132.5 -33.5t132.5 33.5t91.5 96t33 148.5t-33 148.5t-91.5 96t-132.5 33.5
t-132.5 -33.5zM375.5 932q19.5 -19 19.5 -47t-19.5 -47t-47.5 -19q-29 0 -48 19t-19 47t19.5 47t47.5 19t47.5 -19zM563.5 932q19.5 -19 19.5 -47t-19 -47t-48 -19q-28 0 -47.5 19t-19.5 47t19.5 47t47.5 19t47.5 -19z" />
    <glyph glyph-name="multiply" unicode="&#xd7;" horiz-adv-x="529" 
d="M264 444l144 144l75 -75l-144 -143l145 -145l-74 -75l-146 145l-146 -146l-74 75l146 146l-145 145l74 75z" />
    <glyph glyph-name="Oslash" unicode="&#xd8;" horiz-adv-x="850" 
d="M696 654q51 -51 79 -122t28 -158q0 -116 -49 -203t-135 -134t-194 -47q-113 0 -199 50l-62 -81l-73 55l62 81q-51 51 -78.5 122t-27.5 157q0 116 49 203t135 134t194 47q111 0 198 -49l63 82l73 -55zM225 188l330 432q-56 32 -130 32t-132.5 -33.5t-91.5 -96t-33 -148.5
q0 -112 57 -186zM557.5 129.5q58.5 33.5 91.5 96t33 148.5q0 113 -57 187l-331 -432q57 -33 131 -33t132.5 33.5z" />
    <glyph glyph-name="Ugrave" unicode="&#xd9;" horiz-adv-x="764" 
d="M689 291q0 -143 -82 -222t-225 -79t-225 79t-82 222v457h119v-455q0 -97 48.5 -147t139.5 -50q90 0 139 50.5t49 146.5v455h119v-457zM130 954h165l139 -147h-114z" />
    <glyph glyph-name="Uacute" unicode="&#xda;" horiz-adv-x="764" 
d="M689 291q0 -143 -82 -222t-225 -79t-225 79t-82 222v457h119v-455q0 -97 48.5 -147t139.5 -50q90 0 139 50.5t49 146.5v455h119v-457zM463 952h165l-190 -147h-114z" />
    <glyph glyph-name="Ucircumflex" unicode="&#xdb;" horiz-adv-x="764" 
d="M689 291q0 -143 -82 -222t-225 -79t-225 79t-82 222v457h119v-455q0 -97 48.5 -147t139.5 -50q90 0 139 50.5t49 146.5v455h119v-457zM328 955h108l118 -150h-96l-76 84l-77 -84h-95z" />
    <glyph glyph-name="Udieresis" unicode="&#xdc;" horiz-adv-x="764" 
d="M689 291q0 -143 -82 -222t-225 -79t-225 79t-82 222v457h119v-455q0 -97 48.5 -147t139.5 -50q90 0 139 50.5t49 146.5v455h119v-457zM335.5 932q19.5 -19 19.5 -47t-19.5 -47t-47.5 -19q-29 0 -48 19t-19 47t19.5 47t47.5 19t47.5 -19zM523.5 932q19.5 -19 19.5 -47
t-19 -47t-48 -19q-28 0 -47.5 19t-19.5 47t19.5 47t47.5 19t47.5 -19z" />
    <glyph glyph-name="Yacute" unicode="&#xdd;" horiz-adv-x="709" 
d="M559 748h138l-283 -447v-301h-118v301l-284 447h138l205 -329zM436 952h165l-190 -147h-114z" />
    <glyph glyph-name="Thorn" unicode="&#xde;" horiz-adv-x="638" 
d="M200 748v-100h173q68 0 121.5 -27t83.5 -79t30 -125t-30 -125t-83.5 -79.5t-121.5 -27.5h-173v-185h-119v748h119zM199 542v-251h159q56 0 92 33t36 93t-36 92.5t-92 32.5h-159z" />
    <glyph glyph-name="germandbls" unicode="&#xdf;" horiz-adv-x="639" 
d="M459 739q60 -46 60 -121q0 -39 -14.5 -65t-40.5 -54q-18 -20 -26 -32.5t-8 -27.5q0 -18 13.5 -32.5t42.5 -33.5q34 -24 56 -44.5t38 -55t16 -82.5q0 -95 -62 -147t-160 -52q-59 0 -104 18l22 90q37 -14 72 -14q52 0 85 28.5t33 78.5q0 32 -18.5 54t-56.5 52
q-44 33 -67.5 62.5t-23.5 75.5q0 36 14 58t40 47q18 17 26.5 29t8.5 27q0 43 -27.5 67t-77.5 24q-51 0 -81.5 -29.5t-30.5 -80.5v-579h-112v582q0 60 27.5 106t78 71.5t116.5 25.5q101 0 161 -46z" />
    <glyph glyph-name="agrave" unicode="&#xe0;" horiz-adv-x="542" 
d="M416 469.5q53 -52.5 53 -150.5v-319h-113v46q-59 -56 -139 -56q-78 0 -124.5 39.5t-46.5 110.5q0 144 188 155l122 7v15q0 51 -22.5 79t-68.5 28q-45 0 -68.5 -25t-23.5 -62l-113 4q0 46 25 87.5t71.5 67.5t107.5 26q99 0 152 -52.5zM250 208q-91 -5 -91 -66
q0 -58 77 -58q56 0 88.5 28.5t32.5 84.5v18zM94 787h128l94 -191h-88z" />
    <glyph glyph-name="aacute" unicode="&#xe1;" horiz-adv-x="542" 
d="M416 469.5q53 -52.5 53 -150.5v-319h-113v46q-59 -56 -139 -56q-78 0 -124.5 39.5t-46.5 110.5q0 144 188 155l122 7v15q0 51 -22.5 79t-68.5 28q-45 0 -68.5 -25t-23.5 -62l-113 4q0 46 25 87.5t71.5 67.5t107.5 26q99 0 152 -52.5zM250 208q-91 -5 -91 -66
q0 -58 77 -58q56 0 88.5 28.5t32.5 84.5v18zM324 787h127l-134 -191h-88z" />
    <glyph glyph-name="acircumflex" unicode="&#xe2;" horiz-adv-x="542" 
d="M416 469.5q53 -52.5 53 -150.5v-319h-113v46q-59 -56 -139 -56q-78 0 -124.5 39.5t-46.5 110.5q0 144 188 155l122 7v15q0 51 -22.5 79t-68.5 28q-45 0 -68.5 -25t-23.5 -62l-113 4q0 46 25 87.5t71.5 67.5t107.5 26q99 0 152 -52.5zM250 208q-91 -5 -91 -66
q0 -58 77 -58q56 0 88.5 28.5t32.5 84.5v18zM221 770h108l119 -173h-95l-78 98l-77 -98h-95z" />
    <glyph glyph-name="atilde" unicode="&#xe3;" horiz-adv-x="542" 
d="M416 469.5q53 -52.5 53 -150.5v-319h-113v46q-59 -56 -139 -56q-78 0 -124.5 39.5t-46.5 110.5q0 144 188 155l122 7v15q0 51 -22.5 79t-68.5 28q-45 0 -68.5 -25t-23.5 -62l-113 4q0 46 25 87.5t71.5 67.5t107.5 26q99 0 152 -52.5zM250 208q-91 -5 -91 -66
q0 -58 77 -58q56 0 88.5 28.5t32.5 84.5v18zM238.5 739q16.5 -8 40.5 -24q17 -13 29.5 -19.5t26.5 -6.5q22 0 33.5 13.5t12.5 37.5h64q4 -55 -23.5 -95.5t-74.5 -40.5q-22 0 -38.5 8t-40.5 24q-17 13 -29.5 19.5t-26.5 6.5q-22 0 -33.5 -14t-11.5 -37h-65q-4 56 23.5 96
t74.5 40q22 0 38.5 -8z" />
    <glyph glyph-name="adieresis" unicode="&#xe4;" horiz-adv-x="542" 
d="M416 469.5q53 -52.5 53 -150.5v-319h-113v46q-59 -56 -139 -56q-78 0 -124.5 39.5t-46.5 110.5q0 144 188 155l122 7v15q0 51 -22.5 79t-68.5 28q-45 0 -68.5 -25t-23.5 -62l-113 4q0 46 25 87.5t71.5 67.5t107.5 26q99 0 152 -52.5zM250 208q-91 -5 -91 -66
q0 -58 77 -58q56 0 88.5 28.5t32.5 84.5v18zM226.5 738q19.5 -19 19.5 -47t-19.5 -47t-47.5 -19q-29 0 -48 19t-19 47t19.5 47t47.5 19t47.5 -19zM414.5 738q19.5 -19 19.5 -47t-19 -47t-48 -19q-28 0 -47.5 19t-19.5 47t19.5 47t47.5 19t47.5 -19z" />
    <glyph glyph-name="aring" unicode="&#xe5;" horiz-adv-x="542" 
d="M416 469.5q53 -52.5 53 -150.5v-319h-113v46q-59 -56 -139 -56q-78 0 -124.5 39.5t-46.5 110.5q0 144 188 155l122 7v15q0 51 -22.5 79t-68.5 28q-45 0 -68.5 -25t-23.5 -62l-113 4q0 46 25 87.5t71.5 67.5t107.5 26q99 0 152 -52.5zM250 208q-91 -5 -91 -66
q0 -58 77 -58q56 0 88.5 28.5t32.5 84.5v18zM361 777q35 -32 35 -81t-35 -81.5t-86 -32.5t-86.5 32.5t-35.5 81.5t35 81t87 32q51 0 86 -32zM235.5 733q-14.5 -14 -14.5 -37t14.5 -37t39.5 -14q23 0 38 14t15 37q0 22 -15 36.5t-38 14.5q-25 0 -39.5 -14z" />
    <glyph glyph-name="ae" unicode="&#xe6;" horiz-adv-x="866" 
d="M820 214l-369 -1q4 -58 40.5 -92t92.5 -34q46 0 77 19t41 54l113 -6q-10 -46 -42 -83t-80 -59t-105 -22q-59 0 -107.5 20.5t-82.5 59.5q-31 -38 -76.5 -59t-104.5 -21q-78 0 -124.5 40.5t-46.5 111.5q0 145 194 154l108 5v16q0 51 -21.5 80t-65.5 29q-43 0 -65.5 -25.5
t-22.5 -63.5l-113 4q0 46 24 87.5t69.5 67.5t105.5 26q101 0 151 -65q33 32 78 48.5t97 16.5q108 0 171.5 -68t63.5 -185v-55zM491 393.5q-36 -32.5 -40 -92.5l256 1q-2 57 -34 90.5t-90 33.5q-56 0 -92 -32.5zM349 213l-94 -5q-49 -2 -72.5 -16.5t-23.5 -47.5
q0 -31 19.5 -45.5t53.5 -14.5q51 0 84 26.5t33 86.5v16z" />
    <glyph glyph-name="ccedilla" unicode="&#xe7;" horiz-adv-x="578" 
d="M540 179q-14 -84 -74 -134.5t-149 -54.5l-9 -34q48 -6 78 -31t30 -68q0 -53 -39 -81t-96 -28q-55 0 -95 19l19 68q26 -17 66 -17q25 0 43 9.5t18 30.5q0 42 -68 42q-14 0 -34 -4l28 97q-95 14 -153.5 83.5t-58.5 179.5q0 83 33 143t91.5 91.5t132.5 31.5q94 0 158.5 -52
t77.5 -142l-110 -10q-6 50 -40.5 79t-85.5 29q-64 0 -103.5 -45t-39.5 -125q0 -79 40 -124t103 -45q52 0 85.5 27t41.5 75z" />
    <glyph glyph-name="egrave" unicode="&#xe8;" 
d="M542 214h-377q4 -58 41 -92.5t96 -34.5q48 0 79.5 19t42.5 54l113 -6q-10 -46 -42.5 -83t-82 -59t-107.5 -22q-76 0 -134.5 32t-91.5 92.5t-33 141.5q0 82 32.5 142t90.5 92t133 32q73 0 127 -30.5t83.5 -88t29.5 -134.5v-55zM206.5 393.5q-36.5 -32.5 -40.5 -91.5h263
q-2 57 -34.5 90.5t-93.5 33.5q-58 0 -94.5 -32.5zM119 787h128l94 -191h-88z" />
    <glyph glyph-name="eacute" unicode="&#xe9;" 
d="M542 214h-377q4 -58 41 -92.5t96 -34.5q48 0 79.5 19t42.5 54l113 -6q-10 -46 -42.5 -83t-82 -59t-107.5 -22q-76 0 -134.5 32t-91.5 92.5t-33 141.5q0 82 32.5 142t90.5 92t133 32q73 0 127 -30.5t83.5 -88t29.5 -134.5v-55zM206.5 393.5q-36.5 -32.5 -40.5 -91.5h263
q-2 57 -34.5 90.5t-93.5 33.5q-58 0 -94.5 -32.5zM349 787h127l-134 -191h-88z" />
    <glyph glyph-name="ecircumflex" unicode="&#xea;" 
d="M542 214h-377q4 -58 41 -92.5t96 -34.5q48 0 79.5 19t42.5 54l113 -6q-10 -46 -42.5 -83t-82 -59t-107.5 -22q-76 0 -134.5 32t-91.5 92.5t-33 141.5q0 82 32.5 142t90.5 92t133 32q73 0 127 -30.5t83.5 -88t29.5 -134.5v-55zM206.5 393.5q-36.5 -32.5 -40.5 -91.5h263
q-2 57 -34.5 90.5t-93.5 33.5q-58 0 -94.5 -32.5zM246 770h108l119 -173h-95l-78 98l-77 -98h-95z" />
    <glyph glyph-name="edieresis" unicode="&#xeb;" 
d="M542 214h-377q4 -58 41 -92.5t96 -34.5q48 0 79.5 19t42.5 54l113 -6q-10 -46 -42.5 -83t-82 -59t-107.5 -22q-76 0 -134.5 32t-91.5 92.5t-33 141.5q0 82 32.5 142t90.5 92t133 32q73 0 127 -30.5t83.5 -88t29.5 -134.5v-55zM206.5 393.5q-36.5 -32.5 -40.5 -91.5h263
q-2 57 -34.5 90.5t-93.5 33.5q-58 0 -94.5 -32.5zM251.5 738q19.5 -19 19.5 -47t-19.5 -47t-47.5 -19q-29 0 -48 19t-19 47t19.5 47t47.5 19t47.5 -19zM439.5 738q19.5 -19 19.5 -47t-19 -47t-48 -19q-28 0 -47.5 19t-19.5 47t19.5 47t47.5 19t47.5 -19z" />
    <glyph glyph-name="igrave" unicode="&#xec;" horiz-adv-x="268" 
d="M78 513h112v-513h-112v513zM-44 787h128l94 -191h-88z" />
    <glyph glyph-name="iacute" unicode="&#xed;" horiz-adv-x="268" 
d="M78 513h112v-513h-112v513zM186 787h127l-134 -191h-88z" />
    <glyph glyph-name="icircumflex" unicode="&#xee;" horiz-adv-x="268" 
d="M78 513h112v-513h-112v513zM83 770h108l119 -173h-95l-78 98l-77 -98h-95z" />
    <glyph glyph-name="idieresis" unicode="&#xef;" horiz-adv-x="268" 
d="M95 735.5q19 -18.5 19 -44.5q0 -27 -18.5 -45t-45.5 -18t-45.5 18t-18.5 45q0 26 18.5 44.5t45.5 18.5q26 0 45 -18.5zM265.5 735.5q18.5 -18.5 18.5 -44.5q0 -27 -18.5 -45t-45.5 -18t-45.5 18t-18.5 45q0 26 19 44.5t45 18.5q27 0 45.5 -18.5zM78 513h112v-513h-112
v513z" />
    <glyph glyph-name="eth" unicode="&#xf0;" horiz-adv-x="618" 
d="M423 678q71 -63 108 -157.5t37 -207.5q0 -165 -71 -244t-193 -79q-71 0 -130 30.5t-93.5 89t-34.5 137.5q0 77 34.5 136t93.5 90.5t129 31.5q69 0 127 -33q-28 91 -83 141l-82 -70l-51 51l70 60q-58 27 -147 30v93q131 0 226 -56l90 76l52 -49zM416.5 131
q41.5 44 41.5 117t-40.5 116t-109.5 43q-67 0 -109.5 -43.5t-42.5 -116.5q0 -74 42.5 -117t109.5 -43t108.5 44z" />
    <glyph glyph-name="ntilde" unicode="&#xf1;" horiz-adv-x="607" 
d="M438 496.5q45 -25.5 70.5 -74t25.5 -113.5v-309h-113v294q0 57 -30.5 90.5t-81.5 33.5q-53 0 -86 -35.5t-33 -89.5v-293h-112v513h106v-68q21 36 58.5 56.5t91.5 20.5q59 0 104 -25.5zM277.5 739q16.5 -8 40.5 -24q17 -13 29.5 -19.5t26.5 -6.5q22 0 33.5 13.5t12.5 37.5
h64q4 -55 -23.5 -95.5t-74.5 -40.5q-22 0 -38.5 8t-40.5 24q-17 13 -29.5 19.5t-26.5 6.5q-22 0 -33.5 -14t-11.5 -37h-65q-4 56 23.5 96t74.5 40q22 0 38.5 -8z" />
    <glyph glyph-name="ograve" unicode="&#xf2;" horiz-adv-x="628" 
d="M451 489.5q61 -32.5 95.5 -93t34.5 -140.5q0 -79 -35 -139.5t-95.5 -93.5t-136.5 -33t-137 33t-96 93.5t-35 139.5q0 80 35 140.5t96 93t137 32.5t137 -32.5zM203 380.5q-43 -45.5 -43 -124.5q0 -78 43 -123.5t111 -45.5t111 45.5t43 123.5q0 79 -43 124.5t-111 45.5
t-111 -45.5zM132 787h128l94 -191h-88z" />
    <glyph glyph-name="oacute" unicode="&#xf3;" horiz-adv-x="628" 
d="M451 489.5q61 -32.5 95.5 -93t34.5 -140.5q0 -79 -35 -139.5t-95.5 -93.5t-136.5 -33t-137 33t-96 93.5t-35 139.5q0 80 35 140.5t96 93t137 32.5t137 -32.5zM203 380.5q-43 -45.5 -43 -124.5q0 -78 43 -123.5t111 -45.5t111 45.5t43 123.5q0 79 -43 124.5t-111 45.5
t-111 -45.5zM362 787h127l-134 -191h-88z" />
    <glyph glyph-name="ocircumflex" unicode="&#xf4;" horiz-adv-x="628" 
d="M451 489.5q61 -32.5 95.5 -93t34.5 -140.5q0 -79 -35 -139.5t-95.5 -93.5t-136.5 -33t-137 33t-96 93.5t-35 139.5q0 80 35 140.5t96 93t137 32.5t137 -32.5zM203 380.5q-43 -45.5 -43 -124.5q0 -78 43 -123.5t111 -45.5t111 45.5t43 123.5q0 79 -43 124.5t-111 45.5
t-111 -45.5zM259 770h108l119 -173h-95l-78 98l-77 -98h-95z" />
    <glyph glyph-name="otilde" unicode="&#xf5;" horiz-adv-x="628" 
d="M451 489.5q61 -32.5 95.5 -93t34.5 -140.5q0 -79 -35 -139.5t-95.5 -93.5t-136.5 -33t-137 33t-96 93.5t-35 139.5q0 80 35 140.5t96 93t137 32.5t137 -32.5zM203 380.5q-43 -45.5 -43 -124.5q0 -78 43 -123.5t111 -45.5t111 45.5t43 123.5q0 79 -43 124.5t-111 45.5
t-111 -45.5zM276.5 739q16.5 -8 40.5 -24q17 -13 29.5 -19.5t26.5 -6.5q22 0 33.5 13.5t12.5 37.5h64q4 -55 -23.5 -95.5t-74.5 -40.5q-22 0 -38.5 8t-40.5 24q-17 13 -29.5 19.5t-26.5 6.5q-22 0 -33.5 -14t-11.5 -37h-65q-4 56 23.5 96t74.5 40q22 0 38.5 -8z" />
    <glyph glyph-name="odieresis" unicode="&#xf6;" horiz-adv-x="628" 
d="M451 489.5q61 -32.5 95.5 -93t34.5 -140.5q0 -79 -35 -139.5t-95.5 -93.5t-136.5 -33t-137 33t-96 93.5t-35 139.5q0 80 35 140.5t96 93t137 32.5t137 -32.5zM203 380.5q-43 -45.5 -43 -124.5q0 -78 43 -123.5t111 -45.5t111 45.5t43 123.5q0 79 -43 124.5t-111 45.5
t-111 -45.5zM264.5 738q19.5 -19 19.5 -47t-19.5 -47t-47.5 -19q-29 0 -48 19t-19 47t19.5 47t47.5 19t47.5 -19zM452.5 738q19.5 -19 19.5 -47t-19 -47t-48 -19q-28 0 -47.5 19t-19.5 47t19.5 47t47.5 19t47.5 -19z" />
    <glyph glyph-name="divide" unicode="&#xf7;" horiz-adv-x="541" 
d="M321.5 647q21.5 -21 21.5 -51t-21.5 -50.5t-51.5 -20.5q-29 0 -50 20.5t-21 50.5t21 51t50 21q30 0 51.5 -21zM29 424h483v-106h-483v106zM321.5 196q21.5 -21 21.5 -51q0 -29 -21.5 -50.5t-51.5 -21.5q-29 0 -50 21.5t-21 50.5q0 30 21 51t50 21q30 0 51.5 -21z" />
    <glyph glyph-name="oslash" unicode="&#xf8;" horiz-adv-x="628" 
d="M508 447q35 -35 54 -84t19 -107q0 -79 -35 -139.5t-95.5 -93.5t-136.5 -33q-71 0 -129 29l-44 -58l-62 46l43 56q-37 36 -56.5 85t-19.5 108q0 80 35 140.5t96 93t137 32.5q74 0 131 -30l39 51l62 -46zM188 151l196 260q-31 15 -70 15q-68 0 -111 -45.5t-43 -124.5
q0 -61 28 -105zM425 132.5q43 45.5 43 123.5q0 60 -27 103l-194 -258q31 -14 67 -14q68 0 111 45.5z" />
    <glyph glyph-name="ugrave" unicode="&#xf9;" horiz-adv-x="590" 
d="M512 513v-513h-106v67q-16 -32 -53 -54.5t-92 -22.5q-86 0 -137 56.5t-51 150.5v316h112v-299q0 -56 27 -87.5t77 -31.5q51 0 81 36.5t30 88.5v293h112zM116 787h128l94 -191h-88z" />
    <glyph glyph-name="uacute" unicode="&#xfa;" horiz-adv-x="590" 
d="M512 513v-513h-106v67q-16 -32 -53 -54.5t-92 -22.5q-86 0 -137 56.5t-51 150.5v316h112v-299q0 -56 27 -87.5t77 -31.5q51 0 81 36.5t30 88.5v293h112zM346 787h127l-134 -191h-88z" />
    <glyph glyph-name="ucircumflex" unicode="&#xfb;" horiz-adv-x="590" 
d="M512 513v-513h-106v67q-16 -32 -53 -54.5t-92 -22.5q-86 0 -137 56.5t-51 150.5v316h112v-299q0 -56 27 -87.5t77 -31.5q51 0 81 36.5t30 88.5v293h112zM243 770h108l119 -173h-95l-78 98l-77 -98h-95z" />
    <glyph glyph-name="udieresis" unicode="&#xfc;" horiz-adv-x="590" 
d="M512 513v-513h-106v67q-16 -32 -53 -54.5t-92 -22.5q-86 0 -137 56.5t-51 150.5v316h112v-299q0 -56 27 -87.5t77 -31.5q51 0 81 36.5t30 88.5v293h112zM248.5 738q19.5 -19 19.5 -47t-19.5 -47t-47.5 -19q-29 0 -48 19t-19 47t19.5 47t47.5 19t47.5 -19zM436.5 738
q19.5 -19 19.5 -47t-19 -47t-48 -19q-28 0 -47.5 19t-19.5 47t19.5 47t47.5 19t47.5 -19z" />
    <glyph glyph-name="yacute" unicode="&#xfd;" horiz-adv-x="543" 
d="M414 513h121l-326 -768h-123l126 291l-203 477h121l142 -355zM321 787h127l-134 -191h-88z" />
    <glyph glyph-name="thorn" unicode="&#xfe;" horiz-adv-x="646" 
d="M78 -255v1032h112v-327q22 32 64.5 52t98.5 20q71 0 127.5 -32.5t88 -93t31.5 -140.5t-31.5 -140.5t-88 -93t-127.5 -32.5q-55 0 -98 19.5t-65 51.5v-316h-112zM444 131q42 45 42 125t-42 124.5t-109 44.5q-65 0 -105 -41t-40 -115v-27q0 -74 40 -115t105 -41
q67 0 109 45z" />
    <glyph glyph-name="ydieresis" unicode="&#xff;" horiz-adv-x="543" 
d="M414 513h121l-326 -768h-123l126 291l-203 477h121l142 -355zM223.5 738q19.5 -19 19.5 -47t-19.5 -47t-47.5 -19q-29 0 -48 19t-19 47t19.5 47t47.5 19t47.5 -19zM411.5 738q19.5 -19 19.5 -47t-19 -47t-48 -19q-28 0 -47.5 19t-19.5 47t19.5 47t47.5 19t47.5 -19z" />
    <glyph glyph-name="Amacron" unicode="&#x100;" horiz-adv-x="753" 
d="M325 748h101l317 -748h-130l-68 167h-338l-69 -167h-129zM500 273l-123 301l-124 -301h247zM217 919h319v-80h-319v80z" />
    <glyph glyph-name="amacron" unicode="&#x101;" horiz-adv-x="542" 
d="M416 469.5q53 -52.5 53 -150.5v-319h-113v46q-59 -56 -139 -56q-78 0 -124.5 39.5t-46.5 110.5q0 144 188 155l122 7v15q0 51 -22.5 79t-68.5 28q-45 0 -68.5 -25t-23.5 -62l-113 4q0 46 25 87.5t71.5 67.5t107.5 26q99 0 152 -52.5zM250 208q-91 -5 -91 -66
q0 -58 77 -58q56 0 88.5 28.5t32.5 84.5v18zM125 712h299v-81h-299v81z" />
    <glyph glyph-name="Abreve" unicode="&#x102;" horiz-adv-x="753" 
d="M325 748h101l317 -748h-130l-68 167h-338l-69 -167h-129zM500 273l-123 301l-124 -301h247zM546 963q0 -74 -46.5 -113t-123.5 -39t-123 39t-46 113h89q0 -33 21.5 -52t58.5 -19t59 19t22 52h89z" />
    <glyph glyph-name="abreve" unicode="&#x103;" horiz-adv-x="542" 
d="M416 469.5q53 -52.5 53 -150.5v-319h-113v46q-59 -56 -139 -56q-78 0 -124.5 39.5t-46.5 110.5q0 144 188 155l122 7v15q0 51 -22.5 79t-68.5 28q-45 0 -68.5 -25t-23.5 -62l-113 4q0 46 25 87.5t71.5 67.5t107.5 26q99 0 152 -52.5zM250 208q-91 -5 -91 -66
q0 -58 77 -58q56 0 88.5 28.5t32.5 84.5v18zM444 753q0 -77 -46 -117t-124 -40q-77 0 -123 40.5t-46 116.5h89q0 -35 21.5 -55.5t58.5 -20.5t59 20.5t22 55.5h89z" />
    <glyph glyph-name="Aogonek" unicode="&#x104;" horiz-adv-x="753" 
d="M705 -185l11 -56q-20 -8 -39.5 -12.5t-47.5 -4.5q-58 0 -93.5 26.5t-35.5 79.5q0 97 113 153l-68 166h-338l-69 -167h-129l316 748h101l317 -748h-49q-57 -36 -83.5 -67.5t-26.5 -76.5q0 -26 15 -39.5t44 -13.5q35 0 62 12zM377 574l-124 -301h247z" />
    <glyph glyph-name="aogonek" unicode="&#x105;" horiz-adv-x="542" 
d="M442 0q-56 -35 -82.5 -66.5t-26.5 -76.5q0 -26 15 -39.5t44 -13.5q35 0 62 12l11 -56q-20 -8 -39.5 -12.5t-47.5 -4.5q-58 0 -93.5 26.5t-35.5 79.5q0 95 108 151h-1v46q-59 -56 -139 -56q-78 0 -124.5 39.5t-46.5 110.5q0 144 188 155l122 7v15q0 51 -22.5 79t-68.5 28
q-45 0 -68.5 -25t-23.5 -62l-113 4q0 46 25 87.5t71.5 67.5t107.5 26q99 0 152 -52.5t53 -150.5v-319h-27zM357 215l-107 -7q-91 -5 -91 -66q0 -58 77 -58q56 0 88.5 28.5t32.5 84.5v18z" />
    <glyph glyph-name="Cacute" unicode="&#x106;" horiz-adv-x="808" 
d="M228.5 36.5q-84.5 46.5 -133 133.5t-48.5 204t48.5 204t133 133.5t190.5 46.5q89 0 163.5 -34t122.5 -97.5t60 -149.5l-122 -11q-15 88 -76.5 137t-150.5 49q-71 0 -127.5 -33.5t-88.5 -96.5t-32 -148q0 -86 32 -149t88.5 -96t127.5 -33q89 0 149.5 46.5t77.5 131.5
l123 -10q-15 -85 -63.5 -146.5t-121.5 -94.5t-162 -33q-106 0 -190.5 46.5zM492 952h165l-190 -147h-114z" />
    <glyph glyph-name="cacute" unicode="&#x107;" horiz-adv-x="578" 
d="M461.5 470q64.5 -52 77.5 -142l-110 -10q-6 50 -40.5 79t-85.5 29q-64 0 -103.5 -45t-39.5 -125q0 -79 40 -124t103 -45q52 0 85.5 27t41.5 75l110 -10q-15 -87 -79 -138t-158 -51q-74 0 -132.5 32t-91.5 92t-33 142q0 83 33 143t91.5 91.5t132.5 31.5q94 0 158.5 -52z
M345 787h127l-134 -191h-88z" />
    <glyph glyph-name="Ccircumflex" unicode="&#x108;" horiz-adv-x="808" 
d="M228.5 36.5q-84.5 46.5 -133 133.5t-48.5 204t48.5 204t133 133.5t190.5 46.5q89 0 163.5 -34t122.5 -97.5t60 -149.5l-122 -11q-15 88 -76.5 137t-150.5 49q-71 0 -127.5 -33.5t-88.5 -96.5t-32 -148q0 -86 32 -149t88.5 -96t127.5 -33q89 0 149.5 46.5t77.5 131.5
l123 -10q-15 -85 -63.5 -146.5t-121.5 -94.5t-162 -33q-106 0 -190.5 46.5zM357 955h108l118 -150h-96l-76 84l-77 -84h-95z" />
    <glyph glyph-name="ccircumflex" unicode="&#x109;" horiz-adv-x="578" 
d="M461.5 470q64.5 -52 77.5 -142l-110 -10q-6 50 -40.5 79t-85.5 29q-64 0 -103.5 -45t-39.5 -125q0 -79 40 -124t103 -45q52 0 85.5 27t41.5 75l110 -10q-15 -87 -79 -138t-158 -51q-74 0 -132.5 32t-91.5 92t-33 142q0 83 33 143t91.5 91.5t132.5 31.5q94 0 158.5 -52z
M242 770h108l119 -173h-95l-78 98l-77 -98h-95z" />
    <glyph glyph-name="Cdotaccent" unicode="&#x10a;" horiz-adv-x="808" 
d="M228.5 36.5q-84.5 46.5 -133 133.5t-48.5 204t48.5 204t133 133.5t190.5 46.5q89 0 163.5 -34t122.5 -97.5t60 -149.5l-122 -11q-15 88 -76.5 137t-150.5 49q-71 0 -127.5 -33.5t-88.5 -96.5t-32 -148q0 -86 32 -149t88.5 -96t127.5 -33q89 0 149.5 46.5t77.5 131.5
l123 -10q-15 -85 -63.5 -146.5t-121.5 -94.5t-162 -33q-106 0 -190.5 46.5zM461 935q21 -21 21 -50q0 -30 -21 -50.5t-50 -20.5t-50 20.5t-21 50.5q0 29 21 50t50 21t50 -21z" />
    <glyph glyph-name="cdotaccent" unicode="&#x10b;" horiz-adv-x="578" 
d="M461.5 470q64.5 -52 77.5 -142l-110 -10q-6 50 -40.5 79t-85.5 29q-64 0 -103.5 -45t-39.5 -125q0 -79 40 -124t103 -45q52 0 85.5 27t41.5 75l110 -10q-15 -87 -79 -138t-158 -51q-74 0 -132.5 32t-91.5 92t-33 142q0 83 33 143t91.5 91.5t132.5 31.5q94 0 158.5 -52z
M346 731q21 -21 21 -50t-21 -50t-50 -21t-50 21t-21 50t21 50t50 21t50 -21z" />
    <glyph glyph-name="Ccaron" unicode="&#x10c;" horiz-adv-x="808" 
d="M228.5 36.5q-84.5 46.5 -133 133.5t-48.5 204t48.5 204t133 133.5t190.5 46.5q89 0 163.5 -34t122.5 -97.5t60 -149.5l-122 -11q-15 88 -76.5 137t-150.5 49q-71 0 -127.5 -33.5t-88.5 -96.5t-32 -148q0 -86 32 -149t88.5 -96t127.5 -33q89 0 149.5 46.5t77.5 131.5
l123 -10q-15 -85 -63.5 -146.5t-121.5 -94.5t-162 -33q-106 0 -190.5 46.5zM487 955h96l-118 -150h-108l-118 150h95l77 -83z" />
    <glyph glyph-name="ccaron" unicode="&#x10d;" horiz-adv-x="578" 
d="M461.5 470q64.5 -52 77.5 -142l-110 -10q-6 50 -40.5 79t-85.5 29q-64 0 -103.5 -45t-39.5 -125q0 -79 40 -124t103 -45q52 0 85.5 27t41.5 75l110 -10q-15 -87 -79 -138t-158 -51q-74 0 -132.5 32t-91.5 92t-33 142q0 83 33 143t91.5 91.5t132.5 31.5q94 0 158.5 -52z
M374 767h95l-119 -172h-108l-118 172h95l77 -98z" />
    <glyph glyph-name="Dcaron" unicode="&#x10e;" horiz-adv-x="792" 
d="M380 748q105 0 188 -44.5t130 -129.5t47 -200t-47.5 -200t-131 -129.5t-188.5 -44.5h-297v748h299zM199 646v-544h180q112 0 179.5 70.5t67.5 201.5t-67 201.5t-179 70.5h-181zM423 955h96l-118 -150h-108l-118 150h95l77 -83z" />
    <glyph glyph-name="dcaron" unicode="&#x10f;" horiz-adv-x="656" 
d="M456 777h112v-777h-106v71q-22 -36 -66.5 -58.5t-102.5 -22.5q-71 0 -127.5 32.5t-88 93t-31.5 140.5t31.5 140.5t88 93t127.5 32.5q55 0 98 -19.5t65 -51.5v326zM734 758.5q15 -18.5 15 -49.5q0 -116 -110 -176v41q44 32 53 82q-24 1 -41 18.5t-17 41.5q0 26 16.5 43.5
t41.5 17.5q27 0 42 -18.5zM456 270q0 74 -40 115t-105 41q-67 0 -109 -45t-42 -125t42 -124.5t109 -44.5q65 0 105 41t40 115v27z" />
    <glyph glyph-name="Dcroat" unicode="&#x110;" horiz-adv-x="821" 
d="M409 748q105 0 188 -44.5t130 -129.5t47 -200t-47.5 -200t-131 -129.5t-188.5 -44.5h-297v328h-98v91h98v329h299zM408 102q112 0 179.5 70.5t67.5 201.5t-67 201.5t-179 70.5h-181v-227h132v-91h-132v-226h180z" />
    <glyph glyph-name="dcroat" unicode="&#x111;" horiz-adv-x="646" 
d="M649 689v-84h-81v-605h-106v71q-22 -36 -66.5 -58.5t-102.5 -22.5q-71 0 -127.5 32.5t-88 93t-31.5 140.5t31.5 140.5t88 93t127.5 32.5q55 0 98 -19.5t65 -51.5v154h-137v84h137v88h112v-88h81zM456 270q0 74 -40 115t-105 41q-67 0 -109 -45t-42 -125t42 -124.5
t109 -44.5q65 0 105 41t40 115v27z" />
    <glyph glyph-name="Emacron" unicode="&#x112;" horiz-adv-x="594" 
d="M81 748h470v-105h-351v-206h307v-103h-307v-228h351v-106h-470v748zM160 919h319v-80h-319v80z" />
    <glyph glyph-name="emacron" unicode="&#x113;" 
d="M542 214h-377q4 -58 41 -92.5t96 -34.5q48 0 79.5 19t42.5 54l113 -6q-10 -46 -42.5 -83t-82 -59t-107.5 -22q-76 0 -134.5 32t-91.5 92.5t-33 141.5q0 82 32.5 142t90.5 92t133 32q73 0 127 -30.5t83.5 -88t29.5 -134.5v-55zM206.5 393.5q-36.5 -32.5 -40.5 -91.5h263
q-2 57 -34.5 90.5t-93.5 33.5q-58 0 -94.5 -32.5zM150 712h299v-81h-299v81z" />
    <glyph glyph-name="Ebreve" unicode="&#x114;" horiz-adv-x="594" 
d="M81 748h470v-105h-351v-206h307v-103h-307v-228h351v-106h-470v748zM489 963q0 -74 -46.5 -113t-123.5 -39t-123 39t-46 113h89q0 -33 21.5 -52t58.5 -19t59 19t22 52h89z" />
    <glyph glyph-name="ebreve" unicode="&#x115;" 
d="M542 214h-377q4 -58 41 -92.5t96 -34.5q48 0 79.5 19t42.5 54l113 -6q-10 -46 -42.5 -83t-82 -59t-107.5 -22q-76 0 -134.5 32t-91.5 92.5t-33 141.5q0 82 32.5 142t90.5 92t133 32q73 0 127 -30.5t83.5 -88t29.5 -134.5v-55zM206.5 393.5q-36.5 -32.5 -40.5 -91.5h263
q-2 57 -34.5 90.5t-93.5 33.5q-58 0 -94.5 -32.5zM469 753q0 -77 -46 -117t-124 -40q-77 0 -123 40.5t-46 116.5h89q0 -35 21.5 -55.5t58.5 -20.5t59 20.5t22 55.5h89z" />
    <glyph glyph-name="Edotaccent" unicode="&#x116;" horiz-adv-x="594" 
d="M81 748h470v-105h-351v-206h307v-103h-307v-228h351v-106h-470v748zM370 935q21 -21 21 -50q0 -30 -21 -50.5t-50 -20.5t-50 20.5t-21 50.5q0 29 21 50t50 21t50 -21z" />
    <glyph glyph-name="edotaccent" unicode="&#x117;" 
d="M542 214h-377q4 -58 41 -92.5t96 -34.5q48 0 79.5 19t42.5 54l113 -6q-10 -46 -42.5 -83t-82 -59t-107.5 -22q-76 0 -134.5 32t-91.5 92.5t-33 141.5q0 82 32.5 142t90.5 92t133 32q73 0 127 -30.5t83.5 -88t29.5 -134.5v-55zM206.5 393.5q-36.5 -32.5 -40.5 -91.5h263
q-2 57 -34.5 90.5t-93.5 33.5q-58 0 -94.5 -32.5zM350 731q21 -21 21 -50t-21 -50t-50 -21t-50 21t-21 50t21 50t50 21t50 -21z" />
    <glyph glyph-name="Eogonek" unicode="&#x118;" horiz-adv-x="594" 
d="M565 -241q-20 -8 -39.5 -12.5t-47.5 -4.5q-58 0 -93.5 26.5t-35.5 79.5q0 96 110 152h-378v748h470v-105h-351v-206h307v-103h-307v-228h351v-106h-8q-57 -36 -83.5 -67.5t-26.5 -76.5q0 -26 15 -39.5t44 -13.5q35 0 62 12z" />
    <glyph glyph-name="eogonek" unicode="&#x119;" 
d="M542 214h-377q4 -58 41 -92.5t96 -34.5q48 0 79.5 19t42.5 54l113 -6q-8 -37 -32 -69t-59 -55q-50 -31 -74.5 -69.5t-24.5 -87.5q0 -31 15 -49t44 -18q35 0 62 12l11 -56q-20 -8 -39.5 -12.5t-47.5 -4.5q-58 0 -93.5 30.5t-35.5 87.5q0 73 72 129q-20 -2 -30 -2
q-76 0 -134.5 32t-91.5 92.5t-33 141.5q0 82 32.5 142t90.5 92t133 32q73 0 127 -30.5t83.5 -88t29.5 -134.5v-55zM206.5 393.5q-36.5 -32.5 -40.5 -91.5h263q-2 57 -34.5 90.5t-93.5 33.5q-58 0 -94.5 -32.5z" />
    <glyph glyph-name="Ecaron" unicode="&#x11a;" horiz-adv-x="594" 
d="M81 748h470v-105h-351v-206h307v-103h-307v-228h351v-106h-470v748zM396 955h96l-118 -150h-108l-118 150h95l77 -83z" />
    <glyph glyph-name="ecaron" unicode="&#x11b;" 
d="M542 214h-377q4 -58 41 -92.5t96 -34.5q48 0 79.5 19t42.5 54l113 -6q-10 -46 -42.5 -83t-82 -59t-107.5 -22q-76 0 -134.5 32t-91.5 92.5t-33 141.5q0 82 32.5 142t90.5 92t133 32q73 0 127 -30.5t83.5 -88t29.5 -134.5v-55zM206.5 393.5q-36.5 -32.5 -40.5 -91.5h263
q-2 57 -34.5 90.5t-93.5 33.5q-58 0 -94.5 -32.5zM378 767h95l-119 -172h-108l-118 172h95l77 -98z" />
    <glyph glyph-name="Gcircumflex" unicode="&#x11c;" horiz-adv-x="815" 
d="M419 392h350v-39q0 -110 -43 -192t-122 -126.5t-185 -44.5q-107 0 -191.5 46t-132.5 133t-48 205q0 119 48 205.5t132 132.5t191 46q86 0 158 -31t120.5 -90t65.5 -140l-123 -20q-15 82 -74 128.5t-148 46.5q-114 0 -181.5 -71.5t-67.5 -206.5q0 -134 68 -206t181 -72
q91 0 150 47.5t73 143.5h-221v105zM359 955h108l118 -150h-96l-76 84l-77 -84h-95z" />
    <glyph glyph-name="gcircumflex" unicode="&#x11d;" horiz-adv-x="640" 
d="M141.5 -213.5q-64.5 50.5 -80.5 137.5l112 4q7 -45 45 -71t95 -26q65 0 104 35.5t39 100.5v94q-22 -32 -65 -51.5t-98 -19.5q-71 0 -127.5 32.5t-88 93t-31.5 140.5t31.5 140.5t88 93t127.5 32.5q58 0 102.5 -22.5t66.5 -58.5v72h106v-538q0 -73 -31 -127t-88 -83
t-133 -29q-110 0 -174.5 50.5zM416 127q40 41 40 115v27q0 74 -40 115t-105 41q-67 0 -109 -44.5t-42 -124.5t42 -125t109 -45q65 0 105 41zM260 770h108l119 -173h-95l-78 98l-77 -98h-95z" />
    <glyph glyph-name="Gbreve" unicode="&#x11e;" horiz-adv-x="815" 
d="M419 392h350v-39q0 -110 -43 -192t-122 -126.5t-185 -44.5q-107 0 -191.5 46t-132.5 133t-48 205q0 119 48 205.5t132 132.5t191 46q86 0 158 -31t120.5 -90t65.5 -140l-123 -20q-15 82 -74 128.5t-148 46.5q-114 0 -181.5 -71.5t-67.5 -206.5q0 -134 68 -206t181 -72
q91 0 150 47.5t73 143.5h-221v105zM582 963q0 -74 -46.5 -113t-123.5 -39t-123 39t-46 113h89q0 -33 21.5 -52t58.5 -19t59 19t22 52h89z" />
    <glyph glyph-name="gbreve" unicode="&#x11f;" horiz-adv-x="640" 
d="M141.5 -213.5q-64.5 50.5 -80.5 137.5l112 4q7 -45 45 -71t95 -26q65 0 104 35.5t39 100.5v94q-22 -32 -65 -51.5t-98 -19.5q-71 0 -127.5 32.5t-88 93t-31.5 140.5t31.5 140.5t88 93t127.5 32.5q58 0 102.5 -22.5t66.5 -58.5v72h106v-538q0 -73 -31 -127t-88 -83
t-133 -29q-110 0 -174.5 50.5zM416 127q40 41 40 115v27q0 74 -40 115t-105 41q-67 0 -109 -44.5t-42 -124.5t42 -125t109 -45q65 0 105 41zM483 753q0 -77 -46 -117t-124 -40q-77 0 -123 40.5t-46 116.5h89q0 -35 21.5 -55.5t58.5 -20.5t59 20.5t22 55.5h89z" />
    <glyph glyph-name="Gdotaccent" unicode="&#x120;" horiz-adv-x="815" 
d="M419 392h350v-39q0 -110 -43 -192t-122 -126.5t-185 -44.5q-107 0 -191.5 46t-132.5 133t-48 205q0 119 48 205.5t132 132.5t191 46q86 0 158 -31t120.5 -90t65.5 -140l-123 -20q-15 82 -74 128.5t-148 46.5q-114 0 -181.5 -71.5t-67.5 -206.5q0 -134 68 -206t181 -72
q91 0 150 47.5t73 143.5h-221v105zM463 935q21 -21 21 -50q0 -30 -21 -50.5t-50 -20.5t-50 20.5t-21 50.5q0 29 21 50t50 21t50 -21z" />
    <glyph glyph-name="gdotaccent" unicode="&#x121;" horiz-adv-x="640" 
d="M141.5 -213.5q-64.5 50.5 -80.5 137.5l112 4q7 -45 45 -71t95 -26q65 0 104 35.5t39 100.5v94q-22 -32 -65 -51.5t-98 -19.5q-71 0 -127.5 32.5t-88 93t-31.5 140.5t31.5 140.5t88 93t127.5 32.5q58 0 102.5 -22.5t66.5 -58.5v72h106v-538q0 -73 -31 -127t-88 -83
t-133 -29q-110 0 -174.5 50.5zM416 127q40 41 40 115v27q0 74 -40 115t-105 41q-67 0 -109 -44.5t-42 -124.5t42 -125t109 -45q65 0 105 41zM364 731q21 -21 21 -50t-21 -50t-50 -21t-50 21t-21 50t21 50t50 21t50 -21z" />
    <glyph glyph-name="uni0122" unicode="&#x122;" horiz-adv-x="815" 
d="M419 392h350v-39q0 -110 -43 -192t-122 -126.5t-185 -44.5q-107 0 -191.5 46t-132.5 133t-48 205q0 119 48 205.5t132 132.5t191 46q86 0 158 -31t120.5 -90t65.5 -140l-123 -20q-15 82 -74 128.5t-148 46.5q-114 0 -181.5 -71.5t-67.5 -206.5q0 -134 68 -206t181 -72
q91 0 150 47.5t73 143.5h-221v105zM472.5 -67q17.5 -20 17.5 -52q0 -123 -130 -187v44q51 32 62 87q-28 1 -48 19t-20 44q0 27 19.5 46t49.5 19q32 0 49.5 -20z" />
    <glyph glyph-name="uni0123" unicode="&#x123;" horiz-adv-x="640" 
d="M257.5 592q-17.5 20 -17.5 52q0 123 130 187v-44q-51 -32 -62 -87q28 -1 48 -19t20 -44q0 -27 -19.5 -46t-49.5 -19q-32 0 -49.5 20zM462 513h106v-538q0 -73 -31 -127t-88 -83t-133 -29q-110 0 -174.5 50.5t-80.5 137.5l112 4q7 -45 45 -71t95 -26q65 0 104 35.5
t39 100.5v94q-22 -32 -65 -51.5t-98 -19.5q-71 0 -127.5 32.5t-88 93t-31.5 140.5t31.5 140.5t88 93t127.5 32.5q58 0 102.5 -22.5t66.5 -58.5v72zM456 269q0 74 -40 115t-105 41q-67 0 -109 -44.5t-42 -124.5t42 -125t109 -45q65 0 105 41t40 115v27z" />
    <glyph glyph-name="Hcircumflex" unicode="&#x124;" horiz-adv-x="751" 
d="M552 748h119v-748h-119v333h-352v-333h-119v748h119v-309h352v309zM322 955h108l118 -150h-96l-76 84l-77 -84h-95z" />
    <glyph glyph-name="hcircumflex" unicode="&#x125;" horiz-adv-x="603" 
d="M190 455q20 29 56.5 48t87.5 19q59 0 104 -25.5t70.5 -74t25.5 -113.5v-309h-113v294q0 57 -30.5 90.5t-81.5 33.5q-53 0 -86 -35.5t-33 -89.5v-293h-112v777h112v-322zM82 959h108l118 -150h-96l-76 84l-77 -84h-95z" />
    <glyph glyph-name="Hbar" unicode="&#x126;" horiz-adv-x="764" 
d="M677 636h82v-91h-82v-545h-119v333h-352v-333h-119v545h-82v91h82v112h119v-112h352v112h119v-112zM206 439h352v106h-352v-106z" />
    <glyph glyph-name="hbar" unicode="&#x127;" horiz-adv-x="603" 
d="M438 496.5q45 -25.5 70.5 -74t25.5 -113.5v-309h-113v294q0 57 -30.5 90.5t-81.5 33.5q-53 0 -86 -35.5t-33 -89.5v-293h-112v605h-81v84h81v88h112v-88h137v-84h-137v-150q20 29 56.5 48t87.5 19q59 0 104 -25.5z" />
    <glyph glyph-name="Itilde" unicode="&#x128;" horiz-adv-x="280" 
d="M81 748h119v-748h-119v748zM108.5 948q16.5 -8 40.5 -24q17 -13 29.5 -19.5t26.5 -6.5q22 0 33.5 14t12.5 37h64q4 -55 -23.5 -95t-74.5 -40q-22 0 -38.5 8t-40.5 24q-17 13 -29.5 19t-26.5 6q-22 0 -33.5 -13.5t-11.5 -36.5h-65q-4 55 23.5 95t74.5 40q22 0 38.5 -8z
" />
    <glyph glyph-name="itilde" unicode="&#x129;" horiz-adv-x="268" 
d="M78 513h112v-513h-112v513zM100.5 739q16.5 -8 40.5 -24q17 -13 29.5 -19.5t26.5 -6.5q22 0 33.5 13.5t12.5 37.5h64q4 -55 -23.5 -95.5t-74.5 -40.5q-22 0 -38.5 8t-40.5 24q-17 13 -29.5 19.5t-26.5 6.5q-22 0 -33.5 -14t-11.5 -37h-65q-4 56 23.5 96t74.5 40
q22 0 38.5 -8z" />
    <glyph glyph-name="Imacron" unicode="&#x12a;" horiz-adv-x="280" 
d="M81 748h119v-748h-119v748zM-16 919h319v-80h-319v80z" />
    <glyph glyph-name="imacron" unicode="&#x12b;" horiz-adv-x="268" 
d="M78 513h112v-513h-112v513zM-13 712h299v-81h-299v81z" />
    <glyph glyph-name="Ibreve" unicode="&#x12c;" horiz-adv-x="280" 
d="M81 748h119v-748h-119v748zM313 963q0 -74 -46.5 -113t-123.5 -39t-123 39t-46 113h89q0 -33 21.5 -52t58.5 -19t59 19t22 52h89z" />
    <glyph glyph-name="ibreve" unicode="&#x12d;" horiz-adv-x="268" 
d="M78 513h112v-513h-112v513zM306 753q0 -77 -46 -117t-124 -40q-77 0 -123 40.5t-46 116.5h89q0 -35 21.5 -55.5t58.5 -20.5t59 20.5t22 55.5h89z" />
    <glyph glyph-name="Iogonek" unicode="&#x12e;" horiz-adv-x="280" 
d="M151 0q-56 -35 -82.5 -66.5t-26.5 -76.5q0 -26 15 -39.5t44 -13.5q35 0 62 12l11 -56q-20 -8 -39.5 -12.5t-47.5 -4.5q-58 0 -93.5 26.5t-35.5 79.5q0 101 123 158v741h119v-748h-49z" />
    <glyph glyph-name="iogonek" unicode="&#x12f;" horiz-adv-x="268" 
d="M87 631q-21 21 -21 50t21 50t50 21t50 -21t21 -50t-21 -50t-50 -21t-50 21zM185 -184l11 -56q-20 -8 -39.5 -12.5t-47.5 -4.5q-58 0 -93.5 26.5t-35.5 79.5q0 95 108 151h-10v513h112v-513h-17q-56 -35 -82.5 -66.5t-26.5 -76.5q0 -26 15 -39.5t44 -13.5q35 0 62 12z" />
    <glyph glyph-name="Idotaccent" unicode="&#x130;" horiz-adv-x="280" 
d="M81 748h119v-748h-119v748zM194 935q21 -21 21 -50q0 -30 -21 -50.5t-50 -20.5t-50 20.5t-21 50.5q0 29 21 50t50 21t50 -21z" />
    <glyph glyph-name="dotlessi" unicode="&#x131;" horiz-adv-x="268" 
d="M78 513h112v-513h-112v513z" />
    <glyph glyph-name="IJ" unicode="&#x132;" horiz-adv-x="858" 
d="M81 748h119v-748h-119v748zM783 250q0 -123 -65.5 -191.5t-180.5 -68.5q-110 0 -176.5 64t-72.5 177l119 19q4 -73 38 -113.5t93 -40.5q61 0 93.5 38.5t32.5 112.5v501h119v-498z" />
    <glyph glyph-name="ij" unicode="&#x133;" horiz-adv-x="531" 
d="M184 740.5q21 -20.5 21 -49.5t-21 -49.5t-50 -20.5t-49.5 20.5t-20.5 49.5t20.5 49.5t49.5 20.5t50 -20.5zM78 513h112v-513h-112v513zM447 740.5q21 -20.5 21 -49.5t-21 -49.5t-50 -20.5t-49.5 20.5t-20.5 49.5t20.5 49.5t49.5 20.5t50 -20.5zM454 -64
q0 -92 -51.5 -144.5t-139.5 -52.5q-24 0 -45 3v98q14 -3 32 -3q42 0 67 25.5t25 70.5v580h112v-577z" />
    <glyph glyph-name="Jcircumflex" unicode="&#x134;" 
d="M513 250q0 -123 -65.5 -191.5t-180.5 -68.5q-110 0 -176.5 64t-72.5 177l119 19q4 -73 38 -113.5t93 -40.5q61 0 93.5 38.5t32.5 112.5v501h119v-498zM406 955h108l118 -150h-96l-76 84l-77 -84h-95z" />
    <glyph glyph-name="jcircumflex" unicode="&#x135;" horiz-adv-x="273" 
d="M196 -64q0 -92 -51.5 -144.5t-139.5 -52.5q-24 0 -45 3v98q14 -3 32 -3q42 0 67 25.5t25 70.5v580h112v-577zM86 770h108l119 -173h-95l-78 98l-77 -98h-95z" />
    <glyph glyph-name="uni0136" unicode="&#x136;" horiz-adv-x="689" 
d="M491 748h153l-273 -314l311 -434h-148l-243 340l-91 -105v-235h-119v748h119v-335zM412.5 -62q17.5 -20 17.5 -52q0 -123 -130 -187v44q51 32 62 87q-28 1 -48 19t-20 44q0 27 19.5 46t49.5 19q32 0 49.5 -20z" />
    <glyph glyph-name="uni0137" unicode="&#x137;" horiz-adv-x="551" 
d="M78 777h112v-473l199 209h137l-206 -221l227 -292h-142l-164 208l-51 -52v-156h-112v777zM348.5 -62q17.5 -20 17.5 -52q0 -123 -130 -187v44q51 32 62 87q-28 1 -48 19t-20 44q0 27 19.5 46t49.5 19q32 0 49.5 -20z" />
    <glyph glyph-name="Lacute" unicode="&#x139;" horiz-adv-x="576" 
d="M81 748h119v-642h354v-106h-473v748zM226 952h165l-190 -147h-114z" />
    <glyph glyph-name="lacute" unicode="&#x13a;" horiz-adv-x="268" 
d="M78 777h112v-777h-112v777zM220 967h165l-190 -147h-114z" />
    <glyph glyph-name="uni013B" unicode="&#x13b;" horiz-adv-x="576" 
d="M81 748h119v-642h354v-106h-473v748zM383.5 -62q17.5 -20 17.5 -52q0 -123 -130 -187v44q51 32 62 87q-28 1 -48 19t-20 44q0 27 19.5 46t49.5 19q32 0 49.5 -20z" />
    <glyph glyph-name="uni013C" unicode="&#x13c;" horiz-adv-x="268" 
d="M78 777h112v-777h-112v777zM192.5 -62q17.5 -20 17.5 -52q0 -123 -130 -187v44q51 32 62 87q-28 1 -48 19t-20 44q0 27 19.5 46t49.5 19q32 0 49.5 -20z" />
    <glyph glyph-name="Lcaron" unicode="&#x13d;" horiz-adv-x="576" 
d="M200 748v-642h354v-106h-473v748h119zM294 645.5q-17 17.5 -17 41.5q0 26 16.5 43.5t41.5 17.5q27 0 42 -18.5t15 -49.5q0 -116 -110 -176v41q44 32 53 82q-24 1 -41 18.5z" />
    <glyph glyph-name="lcaron" unicode="&#x13e;" horiz-adv-x="278" 
d="M190 0h-112v777h112v-777zM356 758.5q15 -18.5 15 -49.5q0 -116 -110 -176v41q44 32 53 82q-24 1 -41 18.5t-17 41.5q0 26 16.5 43.5t41.5 17.5q27 0 42 -18.5z" />
    <glyph glyph-name="Ldot" unicode="&#x13f;" horiz-adv-x="576" 
d="M81 748h119v-642h354v-106h-473v748zM486.5 449q21.5 -21 21.5 -52q0 -29 -21.5 -50t-51.5 -21q-29 0 -50 21t-21 50q0 31 21 52t50 21q30 0 51.5 -21z" />
    <glyph glyph-name="ldot" unicode="&#x140;" horiz-adv-x="396" 
d="M78 777h112v-777h-112v777zM382.5 409q21.5 -21 21.5 -52q0 -29 -21.5 -50t-51.5 -21q-29 0 -50 21t-21 50q0 31 21 52t50 21q30 0 51.5 -21z" />
    <glyph glyph-name="Lslash" unicode="&#x141;" 
d="M212 371v-265h354v-106h-473v333l-91 -35v96l91 35v319h119v-282l115 44v-95z" />
    <glyph glyph-name="lslash" unicode="&#x142;" horiz-adv-x="291" 
d="M202 471l98 31v-96l-98 -31v-375h-112v348l-99 -32v96l99 32v333h112v-306z" />
    <glyph glyph-name="Nacute" unicode="&#x143;" horiz-adv-x="750" 
d="M551 748h119v-748h-101l-369 528v-528h-119v748h100l370 -529v529zM452 952h165l-190 -147h-114z" />
    <glyph glyph-name="nacute" unicode="&#x144;" horiz-adv-x="607" 
d="M438 496.5q45 -25.5 70.5 -74t25.5 -113.5v-309h-113v294q0 57 -30.5 90.5t-81.5 33.5q-53 0 -86 -35.5t-33 -89.5v-293h-112v513h106v-68q21 36 58.5 56.5t91.5 20.5q59 0 104 -25.5zM363 787h127l-134 -191h-88z" />
    <glyph glyph-name="uni0145" unicode="&#x145;" horiz-adv-x="750" 
d="M551 748h119v-748h-101l-369 528v-528h-119v748h100l370 -529v529zM441.5 -62q17.5 -20 17.5 -52q0 -123 -130 -187v44q51 32 62 87q-28 1 -48 19t-20 44q0 27 19.5 46t49.5 19q32 0 49.5 -20z" />
    <glyph glyph-name="uni0146" unicode="&#x146;" horiz-adv-x="607" 
d="M438 496.5q45 -25.5 70.5 -74t25.5 -113.5v-309h-113v294q0 57 -30.5 90.5t-81.5 33.5q-53 0 -86 -35.5t-33 -89.5v-293h-112v513h106v-68q21 36 58.5 56.5t91.5 20.5q59 0 104 -25.5zM366.5 -62q17.5 -20 17.5 -52q0 -123 -130 -187v44q51 32 62 87q-28 1 -48 19t-20 44
q0 27 19.5 46t49.5 19q32 0 49.5 -20z" />
    <glyph glyph-name="Ncaron" unicode="&#x147;" horiz-adv-x="750" 
d="M551 748h119v-748h-101l-369 528v-528h-119v748h100l370 -529v529zM447 955h96l-118 -150h-108l-118 150h95l77 -83z" />
    <glyph glyph-name="ncaron" unicode="&#x148;" horiz-adv-x="607" 
d="M438 496.5q45 -25.5 70.5 -74t25.5 -113.5v-309h-113v294q0 57 -30.5 90.5t-81.5 33.5q-53 0 -86 -35.5t-33 -89.5v-293h-112v513h106v-68q21 36 58.5 56.5t91.5 20.5q59 0 104 -25.5zM392 767h95l-119 -172h-108l-118 172h95l77 -98z" />
    <glyph glyph-name="Eng" unicode="&#x14a;" horiz-adv-x="750" 
d="M670 748v-775q0 -66 -30 -118t-86 -81t-131 -29v105q61 0 94.5 39t33.5 112v25l-351 502v-528h-119v748h100l370 -529v529h119z" />
    <glyph glyph-name="eng" unicode="&#x14b;" horiz-adv-x="607" 
d="M438 496.5q45 -25.5 70.5 -74t25.5 -113.5v-373q0 -92 -53 -144.5t-145 -52.5v98q38 0 61.5 25.5t23.5 70.5v361q0 57 -30.5 90.5t-81.5 33.5q-53 0 -86 -35.5t-33 -89.5v-293h-112v513h106v-68q21 36 58.5 56.5t91.5 20.5q59 0 104 -25.5z" />
    <glyph glyph-name="Omacron" unicode="&#x14c;" horiz-adv-x="850" 
d="M619 711q86 -47 135 -134t49 -203t-49 -203t-135 -134t-194 -47t-194 47t-135 134t-49 203t49 203t135 134t194 47t194 -47zM292.5 618.5q-58.5 -33.5 -91.5 -96t-33 -148.5t33 -148.5t91.5 -96t132.5 -33.5t132.5 33.5t91.5 96t33 148.5t-33 148.5t-91.5 96t-132.5 33.5
t-132.5 -33.5zM262 919h319v-80h-319v80z" />
    <glyph glyph-name="omacron" unicode="&#x14d;" horiz-adv-x="628" 
d="M451 489.5q61 -32.5 95.5 -93t34.5 -140.5q0 -79 -35 -139.5t-95.5 -93.5t-136.5 -33t-137 33t-96 93.5t-35 139.5q0 80 35 140.5t96 93t137 32.5t137 -32.5zM203 380.5q-43 -45.5 -43 -124.5q0 -78 43 -123.5t111 -45.5t111 45.5t43 123.5q0 79 -43 124.5t-111 45.5
t-111 -45.5zM163 712h299v-81h-299v81z" />
    <glyph glyph-name="Obreve" unicode="&#x14e;" horiz-adv-x="850" 
d="M619 711q86 -47 135 -134t49 -203t-49 -203t-135 -134t-194 -47t-194 47t-135 134t-49 203t49 203t135 134t194 47t194 -47zM292.5 618.5q-58.5 -33.5 -91.5 -96t-33 -148.5t33 -148.5t91.5 -96t132.5 -33.5t132.5 33.5t91.5 96t33 148.5t-33 148.5t-91.5 96t-132.5 33.5
t-132.5 -33.5zM591 963q0 -74 -46.5 -113t-123.5 -39t-123 39t-46 113h89q0 -33 21.5 -52t58.5 -19t59 19t22 52h89z" />
    <glyph glyph-name="obreve" unicode="&#x14f;" horiz-adv-x="628" 
d="M451 489.5q61 -32.5 95.5 -93t34.5 -140.5q0 -79 -35 -139.5t-95.5 -93.5t-136.5 -33t-137 33t-96 93.5t-35 139.5q0 80 35 140.5t96 93t137 32.5t137 -32.5zM203 380.5q-43 -45.5 -43 -124.5q0 -78 43 -123.5t111 -45.5t111 45.5t43 123.5q0 79 -43 124.5t-111 45.5
t-111 -45.5zM482 753q0 -77 -46 -117t-124 -40q-77 0 -123 40.5t-46 116.5h89q0 -35 21.5 -55.5t58.5 -20.5t59 20.5t22 55.5h89z" />
    <glyph glyph-name="Ohungarumlaut" unicode="&#x150;" horiz-adv-x="850" 
d="M619 711q86 -47 135 -134t49 -203t-49 -203t-135 -134t-194 -47t-194 47t-135 134t-49 203t49 203t135 134t194 47t194 -47zM292.5 618.5q-58.5 -33.5 -91.5 -96t-33 -148.5t33 -148.5t91.5 -96t132.5 -33.5t132.5 33.5t91.5 96t33 148.5t-33 148.5t-91.5 96t-132.5 33.5
t-132.5 -33.5zM340 965h106l-79 -157h-88zM524 965h106l-79 -157h-88z" />
    <glyph glyph-name="ohungarumlaut" unicode="&#x151;" horiz-adv-x="628" 
d="M451 489.5q61 -32.5 95.5 -93t34.5 -140.5q0 -79 -35 -139.5t-95.5 -93.5t-136.5 -33t-137 33t-96 93.5t-35 139.5q0 80 35 140.5t96 93t137 32.5t137 -32.5zM203 380.5q-43 -45.5 -43 -124.5q0 -78 43 -123.5t111 -45.5t111 45.5t43 123.5q0 79 -43 124.5t-111 45.5
t-111 -45.5zM235 771h107l-81 -167h-88zM419 771h107l-81 -167h-88z" />
    <glyph glyph-name="OE" unicode="&#x152;" horiz-adv-x="1182" 
d="M1139 643h-351v-206h307v-103h-307v-228h351v-106h-470v85q-48 -46 -112 -70.5t-138 -24.5q-106 0 -190.5 47t-133 134t-48.5 203t48.5 203t133 134t190.5 47q74 0 138 -24.5t112 -70.5v85h470v-105zM547.5 129.5q56.5 33.5 89 96.5t32.5 148q0 86 -32.5 148.5t-89 96
t-128.5 33.5t-129 -33.5t-89.5 -96t-32.5 -148.5q0 -85 32.5 -148t89.5 -96.5t129 -33.5t128.5 33.5z" />
    <glyph glyph-name="oe" unicode="&#x153;" horiz-adv-x="982" 
d="M936 214h-369q4 -58 40.5 -92.5t92.5 -34.5q46 0 77 19t41 54l113 -6q-10 -46 -42 -83t-80 -59t-105 -22q-62 0 -112.5 22.5t-83.5 65.5q-34 -42 -86 -65t-113 -23q-75 0 -135 33t-94 93.5t-34 139.5q0 80 34 140.5t94 93t135 32.5q62 0 113.5 -22.5t85.5 -64.5
q33 42 82.5 64.5t110.5 22.5q108 0 171.5 -68t63.5 -185v-55zM417.5 132.5q42.5 45.5 42.5 123.5t-42.5 124t-107.5 46q-66 0 -108 -45.5t-42 -124.5q0 -78 42 -123.5t108 -45.5q65 0 107.5 45.5zM607.5 393.5q-35.5 -32.5 -39.5 -91.5h255q-2 57 -34 90.5t-90 33.5
q-56 0 -91.5 -32.5z" />
    <glyph glyph-name="Racute" unicode="&#x154;" horiz-adv-x="689" 
d="M657 0h-134l-158 286h-165v-286h-119v748h302q68 0 121.5 -26.5t83.5 -78.5t30 -126q0 -79 -34.5 -132.5t-94.5 -78.5zM199 392h169q56 0 92 32.5t36 92.5q0 61 -36 93.5t-92 32.5h-169v-251zM394 952h165l-190 -147h-114z" />
    <glyph glyph-name="racute" unicode="&#x155;" horiz-adv-x="371" 
d="M353 410q-46 0 -83.5 -17t-58.5 -47t-21 -67v-279h-112v513h109v-72q20 32 63 55t103 23v-109zM259 787h127l-134 -191h-88z" />
    <glyph glyph-name="uni0156" unicode="&#x156;" horiz-adv-x="689" 
d="M657 0h-134l-158 286h-165v-286h-119v748h302q68 0 121.5 -26.5t83.5 -78.5t30 -126q0 -79 -34.5 -132.5t-94.5 -78.5zM199 392h169q56 0 92 32.5t36 92.5q0 61 -36 93.5t-92 32.5h-169v-251zM411.5 -62q17.5 -20 17.5 -52q0 -123 -130 -187v44q51 32 62 87q-28 1 -48 19
t-20 44q0 27 19.5 46t49.5 19q32 0 49.5 -20z" />
    <glyph glyph-name="uni0157" unicode="&#x157;" horiz-adv-x="371" 
d="M353 410q-46 0 -83.5 -17t-58.5 -47t-21 -67v-279h-112v513h109v-72q20 32 63 55t103 23v-109zM193.5 -62q17.5 -20 17.5 -52q0 -123 -130 -187v44q51 32 62 87q-28 1 -48 19t-20 44q0 27 19.5 46t49.5 19q32 0 49.5 -20z" />
    <glyph glyph-name="Rcaron" unicode="&#x158;" horiz-adv-x="689" 
d="M657 0h-134l-158 286h-165v-286h-119v748h302q68 0 121.5 -26.5t83.5 -78.5t30 -126q0 -79 -34.5 -132.5t-94.5 -78.5zM199 392h169q56 0 92 32.5t36 92.5q0 61 -36 93.5t-92 32.5h-169v-251zM389 955h96l-118 -150h-108l-118 150h95l77 -83z" />
    <glyph glyph-name="rcaron" unicode="&#x159;" horiz-adv-x="371" 
d="M353 410q-46 0 -83.5 -17t-58.5 -47t-21 -67v-279h-112v513h109v-72q20 32 63 55t103 23v-109zM288 767h95l-119 -172h-108l-118 172h95l77 -98z" />
    <glyph glyph-name="Sacute" unicode="&#x15a;" horiz-adv-x="652" 
d="M512.5 700q72.5 -58 76.5 -159l-121 -7q-3 56 -41.5 88.5t-101.5 32.5q-66 0 -102.5 -31t-36.5 -81q0 -36 18 -56t50 -31.5t98 -26.5q86 -21 141 -46.5t85 -66.5t30 -105q0 -110 -75.5 -165.5t-194.5 -55.5q-83 0 -148 26.5t-103 78t-40 122.5l121 7q4 -59 51.5 -95
t118.5 -36q68 0 108.5 27t40.5 83q0 36 -20 57t-55 33.5t-104 28.5q-79 19 -130 42t-82.5 65t-31.5 110q0 61 29 110.5t87.5 79t142.5 29.5q117 0 189.5 -58zM406 952h165l-190 -147h-114z" />
    <glyph glyph-name="sacute" unicode="&#x15b;" horiz-adv-x="497" 
d="M385.5 476.5q50.5 -45.5 58.5 -117.5l-112 -6q-3 34 -25 53.5t-63 19.5q-39 0 -59.5 -15t-20.5 -42t20 -37.5t69 -21.5q7 -1 23 -5q90 -23 133.5 -55t43.5 -96q0 -77 -53.5 -120.5t-147.5 -43.5q-91 0 -146 43.5t-64 120.5l112 7q5 -36 30 -55t70 -19q39 0 63 15t24 43
q0 21 -10 33t-32 20t-69 19q-63 15 -99 29.5t-57.5 43t-21.5 77.5q0 70 51.5 112.5t143.5 42.5q88 0 138.5 -45.5zM293 787h127l-134 -191h-88z" />
    <glyph glyph-name="Scircumflex" unicode="&#x15c;" horiz-adv-x="652" 
d="M512.5 700q72.5 -58 76.5 -159l-121 -7q-3 56 -41.5 88.5t-101.5 32.5q-66 0 -102.5 -31t-36.5 -81q0 -36 18 -56t50 -31.5t98 -26.5q86 -21 141 -46.5t85 -66.5t30 -105q0 -110 -75.5 -165.5t-194.5 -55.5q-83 0 -148 26.5t-103 78t-40 122.5l121 7q4 -59 51.5 -95
t118.5 -36q68 0 108.5 27t40.5 83q0 36 -20 57t-55 33.5t-104 28.5q-79 19 -130 42t-82.5 65t-31.5 110q0 61 29 110.5t87.5 79t142.5 29.5q117 0 189.5 -58zM271 955h108l118 -150h-96l-76 84l-77 -84h-95z" />
    <glyph glyph-name="scircumflex" unicode="&#x15d;" horiz-adv-x="497" 
d="M385.5 476.5q50.5 -45.5 58.5 -117.5l-112 -6q-3 34 -25 53.5t-63 19.5q-39 0 -59.5 -15t-20.5 -42t20 -37.5t69 -21.5q7 -1 23 -5q90 -23 133.5 -55t43.5 -96q0 -77 -53.5 -120.5t-147.5 -43.5q-91 0 -146 43.5t-64 120.5l112 7q5 -36 30 -55t70 -19q39 0 63 15t24 43
q0 21 -10 33t-32 20t-69 19q-63 15 -99 29.5t-57.5 43t-21.5 77.5q0 70 51.5 112.5t143.5 42.5q88 0 138.5 -45.5zM190 770h108l119 -173h-95l-78 98l-77 -98h-95z" />
    <glyph glyph-name="Scedilla" unicode="&#x15e;" horiz-adv-x="652" 
d="M540.5 52q-67.5 -55 -176.5 -61l-9 -36q48 -6 78 -31t30 -68q0 -53 -39 -81t-96 -28q-55 0 -95 19l19 68q26 -17 66 -17q25 0 43 9.5t18 30.5q0 42 -68 42q-14 0 -34 -4l28 96q-113 8 -183.5 67t-74.5 159l121 7q4 -59 51.5 -95t118.5 -36q68 0 108.5 27t40.5 83
q0 36 -20 57t-55 33.5t-104 28.5q-79 19 -130 42t-82.5 65t-31.5 110q0 61 29 110.5t87.5 79t142.5 29.5q117 0 189.5 -58t76.5 -159l-121 -7q-3 56 -41.5 88.5t-101.5 32.5q-66 0 -102.5 -31t-36.5 -81q0 -36 18 -56t50 -31.5t98 -26.5q86 -21 141 -46.5t85 -66.5t30 -105
q0 -104 -67.5 -159z" />
    <glyph glyph-name="scedilla" unicode="&#x15f;" horiz-adv-x="497" 
d="M404.5 38q-48.5 -43 -135.5 -48l-9 -35q48 -6 78 -31t30 -68q0 -53 -39 -81t-96 -28q-55 0 -95 19l19 68q26 -17 66 -17q25 0 43 9.5t18 30.5q0 42 -68 42q-14 0 -34 -4l28 98q-73 9 -116.5 51t-51.5 110l112 7q5 -36 30 -55t70 -19q39 0 63 15t24 43q0 21 -10 33t-32 20
t-69 19q-63 15 -99 29.5t-57.5 43t-21.5 77.5q0 70 51.5 112.5t143.5 42.5q88 0 138.5 -45.5t58.5 -117.5l-112 -6q-3 34 -25 53.5t-63 19.5q-39 0 -59.5 -15t-20.5 -42t20 -37.5t69 -21.5q7 -1 23 -5q90 -23 133.5 -55t43.5 -96q0 -73 -48.5 -116z" />
    <glyph glyph-name="Scaron" unicode="&#x160;" horiz-adv-x="652" 
d="M512.5 700q72.5 -58 76.5 -159l-121 -7q-3 56 -41.5 88.5t-101.5 32.5q-66 0 -102.5 -31t-36.5 -81q0 -36 18 -56t50 -31.5t98 -26.5q86 -21 141 -46.5t85 -66.5t30 -105q0 -110 -75.5 -165.5t-194.5 -55.5q-83 0 -148 26.5t-103 78t-40 122.5l121 7q4 -59 51.5 -95
t118.5 -36q68 0 108.5 27t40.5 83q0 36 -20 57t-55 33.5t-104 28.5q-79 19 -130 42t-82.5 65t-31.5 110q0 61 29 110.5t87.5 79t142.5 29.5q117 0 189.5 -58zM401 955h96l-118 -150h-108l-118 150h95l77 -83z" />
    <glyph glyph-name="scaron" unicode="&#x161;" horiz-adv-x="497" 
d="M385.5 476.5q50.5 -45.5 58.5 -117.5l-112 -6q-3 34 -25 53.5t-63 19.5q-39 0 -59.5 -15t-20.5 -42t20 -37.5t69 -21.5q7 -1 23 -5q90 -23 133.5 -55t43.5 -96q0 -77 -53.5 -120.5t-147.5 -43.5q-91 0 -146 43.5t-64 120.5l112 7q5 -36 30 -55t70 -19q39 0 63 15t24 43
q0 21 -10 33t-32 20t-69 19q-63 15 -99 29.5t-57.5 43t-21.5 77.5q0 70 51.5 112.5t143.5 42.5q88 0 138.5 -45.5zM322 767h95l-119 -172h-108l-118 172h95l77 -98z" />
    <glyph glyph-name="uni0162" unicode="&#x162;" horiz-adv-x="695" 
d="M407 0h-28l-10 -40q48 -6 78 -31t30 -68q0 -53 -39 -81t-96 -28q-55 0 -95 19l19 68q26 -17 66 -17q25 0 43 9.5t18 30.5q0 42 -68 42q-14 0 -34 -4l29 100h-32v643h-266v105h651v-105h-266v-643z" />
    <glyph glyph-name="uni0163" unicode="&#x163;" horiz-adv-x="372" 
d="M249 -7l-10 -41q48 -6 78 -31t30 -68q0 -53 -39 -81t-96 -28q-55 0 -95 19l19 68q26 -17 66 -17q25 0 43 9.5t18 30.5q0 42 -68 42q-14 0 -34 -4l33 113q-44 17 -68 55t-23 98l1 258h-95v97h95l1 174h113l-1 -174h130v-97h-131l-1 -235q0 -47 23.5 -67.5t61.5 -20.5
q18 0 48 5v-100q-38 -6 -75 -6q-16 0 -24 1z" />
    <glyph glyph-name="Tcaron" unicode="&#x164;" horiz-adv-x="695" 
d="M22 748h651v-105h-266v-643h-119v643h-266v105zM426 955h96l-118 -150h-108l-118 150h95l77 -83z" />
    <glyph glyph-name="tcaron" unicode="&#x165;" horiz-adv-x="377" 
d="M383 779.5q15 -17.5 15 -46.5q0 -109 -110 -165v38q44 30 53 78q-24 1 -41 17.5t-17 38.5q0 24 16.5 40.5t41.5 16.5q27 0 42 -17.5zM215 181q0 -47 23.5 -67.5t61.5 -20.5q18 0 48 5v-100q-38 -6 -75 -6q-79 0 -125 41t-45 125l1 258h-95v97h95l1 174h113l-1 -174h130
v-97h-131z" />
    <glyph glyph-name="Tbar" unicode="&#x166;" horiz-adv-x="695" 
d="M673 748v-105h-266v-235h133v-91h-133v-317h-119v317h-133v91h133v235h-266v105h651z" />
    <glyph glyph-name="tbar" unicode="&#x167;" horiz-adv-x="372" 
d="M348 98v-100q-38 -6 -75 -6q-79 0 -125 41t-45 125v68h-94v81h95v109h-95v97h95l1 174h113l-1 -174h130v-97h-131v-109h131v-81h-132v-45q0 -47 23.5 -67.5t61.5 -20.5q18 0 48 5z" />
    <glyph glyph-name="Utilde" unicode="&#x168;" horiz-adv-x="764" 
d="M689 291q0 -143 -82 -222t-225 -79t-225 79t-82 222v457h119v-455q0 -97 48.5 -147t139.5 -50q90 0 139 50.5t49 146.5v455h119v-457zM346.5 948q16.5 -8 40.5 -24q17 -13 29.5 -19.5t26.5 -6.5q22 0 33.5 14t12.5 37h64q4 -55 -23.5 -95t-74.5 -40q-22 0 -38.5 8
t-40.5 24q-17 13 -29.5 19t-26.5 6q-22 0 -33.5 -13.5t-11.5 -36.5h-65q-4 55 23.5 95t74.5 40q22 0 38.5 -8z" />
    <glyph glyph-name="utilde" unicode="&#x169;" horiz-adv-x="590" 
d="M512 513v-513h-106v67q-16 -32 -53 -54.5t-92 -22.5q-86 0 -137 56.5t-51 150.5v316h112v-299q0 -56 27 -87.5t77 -31.5q51 0 81 36.5t30 88.5v293h112zM260.5 739q16.5 -8 40.5 -24q17 -13 29.5 -19.5t26.5 -6.5q22 0 33.5 13.5t12.5 37.5h64q4 -55 -23.5 -95.5
t-74.5 -40.5q-22 0 -38.5 8t-40.5 24q-17 13 -29.5 19.5t-26.5 6.5q-22 0 -33.5 -14t-11.5 -37h-65q-4 56 23.5 96t74.5 40q22 0 38.5 -8z" />
    <glyph glyph-name="Umacron" unicode="&#x16a;" horiz-adv-x="764" 
d="M689 291q0 -143 -82 -222t-225 -79t-225 79t-82 222v457h119v-455q0 -97 48.5 -147t139.5 -50q90 0 139 50.5t49 146.5v455h119v-457zM222 919h319v-80h-319v80z" />
    <glyph glyph-name="umacron" unicode="&#x16b;" horiz-adv-x="590" 
d="M512 513v-513h-106v67q-16 -32 -53 -54.5t-92 -22.5q-86 0 -137 56.5t-51 150.5v316h112v-299q0 -56 27 -87.5t77 -31.5q51 0 81 36.5t30 88.5v293h112zM147 712h299v-81h-299v81z" />
    <glyph glyph-name="Ubreve" unicode="&#x16c;" horiz-adv-x="764" 
d="M689 291q0 -143 -82 -222t-225 -79t-225 79t-82 222v457h119v-455q0 -97 48.5 -147t139.5 -50q90 0 139 50.5t49 146.5v455h119v-457zM551 963q0 -74 -46.5 -113t-123.5 -39t-123 39t-46 113h89q0 -33 21.5 -52t58.5 -19t59 19t22 52h89z" />
    <glyph glyph-name="ubreve" unicode="&#x16d;" horiz-adv-x="590" 
d="M512 513v-513h-106v67q-16 -32 -53 -54.5t-92 -22.5q-86 0 -137 56.5t-51 150.5v316h112v-299q0 -56 27 -87.5t77 -31.5q51 0 81 36.5t30 88.5v293h112zM466 753q0 -77 -46 -117t-124 -40q-77 0 -123 40.5t-46 116.5h89q0 -35 21.5 -55.5t58.5 -20.5t59 20.5t22 55.5h89z
" />
    <glyph glyph-name="Uring" unicode="&#x16e;" horiz-adv-x="764" 
d="M689 291q0 -143 -82 -222t-225 -79t-225 79t-82 222v457h119v-455q0 -97 48.5 -147t139.5 -50q90 0 139 50.5t49 146.5v455h119v-457zM458 978q31 -29 31 -73t-31 -73t-76 -29q-46 0 -77.5 29t-31.5 73t31.5 73t77.5 29q45 0 76 -29zM345.5 940q-13.5 -13 -13.5 -35
q0 -21 14 -34.5t36 -13.5q21 0 34.5 13.5t13.5 34.5q0 22 -13.5 35t-34.5 13q-23 0 -36.5 -13z" />
    <glyph glyph-name="uring" unicode="&#x16f;" horiz-adv-x="590" 
d="M512 513v-513h-106v67q-16 -32 -53 -54.5t-92 -22.5q-86 0 -137 56.5t-51 150.5v316h112v-299q0 -56 27 -87.5t77 -31.5q51 0 81 36.5t30 88.5v293h112zM383 777q35 -32 35 -81t-35 -81.5t-86 -32.5t-86.5 32.5t-35.5 81.5t35 81t87 32q51 0 86 -32zM257.5 733
q-14.5 -14 -14.5 -37t14.5 -37t39.5 -14q23 0 38 14t15 37q0 22 -15 36.5t-38 14.5q-25 0 -39.5 -14z" />
    <glyph glyph-name="Uhungarumlaut" unicode="&#x170;" horiz-adv-x="764" 
d="M689 291q0 -143 -82 -222t-225 -79t-225 79t-82 222v457h119v-455q0 -97 48.5 -147t139.5 -50q90 0 139 50.5t49 146.5v455h119v-457zM300 965h106l-79 -157h-88zM484 965h106l-79 -157h-88z" />
    <glyph glyph-name="uhungarumlaut" unicode="&#x171;" horiz-adv-x="590" 
d="M512 513v-513h-106v67q-16 -32 -53 -54.5t-92 -22.5q-86 0 -137 56.5t-51 150.5v316h112v-299q0 -56 27 -87.5t77 -31.5q51 0 81 36.5t30 88.5v293h112zM219 771h107l-81 -167h-88zM403 771h107l-81 -167h-88z" />
    <glyph glyph-name="Uogonek" unicode="&#x172;" horiz-adv-x="764" 
d="M570 748h119v-457q0 -89 -32.5 -154t-93.5 -102q-57 -35 -84.5 -72.5t-27.5 -89.5q0 -30 15.5 -48.5t43.5 -18.5q35 0 62 12l11 -56q-20 -8 -39.5 -12.5t-47.5 -4.5q-58 0 -93.5 30t-35.5 89q0 76 57 128q-28 -2 -42 -2q-143 0 -225 79t-82 222v457h119v-455
q0 -97 48.5 -147t139.5 -50q90 0 139 50.5t49 146.5v455z" />
    <glyph glyph-name="uogonek" unicode="&#x173;" horiz-adv-x="590" 
d="M489 0q-57 -36 -83.5 -67.5t-26.5 -76.5q0 -26 15 -39.5t44 -13.5q35 0 62 12l11 -56q-20 -8 -39.5 -12.5t-47.5 -4.5q-58 0 -93.5 26.5t-35.5 79.5q0 97 111 152v67q-16 -32 -53 -54.5t-92 -22.5q-86 0 -137 56.5t-51 150.5v316h112v-299q0 -56 27 -87.5t77 -31.5
q51 0 81 36.5t30 88.5v293h112v-513h-23z" />
    <glyph glyph-name="Wcircumflex" unicode="&#x174;" horiz-adv-x="1054" 
d="M912 748h125l-231 -748h-100l-179 529l-178 -529h-101l-231 748h125l158 -537l178 537h98l179 -537zM473 955h108l118 -150h-96l-76 84l-77 -84h-95z" />
    <glyph glyph-name="wcircumflex" unicode="&#x175;" horiz-adv-x="782" 
d="M659 513h115l-176 -513h-90l-117 327l-118 -327h-89l-176 513h115l109 -337l119 337h79l120 -337zM337 770h108l119 -173h-95l-78 98l-77 -98h-95z" />
    <glyph glyph-name="Ycircumflex" unicode="&#x176;" horiz-adv-x="709" 
d="M559 748h138l-283 -447v-301h-118v301l-284 447h138l205 -329zM301 955h108l118 -150h-96l-76 84l-77 -84h-95z" />
    <glyph glyph-name="ycircumflex" unicode="&#x177;" horiz-adv-x="543" 
d="M414 513h121l-326 -768h-123l126 291l-203 477h121l142 -355zM218 770h108l119 -173h-95l-78 98l-77 -98h-95z" />
    <glyph glyph-name="Ydieresis" unicode="&#x178;" horiz-adv-x="709" 
d="M559 748h138l-283 -447v-301h-118v301l-284 447h138l205 -329zM308.5 932q19.5 -19 19.5 -47t-19.5 -47t-47.5 -19q-29 0 -48 19t-19 47t19.5 47t47.5 19t47.5 -19zM496.5 932q19.5 -19 19.5 -47t-19 -47t-48 -19q-28 0 -47.5 19t-19.5 47t19.5 47t47.5 19t47.5 -19z" />
    <glyph glyph-name="Zacute" unicode="&#x179;" horiz-adv-x="615" 
d="M43 748h531v-90l-389 -552h398v-106h-550v90l388 553h-378v105zM388 952h165l-190 -147h-114z" />
    <glyph glyph-name="zacute" unicode="&#x17a;" horiz-adv-x="445" 
d="M36 513h370v-75l-235 -346h245v-92h-386v74l236 347h-230v92zM275 787h127l-134 -191h-88z" />
    <glyph glyph-name="Zdotaccent" unicode="&#x17b;" horiz-adv-x="615" 
d="M43 748h531v-90l-389 -552h398v-106h-550v90l388 553h-378v105zM357 935q21 -21 21 -50q0 -30 -21 -50.5t-50 -20.5t-50 20.5t-21 50.5q0 29 21 50t50 21t50 -21z" />
    <glyph glyph-name="zdotaccent" unicode="&#x17c;" horiz-adv-x="445" 
d="M36 513h370v-75l-235 -346h245v-92h-386v74l236 347h-230v92zM276 731q21 -21 21 -50t-21 -50t-50 -21t-50 21t-21 50t21 50t50 21t50 -21z" />
    <glyph glyph-name="Zcaron" unicode="&#x17d;" horiz-adv-x="615" 
d="M43 748h531v-90l-389 -552h398v-106h-550v90l388 553h-378v105zM383 955h96l-118 -150h-108l-118 150h95l77 -83z" />
    <glyph glyph-name="zcaron" unicode="&#x17e;" horiz-adv-x="445" 
d="M36 513h370v-75l-235 -346h245v-92h-386v74l236 347h-230v92zM304 767h95l-119 -172h-108l-118 172h95l77 -98z" />
    <glyph glyph-name="uni018F" unicode="&#x18f;" horiz-adv-x="817" 
d="M219 35.5q-79 45.5 -121 129t-42 196.5v60h593q-5 108 -71 170t-174 62q-78 0 -133.5 -36t-82.5 -102l-122 10q21 69 69.5 121.5t119 82t154.5 29.5q107 0 188.5 -45.5t127 -132.5t45.5 -206t-47 -206t-129.5 -132.5t-187.5 -45.5q-108 0 -187 45.5zM575.5 154.5
q66.5 58.5 73.5 164.5h-472q3 -100 63 -161.5t168 -61.5q101 0 167.5 58.5z" />
    <glyph glyph-name="florin" unicode="&#x192;" horiz-adv-x="497" 
d="M492 743l-46 -92q-33 35 -82 35q-35 0 -55.5 -19t-27.5 -61l-17 -93h140v-94h-156l-100 -561h-114l99 561h-103v94h120l20 112q14 82 61.5 121.5t120.5 39.5q83 0 140 -43z" />
    <glyph glyph-name="Aringacute" unicode="&#x1fa;" horiz-adv-x="752" 
d="M306.5 801q-31.5 29 -31.5 73q0 26 12 48t33 36l127 112h142l-158 -104q28 -12 44 -36t16 -56q0 -44 -31 -73t-76 -29q-46 0 -77.5 29zM418.5 839.5q13.5 13.5 13.5 34.5q0 22 -13.5 35t-34.5 13q-23 0 -36.5 -13t-13.5 -35q0 -21 14 -34.5t36 -13.5q21 0 34.5 13.5z
M325 748h101l317 -748h-130l-68 167h-338l-69 -167h-129zM377 574l-124 -301h247z" />
    <glyph glyph-name="aringacute" unicode="&#x1fb;" horiz-adv-x="542" 
d="M196.5 608q-31.5 29 -31.5 73q0 25 10.5 45.5t29.5 34.5l132 116h142l-159 -103q28 -12 44.5 -36.5t16.5 -56.5q0 -44 -31 -73t-76 -29q-46 0 -77.5 29zM308.5 646.5q13.5 13.5 13.5 34.5q0 22 -13.5 35t-34.5 13q-23 0 -36.5 -13t-13.5 -35q0 -21 14 -34.5t36 -13.5
q21 0 34.5 13.5zM416 469.5q53 -52.5 53 -150.5v-319h-113v46q-59 -56 -139 -56q-78 0 -124.5 39.5t-46.5 110.5q0 144 188 155l122 7v15q0 51 -22.5 79t-68.5 28q-45 0 -68.5 -25t-23.5 -62l-113 4q0 46 25 87.5t71.5 67.5t107.5 26q99 0 152 -52.5zM357 215l-107 -7
q-91 -5 -91 -66q0 -58 77 -58q56 0 88.5 28.5t32.5 84.5v18z" />
    <glyph glyph-name="AEacute" unicode="&#x1fc;" horiz-adv-x="1032" 
d="M989 748v-105h-351v-206h307v-103h-307v-228h351v-106h-470v167h-263l-108 -167h-144l501 748h484zM519 566l-193 -293h193v293zM736 952h165l-190 -147h-114z" />
    <glyph glyph-name="aeacute" unicode="&#x1fd;" horiz-adv-x="866" 
d="M820 214l-369 -1q4 -58 40.5 -92t92.5 -34q46 0 77 19t41 54l113 -6q-10 -46 -42 -83t-80 -59t-105 -22q-59 0 -107.5 20.5t-82.5 59.5q-31 -38 -76.5 -59t-104.5 -21q-78 0 -124.5 40.5t-46.5 111.5q0 145 194 154l108 5v16q0 51 -21.5 80t-65.5 29q-43 0 -65.5 -25.5
t-22.5 -63.5l-113 4q0 46 24 87.5t69.5 67.5t105.5 26q101 0 151 -65q33 32 78 48.5t97 16.5q108 0 171.5 -68t63.5 -185v-55zM491 393.5q-36 -32.5 -40 -92.5l256 1q-2 57 -34 90.5t-90 33.5q-56 0 -92 -32.5zM349 213l-94 -5q-49 -2 -72.5 -16.5t-23.5 -47.5
q0 -31 19.5 -45.5t53.5 -14.5q51 0 84 26.5t33 86.5v16zM473 787h127l-134 -191h-88z" />
    <glyph glyph-name="Oslashacute" unicode="&#x1fe;" horiz-adv-x="850" 
d="M696 654q51 -51 79 -122t28 -158q0 -116 -49 -203t-135 -134t-194 -47q-113 0 -199 50l-62 -81l-73 55l62 81q-51 51 -78.5 122t-27.5 157q0 116 49 203t135 134t194 47q111 0 198 -49l63 82l73 -55zM225 188l330 432q-56 32 -130 32t-132.5 -33.5t-91.5 -96t-33 -148.5
q0 -112 57 -186zM557.5 129.5q58.5 33.5 91.5 96t33 148.5q0 113 -57 187l-331 -432q57 -33 131 -33t132.5 33.5zM503 952h165l-190 -147h-114z" />
    <glyph glyph-name="oslashacute" unicode="&#x1ff;" horiz-adv-x="628" 
d="M508 447q35 -35 54 -84t19 -107q0 -79 -35 -139.5t-95.5 -93.5t-136.5 -33q-71 0 -129 29l-44 -58l-62 46l43 56q-37 36 -56.5 85t-19.5 108q0 80 35 140.5t96 93t137 32.5q74 0 131 -30l39 51l62 -46zM188 151l196 260q-31 15 -70 15q-68 0 -111 -45.5t-43 -124.5
q0 -61 28 -105zM425 132.5q43 45.5 43 123.5q0 60 -27 103l-194 -258q31 -14 67 -14q68 0 111 45.5zM362 787h127l-134 -191h-88z" />
    <glyph glyph-name="uni0218" unicode="&#x218;" horiz-adv-x="652" 
d="M512.5 700q72.5 -58 76.5 -159l-121 -7q-3 56 -41.5 88.5t-101.5 32.5q-66 0 -102.5 -31t-36.5 -81q0 -36 18 -56t50 -31.5t98 -26.5q86 -21 141 -46.5t85 -66.5t30 -105q0 -110 -75.5 -165.5t-194.5 -55.5q-83 0 -148 26.5t-103 78t-40 122.5l121 7q4 -59 51.5 -95
t118.5 -36q68 0 108.5 27t40.5 83q0 36 -20 57t-55 33.5t-104 28.5q-79 19 -130 42t-82.5 65t-31.5 110q0 61 29 110.5t87.5 79t142.5 29.5q117 0 189.5 -58zM392.5 -67q17.5 -20 17.5 -52q0 -123 -130 -187v44q51 32 62 87q-28 1 -48 19t-20 44q0 27 19.5 46t49.5 19
q32 0 49.5 -20z" />
    <glyph glyph-name="uni0219" unicode="&#x219;" horiz-adv-x="497" 
d="M385.5 476.5q50.5 -45.5 58.5 -117.5l-112 -6q-3 34 -25 53.5t-63 19.5q-39 0 -59.5 -15t-20.5 -42t20 -37.5t69 -21.5q7 -1 23 -5q90 -23 133.5 -55t43.5 -96q0 -77 -53.5 -120.5t-147.5 -43.5q-91 0 -146 43.5t-64 120.5l112 7q5 -36 30 -55t70 -19q39 0 63 15t24 43
q0 21 -10 33t-32 20t-69 19q-63 15 -99 29.5t-57.5 43t-21.5 77.5q0 70 51.5 112.5t143.5 42.5q88 0 138.5 -45.5zM297.5 -67q17.5 -20 17.5 -52q0 -123 -130 -187v44q51 32 62 87q-28 1 -48 19t-20 44q0 27 19.5 46t49.5 19q32 0 49.5 -20z" />
    <glyph glyph-name="uni021A" unicode="&#x21a;" horiz-adv-x="695" 
d="M22 748h651v-105h-266v-643h-119v643h-266v105zM406.5 -62q17.5 -20 17.5 -52q0 -123 -130 -187v44q51 32 62 87q-28 1 -48 19t-20 44q0 27 19.5 46t49.5 19q32 0 49.5 -20z" />
    <glyph glyph-name="uni021B" unicode="&#x21b;" horiz-adv-x="372" 
d="M348 98v-100q-38 -6 -75 -6q-79 0 -125 41t-45 125l1 258h-95v97h95l1 174h113l-1 -174h130v-97h-131l-1 -235q0 -47 23.5 -67.5t61.5 -20.5q18 0 48 5zM276.5 -70q17.5 -20 17.5 -52q0 -123 -130 -187v44q51 32 62 87q-28 1 -48 19t-20 44q0 27 19.5 46t49.5 19
q32 0 49.5 -20z" />
    <glyph glyph-name="uni0237" unicode="&#x237;" horiz-adv-x="273" 
d="M196 -64q0 -92 -51.5 -144.5t-139.5 -52.5q-24 0 -45 3v98q14 -3 32 -3q42 0 67 25.5t25 70.5v580h112v-577z" />
    <glyph glyph-name="uni0259" unicode="&#x259;" 
d="M417.5 491q58.5 -32 91.5 -92.5t33 -141.5q0 -82 -32.5 -142t-90.5 -92t-133 -32q-73 0 -127 30.5t-83.5 88t-29.5 134.5v55h377q-4 58 -41 92.5t-96 34.5q-48 0 -79.5 -19t-42.5 -54l-113 6q10 46 42.5 83t82 59t107.5 22q76 0 134.5 -32zM381.5 119.5
q36.5 32.5 40.5 91.5h-263q2 -57 34.5 -90.5t93.5 -33.5q58 0 94.5 32.5z" />
    <glyph glyph-name="h.sups" unicode="&#x2b0;" horiz-adv-x="483" 
d="M160 706q13 20 42 35t70 15q72 0 115.5 -43.5t43.5 -119.5v-256h-101v233q0 43 -22.5 68t-60.5 25q-39 0 -63 -26.5t-24 -67.5v-232h-101v622h101v-253z" />
    <glyph glyph-name="j.sups" unicode="&#x2b2;" horiz-adv-x="219" 
d="M153 932q18 -18 18 -44t-18 -43.5t-44 -17.5t-43.5 17.5t-17.5 43.5t18 44t43 18q26 0 44 -18zM160 290q0 -75 -43.5 -118.5t-116.5 -43.5q-16 0 -38 2v88q10 -3 26 -3q33 0 52.5 20t19.5 53v460h100v-458z" />
    <glyph glyph-name="r.sups" unicode="&#x2b3;" horiz-adv-x="296" 
d="M286 656q-55 0 -90.5 -28.5t-35.5 -72.5v-218h-101v411h97v-43q16 20 49.5 34t80.5 14v-97z" />
    <glyph glyph-name="w.sups" unicode="&#x2b7;" horiz-adv-x="666" 
d="M554 748h109l-157 -411h-78l-95 254l-95 -254h-77l-158 411h110l93 -249l93 249h69l93 -249z" />
    <glyph glyph-name="y.sups" unicode="&#x2b8;" horiz-adv-x="441" 
d="M325 748h110l-262 -615h-110l103 240l-160 375h110l105 -255z" />
    <glyph glyph-name="uni02BB" unicode="&#x2bb;" horiz-adv-x="217" 
d="M155 595.5q19 -19.5 19 -47.5q0 -29 -19 -49.5t-47 -20.5q-31 0 -48 21.5t-17 56.5q0 133 126 200v-46q-49 -35 -60 -94q27 -1 46 -20.5z" />
    <glyph glyph-name="uni02BC" unicode="&#x2bc;" horiz-adv-x="217" 
d="M157 735.5q17 -21.5 17 -56.5q0 -133 -126 -200v46q49 35 60 94q-27 1 -46 20.5t-19 47.5q0 29 19 49.5t47 20.5q31 0 48 -21.5z" />
    <glyph glyph-name="circumflex" unicode="&#x2c6;" horiz-adv-x="364" 
d="M128 770h108l119 -173h-95l-78 98l-77 -98h-95z" />
    <glyph glyph-name="caron" unicode="&#x2c7;" horiz-adv-x="364" 
d="M260 767h95l-119 -172h-108l-118 172h95l77 -98z" />
    <glyph glyph-name="breve" unicode="&#x2d8;" horiz-adv-x="364" 
d="M351 753q0 -77 -46 -117t-124 -40q-77 0 -123 40.5t-46 116.5h89q0 -35 21.5 -55.5t58.5 -20.5t59 20.5t22 55.5h89z" />
    <glyph glyph-name="dotaccent" unicode="&#x2d9;" horiz-adv-x="167" 
d="M133 731q21 -21 21 -50t-21 -50t-50 -21t-50 21t-21 50t21 50t50 21t50 -21z" />
    <glyph glyph-name="ring" unicode="&#x2da;" horiz-adv-x="266" 
d="M220 777q35 -32 35 -81t-35 -81.5t-86 -32.5t-86.5 32.5t-35.5 81.5t35 81t87 32q51 0 86 -32zM94.5 733q-14.5 -14 -14.5 -37t14.5 -37t39.5 -14q23 0 38 14t15 37q0 22 -15 36.5t-38 14.5q-25 0 -39.5 -14z" />
    <glyph glyph-name="ogonek" unicode="&#x2db;" horiz-adv-x="227" 
d="M188 4q-58 -36 -85 -68t-27 -77q0 -26 15 -39.5t44 -13.5q35 0 62 12l11 -56q-20 -8 -39.5 -12.5t-47.5 -4.5q-58 0 -93.5 26.5t-35.5 79.5q0 123 178 179z" />
    <glyph glyph-name="tilde" unicode="&#x2dc;" horiz-adv-x="365" 
d="M147.5 739q16.5 -8 40.5 -24q17 -13 29.5 -19.5t26.5 -6.5q22 0 33.5 13.5t12.5 37.5h64q4 -55 -23.5 -95.5t-74.5 -40.5q-22 0 -38.5 8t-40.5 24q-17 13 -29.5 19.5t-26.5 6.5q-22 0 -33.5 -14t-11.5 -37h-65q-4 56 23.5 96t74.5 40q22 0 38.5 -8z" />
    <glyph glyph-name="hungarumlaut" unicode="&#x2dd;" horiz-adv-x="374" 
d="M73 771h107l-81 -167h-88zM257 771h107l-81 -167h-88z" />
    <glyph glyph-name="l.sups" unicode="&#x2e1;" horiz-adv-x="218" 
d="M59 959h101v-622h-101v622z" />
    <glyph glyph-name="s.sups" unicode="&#x2e2;" horiz-adv-x="397" 
d="M308.5 719q41.5 -37 47.5 -98l-100 -6q-2 27 -18 41t-44 14t-43.5 -11t-15.5 -30q0 -18 13.5 -25t46.5 -14l27 -6q72 -18 106.5 -44t34.5 -78q0 -62 -44 -97.5t-121 -35.5q-75 0 -119.5 36t-51.5 100l101 6q2 -27 20 -41.5t50 -14.5q64 0 64 43q0 14 -7.5 22t-23.5 13
t-54 14q-51 11 -80 23.5t-45.5 36t-16.5 62.5q0 59 42 93t117 34q73 0 114.5 -37z" />
    <glyph glyph-name="x.sups" unicode="&#x2e3;" horiz-adv-x="426" 
d="M297 748h119l-131 -202l136 -209h-119l-89 135l-85 -135h-121l135 208l-132 203h120l83 -130z" />
    <glyph glyph-name="acutecomb" unicode="&#x301;" horiz-adv-x="0" 
d="M-138 787h127l-134 -191h-88z" />
    <glyph glyph-name="uni0326" unicode="&#x326;" horiz-adv-x="0" 
d="M-48.5 -62q17.5 -20 17.5 -52q0 -123 -130 -187v44q51 32 62 87q-28 1 -48 19t-20 44q0 27 19.5 46t49.5 19q32 0 49.5 -20z" />
    <glyph glyph-name="uni03A9" unicode="&#x3a9;" horiz-adv-x="784" 
d="M567 677q74 -45 113 -124t39 -177q0 -89 -38 -166t-87 -123h171v-87h-292v80q38 26 73 71.5t57 103.5t22 117q0 76 -27.5 136t-80.5 93.5t-125 33.5t-125 -33.5t-80.5 -93.5t-27.5 -136q0 -59 22 -117t57 -103.5t73 -71.5v-80h-292v87h171q-49 46 -87 123t-38 166
q0 98 39 176.5t113 124t175 45.5t175 -45z" />
    <glyph glyph-name="uni03BC" unicode="&#x3bc;" horiz-adv-x="595" 
d="M405 513h112v-513h-106v67q-16 -32 -53 -54.5t-92 -22.5q-42 0 -76 14v-259h-112v768h112v-299q0 -56 27 -87.5t77 -31.5q51 0 81 36.5t30 88.5v293z" />
    <glyph glyph-name="pi" unicode="&#x3c0;" horiz-adv-x="681" 
d="M657 477q-42 -117 -150 -117h-15l-28 -226q-1 -5 -1 -13q0 -35 33 -35q22 0 47 20l50 -66q-23 -24 -50 -36t-63 -12q-54 0 -80.5 29t-26.5 81q0 17 1 26l28 232h-111l-26 -208q-7 -50 -18 -85t-27 -67h-105q25 51 37.5 87t19.5 84l24 189h-28q-52 0 -92 -46l-52 77
q35 35 71 52t95 17h261q50 0 76 16.5t43 50.5z" />
    <glyph glyph-name="uni0400" unicode="&#x400;" horiz-adv-x="594" 
d="M81 748h470v-105h-351v-206h307v-103h-307v-228h351v-106h-470v748zM68 954h165l139 -147h-114z" />
    <glyph glyph-name="uni0401" unicode="&#x401;" horiz-adv-x="594" 
d="M81 748h470v-105h-351v-206h307v-103h-307v-228h351v-106h-470v748zM273.5 932q19.5 -19 19.5 -47t-19.5 -47t-47.5 -19q-29 0 -48 19t-19 47t19.5 47t47.5 19t47.5 -19zM461.5 932q19.5 -19 19.5 -47t-19 -47t-48 -19q-28 0 -47.5 19t-19.5 47t19.5 47t47.5 19t47.5 -19
z" />
    <glyph glyph-name="uni0402" unicode="&#x402;" horiz-adv-x="856" 
d="M496 -1v108q18 -6 34.5 -9t39.5 -3q63 0 97.5 34.5t34.5 94.5q0 68 -42.5 105t-114.5 37q-52 0 -95 -12.5t-72 -31.5v-322h-118v643h-238v105h623v-105h-267v-213q33 17 80 27.5t96 10.5q124 0 195.5 -61t71.5 -175q0 -116 -67 -179t-182 -63q-38 0 -76 9z" />
    <glyph glyph-name="uni0403" unicode="&#x403;" horiz-adv-x="561" 
d="M200 642v-642h-119v748h458v-106h-339zM391 952h165l-190 -147h-114z" />
    <glyph glyph-name="uni0404" unicode="&#x404;" horiz-adv-x="808" 
d="M766 264q-15 -85 -63.5 -146.5t-121.5 -94.5t-162 -33q-106 0 -190.5 46.5t-133 133.5t-48.5 204t48.5 204t133 133.5t190.5 46.5q89 0 163.5 -34t122.5 -97.5t60 -149.5l-122 -11q-15 89 -76.5 138t-150.5 49q-94 0 -160 -57.5t-83 -158.5h317v-103h-320
q11 -112 78.5 -175.5t167.5 -63.5q89 0 149.5 46.5t77.5 132.5z" />
    <glyph glyph-name="uni0405" unicode="&#x405;" horiz-adv-x="652" 
d="M512.5 700q72.5 -58 76.5 -159l-121 -7q-3 56 -41.5 88.5t-101.5 32.5q-66 0 -102.5 -31t-36.5 -81q0 -36 18 -56t50 -31.5t98 -26.5q86 -21 141 -46.5t85 -66.5t30 -105q0 -110 -75.5 -165.5t-194.5 -55.5q-83 0 -148 26.5t-103 78t-40 122.5l121 7q4 -59 51.5 -95
t118.5 -36q68 0 108.5 27t40.5 83q0 36 -20 57t-55 33.5t-104 28.5q-79 19 -130 42t-82.5 65t-31.5 110q0 61 29 110.5t87.5 79t142.5 29.5q117 0 189.5 -58z" />
    <glyph glyph-name="uni0406" unicode="&#x406;" horiz-adv-x="280" 
d="M81 748h119v-748h-119v748z" />
    <glyph glyph-name="uni0407" unicode="&#x407;" horiz-adv-x="280" 
d="M106 927.5q15 -18.5 15 -44.5q0 -27 -15 -45.5t-37 -18.5t-36.5 18.5t-14.5 45.5q0 26 14.5 44.5t36.5 18.5t37 -18.5zM257.5 927.5q14.5 -18.5 14.5 -44.5q0 -27 -14.5 -45.5t-36.5 -18.5t-37 18.5t-15 45.5q0 26 15 44.5t37 18.5t36.5 -18.5zM81 748h119v-748h-119v748
z" />
    <glyph glyph-name="uni0408" unicode="&#x408;" 
d="M513 250q0 -123 -65.5 -191.5t-180.5 -68.5q-110 0 -176.5 64t-72.5 177l119 19q4 -73 38 -113.5t93 -40.5q61 0 93.5 38.5t32.5 112.5v501h119v-498z" />
    <glyph glyph-name="uni0409" unicode="&#x409;" horiz-adv-x="1080" 
d="M26 0v106q20 -3 35 -3q46 0 71.5 26.5t36 72.5t16.5 120l33 426h430v-282h168q68 0 121.5 -27t83.5 -79.5t30 -126.5t-30 -126.5t-83.5 -79.5t-121.5 -27h-286v643h-201l-34 -370q-15 -159 -69.5 -219t-143.5 -60q-36 0 -56 6zM802 106q56 0 92 32.5t36 94.5q0 61 -36 94
t-92 33h-154v-254h154z" />
    <glyph glyph-name="uni040A" unicode="&#x40a;" horiz-adv-x="1082" 
d="M81 0v748h118v-299h333v299h119v-299h167q68 0 121.5 -26t83.5 -77t30 -122t-30 -121.5t-83.5 -76.5t-121.5 -26h-286v343h-333v-343h-118zM804 103q56 0 92 31t36 89t-36 89t-92 31h-153v-240h153z" />
    <glyph glyph-name="uni040B" unicode="&#x40b;" horiz-adv-x="869" 
d="M260 0v643h-238v105h622v-105h-266v-191q29 8 86 15.5t108 7.5q120 0 172 -56t52 -157v-262h-119v222q0 47 -9.5 78.5t-38.5 51t-86 19.5q-85 0 -165 -20v-351h-118z" />
    <glyph glyph-name="uni040C" unicode="&#x40c;" horiz-adv-x="681" 
d="M199 0h-118v748h118v-349l294 349h144l-311 -365l348 -383h-158l-317 356v-356zM431 952h165l-190 -147h-114z" />
    <glyph glyph-name="uni040D" unicode="&#x40d;" horiz-adv-x="750" 
d="M127 954h165l139 -147h-114zM80 0v748h119v-529l370 529h100v-748h-119v528l-369 -528h-101z" />
    <glyph glyph-name="uni040E" unicode="&#x40e;" horiz-adv-x="704" 
d="M86 16l30 107q54 -19 86 -19t55.5 16t41.5 51l15 29l-300 548h135l227 -424l189 424h128l-258 -557q-35 -73 -59 -107.5t-50 -54.5q-44 -34 -119 -34q-61 0 -121 21zM526 963q0 -74 -46.5 -113t-123.5 -39t-123 39t-46 113h94q0 -35 20 -55.5t55 -20.5t55.5 20.5
t20.5 55.5h94z" />
    <glyph glyph-name="uni040F" unicode="&#x40f;" horiz-adv-x="741" 
d="M542 748h119v-748h-235v-170h-109v170h-236v748h118v-642h343v642z" />
    <glyph glyph-name="uni0410" unicode="&#x410;" horiz-adv-x="753" 
d="M325 748h101l317 -748h-130l-68 167h-338l-69 -167h-129zM500 273l-123 301l-124 -301h247z" />
    <glyph glyph-name="uni0411" unicode="&#x411;" horiz-adv-x="659" 
d="M81 0v748h488v-105h-370v-177h188q68 0 121.5 -27t83.5 -79.5t30 -126.5t-30 -126.5t-83.5 -79.5t-121.5 -27h-306zM373 105q56 0 92 33t36 95q0 61 -36.5 94t-91.5 33h-174v-255h174z" />
    <glyph glyph-name="uni0412" unicode="&#x412;" horiz-adv-x="679" 
d="M375 748q102 0 164.5 -52t62.5 -151q0 -57 -22 -96t-62 -58q52 -17 84 -63t32 -116q0 -103 -65 -157.5t-170 -54.5h-318v748h294zM199 643v-209h179q48 0 75.5 25t27.5 78q0 52 -32.5 79t-87.5 27h-162zM199 332v-226h186q57 0 92 27.5t35 84.5q0 58 -34.5 86t-87.5 28
h-191z" />
    <glyph glyph-name="uni0413" unicode="&#x413;" horiz-adv-x="561" 
d="M200 642v-642h-119v748h458v-106h-339z" />
    <glyph glyph-name="uni0414" unicode="&#x414;" horiz-adv-x="772" 
d="M641 105h101v-275h-109v171h-510v-171h-109v275h49q41 33 72.5 122.5t40.5 228.5l19 292h446v-643zM306 643l-18 -217q-10 -123 -34.5 -199t-57.5 -123l327 1v538h-217z" />
    <glyph glyph-name="uni0415" unicode="&#x415;" horiz-adv-x="594" 
d="M81 748h470v-105h-351v-206h307v-103h-307v-228h351v-106h-470v748z" />
    <glyph glyph-name="uni0416" unicode="&#x416;" horiz-adv-x="1021" 
d="M156 0h-149l318 383l-290 365h141l276 -350v350h119v-349l275 349h141l-290 -365l317 -383h-148l-295 358v-358h-119v360z" />
    <glyph glyph-name="uni0417" unicode="&#x417;" horiz-adv-x="656" 
d="M115.5 49.5q-73.5 59.5 -78.5 167.5l118 8q13 -130 178 -130q76 0 116.5 34t40.5 92t-36 87t-105 29h-125v102h117q63 0 95 28.5t32 77.5q0 51 -35 79.5t-104 28.5q-67 0 -105 -30.5t-46 -87.5l-120 7q9 101 80.5 158.5t193.5 57.5q131 0 195.5 -53t64.5 -145
q0 -108 -98 -164q50 -19 83.5 -63.5t33.5 -110.5q0 -110 -75 -171t-208 -61q-139 0 -212.5 59.5z" />
    <glyph glyph-name="uni0418" unicode="&#x418;" horiz-adv-x="750" 
d="M80 0v748h119v-529l370 529h100v-748h-119v528l-369 -528h-101z" />
    <glyph glyph-name="uni0419" unicode="&#x419;" horiz-adv-x="750" 
d="M80 0v748h119v-529l370 529h100v-748h-119v528l-369 -528h-101zM548 963q0 -74 -46.5 -113t-123.5 -39t-123 39t-46 113h94q0 -35 20 -55.5t55 -20.5t55.5 20.5t20.5 55.5h94z" />
    <glyph glyph-name="uni041A" unicode="&#x41a;" horiz-adv-x="681" 
d="M199 0h-118v748h118v-349l294 349h144l-311 -365l348 -383h-158l-317 356v-356z" />
    <glyph glyph-name="uni041B" unicode="&#x41b;" horiz-adv-x="746" 
d="M26 0v106q20 -3 35 -3q46 0 71.5 26.5t36 72.5t16.5 120l33 426h448v-748h-119v642h-218l-34 -369q-15 -159 -69.5 -219t-143.5 -60q-36 0 -56 6z" />
    <glyph glyph-name="uni041C" unicode="&#x41c;" horiz-adv-x="951" 
d="M767 748h104v-748h-118v488l-237 -482h-78l-238 482v-488h-119v748h105l291 -571z" />
    <glyph glyph-name="uni041D" unicode="&#x41d;" horiz-adv-x="751" 
d="M552 748h119v-748h-119v333h-352v-333h-119v748h119v-309h352v309z" />
    <glyph glyph-name="uni041E" unicode="&#x41e;" horiz-adv-x="850" 
d="M619 711q86 -47 135 -134t49 -203t-49 -203t-135 -134t-194 -47t-194 47t-135 134t-49 203t49 203t135 134t194 47t194 -47zM292.5 618.5q-58.5 -33.5 -91.5 -96t-33 -148.5t33 -148.5t91.5 -96t132.5 -33.5t132.5 33.5t91.5 96t33 148.5t-33 148.5t-91.5 96t-132.5 33.5
t-132.5 -33.5z" />
    <glyph glyph-name="uni041F" unicode="&#x41f;" horiz-adv-x="741" 
d="M199 0h-118v748h580v-748h-119v643h-343v-643z" />
    <glyph glyph-name="uni0420" unicode="&#x420;" horiz-adv-x="651" 
d="M387 748q68 0 121.5 -27t83.5 -79.5t30 -126.5t-30 -126.5t-83.5 -79.5t-121.5 -27h-187v-282h-119v748h306zM199 643v-255h173q56 0 92 33t36 94q0 62 -36 95t-92 33h-173z" />
    <glyph glyph-name="uni0421" unicode="&#x421;" horiz-adv-x="808" 
d="M228.5 36.5q-84.5 46.5 -133 133.5t-48.5 204t48.5 204t133 133.5t190.5 46.5q89 0 163.5 -34t122.5 -97.5t60 -149.5l-122 -11q-15 88 -76.5 137t-150.5 49q-71 0 -127.5 -33.5t-88.5 -96.5t-32 -148q0 -86 32 -149t88.5 -96t127.5 -33q89 0 149.5 46.5t77.5 131.5
l123 -10q-15 -85 -63.5 -146.5t-121.5 -94.5t-162 -33q-106 0 -190.5 46.5z" />
    <glyph glyph-name="uni0422" unicode="&#x422;" horiz-adv-x="695" 
d="M22 748h651v-105h-266v-643h-119v643h-266v105z" />
    <glyph glyph-name="uni0423" unicode="&#x423;" horiz-adv-x="704" 
d="M86 16l30 107q54 -19 86 -19t55.5 16t41.5 51l15 29l-300 548h135l227 -424l189 424h128l-258 -557q-35 -73 -59 -107.5t-50 -54.5q-44 -34 -119 -34q-61 0 -121 21z" />
    <glyph glyph-name="uni0424" unicode="&#x424;" horiz-adv-x="957" 
d="M419 61q-174 5 -273 86.5t-99 226.5q0 96 45 166t128.5 108.5t198.5 41.5v97h118v-97q175 -5 274 -88t99 -228t-99 -226.5t-274 -86.5v-100h-118v100zM419 587q-121 -4 -186 -59t-65 -154t65 -153t186 -56v422zM537 164q121 3 186.5 57t65.5 153t-65.5 154t-186.5 59
v-423z" />
    <glyph glyph-name="uni0425" unicode="&#x425;" horiz-adv-x="701" 
d="M533 748h137l-232 -368l244 -380h-138l-193 305l-194 -305h-138l244 380l-232 368h137l183 -292z" />
    <glyph glyph-name="uni0426" unicode="&#x426;" horiz-adv-x="792" 
d="M762 -170h-109v170h-572v748h119v-642h342v642h119v-642h101v-276z" />
    <glyph glyph-name="uni0427" unicode="&#x427;" horiz-adv-x="660" 
d="M462 320q-29 -8 -75 -13t-88 -5q-102 0 -157 27.5t-74.5 75.5t-19.5 118v225h118v-192q0 -49 10.5 -81t45 -51t102.5 -19q79 0 138 18v325h118v-748h-118v320z" />
    <glyph glyph-name="uni0428" unicode="&#x428;" horiz-adv-x="1082" 
d="M1002 0h-921v748h118v-642h283v642h119v-642h282v642h119v-748z" />
    <glyph glyph-name="uni0429" unicode="&#x429;" horiz-adv-x="1133" 
d="M1002 748v-642h101v-276h-108v170h-914v748h118v-642h283v642h119v-642h282v642h119z" />
    <glyph glyph-name="uni042A" unicode="&#x42a;" horiz-adv-x="808" 
d="M544 466q68 0 121.5 -27t83.5 -79.5t30 -126.5t-30 -126.5t-83.5 -79.5t-121.5 -27h-306v643h-216v105h335v-282h187zM529 105q56 0 92 33t36 95q0 61 -36 94t-92 33h-172v-255h172z" />
    <glyph glyph-name="uni042B" unicode="&#x42b;" horiz-adv-x="919" 
d="M81 0v748h119v-282h187q68 0 121.5 -27t83.5 -79.5t30 -126.5t-30 -126.5t-83.5 -79.5t-121.5 -27h-306zM372 105q56 0 92 33t36 95q0 61 -36 94t-92 33h-173v-255h173zM720 748h119v-748h-119v748z" />
    <glyph glyph-name="uni042C" unicode="&#x42c;" horiz-adv-x="651" 
d="M81 0v748h119v-282h187q68 0 121.5 -27t83.5 -79.5t30 -126.5t-30 -126.5t-83.5 -79.5t-121.5 -27h-306zM372 105q56 0 92 33t36 95q0 61 -36 94t-92 33h-173v-255h173z" />
    <glyph glyph-name="uni042D" unicode="&#x42d;" horiz-adv-x="808" 
d="M579.5 711.5q84.5 -46.5 133 -133.5t48.5 -204t-48.5 -204t-133 -133.5t-190.5 -46.5q-89 0 -162 33t-121.5 94.5t-63.5 146.5l123 10q17 -86 77.5 -132.5t149.5 -46.5q100 0 167.5 63.5t78.5 175.5h-320v103h317q-17 101 -83 158.5t-160 57.5q-89 0 -150.5 -49
t-76.5 -138l-122 11q12 86 60 149.5t122.5 97.5t163.5 34q106 0 190.5 -46.5z" />
    <glyph glyph-name="uni042E" unicode="&#x42e;" horiz-adv-x="1061" 
d="M842 711q80 -47 126 -134t46 -203t-46 -203t-126 -134t-180 -47q-95 0 -171.5 41.5t-124 119.5t-55.5 182h-112v-333h-118v748h118v-309h114q12 98 60 170t123 110.5t166 38.5q100 0 180 -47zM780.5 129.5q52.5 33.5 82.5 96.5t30 148q0 86 -30 148.5t-82.5 96
t-118.5 33.5q-67 0 -120 -33.5t-82.5 -96t-29.5 -148.5t29.5 -148.5t82.5 -96t120 -33.5q66 0 118.5 33.5z" />
    <glyph glyph-name="uni042F" unicode="&#x42f;" horiz-adv-x="689" 
d="M609 748v-748h-120v285h-109l-204 -285h-144l220 296q-89 17 -135 76t-46 145q0 74 30 126t83.5 78.5t121.5 26.5h303zM490 391v252h-169q-56 0 -92.5 -32.5t-36.5 -93.5t38.5 -93.5t98.5 -32.5h161z" />
    <glyph glyph-name="uni0430" unicode="&#x430;" horiz-adv-x="542" 
d="M416 469.5q53 -52.5 53 -150.5v-319h-113v46q-59 -56 -139 -56q-78 0 -124.5 39.5t-46.5 110.5q0 144 188 155l122 7v15q0 51 -22.5 79t-68.5 28q-45 0 -68.5 -25t-23.5 -62l-113 4q0 46 25 87.5t71.5 67.5t107.5 26q99 0 152 -52.5zM250 208q-91 -5 -91 -66
q0 -58 77 -58q56 0 88.5 28.5t32.5 84.5v18z" />
    <glyph glyph-name="uni0431" unicode="&#x431;" horiz-adv-x="628" 
d="M459 483q57 -31 89.5 -89.5t32.5 -137.5q0 -80 -34.5 -140.5t-95 -93t-135.5 -32.5q-166 0 -231 130q-22 41 -30.5 92t-8.5 124q0 135 27.5 215t94 124.5t189.5 65.5q23 4 31 5q59 11 86 17t48 16v-106q-17 -10 -49 -16.5t-120 -21.5q-66 -11 -105 -31.5t-59.5 -58
t-26.5 -101.5q29 36 72.5 53t94.5 17q73 0 130 -31zM425 132q42 45 42 121q0 77 -42.5 121t-109.5 44q-68 0 -110.5 -44.5t-42.5 -120.5t43.5 -121t111.5 -45q66 0 108 45z" />
    <glyph glyph-name="uni0432" unicode="&#x432;" horiz-adv-x="572" 
d="M78 0v513h257q79 0 125.5 -33.5t46.5 -100.5q0 -35 -16.5 -63t-42.5 -44q85 -41 85 -126q0 -70 -49 -108t-123 -38h-283zM329 306q34 0 50 12.5t16 42.5t-18.5 46t-50.5 16h-136v-117h139zM342 91q34 0 57 17t23 51q0 60 -83 60h-149v-128h152z" />
    <glyph glyph-name="uni0433" unicode="&#x433;" horiz-adv-x="442" 
d="M189 0h-111v513h355v-100h-244v-413z" />
    <glyph glyph-name="uni0434" unicode="&#x434;" horiz-adv-x="620" 
d="M507 97h83v-247h-100v150h-376v-150h-100v247h32q35 14 61 78t33 194l8 144h359v-416zM245 416l-6 -77q-6 -87 -22 -146t-46 -96h226v319h-152z" />
    <glyph glyph-name="uni0435" unicode="&#x435;" 
d="M542 214h-377q4 -58 41 -92.5t96 -34.5q48 0 79.5 19t42.5 54l113 -6q-10 -46 -42.5 -83t-82 -59t-107.5 -22q-76 0 -134.5 32t-91.5 92.5t-33 141.5q0 82 32.5 142t90.5 92t133 32q73 0 127 -30.5t83.5 -88t29.5 -134.5v-55zM206.5 393.5q-36.5 -32.5 -40.5 -91.5h263
q-2 57 -34.5 90.5t-93.5 33.5q-58 0 -94.5 -32.5z" />
    <glyph glyph-name="uni0436" unicode="&#x436;" horiz-adv-x="782" 
d="M142 0h-138l224 262l-210 251h129l191 -238v238h111v-239l187 239h129l-205 -251l218 -262h-136l-193 241v-241h-111v240z" />
    <glyph glyph-name="uni0437" unicode="&#x437;" horiz-adv-x="540" 
d="M106 35.5q-60 45.5 -65 122.5l111 6q16 -86 125 -86q52 0 79 20t27 57q0 33 -25 50t-72 17h-79v82h79q40 0 62 16.5t22 48.5q0 30 -25 48t-74 18t-74.5 -20.5t-30.5 -57.5l-111 5q7 74 61.5 117.5t159.5 43.5q99 0 153 -40t54 -107q0 -40 -20.5 -66.5t-50.5 -42.5
q35 -13 59.5 -42.5t24.5 -72.5q0 -77 -59.5 -119.5t-163.5 -42.5q-107 0 -167 45.5z" />
    <glyph glyph-name="uni0438" unicode="&#x438;" horiz-adv-x="626" 
d="M189 0h-111v513h111v-347l249 347h110v-513h-110v346z" />
    <glyph glyph-name="uni0439" unicode="&#x439;" horiz-adv-x="626" 
d="M189 0h-111v513h111v-347l249 347h110v-513h-110v346zM482 753q0 -77 -46 -117t-124 -40q-77 0 -123 40.5t-46 116.5h94q0 -37 20 -59t55 -22t55.5 22t20.5 59h94z" />
    <glyph glyph-name="uni043A" unicode="&#x43a;" horiz-adv-x="529" 
d="M189 0h-111v513h111v-240l193 240h128l-204 -247l219 -266h-138l-198 243v-243z" />
    <glyph glyph-name="uni043B" unicode="&#x43b;" horiz-adv-x="596" 
d="M16 95q8 -1 22 -1q37 0 57.5 20t30.5 60.5t17 113.5l20 225h355v-513h-112v416h-144l-20 -183q-9 -85 -29.5 -136.5t-58.5 -76t-100 -24.5q-10 0 -38 2v97z" />
    <glyph glyph-name="uni043C" unicode="&#x43c;" horiz-adv-x="761" 
d="M188 0h-110v513h110l198 -362l189 362h108v-513h-110v315l-159 -296h-63l-163 296v-315z" />
    <glyph glyph-name="uni043D" unicode="&#x43d;" horiz-adv-x="612" 
d="M191 0h-113v513h113v-200h230v200h113v-513h-113v216h-230v-216z" />
    <glyph glyph-name="uni043E" unicode="&#x43e;" horiz-adv-x="628" 
d="M451 489.5q61 -32.5 95.5 -93t34.5 -140.5q0 -79 -35 -139.5t-95.5 -93.5t-136.5 -33t-137 33t-96 93.5t-35 139.5q0 80 35 140.5t96 93t137 32.5t137 -32.5zM203 380.5q-43 -45.5 -43 -124.5q0 -78 43 -123.5t111 -45.5t111 45.5t43 123.5q0 79 -43 124.5t-111 45.5
t-111 -45.5z" />
    <glyph glyph-name="uni043F" unicode="&#x43f;" horiz-adv-x="596" 
d="M189 0h-111v513h440v-513h-111v416h-218v-416z" />
    <glyph glyph-name="uni0440" unicode="&#x440;" horiz-adv-x="646" 
d="M78 -255v768h106v-72q22 36 66.5 58.5t102.5 22.5q71 0 127.5 -32.5t88 -93t31.5 -140.5t-31.5 -140.5t-88 -93t-127.5 -32.5q-55 0 -98 19.5t-65 51.5v-316h-112zM444 131q42 45 42 125t-42 124.5t-109 44.5q-65 0 -105 -41t-40 -115v-27q0 -74 40 -115t105 -41
q67 0 109 45z" />
    <glyph glyph-name="uni0441" unicode="&#x441;" horiz-adv-x="578" 
d="M461.5 470q64.5 -52 77.5 -142l-110 -10q-6 50 -40.5 79t-85.5 29q-64 0 -103.5 -45t-39.5 -125q0 -79 40 -124t103 -45q52 0 85.5 27t41.5 75l110 -10q-15 -87 -79 -138t-158 -51q-74 0 -132.5 32t-91.5 92t-33 142q0 83 33 143t91.5 91.5t132.5 31.5q94 0 158.5 -52z
" />
    <glyph glyph-name="uni0442" unicode="&#x442;" horiz-adv-x="469" 
d="M291 0h-113v415h-169v98h451v-98h-169v-415z" />
    <glyph glyph-name="uni0443" unicode="&#x443;" horiz-adv-x="543" 
d="M414 513h121l-326 -768h-123l126 291l-203 477h121l142 -355z" />
    <glyph glyph-name="uni0444" unicode="&#x444;" horiz-adv-x="771" 
d="M330 -8q-86 5 -150 38.5t-99 91.5t-35 134t35 134t99 92t150 39v256h111v-256q86 -5 149.5 -39t98.5 -92t35 -134t-35 -134t-98.5 -91.5t-149.5 -38.5v-247h-111v247zM330 428q-81 -6 -126.5 -52t-45.5 -119t45.5 -119t126.5 -52v342zM441 86q80 6 125 52t45 119t-45 119
t-125 52v-342z" />
    <glyph glyph-name="uni0445" unicode="&#x445;" horiz-adv-x="526" 
d="M141 0h-129l168 263l-164 250h131l116 -179l114 179h131l-165 -252l173 -261h-132l-121 188z" />
    <glyph glyph-name="uni0446" unicode="&#x446;" horiz-adv-x="631" 
d="M518 513v-416h83v-247h-98v150h-425v513h111v-416h217v416h112z" />
    <glyph glyph-name="uni0447" unicode="&#x447;" horiz-adv-x="560" 
d="M370 197q-23 -8 -58 -12.5t-68 -4.5q-96 0 -141.5 42.5t-45.5 130.5v160h111v-142q0 -49 24 -72t77 -23q30 0 57 4.5t44 12.5v220h112v-513h-112v197z" />
    <glyph glyph-name="uni0448" unicode="&#x448;" horiz-adv-x="871" 
d="M793 0h-715v513h111v-416h191v416h110v-416h192v416h111v-513z" />
    <glyph glyph-name="uni0449" unicode="&#x449;" horiz-adv-x="906" 
d="M793 513v-416h83v-247h-99v150h-699v513h111v-416h191v416h110v-416h192v416h111z" />
    <glyph glyph-name="uni044A" unicode="&#x44a;" horiz-adv-x="624" 
d="M158 0v416h-149v97h261v-172h124q95 0 150 -44t55 -127t-55 -126.5t-150 -43.5h-236zM384 95q49 0 76.5 16.5t27.5 58.5t-27.5 58.5t-76.5 16.5h-114v-150h114z" />
    <glyph glyph-name="uni044B" unicode="&#x44b;" horiz-adv-x="788" 
d="M598 513h112v-513h-112v513zM78 0v513h112v-172h124q95 0 150 -44t55 -127t-55 -126.5t-150 -43.5h-236zM304 95q49 0 76.5 16.5t27.5 58.5t-27.5 58.5t-76.5 16.5h-114v-150h114z" />
    <glyph glyph-name="uni044C" unicode="&#x44c;" horiz-adv-x="544" 
d="M78 0v513h112v-172h124q95 0 150 -44t55 -127t-55 -126.5t-150 -43.5h-236zM304 95q49 0 76.5 16.5t27.5 58.5t-27.5 58.5t-76.5 16.5h-114v-150h114z" />
    <glyph glyph-name="uni044D" unicode="&#x44d;" horiz-adv-x="575" 
d="M404.5 491q58.5 -32 91.5 -92t33 -143q0 -82 -33.5 -142t-92 -92t-132.5 -32q-88 0 -150 45.5t-83 126.5l109 11q14 -44 45.5 -67.5t78.5 -23.5q58 0 96.5 34t46.5 104h-215v80h214q-9 66 -46.5 98t-94.5 32q-47 0 -79.5 -24.5t-44.5 -70.5l-109 11q20 83 82.5 130
t150.5 47q74 0 132.5 -32z" />
    <glyph glyph-name="uni044E" unicode="&#x44e;" horiz-adv-x="802" 
d="M636 489.5q56 -32.5 87.5 -93t31.5 -140.5t-31.5 -140t-87.5 -93t-127 -33q-64 0 -116.5 27.5t-86 79t-41.5 120.5h-77v-217h-110v513h110v-199h80q16 96 82 152t159 56q71 0 127 -32.5zM606.5 132.5q37.5 45.5 37.5 123.5q0 79 -37.5 124.5t-97.5 45.5q-59 0 -97 -46
t-38 -124t38 -123.5t97 -45.5q60 0 97.5 45.5z" />
    <glyph glyph-name="uni044F" unicode="&#x44f;" horiz-adv-x="570" 
d="M492 513v-513h-112v170h-90h-2l-126 -170h-132l146 185q-58 19 -90 57.5t-32 98.5q0 84 54 128t142 44h242zM380 260v160h-113q-44 0 -71.5 -19.5t-27.5 -60.5t27.5 -60.5t71.5 -19.5h113z" />
    <glyph glyph-name="uni0450" unicode="&#x450;" 
d="M542 214h-377q4 -58 41 -92.5t96 -34.5q48 0 79.5 19t42.5 54l113 -6q-10 -46 -42.5 -83t-82 -59t-107.5 -22q-76 0 -134.5 32t-91.5 92.5t-33 141.5q0 82 32.5 142t90.5 92t133 32q73 0 127 -30.5t83.5 -88t29.5 -134.5v-55zM206.5 393.5q-36.5 -32.5 -40.5 -91.5h263
q-2 57 -34.5 90.5t-93.5 33.5q-58 0 -94.5 -32.5zM119 787h128l94 -191h-88z" />
    <glyph glyph-name="uni0451" unicode="&#x451;" 
d="M542 214h-377q4 -58 41 -92.5t96 -34.5q48 0 79.5 19t42.5 54l113 -6q-10 -46 -42.5 -83t-82 -59t-107.5 -22q-76 0 -134.5 32t-91.5 92.5t-33 141.5q0 82 32.5 142t90.5 92t133 32q73 0 127 -30.5t83.5 -88t29.5 -134.5v-55zM206.5 393.5q-36.5 -32.5 -40.5 -91.5h263
q-2 57 -34.5 90.5t-93.5 33.5q-58 0 -94.5 -32.5zM251.5 738q19.5 -19 19.5 -47t-19.5 -47t-47.5 -19q-29 0 -48 19t-19 47t19.5 47t47.5 19t47.5 -19zM439.5 738q19.5 -19 19.5 -47t-19 -47t-48 -19q-28 0 -47.5 19t-19.5 47t19.5 47t47.5 19t47.5 -19z" />
    <glyph glyph-name="uni0452" unicode="&#x452;" horiz-adv-x="607" 
d="M438 496.5q45 -25.5 70.5 -74t25.5 -113.5v-373q0 -92 -52 -144.5t-140 -52.5q-24 0 -45 3v98q15 -3 33 -3q42 0 66.5 25.5t24.5 70.5v361q0 57 -30.5 90.5t-81.5 33.5q-53 0 -86 -35.5t-33 -89.5v-293h-112v605h-81v84h81v88h112v-88h137v-84h-137v-150q20 29 56.5 48
t87.5 19q59 0 104 -25.5z" />
    <glyph glyph-name="uni0453" unicode="&#x453;" horiz-adv-x="442" 
d="M189 0h-111v513h355v-100h-244v-413zM306 787h127l-134 -191h-88z" />
    <glyph glyph-name="uni0454" unicode="&#x454;" horiz-adv-x="575" 
d="M537 162q-21 -81 -83 -126.5t-150 -45.5q-74 0 -132.5 32t-92 92t-33.5 142q0 83 33 143t91.5 92t132.5 32q88 0 150.5 -47t82.5 -130l-109 -11q-12 46 -44.5 70.5t-79.5 24.5q-57 0 -94.5 -32t-46.5 -98h214v-80h-215q8 -70 46.5 -104t96.5 -34q47 0 78.5 23.5
t45.5 67.5z" />
    <glyph glyph-name="uni0455" unicode="&#x455;" horiz-adv-x="497" 
d="M385.5 476.5q50.5 -45.5 58.5 -117.5l-112 -6q-3 34 -25 53.5t-63 19.5q-39 0 -59.5 -15t-20.5 -42t20 -37.5t69 -21.5q7 -1 23 -5q90 -23 133.5 -55t43.5 -96q0 -77 -53.5 -120.5t-147.5 -43.5q-91 0 -146 43.5t-64 120.5l112 7q5 -36 30 -55t70 -19q39 0 63 15t24 43
q0 21 -10 33t-32 20t-69 19q-63 15 -99 29.5t-57.5 43t-21.5 77.5q0 70 51.5 112.5t143.5 42.5q88 0 138.5 -45.5z" />
    <glyph glyph-name="uni0456" unicode="&#x456;" horiz-adv-x="268" 
d="M184 740.5q21 -20.5 21 -49.5t-21 -49.5t-50 -20.5t-49.5 20.5t-20.5 49.5t20.5 49.5t49.5 20.5t50 -20.5zM78 513h112v-513h-112v513z" />
    <glyph glyph-name="uni0457" unicode="&#x457;" horiz-adv-x="268" 
d="M100.5 735.5q16.5 -18.5 16.5 -44.5q0 -27 -16.5 -45t-39.5 -18t-39.5 18t-16.5 45q0 26 16.5 44.5t39.5 18.5t39.5 -18.5zM248.5 735.5q16.5 -18.5 16.5 -44.5q0 -27 -16.5 -45t-39.5 -18t-39.5 18t-16.5 45q0 26 16.5 44.5t39.5 18.5t39.5 -18.5zM78 513h112v-513h-112
v513z" />
    <glyph glyph-name="uni0458" unicode="&#x458;" horiz-adv-x="273" 
d="M189 740.5q21 -20.5 21 -49.5t-21 -49.5t-50 -20.5t-49.5 20.5t-20.5 49.5t20.5 49.5t49.5 20.5t50 -20.5zM196 -64q0 -92 -51.5 -144.5t-139.5 -52.5q-24 0 -45 3v98q14 -3 32 -3q42 0 67 25.5t25 70.5v580h112v-577z" />
    <glyph glyph-name="uni0459" unicode="&#x459;" horiz-adv-x="860" 
d="M16 95q8 -1 22 -1q37 0 57.5 20t30.5 60.5t17 113.5l20 225h343v-172h124q95 0 150 -44t55 -127t-55 -126.5t-150 -43.5h-236v416h-132l-20 -183q-9 -85 -29.5 -136.5t-58.5 -76t-100 -24.5q-10 0 -38 2v97zM620 95q49 0 76.5 16.5t27.5 58.5t-27.5 58.5t-76.5 16.5h-114
v-150h114z" />
    <glyph glyph-name="uni045A" unicode="&#x45a;" horiz-adv-x="868" 
d="M78 0v513h112v-190h221v190h112v-190h114q96 0 151 -40t55 -121t-55 -121.5t-151 -40.5h-226v228h-221v-228h-112zM628 95q47 0 75 15.5t28 50.5t-28 51t-75 16h-105v-133h105z" />
    <glyph glyph-name="uni045B" unicode="&#x45b;" horiz-adv-x="603" 
d="M438 496.5q45 -25.5 70.5 -74t25.5 -113.5v-309h-113v294q0 57 -30.5 90.5t-81.5 33.5q-53 0 -86 -35.5t-33 -89.5v-293h-112v605h-81v84h81v88h112v-88h137v-84h-137v-150q20 29 56.5 48t87.5 19q59 0 104 -25.5z" />
    <glyph glyph-name="uni045C" unicode="&#x45c;" horiz-adv-x="529" 
d="M189 0h-111v513h111v-240l193 240h128l-204 -247l219 -266h-138l-198 243v-243zM344 787h127l-134 -191h-88z" />
    <glyph glyph-name="uni045D" unicode="&#x45d;" horiz-adv-x="626" 
d="M189 0h-111v513h111v-347l249 347h110v-513h-110v346zM132 787h128l94 -191h-88z" />
    <glyph glyph-name="uni045E" unicode="&#x45e;" horiz-adv-x="543" 
d="M414 513h121l-326 -768h-123l126 291l-203 477h121l142 -355zM441 753q0 -77 -46 -117t-124 -40q-77 0 -123 40.5t-46 116.5h94q0 -37 20 -59t55 -22t55.5 22t20.5 59h94z" />
    <glyph glyph-name="uni045F" unicode="&#x45f;" horiz-adv-x="601" 
d="M411 513h112v-513h-174v-150h-98v150h-173v513h112v-416h221v416z" />
    <glyph glyph-name="uni0462" unicode="&#x462;" horiz-adv-x="756" 
d="M186 0v558h-164v96h164v94h118v-94h216v-96h-216v-119h188q106 0 170.5 -56t64.5 -163q0 -104 -65 -162t-170 -58h-306zM478 106q56 0 92 29.5t36 84.5q0 58 -35.5 86t-92.5 28h-174v-228h174z" />
    <glyph glyph-name="uni0463" unicode="&#x463;" horiz-adv-x="617" 
d="M150 0v422h-141v91h141v264h113v-264h179v-91h-180v-94h146q84 0 134 -43t50 -118q0 -80 -53 -123.5t-140 -43.5h-249zM388 88q93 0 93 77q0 40 -24.5 59.5t-68.5 19.5h-126v-156h126z" />
    <glyph glyph-name="uni0472" unicode="&#x472;" horiz-adv-x="850" 
d="M619 711q86 -47 135 -134t49 -203t-49 -203t-135 -134t-194 -47t-194 47t-135 134t-49 203t49 203t135 134t194 47t194 -47zM255 592q-69 -60 -83 -165h506q-14 105 -83 165t-170 60t-170 -60zM596 157q69 61 83 168h-508q14 -107 83 -168t171 -61t171 61z" />
    <glyph glyph-name="uni0473" unicode="&#x473;" horiz-adv-x="628" 
d="M451 489.5q61 -32.5 95.5 -93t34.5 -140.5q0 -79 -35 -139.5t-95.5 -93.5t-136.5 -33t-137 33t-96 93.5t-35 139.5q0 80 35 140.5t96 93t137 32.5t137 -32.5zM216.5 393q-40.5 -33 -52.5 -91h300q-13 59 -53 91.5t-97 32.5t-97.5 -33zM412.5 121q40.5 34 51.5 93h-300
q11 -60 51.5 -93.5t98.5 -33.5t98.5 34z" />
    <glyph glyph-name="uni0474" unicode="&#x474;" horiz-adv-x="787" 
d="M320 0l-306 748h131l234 -583l141 423q29 87 68 127.5t108 40.5q27 0 67 -8l-13 -108q-22 6 -38 6q-26 0 -42 -14.5t-26.5 -38t-28.5 -75.5l-182 -518h-113z" />
    <glyph glyph-name="uni0475" unicode="&#x475;" horiz-adv-x="579" 
d="M224 0l-219 513h128l149 -367l78 231q24 73 59 106.5t97 33.5q22 0 55 -5l-10 -101q-20 4 -28 4q-25 0 -40 -16t-29 -53l-131 -346h-109z" />
    <glyph glyph-name="uni0490" unicode="&#x490;" horiz-adv-x="561" 
d="M431 748v170h108v-276h-339v-642h-119v748h350z" />
    <glyph glyph-name="uni0491" unicode="&#x491;" horiz-adv-x="452" 
d="M334 513v150h99v-250h-244v-413h-111v513h256z" />
    <glyph glyph-name="uni0492" unicode="&#x492;" horiz-adv-x="607" 
d="M585 748v-106h-339v-211h207v-103h-207v-328h-119v328h-104v103h104v317h458z" />
    <glyph glyph-name="uni0493" unicode="&#x493;" horiz-adv-x="451" 
d="M442 513v-100h-244v-124h149v-78h-149v-211h-111v211h-67v78h67v224h355z" />
    <glyph glyph-name="uni0496" unicode="&#x496;" horiz-adv-x="1065" 
d="M697 383l229 -277h109v-276h-108v170h-61l-295 358v-358h-119v360l-296 -360h-149l318 383l-290 365h141l276 -350v350h119v-349l275 349h141z" />
    <glyph glyph-name="uni0497" unicode="&#x497;" horiz-adv-x="815" 
d="M560 262l137 -165h88v-247h-99v150h-44l-193 241v-241h-111v240l-196 -240h-138l224 262l-210 251h129l191 -238v238h111v-239l187 239h129z" />
    <glyph glyph-name="uni049A" unicode="&#x49a;" horiz-adv-x="718" 
d="M326 383l252 -277h110v-276h-108v170h-64l-317 356v-356h-118v748h118v-349l294 349h144z" />
    <glyph glyph-name="uni049B" unicode="&#x49b;" horiz-adv-x="563" 
d="M306 266l139 -169h88v-247h-99v150h-47l-198 243v-243h-111v513h111v-240l193 240h128z" />
    <glyph glyph-name="uni04A2" unicode="&#x4a2;" horiz-adv-x="802" 
d="M671 748v-642h101v-276h-108v170h-112v333h-352v-333h-119v748h119v-309h352v309h119z" />
    <glyph glyph-name="uni04A3" unicode="&#x4a3;" horiz-adv-x="648" 
d="M534 513v-416h84v-247h-99v150h-98v216h-230v-216h-113v513h113v-200h230v200h113z" />
    <glyph glyph-name="uni04AE" unicode="&#x4ae;" horiz-adv-x="709" 
d="M559 748h138l-283 -447v-301h-118v301l-284 447h138l205 -329z" />
    <glyph glyph-name="uni04AF" unicode="&#x4af;" horiz-adv-x="543" 
d="M327 -255h-112v263l-210 505h119l148 -367l146 367h120l-211 -510v-258z" />
    <glyph glyph-name="uni04B0" unicode="&#x4b0;" horiz-adv-x="709" 
d="M559 748h138l-250 -395h147v-103h-180v-250h-118v250h-180v103h147l-251 395h138l205 -329z" />
    <glyph glyph-name="uni04B1" unicode="&#x4b1;" horiz-adv-x="543" 
d="M538 513l-211 -510v-3h144v-78h-144v-177h-112v177h-142v78h142v8l-210 505h119l148 -367l146 367h120z" />
    <glyph glyph-name="uni04B2" unicode="&#x4b2;" horiz-adv-x="751" 
d="M438 380l176 -274h107v-276h-108v170h-69l-193 305l-194 -305h-138l244 380l-232 368h137l183 -292l182 292h137z" />
    <glyph glyph-name="uni04B3" unicode="&#x4b3;" horiz-adv-x="569" 
d="M343 261l109 -164h87v-247h-99v150h-56l-121 188l-122 -188h-129l168 263l-164 250h131l116 -179l114 179h131z" />
    <glyph glyph-name="uni04B6" unicode="&#x4b6;" horiz-adv-x="711" 
d="M580 106h101v-276h-108v170h-111v320q-29 -8 -75 -13t-88 -5q-102 0 -157 27.5t-74.5 75.5t-19.5 118v225h118v-192q0 -49 10.5 -81t45 -51t102.5 -19q79 0 138 18v325h118v-642z" />
    <glyph glyph-name="uni04B7" unicode="&#x4b7;" horiz-adv-x="595" 
d="M482 97h83v-247h-99v150h-96v197q-23 -8 -58 -12.5t-68 -4.5q-96 0 -141.5 42.5t-45.5 130.5v160h111v-142q0 -49 24 -72t77 -23q30 0 57 4.5t44 12.5v220h112v-416z" />
    <glyph glyph-name="uni04BA" unicode="&#x4ba;" horiz-adv-x="661" 
d="M81 0v748h118v-287q29 9 74.5 14t88.5 5q101 0 156 -28t75 -76t20 -118v-258h-118v225q0 50 -10.5 81.5t-45 50.5t-102.5 19q-79 0 -138 -18v-358h-118z" />
    <glyph glyph-name="uni04BB" unicode="&#x4bb;" horiz-adv-x="603" 
d="M190 455q20 29 56.5 48t87.5 19q59 0 104 -25.5t70.5 -74t25.5 -113.5v-309h-113v294q0 57 -30.5 90.5t-81.5 33.5q-53 0 -86 -35.5t-33 -89.5v-293h-112v777h112v-322z" />
    <glyph glyph-name="uni04C0" unicode="&#x4c0;" horiz-adv-x="280" 
d="M81 748h119v-748h-119v748z" />
    <glyph glyph-name="uni04C1" unicode="&#x4c1;" horiz-adv-x="1021" 
d="M156 0h-149l318 383l-290 365h141l276 -350v350h119v-349l275 349h141l-290 -365l317 -383h-148l-295 358v-358h-119v360zM680 963q0 -74 -46.5 -113t-123.5 -39t-123 39t-46 113h94q0 -35 20 -55.5t55 -20.5t55.5 20.5t20.5 55.5h94z" />
    <glyph glyph-name="uni04C2" unicode="&#x4c2;" horiz-adv-x="782" 
d="M142 0h-138l224 262l-210 251h129l191 -238v238h111v-239l187 239h129l-205 -251l218 -262h-136l-193 241v-241h-111v240zM562 753q0 -77 -46 -117t-124 -40q-77 0 -123 40.5t-46 116.5h94q0 -37 20 -59t55 -22t55.5 22t20.5 59h94z" />
    <glyph glyph-name="uni04CF" unicode="&#x4cf;" horiz-adv-x="268" 
d="M78 777h112v-777h-112v777z" />
    <glyph glyph-name="uni04D8" unicode="&#x4d8;" horiz-adv-x="817" 
d="M219 35.5q-79 45.5 -121 129t-42 196.5v60h593q-5 108 -71 170t-174 62q-78 0 -133.5 -36t-82.5 -102l-122 10q21 69 69.5 121.5t119 82t154.5 29.5q107 0 188.5 -45.5t127 -132.5t45.5 -206t-47 -206t-129.5 -132.5t-187.5 -45.5q-108 0 -187 45.5zM575.5 154.5
q66.5 58.5 73.5 164.5h-472q3 -100 63 -161.5t168 -61.5q101 0 167.5 58.5z" />
    <glyph glyph-name="uni04D9" unicode="&#x4d9;" 
d="M417.5 491q58.5 -32 91.5 -92.5t33 -141.5q0 -82 -32.5 -142t-90.5 -92t-133 -32q-73 0 -127 30.5t-83.5 88t-29.5 134.5v55h377q-4 58 -41 92.5t-96 34.5q-48 0 -79.5 -19t-42.5 -54l-113 6q10 46 42.5 83t82 59t107.5 22q76 0 134.5 -32zM381.5 119.5
q36.5 32.5 40.5 91.5h-263q2 -57 34.5 -90.5t93.5 -33.5q58 0 94.5 32.5z" />
    <glyph glyph-name="uni04E2" unicode="&#x4e2;" horiz-adv-x="750" 
d="M80 0v748h119v-529l370 529h100v-748h-119v528l-369 -528h-101zM219 919h319v-80h-319v80z" />
    <glyph glyph-name="uni04E3" unicode="&#x4e3;" horiz-adv-x="626" 
d="M189 0h-111v513h111v-347l249 347h110v-513h-110v346zM163 712h299v-81h-299v81z" />
    <glyph glyph-name="uni04E8" unicode="&#x4e8;" horiz-adv-x="850" 
d="M619 711q86 -47 135 -134t49 -203t-49 -203t-135 -134t-194 -47t-194 47t-135 134t-49 203t49 203t135 134t194 47t194 -47zM255 592q-69 -60 -83 -165h506q-14 105 -83 165t-170 60t-170 -60zM596 157q69 61 83 168h-508q14 -107 83 -168t171 -61t171 61z" />
    <glyph glyph-name="uni04E9" unicode="&#x4e9;" horiz-adv-x="628" 
d="M451 489.5q61 -32.5 95.5 -93t34.5 -140.5q0 -79 -35 -139.5t-95.5 -93.5t-136.5 -33t-137 33t-96 93.5t-35 139.5q0 80 35 140.5t96 93t137 32.5t137 -32.5zM216.5 393q-40.5 -33 -52.5 -91h300q-13 59 -53 91.5t-97 32.5t-97.5 -33zM412.5 121q40.5 34 51.5 93h-300
q11 -60 51.5 -93.5t98.5 -33.5t98.5 34z" />
    <glyph glyph-name="uni04EE" unicode="&#x4ee;" horiz-adv-x="704" 
d="M86 16l30 107q54 -19 86 -19t55.5 16t41.5 51l15 29l-300 548h135l227 -424l189 424h128l-258 -557q-35 -73 -59 -107.5t-50 -54.5q-44 -34 -119 -34q-61 0 -121 21zM197 919h319v-80h-319v80z" />
    <glyph glyph-name="uni04EF" unicode="&#x4ef;" horiz-adv-x="543" 
d="M414 513h121l-326 -768h-123l126 291l-203 477h121l142 -355zM122 712h299v-81h-299v81z" />
    <glyph glyph-name="uni10D0" unicode="&#x10d0;" horiz-adv-x="544" 
d="M326 492q-1 -34 16.5 -57.5t55.5 -57.5q32 -28 52 -50.5t34.5 -56.5t14.5 -80q0 -63 -31 -108t-83 -68.5t-115 -23.5q-65 0 -117 26.5t-82 75t-30 112.5q0 31 7 62l110 -4q-4 -32 -4 -50q0 -59 31.5 -93.5t84.5 -34.5t85 28.5t33 80.5q0 39 -19.5 65t-59.5 59
q-32 26 -52 47.5t-32.5 53t-10.5 74.5h112z" />
    <glyph glyph-name="uni10D1" unicode="&#x10d1;" horiz-adv-x="614" 
d="M376 494q85 -20 137 -86.5t52 -162.5q0 -77 -34 -134.5t-92.5 -89t-131.5 -31.5t-131.5 31.5t-92 89.5t-33.5 134q0 103 58 170.5t151 82.5v79q0 21 -9 35t-29 33q-28 26 -42.5 53.5t-11.5 78.5h116q0 -30 10.5 -47.5t33.5 -39.5q24 -23 36.5 -44.5t12.5 -59.5v-92z
M410.5 129.5q40.5 42.5 40.5 115.5t-40.5 116.5t-103.5 43.5q-64 0 -104 -43t-40 -117q0 -73 40 -115.5t104 -42.5q63 0 103.5 42.5z" />
    <glyph glyph-name="uni10D2" unicode="&#x10d2;" horiz-adv-x="605" 
d="M170.5 -232q-58.5 31 -92 89t-33.5 135q0 109 65.5 176.5t171.5 79.5q98 10 98 90q0 35 -21.5 54t-61.5 19q-39 -1 -60.5 -21t-24.5 -58l-114 5q5 74 58.5 120t140.5 46q59 0 103 -20.5t68 -55.5t24 -77q0 -46 -18.5 -78t-58.5 -52q69 -27 107 -87t38 -141
q0 -77 -33.5 -134.5t-92 -89t-131.5 -31.5q-74 0 -132.5 31zM406.5 -124q40.5 43 40.5 116t-40.5 116t-103.5 43q-64 0 -104.5 -43t-40.5 -116q0 -74 40.5 -116.5t104.5 -42.5q63 0 103.5 43z" />
    <glyph glyph-name="uni10D3" unicode="&#x10d3;" horiz-adv-x="873" 
d="M548 -259q-18 118 -194 118h-227v90h76q-71 37 -112 113.5t-41 177.5q0 87 28 146t75 88t104 29t102.5 -28t63.5 -79q20 51 68 79t108 28q63 0 114 -29.5t80.5 -83.5t29.5 -124q0 -69 -29 -122.5t-81 -82.5t-119 -29q-65 0 -117.5 29t-82 82t-29.5 123v19q0 57 -26 89
t-71 32q-48 0 -76.5 -41.5t-28.5 -126.5q0 -126 66 -199t173 -83l29 -3q104 -11 163.5 -63.5t67.5 -144.5zM679 166q32 38 32 101q0 62 -32 100.5t-85 38.5t-84.5 -38t-31.5 -101t31.5 -101t84.5 -38t85 38z" />
    <glyph glyph-name="uni10D4" unicode="&#x10d4;" horiz-adv-x="600" 
d="M161.5 -235.5q-55.5 29.5 -86 82t-30.5 119.5q0 41 12 84l110 -5q-9 -34 -9 -67q0 -67 36.5 -106.5t97.5 -39.5q60 0 97 39t37 110v290q-1 68 -36.5 102t-89.5 34q-57 0 -89 -33.5t-32 -91.5q0 -19 5 -51l-114 -4q-6 33 -6 63q0 64 30.5 112t84 74.5t119.5 26.5
q67 0 122 -28.5t86.5 -81.5t31.5 -124v-288q0 -114 -66 -180t-181 -66q-74 0 -129.5 29.5z" />
    <glyph glyph-name="uni10D5" unicode="&#x10d5;" horiz-adv-x="602" 
d="M427.5 476.5q54.5 -26.5 86 -75t31.5 -113.5q0 -58 -27 -97t-77 -56q50 -14 82 -63t32 -115q0 -64 -30.5 -114.5t-87.5 -79t-134 -28.5q-79 0 -137.5 30.5t-89.5 84.5t-31 122q0 32 7 63l111 -5q-5 -20 -5 -47q0 -71 39 -111t105 -40q64 0 102.5 36.5t38.5 99.5
q0 59 -36 92t-102 33h-32v93h42q57 0 87 28t30 79q0 52 -35 83t-92 31q-59 0 -93 -34t-34 -95q0 -9 2 -33l-114 -3q-3 23 -3 43q0 65 31.5 114.5t87 76.5t123.5 27t122.5 -26.5z" />
    <glyph glyph-name="uni10D6" unicode="&#x10d6;" horiz-adv-x="634" 
d="M195 21.5q-59 31.5 -92.5 88.5t-33.5 132q0 105 72 167q-59 16 -95.5 63.5t-36.5 113.5q0 59 27 104.5t74.5 70.5t107.5 25q61 0 109 -24t75.5 -67t27.5 -99q0 -36 -10 -63.5t-32 -51.5q91 -14 143.5 -77.5t52.5 -158.5q0 -77 -33.5 -134.5t-92 -89t-131.5 -31.5
t-132 31.5zM292.5 511.5q29.5 29.5 29.5 74.5q0 46 -28.5 76t-74.5 30q-45 0 -74 -30t-29 -75q0 -46 29 -75.5t74 -29.5q44 0 73.5 29.5zM430.5 129.5q40.5 42.5 40.5 115.5q0 71 -40.5 113.5t-103.5 42.5t-104 -42.5t-41 -113.5q0 -73 40.5 -115.5t104.5 -42.5
q63 0 103.5 42.5z" />
    <glyph glyph-name="uni10D7" unicode="&#x10d7;" horiz-adv-x="891" 
d="M164.5 21q-53.5 31 -84 89t-30.5 135q0 78 30.5 136.5t83.5 90t119 31.5q61 0 111.5 -30t70.5 -82q20 53 66 82.5t103 29.5t104 -28.5t75 -88t28 -147.5q0 -66 -12.5 -122.5t-36.5 -116.5h-111q24 65 35.5 119t11.5 117q0 85 -28.5 127.5t-74.5 42.5t-73 -35.5
t-27 -105.5v-20q0 -78 -30.5 -135.5t-84.5 -88.5t-123 -31t-122.5 31zM378 129q34 43 34 116q0 75 -34 118t-91 43t-91 -43.5t-34 -117.5q0 -75 34.5 -117t90.5 -42q57 0 91 43z" />
    <glyph glyph-name="uni10D8" unicode="&#x10d8;" horiz-adv-x="577" 
d="M98 0q-23 59 -35.5 116t-12.5 121q0 84 30 144t83.5 91t124.5 31t125 -31t84 -91t30 -144q0 -63 -12.5 -120t-35.5 -117h-111q24 64 35 118t11 114q0 82 -33 127.5t-93 45.5t-93 -45.5t-33 -127.5q0 -59 11.5 -113t35.5 -119h-111z" />
    <glyph glyph-name="uni10D9" unicode="&#x10d9;" horiz-adv-x="589" 
d="M307 502q66 -1 116.5 -26.5t78.5 -71t28 -104.5q0 -55 -27 -96t-76 -59q50 -14 81.5 -63t31.5 -118q0 -65 -30.5 -117t-87.5 -82t-134 -30q-78 0 -135.5 30.5t-88.5 84.5t-31 122q0 32 7 64l112 -6q-6 -24 -6 -47q0 -70 38.5 -110.5t102.5 -40.5t102 37.5t38 102.5
q0 62 -35.5 96.5t-98.5 34.5h-37v95h46q55 0 84.5 26.5t29.5 73.5q0 48 -31.5 77.5t-83.5 32.5z" />
    <glyph glyph-name="uni10DA" unicode="&#x10da;" horiz-adv-x="1130" 
d="M712 -259q-10 67 -73 96.5t-172 29.5h-320v90h81q-84 38 -131 115t-47 183q0 80 29 136t76.5 83.5t103.5 27.5q50 0 91.5 -23t62.5 -78q21 54 62.5 77.5t89.5 23.5t90.5 -23.5t63.5 -77.5q21 55 62.5 78t92.5 23q57 0 104 -28.5t75 -88.5t28 -151q0 -90 -31 -194l-112 5
q29 88 29 189q0 87 -27.5 129t-72.5 42q-42 0 -68 -32.5t-26 -99.5v-157h-112v172q0 59 -26.5 88t-68.5 29q-43 0 -69.5 -29t-26.5 -88v-172h-112v157q0 66 -26.5 99t-66.5 33q-44 0 -73 -41t-29 -122q0 -92 39 -153t103 -91t141 -33l82 -3q135 -5 211.5 -61.5t85.5 -155.5z
" />
    <glyph glyph-name="uni10DB" unicode="&#x10db;" horiz-adv-x="616" 
d="M167.5 22q-56.5 32 -87 90t-30.5 133q0 76 29.5 134.5t83 91t124.5 32.5q51 0 91.5 -18.5t63.5 -50.5l-1 123q0 66 -38.5 101t-101.5 35q-60 0 -97.5 -33t-37.5 -83l-114 4q0 59 32.5 106t89.5 73.5t126 26.5q73 0 130.5 -29t90.5 -81.5t33 -121.5v-310
q0 -76 -30.5 -133.5t-87.5 -89.5t-135 -32q-77 0 -133.5 32zM402.5 127.5q38.5 40.5 38.5 105.5v25q0 69 -38 108t-101 39t-101 -43t-38 -117q0 -72 38.5 -115t100.5 -43t100.5 40.5z" />
    <glyph glyph-name="uni10DC" unicode="&#x10dc;" horiz-adv-x="616" 
d="M180 22q-57 32 -87.5 89.5t-30.5 133.5v331q0 91 60 146t164 55h247v-97h-240q-57 0 -88 -26.5t-31 -78.5v-141q23 32 63.5 50.5t91.5 18.5q71 0 125 -32.5t83.5 -91t29.5 -134.5q0 -75 -30.5 -132.5t-87.5 -90t-134 -32.5q-78 0 -135 32zM414.5 130q38.5 43 38.5 115
q0 74 -38 117t-101 43t-101 -39t-38 -108v-25q0 -65 38.5 -105.5t100.5 -40.5t100.5 43z" />
    <glyph glyph-name="uni10DD" unicode="&#x10dd;" horiz-adv-x="844" 
d="M98 0q-23 59 -35.5 117t-12.5 123q0 87 28 146.5t75 88t104 28.5q56 0 99.5 -24t65.5 -78q41 102 165 102q58 0 105 -28.5t75 -88t28 -147.5q0 -65 -13 -121.5t-37 -117.5h-111q24 65 35.5 119t11.5 117q0 85 -28.5 127.5t-76.5 42.5q-46 0 -72 -34.5t-26 -105.5v-146
h-113v146q0 72 -25.5 106t-71.5 34q-48 0 -77 -42t-29 -127q0 -63 11.5 -117.5t35.5 -119.5h-111z" />
    <glyph glyph-name="uni10DE" unicode="&#x10de;" horiz-adv-x="596" 
d="M163 18q-57 29 -87.5 81t-30.5 118q0 32 7 63l111 -5q-5 -27 -5 -46q0 -67 38 -105t100 -38q63 0 101 36.5t38 99.5q0 59 -36 92t-102 33h-32v93h40q109 0 109 83q0 34 -20.5 57t-59.5 49q-46 32 -70.5 63.5t-23.5 84.5l113 5q1 -29 17.5 -48t52.5 -45q50 -37 77 -74.5
t27 -93.5q0 -47 -25 -80t-72 -50q51 -15 84 -63.5t33 -116.5q0 -64 -30.5 -114.5t-87.5 -79t-133 -28.5t-133 29z" />
    <glyph glyph-name="uni10DF" unicode="&#x10df;" horiz-adv-x="606" 
d="M169 -235.5q-56 29.5 -86.5 81.5t-30.5 119q0 42 12 85l110 -5q-9 -41 -9 -68q0 -67 36.5 -106t97.5 -39q60 0 97 39t37 110v426l-219 -43q33 -4 59.5 -31.5t26.5 -74.5q0 -60 -43 -93.5t-111 -33.5q-54 0 -96 20l21 68q28 -15 61 -15q29 0 49 15.5t20 46.5t-20.5 48
t-51.5 17q-18 0 -36 -4l-4 97l343 68h113v-511q0 -113 -66 -179.5t-179 -66.5q-75 0 -131 29.5z" />
    <glyph glyph-name="uni10E0" unicode="&#x10e0;" horiz-adv-x="845" 
d="M692 474.5q47 -28.5 75 -88t28 -147.5q0 -65 -13 -121t-36 -118h-112q24 65 35.5 119t11.5 117q0 86 -28.5 128t-75.5 42t-72.5 -34.5t-25.5 -105.5v-146h-113v146q0 72 -26 106t-72 34q-48 0 -76.5 -42t-28.5 -127q0 -64 11 -118.5t36 -118.5h-112q-25 71 -36.5 137.5
t-11.5 159.5q0 140 44.5 220t104.5 114t151 63q65 21 96 38.5t40 49.5l115 -5q-6 -52 -37 -84.5t-73 -50.5t-113 -39q-69 -21 -111.5 -38.5t-76.5 -48.5t-47 -80q22 36 57 51.5t72 15.5q110 0 150 -102q43 102 165 102q58 0 105 -28.5z" />
    <glyph glyph-name="uni10E1" unicode="&#x10e1;" horiz-adv-x="604" 
d="M181.5 20.5q-55.5 30.5 -85 86.5t-29.5 130v540h112v-545q0 -67 36.5 -106t94.5 -39q57 0 94 38t37 95q0 36 -9 62t-26 59q-20 41 -30 73t-7 79h112q-1 -36 7.5 -62.5t26.5 -60.5q20 -41 30 -73t10 -81q0 -61 -29.5 -113t-85 -82.5t-129.5 -30.5t-129.5 30.5z" />
    <glyph glyph-name="uni10E2" unicode="&#x10e2;" horiz-adv-x="805" 
d="M460 493q88 -12 156.5 -59t108 -127.5t39.5 -188.5q0 -118 -47.5 -203.5t-129.5 -130t-183 -44.5q-102 0 -184.5 44.5t-130.5 130t-48 203.5q0 108 40 188.5t109.5 128t157.5 58.5v122h112v-122zM530 -131q56 32 89 95.5t33 153.5q0 125 -56.5 196.5t-147.5 85.5
q12 -41 12 -79v-220h-112v220q0 38 12 79q-93 -14 -149.5 -85t-56.5 -197q0 -91 33 -154t89.5 -95t127.5 -32q70 0 126 32z" />
    <glyph glyph-name="uni10E3" unicode="&#x10e3;" horiz-adv-x="605" 
d="M166.5 -235.5q-55.5 29.5 -86 82t-30.5 119.5q0 41 12 84l110 -5q-9 -34 -9 -67q0 -67 36.5 -106.5t97.5 -39.5q60 0 97 39t37 110v344q0 41 -21.5 63t-56.5 22q-34 0 -55.5 -22t-21.5 -63v-148h-113v128q0 47 -22.5 70t-63.5 23h-44v99h60q95 0 130 -80q20 44 59 65
t88 21q51 0 90.5 -23t61 -63.5t21.5 -91.5v-344q0 -114 -66 -180t-181 -66q-74 0 -129.5 29.5z" />
    <glyph glyph-name="uni10E4" unicode="&#x10e4;" horiz-adv-x="857" 
d="M364 -236q-65 26 -100.5 74t-35.5 112q0 15 1 23l112 -3q-6 -61 42 -99t131 -38q81 0 123.5 35.5t42.5 97.5q0 51 -28.5 82.5t-81.5 32.5l-18 1v93h32q57 0 86.5 28.5t29.5 84.5t-28 87t-73 31t-72 -31t-27 -91v-24q0 -63 -30 -111t-81.5 -74t-115.5 -26q-66 0 -118 28.5
t-81 79.5t-29 117q0 67 29.5 119.5t80 81t112.5 28.5q60 0 108 -28.5t67 -78.5q18 51 63.5 79t102.5 28q54 0 101 -25t75.5 -71.5t28.5 -109.5q0 -69 -35.5 -115t-89.5 -61q48 -14 76.5 -58t28.5 -106q0 -64 -32 -113.5t-94.5 -77.5t-151.5 -28q-86 0 -151 26zM357 180
q32 36 32 95q0 60 -32 96t-85 36q-52 0 -84 -36.5t-32 -95.5t31.5 -95t84.5 -36t85 36z" />
    <glyph glyph-name="uni10E5" unicode="&#x10e5;" horiz-adv-x="604" 
d="M161.5 -235.5q-55.5 29.5 -86 82t-30.5 119.5q0 41 12 84l110 -5q-9 -34 -9 -67q0 -67 36.5 -106.5t97.5 -39.5q60 0 97 39t37 110v282q0 67 -37 105t-96 38q-52 0 -83 -33.5t-31 -90.5q0 -19 5 -51l-114 -4q-6 33 -6 63q0 63 28.5 111.5t77 75t106.5 26.5
q48 0 87.5 -18.5t62.5 -50.5l-1 343h113v-796q0 -114 -66 -180t-181 -66q-74 0 -129.5 29.5z" />
    <glyph glyph-name="uni10E6" unicode="&#x10e6;" horiz-adv-x="850" 
d="M546 -259q-9 68 -59 97t-133 29h-231v90h76q-69 36 -106.5 110.5t-37.5 171.5q0 88 28 147.5t75.5 88t104.5 28.5q123 0 165 -102q43 102 165 102q58 0 104.5 -29t74.5 -88.5t28 -148.5q0 -91 -32 -198l-110 6q29 93 29 188q0 88 -28.5 130.5t-76.5 42.5q-46 0 -72 -34.5
t-26 -105.5v-146h-112v146q0 72 -26 106t-72 34q-48 0 -77 -43t-29 -131q0 -131 63.5 -195.5t162.5 -72.5l28 -2q104 -9 167 -64.5t70 -152.5z" />
    <glyph glyph-name="uni10E7" unicode="&#x10e7;" horiz-adv-x="618" 
d="M162.5 -236.5q-56.5 28.5 -87 79.5t-30.5 117q0 16 4 46l111 -3q-2 -20 -2 -35q0 -63 37.5 -99.5t100.5 -36.5q62 0 99 39t37 110v153q-23 -32 -63.5 -50.5t-91.5 -18.5q-62 0 -113.5 28t-81.5 82t-30 129q0 54 8 95t26 93h112q-18 -51 -25 -93t-7 -85q0 -77 33.5 -115
t94.5 -38t97.5 34.5t39.5 99.5v197h113v-511q0 -114 -66.5 -180t-182.5 -66q-76 0 -132.5 28.5z" />
    <glyph glyph-name="uni10E8" unicode="&#x10e8;" horiz-adv-x="617" 
d="M168 22q-57 32 -87.5 90t-30.5 133q0 76 29.5 134.5t83.5 91t125 32.5q51 0 91.5 -18.5t63.5 -50.5l-1 172q0 41 -22 64t-56 23q-33 0 -55 -22t-22 -56v-49h-113v30q0 42 -24 66.5t-63 24.5q-20 0 -37 -3v96q20 5 55 5q43 0 77 -20.5t52 -64.5q21 44 60.5 65t87.5 21
q51 0 90.5 -23t61 -63.5t21.5 -91.5v-363q0 -76 -30.5 -133.5t-87.5 -89.5t-135 -32q-77 0 -134 32zM403.5 127.5q38.5 40.5 38.5 105.5v25q0 69 -38 108t-101 39t-101.5 -43t-38.5 -117q0 -72 39 -115t101 -43t100.5 40.5z" />
    <glyph glyph-name="uni10E9" unicode="&#x10e9;" horiz-adv-x="596" 
d="M67 589q0 57 26 102t73.5 70t109.5 25q58 0 101.5 -21t67 -58t23.5 -83q0 -45 -21 -79.5t-68 -60.5q81 -15 124.5 -78t43.5 -161q0 -68 -12.5 -124.5t-36.5 -120.5h-111q24 65 35 119.5t11 121.5q0 78 -33.5 121t-92.5 43q-56 0 -91.5 -39.5t-35.5 -107.5v-258h-113v589z
M179 429q27 41 77 62q54 24 78.5 53.5t24.5 69.5q0 38 -22.5 59.5t-61.5 21.5q-42 0 -69 -27.5t-27 -78.5v-160z" />
    <glyph glyph-name="uni10EA" unicode="&#x10ea;" horiz-adv-x="684" 
d="M203 -220.5q-74 39.5 -118 125.5t-44 219q0 109 23 199t61 169h111q-39 -84 -60 -172t-21 -196q0 -157 61.5 -222t152.5 -65q73 0 117.5 38t44.5 98q0 58 -37 91.5t-103 33.5h-64v93h84q55 0 82 22t27 59q0 25 -12 43t-36 42q-32 31 -49 60t-16 75h113q1 -27 13.5 -47
t38.5 -48q30 -31 45.5 -58t15.5 -66q0 -46 -28.5 -81.5t-78.5 -50.5q51 -15 84 -63t33 -116q0 -61 -33 -111.5t-95 -80.5t-145 -30q-93 0 -167 39.5z" />
    <glyph glyph-name="uni10EB" unicode="&#x10eb;" horiz-adv-x="622" 
d="M167.5 22q-56.5 32 -87 90t-30.5 133q0 76 29.5 134.5t83 91t124.5 32.5q51 0 91.5 -18.5t63.5 -50.5v343h112v-532q0 -76 -30.5 -133.5t-87.5 -89.5t-135 -32q-77 0 -133.5 32zM402.5 127.5q38.5 40.5 38.5 105.5v25q0 69 -38 108t-101 39t-101 -43t-38 -117
q0 -72 38.5 -115t100.5 -43t100.5 40.5z" />
    <glyph glyph-name="uni10EC" unicode="&#x10ec;" horiz-adv-x="617" 
d="M180 22q-57 32 -87.5 89.5t-30.5 133.5v363q0 51 21.5 91.5t61 63.5t90.5 23q48 0 87.5 -21t60.5 -65q18 44 52 64.5t77 20.5q35 0 55 -5v-96q-16 3 -37 3q-39 0 -63 -24.5t-24 -66.5v-30h-113v49q0 34 -22 56t-55 22q-34 0 -56 -23t-22 -64l-1 -172q23 32 63.5 50.5
t91.5 18.5q71 0 125 -32.5t83.5 -91t29.5 -134.5q0 -75 -30.5 -133t-87.5 -90t-134 -32q-78 0 -135 32zM415 130q39 43 39 115q0 74 -38.5 117t-101.5 43t-101 -39t-38 -108v-25q0 -65 38.5 -105.5t100.5 -40.5t101 43z" />
    <glyph glyph-name="uni10ED" unicode="&#x10ed;" horiz-adv-x="691" 
d="M161 -235.5q-56 29.5 -86.5 82t-30.5 119.5q0 42 13 84l109 -5q-8 -37 -8 -67q0 -67 36 -106.5t98 -39.5q60 0 96.5 39t36.5 110v252l-51 -37q-61 -43 -138 -43q-45 0 -86.5 22t-66.5 62t-25 91t25 91t66.5 62t86.5 22q36 0 72 -11t65 -32l52 -38v355h110v-359l120 90
l10 -99l-130 -81l130 -82l-10 -99l-120 90v-256q0 -114 -65 -180t-179 -66q-74 0 -130 29.5zM367 287l58 40l-58 40q-56 40 -108 40q-40 0 -64.5 -20.5t-24.5 -58.5t24.5 -59t64.5 -21q51 0 108 39z" />
    <glyph glyph-name="uni10EE" unicode="&#x10ee;" horiz-adv-x="622" 
d="M186 22q-57 32 -87.5 89.5t-30.5 133.5v532h112v-343q23 32 63.5 50.5t91.5 18.5q71 0 124.5 -32.5t83 -91t29.5 -134.5q0 -75 -30.5 -133t-87 -90t-133.5 -32q-78 0 -135 32zM420.5 130q38.5 43 38.5 115q0 74 -38 117t-101 43t-101 -39t-38 -108v-25q0 -65 38.5 -105.5
t100.5 -40.5t100.5 43z" />
    <glyph glyph-name="uni10EF" unicode="&#x10ef;" horiz-adv-x="595" 
d="M352 183q92 -7 145 -69t53 -154q0 -65 -30.5 -116t-87.5 -80t-134 -29t-134 29.5t-88 82t-31 119.5q0 22 5 55l112 -4q-4 -20 -4 -43q0 -65 37.5 -103.5t101.5 -38.5t102 35t38 99q0 60 -35.5 94t-98.5 34h-61v171q-72 -10 -110 -10q-40 0 -78 7l5 97q39 -7 80 -7
q42 0 103 9v131h110v-113q51 8 101 8q45 0 88 -7l-5 -96q-42 7 -85 7q-48 0 -99 -8v-100z" />
    <glyph glyph-name="uni10F0" unicode="&#x10f0;" horiz-adv-x="585" 
d="M504.5 253.5q30.5 -34.5 30.5 -87.5q0 -50 -29.5 -90t-86.5 -63.5t-134 -23.5t-135.5 27.5t-89 78t-26.5 117.5l113 -4q-4 -56 35.5 -89t101.5 -33q64 0 101.5 23.5t37.5 66.5q0 38 -32.5 60.5t-90.5 22.5h-52v84h88q35 0 56 14.5t21 40.5q0 27 -21 41t-56 14h-88v85h81
q33 0 50.5 11.5t17.5 32.5t-16.5 34t-52.5 32q-34 18 -55 32.5t-36 38.5t-14 58l113 5q1 -23 18.5 -38t55.5 -37q32 -18 52 -32t34 -36t14 -52q0 -33 -21 -58t-63 -34q46 -5 72.5 -31.5t26.5 -68.5q0 -80 -99 -98q48 -9 78.5 -43.5z" />
    <glyph glyph-name="uni1C90" unicode="&#x1c90;" horiz-adv-x="612" 
d="M362 747q0 -45 11.5 -82t29.5 -65.5t49 -68.5q35 -45 56 -79t35.5 -82.5t14.5 -109.5q0 -85 -34 -146t-92.5 -92.5t-131.5 -31.5t-131 31.5t-91.5 92t-33.5 145.5q0 62 15 114l116 -3q-11 -51 -11 -101q0 -82 37 -127.5t100 -45.5t99 42t37 123q0 62 -22 107t-67 103
q-36 48 -57 82.5t-35 83t-12 110.5h118z" />
    <glyph glyph-name="uni1C91" unicode="&#x1c91;" horiz-adv-x="625" 
d="M386 476q88 -21 141 -84.5t53 -155.5q0 -74 -35 -129.5t-96 -86t-137 -30.5t-137 30.5t-96 86.5t-35 129q0 67 28.5 119.5t79 84.5t115.5 41v68q0 24 -10 38.5t-31 32.5q-29 26 -43 52t-11 76h118q0 -29 11 -46t34 -38q25 -22 38 -43t13 -58v-87zM418 132q42 39 42 104
q0 66 -41.5 105t-106.5 39t-106 -39t-41 -105t41 -104.5t106 -38.5q64 0 106 39z" />
    <glyph glyph-name="uni1C92" unicode="&#x1c92;" horiz-adv-x="632" 
d="M179 20.5q-61 30.5 -96 86.5t-35 129q0 105 67 170.5t175 76.5q55 5 79.5 28t24.5 65q0 36 -23 58t-63 22q-40 -1 -63 -23t-24 -59l-122 5q2 49 28.5 90t74 65t107.5 24q61 0 107.5 -23.5t71.5 -61.5t25 -81q0 -95 -77 -133q68 -26 108 -84.5t40 -138.5q0 -74 -35 -129.5
t-96 -86t-137 -30.5t-137 30.5zM422 132q42 39 42 104q0 66 -41.5 105t-106.5 39t-106 -39t-41 -105t41 -104.5t106 -38.5q64 0 106 39z" />
    <glyph glyph-name="uni1C93" unicode="&#x1c93;" horiz-adv-x="906" 
d="M576 0q-20 114 -203 114h-237v91h82q-74 38 -119.5 115.5t-45.5 174.5q0 87 30 146t79.5 88t110.5 29q58 0 106 -28t69 -78q22 49 71 77.5t111 28.5q66 0 119.5 -29.5t84 -83.5t30.5 -125q0 -68 -30.5 -121t-85 -82.5t-123.5 -29.5t-123.5 28.5t-86 80.5t-31.5 119v20
q0 57 -27.5 89t-72.5 32q-50 0 -80 -39.5t-30 -121.5q0 -126 69 -198.5t181 -82.5l30 -3q109 -10 172 -63.5t71 -147.5h-121zM712 424.5q34 36.5 34 97.5t-33.5 98t-88.5 37q-54 0 -88 -37t-34 -98t33.5 -97.5t88.5 -36.5q54 0 88 36.5z" />
    <glyph glyph-name="uni1C94" unicode="&#x1c94;" horiz-adv-x="634" 
d="M170.5 20q-58.5 30 -90.5 83t-32 121q0 42 13 84l115 -6q-8 -34 -8 -65q0 -65 37.5 -103.5t100.5 -38.5q62 0 100 37.5t38 106.5v282q-1 64 -37.5 98t-91.5 34q-59 0 -92.5 -33t-33.5 -91q0 -24 4 -45l-119 -4q-6 33 -6 64q0 63 32.5 111.5t89 75.5t125.5 27
q70 0 126.5 -28t88.5 -81t32 -125v-287q0 -75 -31 -130.5t-89 -86t-137 -30.5q-76 0 -134.5 30z" />
    <glyph glyph-name="uni1C95" unicode="&#x1c95;" horiz-adv-x="634" 
d="M448 732q57 -26 89.5 -75t32.5 -114q0 -57 -28 -96t-80 -57q53 -15 86 -63.5t33 -114.5q0 -64 -32 -114.5t-91.5 -79t-139.5 -28.5q-83 0 -144 30.5t-93.5 84.5t-32.5 123q0 32 7 64l117 -6q-5 -20 -5 -46q0 -70 40.5 -109t108.5 -39q66 0 106 35.5t40 96.5
q0 58 -37.5 90.5t-104.5 32.5h-29v96h38q59 0 90.5 27.5t31.5 76.5q0 50 -36 80t-96 30q-61 0 -96 -33t-35 -91q0 -12 2 -32l-119 -4q-3 21 -3 43q0 65 33 114.5t90.5 76.5t128.5 27t128 -26z" />
    <glyph glyph-name="uni1C96" unicode="&#x1c96;" horiz-adv-x="656" 
d="M207 20.5q-61 30.5 -96 86.5t-35 129q0 52 20.5 94.5t58.5 72.5q-56 16 -91.5 60t-35.5 103q0 56 28 99.5t77 67.5t112 24t113.5 -23t79 -64t28.5 -93q0 -35 -11 -62.5t-37 -52.5q86 -14 140 -75.5t54 -150.5q0 -74 -35 -129.5t-96 -86t-137 -30.5t-137 30.5zM320 496.5
q29 26.5 29 66.5t-29 67.5t-73 27.5t-73 -27.5t-29 -66.5q0 -40 29.5 -67t72.5 -27q44 0 73 26.5zM449.5 131.5q41.5 38.5 41.5 104.5t-41.5 105t-106.5 39q-64 0 -105.5 -39t-41.5 -105q0 -65 41.5 -104t105.5 -39q65 0 106.5 38.5z" />
    <glyph glyph-name="uni1C97" unicode="&#x1c97;" horiz-adv-x="950" 
d="M184.5 22q-55.5 32 -87.5 94t-32 150v217q0 87 30.5 149t85 94t125.5 32q141 0 191 -112q23 59 71 85.5t103 26.5q95 0 154 -65t59 -192v-124q0 -113 -14.5 -200.5t-43.5 -176.5h-117q28 89 42 179.5t14 196.5v129q0 76 -29 112t-75 36q-49 0 -76.5 -35.5t-27.5 -112.5
v-241q0 -86 -32 -148t-88 -94t-126 -32q-71 0 -126.5 32zM404 138q34 43 34 129v214q0 86 -34 129t-93 43q-60 0 -93.5 -43t-33.5 -129v-213q0 -87 33.5 -130t93.5 -43q59 0 93 43z" />
    <glyph glyph-name="uni1C98" unicode="&#x1c98;" horiz-adv-x="638" 
d="M123 0q-29 88 -43.5 175t-14.5 194v114q0 87 33 149t90.5 94t130.5 32q71 0 128.5 -32t91 -93.5t33.5 -147.5v-116q0 -107 -15 -194.5t-43 -174.5h-116q28 88 41.5 177t13.5 189v111q0 86 -36.5 131t-97.5 45q-62 0 -98.5 -45t-36.5 -132v-110q0 -190 56 -366h-117z" />
    <glyph glyph-name="uni1C99" unicode="&#x1c99;" horiz-adv-x="616" 
d="M160 20.5q-60 30.5 -92.5 84.5t-32.5 123q0 32 7 64l117 -6q-5 -20 -5 -46q0 -69 39.5 -108.5t105.5 -39.5q65 0 105 37t40 98q0 60 -37 93.5t-102 33.5h-38v100h48q58 0 88 25.5t30 70.5t-32.5 74t-86.5 31l6 99q69 -1 121.5 -26.5t81.5 -71t29 -104.5q0 -55 -28 -95.5
t-79 -58.5q51 -14 84.5 -65t33.5 -118q0 -65 -31.5 -116t-91 -80t-139.5 -29q-81 0 -141 30.5z" />
    <glyph glyph-name="uni1C9A" unicode="&#x1c9a;" horiz-adv-x="1174" 
d="M743 0q-10 67 -76 94.5t-178 27.5h-334v91h86q-88 35 -138 112.5t-50 184.5q0 80 30.5 136t81 84t109.5 28q50 0 93 -23t66 -79q21 55 64.5 78.5t94.5 23.5q49 0 93.5 -24t65.5 -78q22 55 65 78.5t96 23.5q60 0 109 -28.5t78.5 -89.5t29.5 -152q0 -90 -32 -192l-118 6
q30 89 30 187q0 83 -28.5 124t-75.5 41q-43 0 -70 -32t-27 -97v-146h-118v159q0 58 -27.5 87t-70.5 29q-44 0 -71 -29t-27 -87v-159h-119v146q0 64 -27 96.5t-68 32.5q-46 0 -76 -39t-30 -114q0 -137 84 -203t210 -70l85 -4q141 -4 222 -63t89 -161h-121z" />
    <glyph glyph-name="uni1C9B" unicode="&#x1c9b;" horiz-adv-x="650" 
d="M175.5 21.5q-59.5 31.5 -91 87.5t-31.5 128q0 73 31 129t87 87.5t129 31.5q52 0 94.5 -19t66.5 -51l-1 118q-1 60 -41 93t-103 33q-61 0 -100 -31t-39 -76l-122 5q0 58 34.5 104t94 71.5t131.5 25.5q75 0 135 -28.5t94 -80.5t34 -119v-289q0 -75 -31.5 -132t-91 -88
t-140.5 -31q-80 0 -139.5 31.5zM420 130q40 37 40 95v24q0 62 -39.5 98t-104.5 36q-64 0 -103 -39.5t-39 -105.5q0 -67 39.5 -106t102.5 -39q64 0 104 37z" />
    <glyph glyph-name="uni1C9C" unicode="&#x1c9c;" horiz-adv-x="649" 
d="M193.5 21q-59.5 31 -91 88t-31.5 132v314q0 94 60.5 143.5t164.5 49.5h252v-105h-249q-52 0 -81 -25t-29 -74l-1 -129q24 32 66.5 51t94.5 19q73 0 129 -31.5t87 -87.5t31 -129q0 -72 -31.5 -128t-91 -87.5t-139.5 -31.5q-81 0 -140.5 31zM435.5 132.5
q39.5 39.5 39.5 105.5t-39 105.5t-103 39.5q-65 0 -104.5 -36t-39.5 -98v-23q0 -59 40 -96t104 -37q63 0 102.5 39.5z" />
    <glyph glyph-name="uni1C9D" unicode="&#x1c9d;" horiz-adv-x="904" 
d="M123 0q-29 89 -43.5 176.5t-14.5 200.5v124q0 85 28.5 143t78 86t110.5 28q125 0 170 -110q45 110 174 110q95 0 154 -65t59 -192v-124q0 -113 -15 -201t-44 -176h-117q29 90 43 180.5t14 195.5v129q0 76 -29 112t-76 36q-48 0 -76 -36t-28 -112v-283h-119v283
q0 77 -27.5 112.5t-76.5 35.5q-46 0 -75 -36t-29 -112v-129q0 -106 14 -196.5t42 -179.5h-117z" />
    <glyph glyph-name="uni1C9E" unicode="&#x1c9e;" horiz-adv-x="614" 
d="M160.5 17.5q-59.5 28.5 -92.5 79t-33 114.5q2 32 7 58l116 -5q-3 -18 -3 -37q0 -63 39 -99.5t104 -36.5t104 33t39 89q0 54 -36 85t-102 31h-37v99h46q56 0 81.5 17.5t25.5 52.5q0 31 -20.5 52.5t-62.5 47.5q-45 28 -71.5 62.5t-25.5 87.5h120q0 -25 16 -42t55 -44
q52 -37 80.5 -72t28.5 -89q0 -43 -26 -76.5t-75 -48.5q53 -15 87.5 -61.5t34.5 -111.5q0 -61 -32 -109.5t-91.5 -76.5t-138.5 -28q-78 0 -137.5 28.5z" />
    <glyph glyph-name="uni1C9F" unicode="&#x1c9f;" horiz-adv-x="648" 
d="M171 17q-60 28 -93.5 77.5t-33.5 111.5q0 25 7 63l117 -5q-4 -16 -4 -37q0 -62 39.5 -99t103.5 -37q66 0 104.5 36t38.5 106v425l-223 -40q21 -3 43 -18.5t36.5 -41.5t14.5 -60q0 -66 -45.5 -100.5t-119.5 -34.5q-56 0 -104 23l23 79q28 -14 66 -14q31 0 52.5 16t21.5 49
q0 34 -25 53t-59 19q-16 0 -34 -4l-4 103l356 61h120v-524q0 -71 -31.5 -124t-90.5 -82t-139 -29q-77 0 -137 28z" />
    <glyph glyph-name="uni1CA0" unicode="&#x1ca0;" horiz-adv-x="875" 
d="M722 452.5q49 -27.5 78.5 -85t29.5 -143.5q0 -61 -13.5 -114t-37.5 -110h-118q25 60 37 112t12 109q0 78 -29.5 117t-78.5 39q-47 0 -74 -32.5t-27 -96.5v-133h-119v133q0 63 -27 96t-73 33q-51 0 -80.5 -38.5t-29.5 -117.5q0 -58 12 -108.5t38 -112.5h-118
q-26 69 -38.5 132.5t-12.5 153.5q0 135 47 213t110.5 110.5t157.5 59.5q66 19 97 34.5t40 44.5h122q-5 -54 -38 -87t-78 -50.5t-122 -38.5q-72 -20 -114 -35.5t-76.5 -44t-47.5 -73.5q23 33 58.5 47t74.5 14q116 0 157 -94q44 94 172 94q60 0 109 -27.5z" />
    <glyph glyph-name="uni1CA1" unicode="&#x1ca1;" horiz-adv-x="634" 
d="M198.5 20q-57.5 30 -89 86t-31.5 133v508h118v-509q0 -70 38 -107.5t98 -37.5q59 0 97.5 34t38.5 86q0 33 -9 56.5t-28 56.5q-23 40 -34.5 74t-8.5 85h117q-1 -39 9 -66.5t31 -62.5q22 -39 33.5 -70t11.5 -78q0 -59 -31.5 -108.5t-90 -79.5t-135.5 -30t-134.5 30z" />
    <glyph glyph-name="uni1CA2" unicode="&#x1ca2;" horiz-adv-x="837" 
d="M479 730q90 -12 159 -58.5t107.5 -124.5t38.5 -181q0 -114 -47 -199.5t-130 -131t-188 -45.5t-188 45.5t-130.5 131t-47.5 199.5q0 103 39 181t108.5 124.5t159.5 58.5v47h119v-47zM546.5 126.5q55.5 32.5 87 94t31.5 145.5q0 117 -52.5 185.5t-142.5 84.5q8 -37 8 -97
v-245h-117v244q0 60 10 98q-91 -14 -144.5 -83t-53.5 -187q0 -84 31.5 -145.5t87.5 -94t127 -32.5q72 0 127.5 32.5z" />
    <glyph glyph-name="uni1CA3" unicode="&#x1ca3;" horiz-adv-x="647" 
d="M183 20q-58 30 -90 83t-32 121q0 42 13 84l114 -6q-8 -42 -8 -65q0 -65 37.5 -103.5t100.5 -38.5t100.5 37.5t37.5 106.5v327q0 42 -22.5 64.5t-57.5 22.5q-36 0 -58.5 -23t-22.5 -66v-134h-118v123q0 45 -23.5 67.5t-65.5 22.5h-44v109h61q97 0 135 -79q21 43 62.5 64
t90.5 21q54 0 95 -23t64 -64t23 -92v-340q0 -76 -31 -132t-89.5 -86.5t-137.5 -30.5q-76 0 -134 30z" />
    <glyph glyph-name="uni1CA4" unicode="&#x1ca4;" horiz-adv-x="908" 
d="M380.5 16.5q-67.5 25.5 -104.5 72.5t-37 108q0 14 1 21l119 -4q-4 -35 17 -63t62.5 -44t98.5 -16q85 0 130 35.5t45 95.5q0 49 -29 79t-83 31h-18v99h32q57 0 88.5 26.5t31.5 81.5t-29.5 86t-76.5 31q-46 0 -74.5 -30.5t-28.5 -87.5v-23q0 -67 -31.5 -119t-86.5 -80.5
t-123 -28.5q-69 0 -123.5 29.5t-85.5 82.5t-31 121q0 70 30.5 124.5t84 84t119.5 29.5q62 0 111.5 -28.5t71.5 -77.5q21 50 68.5 78t106.5 28q60 0 110 -25t79.5 -72.5t29.5 -113.5q0 -70 -37.5 -115t-94.5 -61q50 -14 79.5 -57.5t29.5 -104.5q0 -62 -34 -111.5t-100 -78
t-160 -28.5q-90 0 -157.5 25.5zM373.5 424.5q33.5 36.5 33.5 97.5q0 62 -34 98.5t-89 36.5t-88.5 -37t-33.5 -98t34 -97.5t88 -36.5q56 0 89.5 36.5z" />
    <glyph glyph-name="uni1CA5" unicode="&#x1ca5;" horiz-adv-x="648" 
d="M170 17.5q-60 28.5 -93 79t-33 114.5q2 32 7 58l117 -5q-4 -16 -4 -37q0 -62 39.5 -99t103.5 -37q66 0 104.5 37t38.5 103v166q0 62 -36.5 98t-94.5 36q-51 0 -86.5 -28.5t-35.5 -83.5q0 -13 2 -24l-118 -4q-3 20 -3 35q0 62 30 109.5t80 73t108 25.5q48 0 89.5 -19.5
t64.5 -50.5v184h119v-526q0 -68 -32 -121t-91 -82.5t-138 -29.5q-78 0 -138 28.5z" />
    <glyph glyph-name="uni1CA6" unicode="&#x1ca6;" horiz-adv-x="876" 
d="M565 0q-10 67 -61.5 95t-138.5 28h-239v90h83q-75 37 -115.5 112.5t-40.5 167.5q0 88 29.5 147.5t79 88.5t109.5 29q128 0 171 -100q44 100 172 100q60 0 109.5 -29t78.5 -88.5t29 -148.5q0 -95 -34 -197l-117 6q16 46 23.5 90.5t7.5 95.5q0 85 -29.5 126.5t-79.5 41.5
q-46 0 -73 -34t-27 -100v-141h-119v141q0 67 -27 100.5t-74 33.5q-49 0 -78.5 -41t-29.5 -128q0 -126 62.5 -189.5t170.5 -72.5l30 -2q107 -9 173 -65t74 -157h-119z" />
    <glyph glyph-name="uni1CA7" unicode="&#x1ca7;" horiz-adv-x="655" 
d="M178 17.5q-60 28.5 -92.5 79t-32.5 114.5q0 34 6 58l116 -5q-3 -21 -3 -37q0 -62 39.5 -99t103.5 -37q65 0 104 37t39 103v155q-24 -31 -66 -49.5t-94 -18.5q-65 0 -119 29t-85.5 84.5t-31.5 131.5q0 54 8.5 95t27.5 90h119q-34 -88 -34 -177q0 -75 35 -112t98 -37
q64 0 103 37t39 104v185h118v-526q0 -68 -31.5 -121t-90.5 -82.5t-138 -29.5q-78 0 -138 28.5z" />
    <glyph glyph-name="uni1CA8" unicode="&#x1ca8;" horiz-adv-x="650" 
d="M175.5 21q-59.5 31 -91 86.5t-31.5 126.5q0 72 31 128t87 87t129 31q52 0 94.5 -19t66.5 -51v166q0 40 -23.5 61.5t-57.5 21.5t-57 -21t-23 -54v-44h-119v29q0 39 -24.5 60.5t-65.5 21.5q-22 0 -38 -3v102q18 5 54 5q46 0 82 -19.5t55 -60.5q21 41 62.5 61t91.5 20
q54 0 95 -22.5t63.5 -62t22.5 -88.5l-1 -342q0 -75 -31.5 -132t-91 -88t-140.5 -31q-80 0 -139.5 31zM420 130q40 37 40 92v22q0 62 -39.5 98t-104.5 36q-64 0 -103 -39t-39 -104t39.5 -103.5t102.5 -38.5q64 0 104 37z" />
    <glyph glyph-name="uni1CA9" unicode="&#x1ca9;" horiz-adv-x="631" 
d="M78 564q0 57 27 101t76.5 68.5t113.5 24.5q60 0 106 -20.5t70.5 -57.5t24.5 -83q0 -86 -92 -134q85 -13 129.5 -74t44.5 -157q0 -64 -13 -119.5t-38 -112.5h-118q26 63 37.5 115t11.5 116q0 72 -35 111.5t-96 39.5q-57 0 -94 -36.5t-37 -97.5v-248h-118v564zM195 417
q12 18 33.5 33t45.5 24q58 21 82 48.5t24 63.5q0 34 -23.5 54t-63.5 20q-43 0 -70.5 -24.5t-27.5 -71.5v-147z" />
    <glyph glyph-name="uni1CAA" unicode="&#x1caa;" horiz-adv-x="727" 
d="M220 30q-76 40 -121.5 127t-45.5 222q0 200 87 370h117q-40 -84 -62 -172.5t-22 -197.5q0 -158 63 -222.5t155 -64.5q77 0 123 37.5t46 96.5q0 57 -38 90t-106 33h-66v99h87q58 0 85 20.5t27 56.5q0 24 -12 42t-37 43q-33 32 -50.5 62t-16.5 77h118q1 -27 14 -46t40 -47
q32 -33 48 -59.5t16 -67.5q0 -46 -29.5 -82.5t-81.5 -51.5q53 -15 87 -64t34 -117q0 -62 -34.5 -113t-99.5 -81t-154 -30q-95 0 -171 40z" />
    <glyph glyph-name="uni1CAB" unicode="&#x1cab;" horiz-adv-x="648" 
d="M166.5 21.5q-59.5 31.5 -91 87.5t-31.5 128q0 73 31 129t87 87.5t129 31.5q52 0 94.5 -19t66.5 -51l-1 333h119v-507q0 -75 -31.5 -132t-91.5 -88t-141 -31q-80 0 -139.5 31.5zM411 130q40 37 40 95v24q0 62 -39.5 98t-104.5 36q-64 0 -103 -39.5t-39 -105.5t39.5 -105.5
t102.5 -39.5q64 0 104 37z" />
    <glyph glyph-name="uni1CAC" unicode="&#x1cac;" horiz-adv-x="650" 
d="M194.5 21q-59.5 31 -91 88t-31.5 132l-1 342q0 49 22.5 88.5t63.5 62t95 22.5q50 0 91.5 -20t62.5 -61q19 41 55 60.5t82 19.5q36 0 54 -5v-102q-17 3 -38 3q-41 0 -65.5 -21.5t-24.5 -60.5v-29h-119v44q0 33 -23 54t-57 21t-57.5 -21.5t-23.5 -61.5v-166q24 32 66.5 51
t94.5 19q73 0 129 -31t87 -87t31 -128q0 -71 -31.5 -126.5t-91 -86.5t-139.5 -31q-81 0 -140.5 31zM436.5 131.5q39.5 38.5 39.5 103.5t-39 104t-103 39q-65 0 -104.5 -36t-39.5 -98v-22q0 -55 40 -92t104 -37q63 0 102.5 38.5z" />
    <glyph glyph-name="uni1CAD" unicode="&#x1cad;" horiz-adv-x="727" 
d="M178.5 17.5q-59.5 28.5 -92.5 79t-33 114.5q0 28 6 58l117 -5q-3 -18 -3 -37q0 -63 39 -99.5t104 -36.5t104 37t39 103v168l-53 -31q-72 -42 -151 -42q-49 0 -92.5 20t-70 57.5t-26.5 88.5t26.5 88.5t70 57.5t92.5 20q80 0 150 -40l54 -33v163h115v-168l125 83l10 -97
l-135 -74l135 -74l-10 -97l-125 83v-182q0 -69 -31 -121.5t-89 -82t-138 -29.5q-78 0 -137.5 28.5zM339.5 431.5q28.5 9.5 60.5 26.5l59 34l-59 34q-32 17 -60.5 26.5t-61.5 9.5q-43 0 -68.5 -18t-25.5 -52t26 -52t68 -18q33 0 61.5 9.5z" />
    <glyph glyph-name="uni1CAE" unicode="&#x1cae;" horiz-adv-x="648" 
d="M201 21q-60 31 -91.5 88t-31.5 132v507h119l-1 -333q24 32 66.5 51t94.5 19q73 0 129 -31.5t87 -87.5t31 -129q0 -72 -31.5 -128t-91 -87.5t-139.5 -31.5q-81 0 -141 31zM443.5 132.5q39.5 39.5 39.5 105.5t-39 105.5t-103 39.5q-65 0 -104.5 -36t-39.5 -98v-24
q0 -58 40 -95t104 -37q63 0 102.5 39.5z" />
    <glyph glyph-name="uni1CAF" unicode="&#x1caf;" horiz-adv-x="621" 
d="M368 439q95 -8 149.5 -69.5t55.5 -152.5q0 -69 -32 -120.5t-91 -79.5t-138 -28q-78 0 -138 28.5t-93 79t-33 114.5q0 30 7 58l117 -5q-4 -24 -4 -37q0 -62 39.5 -99t103.5 -37q65 0 104 35.5t40 95.5q-1 59 -37.5 91.5t-101.5 32.5h-63v174q-60 -10 -112 -10q-43 0 -84 7
l5 99q39 -7 79 -7q38 0 112 10v129h115v-110q54 8 106 8q45 0 90 -7l-5 -100q-43 7 -88 7q-50 0 -103 -8v-99z" />
    <glyph glyph-name="uni1CB0" unicode="&#x1cb0;" horiz-adv-x="616" 
d="M532.5 243.5q30.5 -33.5 30.5 -83.5q0 -48 -32 -86.5t-91 -61t-138 -22.5q-82 0 -143.5 26t-93 74.5t-27.5 113.5l119 -3q-3 -50 37 -80t105 -30t104 21t39 59q0 34 -31.5 53.5t-91.5 19.5h-58v89h104q31 0 48.5 13t17.5 37t-17 36.5t-49 12.5h-104v89h87q67 0 67 39
q0 18 -17 30.5t-51 27.5q-37 17 -59.5 31t-38.5 38.5t-15 60.5h119q1 -20 19.5 -33.5t55.5 -30.5q36 -18 56.5 -31t36 -35t15.5 -53q0 -72 -86 -90q49 -4 75.5 -29.5t26.5 -66.5q0 -40 -25.5 -63t-76.5 -31q52 -8 82.5 -41.5z" />
    <glyph glyph-name="uni1CB1" unicode="&#x1cb1;" horiz-adv-x="600" 
 />
    <glyph glyph-name="uni1CB2" unicode="&#x1cb2;" horiz-adv-x="600" 
 />
    <glyph glyph-name="uni1CB3" unicode="&#x1cb3;" horiz-adv-x="600" 
 />
    <glyph glyph-name="uni1CB4" unicode="&#x1cb4;" horiz-adv-x="600" 
 />
    <glyph glyph-name="uni1CB5" unicode="&#x1cb5;" horiz-adv-x="600" 
 />
    <glyph glyph-name="uni1CB6" unicode="&#x1cb6;" horiz-adv-x="600" 
 />
    <glyph glyph-name="uni1CB7" unicode="&#x1cb7;" horiz-adv-x="600" 
 />
    <glyph glyph-name="uni1CB8" unicode="&#x1cb8;" horiz-adv-x="600" 
 />
    <glyph glyph-name="a.sups" unicode="&#x1d43;" horiz-adv-x="442" 
d="M387 593v-256h-95v40q-17 -21 -49.5 -34.5t-72.5 -13.5q-63 0 -99.5 31t-36.5 88q0 116 171 127l81 5v20q0 33 -17.5 51.5t-50.5 18.5q-35 0 -54.5 -19t-19.5 -46l-99 3q0 37 21 71.5t60.5 55.5t91.5 21q169 0 169 -163zM213 506q-77 -5 -77 -53q0 -47 58 -47
q38 0 65.5 22.5t27.5 66.5v16z" />
    <glyph glyph-name="b.sups" unicode="&#x1d47;" horiz-adv-x="518" 
d="M160 706q15 22 48.5 36t75.5 14q58 0 103 -26.5t70 -75t25 -112.5t-25 -112t-70 -74.5t-103 -26.5q-45 0 -79.5 15.5t-50.5 39.5v-47h-95v622h101v-253zM189 639q-30 -31 -30 -86v-21q0 -55 30 -86t78 -31q51 0 82.5 33.5t31.5 93.5t-31.5 94t-82.5 34q-48 0 -78 -31z
" />
    <glyph glyph-name="d.sups" unicode="&#x1d48;" horiz-adv-x="518" 
d="M458 959v-622h-94v47q-16 -24 -51 -39.5t-80 -15.5q-57 0 -102 26.5t-70.5 75t-25.5 111.5q0 64 25.5 112.5t70.5 75t102 26.5q43 0 76.5 -14t48.5 -36v253h100zM168.5 636q-31.5 -34 -31.5 -94t31.5 -93.5t81.5 -33.5q48 0 78 31t30 86v21q0 55 -30 86t-78 31
q-50 0 -81.5 -34z" />
    <glyph glyph-name="e.sups" unicode="&#x1d49;" horiz-adv-x="471" 
d="M436 507h-294q3 -44 29.5 -68t70.5 -24q35 0 58.5 15t30.5 41l101 -6q-11 -61 -63.5 -98.5t-124.5 -37.5q-61 0 -108.5 25.5t-74 74t-26.5 113.5q0 66 26.5 114.5t73 74t107.5 25.5q89 0 141.5 -54.5t52.5 -149.5v-45zM174.5 646.5q-26.5 -23.5 -31.5 -63.5h191
q-3 39 -27 63t-66 24q-40 0 -66.5 -23.5z" />
    <glyph glyph-name="uni1D4A" unicode="&#x1d4a;" horiz-adv-x="472" 
d="M335.5 730.5q47.5 -25.5 74 -74t26.5 -113.5q0 -66 -26.5 -114.5t-73 -74t-107.5 -25.5q-89 0 -141.5 54.5t-52.5 149.5v45h294q-3 44 -29.5 68t-70.5 24q-35 0 -58.5 -15t-30.5 -41l-101 6q11 61 63.5 98.5t124.5 37.5q61 0 108.5 -25.5zM296.5 438.5
q26.5 23.5 31.5 63.5h-191q3 -39 27 -63t66 -24q40 0 66.5 23.5z" />
    <glyph glyph-name="g.sups" unicode="&#x1d4d;" horiz-adv-x="515" 
d="M313 740.5q35 -15.5 51 -39.5v47h94v-429q0 -89 -55.5 -141t-148.5 -52q-91 0 -143.5 41t-64.5 112l101 4q4 -34 32.5 -53.5t70.5 -19.5q50 0 79 26.5t29 75.5v67q-16 -22 -49.5 -36t-75.5 -14q-57 0 -102 26.5t-70.5 75t-25.5 111.5q0 64 25.5 112.5t70.5 75t102 26.5
q45 0 80 -15.5zM168.5 636q-31.5 -34 -31.5 -94t31.5 -93.5t81.5 -33.5q48 0 78 31t30 86v21q0 55 -30 86t-78 31q-50 0 -81.5 -34z" />
    <glyph glyph-name="k.sups" unicode="&#x1d4f;" horiz-adv-x="447" 
d="M59 959h101v-369l148 158h122l-162 -178l179 -233h-126l-123 160l-38 -41v-119h-101v622z" />
    <glyph glyph-name="m.sups" unicode="&#x1d50;" horiz-adv-x="740" 
d="M642 712.5q42 -43.5 42 -119.5v-256h-101v233q0 44 -20.5 68.5t-57.5 24.5q-39 0 -61 -26t-22 -68v-232h-101v233q0 44 -20.5 68.5t-58.5 24.5t-60 -26t-22 -68v-232h-101v411h95v-43q13 21 42 36t71 15q45 0 78.5 -17.5t53.5 -50.5q18 30 50.5 49t79.5 19
q71 0 113 -43.5z" />
    <glyph glyph-name="o.sups" unicode="&#x1d52;" horiz-adv-x="503" 
d="M362 729.5q49 -26.5 77 -75t28 -112.5t-28 -112t-77 -74.5t-111 -26.5t-111 26.5t-77 74.5t-28 112t28 112.5t77 75t111 26.5t111 -26.5zM169 635.5q-32 -34.5 -32 -93.5t31.5 -93t82.5 -34t83.5 34t32.5 93t-32.5 93.5t-83.5 34.5q-50 0 -82 -34.5z" />
    <glyph glyph-name="p.sups" unicode="&#x1d56;" horiz-adv-x="518" 
d="M387 729.5q45 -26.5 70 -75t25 -112.5t-25 -112t-70 -74.5t-103 -26.5q-42 0 -75.5 14t-48.5 36v-246h-101v615h95v-47q16 24 50.5 39.5t79.5 15.5q58 0 103 -26.5zM189 639q-30 -31 -30 -86v-21q0 -55 30 -86t78 -31q51 0 82.5 33.5t31.5 93.5t-31.5 94t-82.5 34
q-48 0 -78 -31z" />
    <glyph glyph-name="t.sups" unicode="&#x1d57;" horiz-adv-x="297" 
d="M283 424v-90q-32 -4 -63 -4q-66 0 -104 33.5t-37 102.5l1 195h-76v87h76l1 139h101l-1 -139h101v-87h-102l-1 -180q0 -34 18 -47.5t48 -13.5q18 0 38 4z" />
    <glyph glyph-name="u.sups" unicode="&#x1d58;" horiz-adv-x="473" 
d="M414 748v-411h-95v43q-14 -21 -42.5 -36t-70.5 -15q-71 0 -111 41.5t-40 116.5v261h101v-237q0 -43 19 -65.5t57 -22.5t60 24t22 63v238h100z" />
    <glyph glyph-name="v.sups" unicode="&#x1d5b;" horiz-adv-x="441" 
d="M328 748h110l-178 -411h-79l-178 411h110l108 -255z" />
    <glyph glyph-name="c.sups" unicode="&#x1d9c;" horiz-adv-x="464" 
d="M372 714q53 -42 63 -115l-98 -9q-5 37 -30.5 58.5t-63.5 21.5q-48 0 -77 -34t-29 -94q0 -59 29.5 -93t76.5 -34q39 0 64 20.5t30 55.5l98 -9q-11 -71 -63.5 -112t-128.5 -41q-60 0 -107 25.5t-74 74t-27 113.5q0 66 26.5 114.5t74 74t107.5 25.5q76 0 129 -42z" />
    <glyph glyph-name="z.sups" unicode="&#x1dbb;" horiz-adv-x="359" 
d="M27 748h300v-73l-188 -253h196v-85h-312v72l188 254h-184v85z" />
    <glyph glyph-name="uni1E20" unicode="&#x1e20;" horiz-adv-x="815" 
d="M419 392h350v-39q0 -110 -43 -192t-122 -126.5t-185 -44.5q-107 0 -191.5 46t-132.5 133t-48 205q0 119 48 205.5t132 132.5t191 46q86 0 158 -31t120.5 -90t65.5 -140l-123 -20q-15 82 -74 128.5t-148 46.5q-114 0 -181.5 -71.5t-67.5 -206.5q0 -134 68 -206t181 -72
q91 0 150 47.5t73 143.5h-221v105zM253 919h319v-80h-319v80z" />
    <glyph glyph-name="uni1E21" unicode="&#x1e21;" horiz-adv-x="640" 
d="M141.5 -213.5q-64.5 50.5 -80.5 137.5l112 4q7 -45 45 -71t95 -26q65 0 104 35.5t39 100.5v94q-22 -32 -65 -51.5t-98 -19.5q-71 0 -127.5 32.5t-88 93t-31.5 140.5t31.5 140.5t88 93t127.5 32.5q58 0 102.5 -22.5t66.5 -58.5v72h106v-538q0 -73 -31 -127t-88 -83
t-133 -29q-110 0 -174.5 50.5zM416 127q40 41 40 115v27q0 74 -40 115t-105 41q-67 0 -109 -44.5t-42 -124.5t42 -125t109 -45q65 0 105 41zM164 712h299v-81h-299v81z" />
    <glyph glyph-name="Wgrave" unicode="&#x1e80;" horiz-adv-x="1054" 
d="M912 748h125l-231 -748h-100l-179 529l-178 -529h-101l-231 748h125l158 -537l178 537h98l179 -537zM275 954h165l139 -147h-114z" />
    <glyph glyph-name="wgrave" unicode="&#x1e81;" horiz-adv-x="782" 
d="M659 513h115l-176 -513h-90l-117 327l-118 -327h-89l-176 513h115l109 -337l119 337h79l120 -337zM210 787h128l94 -191h-88z" />
    <glyph glyph-name="Wacute" unicode="&#x1e82;" horiz-adv-x="1054" 
d="M912 748h125l-231 -748h-100l-179 529l-178 -529h-101l-231 748h125l158 -537l178 537h98l179 -537zM608 952h165l-190 -147h-114z" />
    <glyph glyph-name="wacute" unicode="&#x1e83;" horiz-adv-x="782" 
d="M659 513h115l-176 -513h-90l-117 327l-118 -327h-89l-176 513h115l109 -337l119 337h79l120 -337zM440 787h127l-134 -191h-88z" />
    <glyph glyph-name="Wdieresis" unicode="&#x1e84;" horiz-adv-x="1054" 
d="M912 748h125l-231 -748h-100l-179 529l-178 -529h-101l-231 748h125l158 -537l178 537h98l179 -537zM480.5 932q19.5 -19 19.5 -47t-19.5 -47t-47.5 -19q-29 0 -48 19t-19 47t19.5 47t47.5 19t47.5 -19zM668.5 932q19.5 -19 19.5 -47t-19 -47t-48 -19q-28 0 -47.5 19
t-19.5 47t19.5 47t47.5 19t47.5 -19z" />
    <glyph glyph-name="wdieresis" unicode="&#x1e85;" horiz-adv-x="782" 
d="M659 513h115l-176 -513h-90l-117 327l-118 -327h-89l-176 513h115l109 -337l119 337h79l120 -337zM342.5 738q19.5 -19 19.5 -47t-19.5 -47t-47.5 -19q-29 0 -48 19t-19 47t19.5 47t47.5 19t47.5 -19zM530.5 738q19.5 -19 19.5 -47t-19 -47t-48 -19q-28 0 -47.5 19
t-19.5 47t19.5 47t47.5 19t47.5 -19z" />
    <glyph glyph-name="uni1E9E" unicode="&#x1e9e;" horiz-adv-x="729" 
d="M515.5 725q71.5 -31 127.5 -89l-116 -176q74 -24 119 -78.5t45 -143.5q0 -74 -34.5 -130t-96.5 -86t-142 -30q-55 0 -94 9l23 105q25 -8 66 -8q68 0 111.5 37.5t43.5 101.5q0 74 -54 111t-161 55l133 215q-51 33 -137 33q-66 0 -111.5 -34.5t-45.5 -90.5v-526h-119v524
q0 69 36.5 122t99.5 81.5t141 28.5q94 0 165.5 -31z" />
    <glyph glyph-name="Ygrave" unicode="&#x1ef2;" horiz-adv-x="709" 
d="M559 748h138l-283 -447v-301h-118v301l-284 447h138l205 -329zM103 954h165l139 -147h-114z" />
    <glyph glyph-name="ygrave" unicode="&#x1ef3;" horiz-adv-x="543" 
d="M414 513h121l-326 -768h-123l126 291l-203 477h121l142 -355zM91 787h128l94 -191h-88z" />
    <glyph glyph-name="endash" unicode="&#x2013;" horiz-adv-x="558" 
d="M42 334h474v-105h-474v105z" />
    <glyph glyph-name="emdash" unicode="&#x2014;" horiz-adv-x="790" 
d="M42 334h706v-105h-706v105z" />
    <glyph glyph-name="quoteleft" unicode="&#x2018;" horiz-adv-x="217" 
d="M155 595.5q19 -19.5 19 -47.5q0 -29 -19 -49.5t-47 -20.5q-31 0 -48 21.5t-17 56.5q0 133 126 200v-46q-49 -35 -60 -94q27 -1 46 -20.5z" />
    <glyph glyph-name="quoteright" unicode="&#x2019;" horiz-adv-x="217" 
d="M157 735.5q17 -21.5 17 -56.5q0 -133 -126 -200v46q49 35 60 94q-27 1 -46 20.5t-19 47.5q0 29 19 49.5t47 20.5q31 0 48 -21.5z" />
    <glyph glyph-name="quotesinglbase" unicode="&#x201a;" horiz-adv-x="217" 
d="M157 107.5q17 -21.5 17 -56.5q0 -133 -126 -200v46q49 35 60 94q-27 1 -46 20.5t-19 47.5q0 29 19 49.5t47 20.5q31 0 48 -21.5z" />
    <glyph glyph-name="quotedblleft" unicode="&#x201c;" horiz-adv-x="398" 
d="M336 595.5q19 -19.5 19 -47.5q0 -29 -19 -49.5t-47 -20.5q-31 0 -48 21.5t-17 56.5q0 133 126 200v-46q-49 -35 -60 -94q27 -1 46 -20.5zM155 595.5q19 -19.5 19 -47.5q0 -29 -19 -49.5t-47 -20.5q-31 0 -48 21.5t-17 56.5q0 133 126 200v-46q-49 -35 -60 -94
q27 -1 46 -20.5z" />
    <glyph glyph-name="quotedblright" unicode="&#x201d;" horiz-adv-x="398" 
d="M338 735.5q17 -21.5 17 -56.5q0 -133 -126 -200v46q49 35 60 94q-27 1 -46 20.5t-19 47.5q0 29 19 49.5t47 20.5q31 0 48 -21.5zM157 735.5q17 -21.5 17 -56.5q0 -133 -126 -200v46q49 35 60 94q-27 1 -46 20.5t-19 47.5q0 29 19 49.5t47 20.5q31 0 48 -21.5z" />
    <glyph glyph-name="quotedblbase" unicode="&#x201e;" horiz-adv-x="398" 
d="M338 107.5q17 -21.5 17 -56.5q0 -133 -126 -200v46q49 35 60 94q-27 1 -46 20.5t-19 47.5q0 29 19 49.5t47 20.5q31 0 48 -21.5zM157 107.5q17 -21.5 17 -56.5q0 -133 -126 -200v46q49 35 60 94q-27 1 -46 20.5t-19 47.5q0 29 19 49.5t47 20.5q31 0 48 -21.5z" />
    <glyph glyph-name="dagger" unicode="&#x2020;" horiz-adv-x="505" 
d="M197 748h112v-200h181v-101h-181v-514h-112v514h-181v101h181v200z" />
    <glyph glyph-name="daggerdbl" unicode="&#x2021;" horiz-adv-x="505" 
d="M197 748h112v-200h181v-101h-181v-212h181v-102h-181v-200h-112v200h-181v102h181v212h-181v101h181v200z" />
    <glyph glyph-name="bullet" unicode="&#x2022;" horiz-adv-x="343" 
d="M258 362q36 -36 36 -87q0 -52 -36 -88t-86 -36q-52 0 -88 36t-36 88q0 51 36 87t88 36q50 0 86 -36z" />
    <glyph glyph-name="ellipsis" unicode="&#x2026;" horiz-adv-x="696" 
d="M166.5 113q21.5 -21 21.5 -52q0 -29 -21.5 -50t-51.5 -21q-29 0 -50 21t-21 50q0 31 21 52t50 21q30 0 51.5 -21zM398.5 113q21.5 -21 21.5 -52q0 -29 -21.5 -50t-51.5 -21q-29 0 -50 21t-21 50q0 31 21 52t50 21q30 0 51.5 -21zM630.5 113q21.5 -21 21.5 -52
q0 -29 -21.5 -50t-51.5 -21q-29 0 -50 21t-21 50q0 31 21 52t50 21q30 0 51.5 -21z" />
    <glyph glyph-name="perthousand" unicode="&#x2030;" horiz-adv-x="1248" 
d="M323 708.5q47 -49.5 47 -132.5q0 -55 -21.5 -96.5t-60 -64t-87.5 -22.5q-48 0 -86.5 22.5t-60.5 64.5t-22 96q0 55 22 96t60.5 63.5t86.5 22.5q75 0 122 -49.5zM635 748h99l-513 -748h-99zM139 651.5q-24 -27.5 -24 -75.5t24 -76t62 -28t62 27.5t24 76.5q0 48 -23.5 75.5
t-62.5 27.5q-38 0 -62 -27.5zM777 305.5q47 -49.5 47 -132.5q0 -55 -21.5 -96.5t-60 -64t-87.5 -22.5q-48 0 -86.5 22.5t-60.5 64.5t-22 96q0 55 22 96t60.5 63.5t86.5 22.5q75 0 122 -49.5zM1169 305.5q47 -49.5 47 -132.5q0 -55 -21.5 -96.5t-60 -64t-87.5 -22.5
q-48 0 -86.5 22.5t-60.5 64.5t-22 96q0 55 22 96t60.5 63.5t86.5 22.5q75 0 122 -49.5zM592.5 248.5q-23.5 -27.5 -23.5 -75.5t24 -76t62 -28q39 0 62.5 27.5t23.5 76.5q0 48 -23.5 75.5t-62.5 27.5t-62.5 -27.5zM984.5 248.5q-23.5 -27.5 -23.5 -75.5t24 -76t62 -28
q39 0 62.5 27.5t23.5 76.5q0 48 -23.5 75.5t-62.5 27.5t-62.5 -27.5z" />
    <glyph glyph-name="guilsinglleft" unicode="&#x2039;" horiz-adv-x="343" 
d="M28 266l206 224l81 -71l-151 -153l151 -153l-81 -71z" />
    <glyph glyph-name="guilsinglright" unicode="&#x203a;" horiz-adv-x="343" 
d="M28 419l80 71l207 -224l-207 -224l-80 71l151 153z" />
    <glyph glyph-name="fraction" unicode="&#x2044;" horiz-adv-x="202" 
d="M313 748h95l-518 -748h-95z" />
    <glyph glyph-name="zero.numr" unicode="&#x2070;" horiz-adv-x="365" 
d="M296.5 682.5q42.5 -55.5 42.5 -155.5q0 -101 -42.5 -156.5t-113.5 -55.5t-114 56t-43 156t43 155.5t114 55.5t113.5 -55.5zM114 527q0 -134 68 -134t68 134t-68 134t-68 -134z" />
    <glyph glyph-name="four.numr" unicode="&#x2074;" horiz-adv-x="342" 
d="M189 732h83v-255h55v-78h-55v-78h-87v78h-172v68zM186 477v137l-96 -137h96z" />
    <glyph glyph-name="five.numr" unicode="&#x2075;" horiz-adv-x="316" 
d="M259.5 549.5q35.5 -34.5 35.5 -96.5q0 -63 -37.5 -100t-101.5 -37q-61 0 -96.5 32.5t-37.5 87.5l86 5q2 -22 14.5 -34.5t34.5 -12.5q24 0 37.5 15.5t13.5 41.5t-13.5 40.5t-37.5 14.5q-23 0 -44 -16h-77v243h242v-77h-155v-81q18 9 45 9q56 0 91.5 -34.5z" />
    <glyph glyph-name="six.numr" unicode="&#x2076;" horiz-adv-x="341" 
d="M192 590q55 -6 90 -43.5t35 -93.5q0 -62 -41 -100t-104 -38q-64 0 -105.5 38t-41.5 100q0 44 30 89l134 190h105zM213 410q16 17 16 46t-15.5 44.5t-42.5 15.5q-32 0 -46 -20q-12 -17 -12 -40q0 -29 16 -46t42 -17t42 17z" />
    <glyph glyph-name="seven.numr" unicode="&#x2077;" horiz-adv-x="309" 
d="M14 733h276v-67l-162 -344h-96l158 334h-176v77z" />
    <glyph glyph-name="eight.numr" unicode="&#x2078;" horiz-adv-x="343" 
d="M267 706.5q38 -31.5 38 -85.5q0 -50 -39 -81q50 -32 50 -97q0 -59 -40.5 -93.5t-103.5 -34.5q-64 0 -104.5 34.5t-40.5 93.5q0 63 49 96q-39 34 -39 82q0 54 38 85.5t96 31.5t96 -31.5zM134 648q-15 -13 -15 -35t15 -34t38 -12t37 12t14 34q0 23 -14.5 35.5t-36.5 12.5
q-23 0 -38 -13zM130.5 482.5q-16.5 -13.5 -16.5 -38.5q0 -24 16.5 -37.5t41.5 -13.5t41 13.5t16 37.5q0 25 -16 38.5t-41 13.5t-41.5 -13.5z" />
    <glyph glyph-name="nine.numr" unicode="&#x2079;" horiz-adv-x="341" 
d="M275.5 700q41.5 -38 41.5 -100q0 -45 -31 -89l-133 -190h-105l102 142q-55 6 -90 43.5t-35 93.5q0 62 41 100t104 38q64 0 105.5 -38zM217 557q12 17 12 40q0 29 -16 46.5t-42 17.5t-42.5 -17t-16.5 -46t16 -45t43 -16q30 0 46 20z" />
    <glyph glyph-name="n.sups" unicode="&#x207f;" horiz-adv-x="486" 
d="M387.5 712.5q43.5 -43.5 43.5 -119.5v-256h-101v233q0 43 -22.5 68t-60.5 25q-39 0 -63 -26.5t-24 -67.5v-232h-101v411h95v-43q13 20 44.5 35.5t73.5 15.5q72 0 115.5 -43.5z" />
    <glyph glyph-name="zero.dnom" unicode="&#x2080;" horiz-adv-x="365" 
d="M296.5 361.5q42.5 -55.5 42.5 -155.5q0 -101 -42.5 -156.5t-113.5 -55.5t-114 56t-43 156t43 155.5t114 55.5t113.5 -55.5zM114 206q0 -134 68 -134t68 134t-68 134t-68 -134z" />
    <glyph glyph-name="one.dnom" unicode="&#x2081;" horiz-adv-x="222" 
d="M129 411h55v-411h-87v297l-62 -47l-35 72z" />
    <glyph glyph-name="two.dnom" unicode="&#x2082;" horiz-adv-x="310" 
d="M251.5 382q33.5 -35 33.5 -93q0 -41 -17.5 -75t-51.5 -71l-62 -66h134v-77h-264v60l129 137q23 24 34 45t11 48q0 23 -11 36.5t-32 13.5q-23 0 -35.5 -14.5t-12.5 -41.5l-85 5q1 60 36 94t95 34q65 0 98.5 -35z" />
    <glyph glyph-name="three.dnom" unicode="&#x2083;" horiz-adv-x="320" 
d="M252 385.5q34 -31.5 34 -87.5q0 -31 -14 -52.5t-38 -32.5q26 -9 42.5 -33t16.5 -59q0 -59 -37.5 -93t-98.5 -34q-64 0 -99 33.5t-37 91.5l87 6q2 -25 14.5 -39t34.5 -14q23 0 36 13.5t13 37.5q0 25 -14.5 37.5t-39.5 12.5h-42v74h41q21 0 35.5 12.5t14.5 34.5t-12 34
t-32 12q-21 0 -32.5 -13t-12.5 -37l-85 5q1 58 34.5 90t95.5 32q61 0 95 -31.5z" />
    <glyph glyph-name="four.dnom" unicode="&#x2084;" horiz-adv-x="342" 
d="M189 411h83v-255h55v-78h-55v-78h-87v78h-172v68zM186 156v137l-96 -137h96z" />
    <glyph glyph-name="five.dnom" unicode="&#x2085;" horiz-adv-x="316" 
d="M259.5 227.5q35.5 -34.5 35.5 -96.5q0 -63 -37.5 -100t-101.5 -37q-61 0 -96.5 32.5t-37.5 87.5l86 5q2 -22 14.5 -34.5t34.5 -12.5q24 0 37.5 15.5t13.5 41.5t-13.5 40.5t-37.5 14.5q-23 0 -44 -16h-77v243h242v-77h-155v-81q18 9 45 9q56 0 91.5 -34.5z" />
    <glyph glyph-name="six.dnom" unicode="&#x2086;" horiz-adv-x="341" 
d="M192 269q55 -6 90 -43.5t35 -93.5q0 -62 -41 -100t-104 -38q-64 0 -105.5 38t-41.5 100q0 44 30 89l134 190h105zM213 89q16 17 16 46t-15.5 44.5t-42.5 15.5q-32 0 -46 -20q-12 -17 -12 -40q0 -29 16 -46t42 -17t42 17z" />
    <glyph glyph-name="seven.dnom" unicode="&#x2087;" horiz-adv-x="309" 
d="M14 411h276v-67l-162 -344h-96l158 334h-176v77z" />
    <glyph glyph-name="eight.dnom" unicode="&#x2088;" horiz-adv-x="343" 
d="M267 385.5q38 -31.5 38 -85.5q0 -50 -39 -81q50 -32 50 -97q0 -59 -40.5 -93.5t-103.5 -34.5q-64 0 -104.5 34.5t-40.5 93.5q0 63 49 96q-39 34 -39 82q0 54 38 85.5t96 31.5t96 -31.5zM134 327q-15 -13 -15 -35t15 -34t38 -12t37 12t14 34q0 23 -14.5 35.5t-36.5 12.5
q-23 0 -38 -13zM130.5 161.5q-16.5 -13.5 -16.5 -38.5q0 -24 16.5 -37.5t41.5 -13.5t41 13.5t16 37.5q0 25 -16 38.5t-41 13.5t-41.5 -13.5z" />
    <glyph glyph-name="nine.dnom" unicode="&#x2089;" horiz-adv-x="341" 
d="M275.5 379q41.5 -38 41.5 -100q0 -45 -31 -89l-133 -190h-105l102 142q-55 6 -90 43.5t-35 93.5q0 62 41 100t104 38q64 0 105.5 -38zM217 236q12 17 12 40q0 29 -16 46.5t-42 17.5t-42.5 -17t-16.5 -46t16 -45t43 -16q30 0 46 20z" />
    <glyph glyph-name="Euro" unicode="&#x20ac;" horiz-adv-x="700" 
d="M662 55q-48 -34 -98.5 -49.5t-120.5 -15.5q-76 0 -142 31t-113 90t-68 142h-114l26 70h76q-2 32 -2 51q0 16 2 48h-102l26 70h87q20 84 67.5 144t114.5 91t144 31q65 0 113.5 -15.5t91.5 -48.5l-37 -98q-67 56 -163 56q-75 0 -129 -41.5t-78 -118.5h327l-26 -70h-315
q-2 -30 -2 -48q0 -27 3 -51h273l-26 -70h-233q24 -76 78.5 -116.5t127.5 -40.5q94 0 162 58z" />
    <glyph glyph-name="uni20B4" unicode="&#x20b4;" horiz-adv-x="713" 
d="M540 416q-26 -26 -62.5 -44.5t-86.5 -35.5h279v-71h-409q-24 -28 -24 -70q0 -55 33 -81.5t86 -26.5q55 0 89.5 27.5t35.5 75.5h127q-4 -95 -72 -147.5t-180 -52.5q-109 0 -177 53.5t-68 156.5q0 33 10 65h-78v71h127q27 24 66.5 43t93.5 37h-287v71h404q18 27 18 65
q0 50 -27 79.5t-78 29.5q-47 0 -74.5 -23.5t-29.5 -65.5h-126q2 88 64.5 137t167.5 49q70 0 122 -28t79.5 -76t27.5 -107q0 -31 -8 -60h87v-71h-130z" />
    <glyph glyph-name="uni20B9" unicode="&#x20b9;" horiz-adv-x="566" 
d="M520 669h-159q48 -48 58 -117h101v-78h-101q-12 -82 -70 -132.5t-138 -60.5l293 -281h-163l-289 278v86h107q49 0 87 28.5t50 81.5h-244v78h246q-9 56 -48 86.5t-91 30.5h-107v79h468v-79z" />
    <glyph glyph-name="uni20BA" unicode="&#x20ba;" horiz-adv-x="690" 
d="M642 300q0 -147 -85 -223.5t-231 -76.5h-180v263l-97 -40v77l97 40v89l-97 -40v77l97 40v242h119v-200l165 68v-78l-165 -68v-87l165 67v-78l-165 -67v-199h61q197 0 197 194h119z" />
    <glyph glyph-name="uni20BD" unicode="&#x20bd;" horiz-adv-x="687" 
d="M271 306v-84h150v-76h-150v-146h-119v146h-100v76h100v84h-100v96h100v346h256q69 0 122 -26t83 -75t30 -115q0 -67 -30 -118t-83.5 -79.5t-121.5 -28.5h-137zM271 642v-240h122q57 0 92.5 30t35.5 90t-35.5 90t-92.5 30h-122z" />
    <glyph glyph-name="uni20BE" unicode="&#x20be;" horiz-adv-x="853" 
d="M207.5 233.5q35.5 -61.5 99.5 -94.5t147 -33h312v-106h-654v96h110q-79 38 -124 114t-45 179q0 130 69.5 223.5t185.5 127.5v125h69v-110q27 3 56 3t56 -3v110h69v-125q115 -35 184 -131.5t69 -234.5h-119q0 98 -35 163t-99 95v-258h-69v279q-23 5 -56 5q-32 0 -56 -4
v-280h-69v259q-64 -30 -100 -94t-36 -161q0 -83 35.5 -144.5z" />
    <glyph glyph-name="uni20BF" unicode="&#x20bf;" horiz-adv-x="679" 
d="M581 65.5q-53 -53.5 -142 -63.5v-122h-71v120h-88v-120h-70v120h-129v748h129v120h70v-120h88v120h71v-126q76 -15 119.5 -64.5t43.5 -132.5q0 -57 -22 -96t-62 -58q52 -17 84 -63t32 -116q0 -93 -53 -146.5zM199 643v-209h179q48 0 75.5 25t27.5 78q0 52 -32.5 79
t-87.5 27h-162zM385 106q57 0 92 27.5t35 84.5q0 58 -34.5 86t-87.5 28h-191v-226h186z" />
    <glyph glyph-name="uni2113" unicode="&#x2113;" horiz-adv-x="596" 
d="M551 138q-68 -148 -210 -148q-83 0 -130.5 48.5t-47.5 131.5v11q-50 -33 -102 -66v107q24 16 36 23q14 9 30.5 20t35.5 24v271q0 98 48.5 148.5t131.5 50.5q46 0 84.5 -21t61.5 -60t23 -91q0 -86 -60 -164t-174 -163v-78q0 -46 18 -70t59 -24q38 0 64 24.5t56 79.5z
M278 374q67 55 102.5 105.5t35.5 99.5q0 39 -18.5 60.5t-50.5 21.5t-50.5 -24t-18.5 -70v-193z" />
    <glyph glyph-name="uni2116" unicode="&#x2116;" horiz-adv-x="1104" 
d="M551 748h119v-748h-101l-369 528v-528h-119v748h100l370 -529v529zM808 490.5q-42 43.5 -42 111.5q0 69 42 112t109 43t109.5 -43t42.5 -112q0 -68 -42.5 -111.5t-109.5 -43.5t-109 43.5zM970.5 540q20.5 24 20.5 62t-20.5 62t-53.5 24q-34 0 -54 -24t-20 -62t20.5 -62
t53.5 -24t53.5 24z" />
    <glyph glyph-name="uni2117" unicode="&#x2117;" horiz-adv-x="582" 
d="M426.5 726.5q60.5 -33.5 95 -91.5t34.5 -129t-34.5 -129t-95 -91.5t-134.5 -33.5q-75 0 -136 33.5t-95.5 91.5t-34.5 129t34.5 129t95.5 91.5t136 33.5q74 0 134.5 -33.5zM178 692q-50 -28 -78.5 -76.5t-28.5 -109.5t28.5 -110t78.5 -76.5t113 -27.5t113 27.5t78.5 76.5
t28.5 110t-28.5 109.5t-78.5 76.5t-113 28t-113 -28zM318 659q44 0 72.5 -25.5t28.5 -70.5q0 -46 -28.5 -71.5t-72.5 -25.5h-64v-113h-62v306h126zM254 608v-91h52q22 0 35.5 11t13.5 35q0 23 -13.5 34t-35.5 11h-52z" />
    <glyph glyph-name="trademark" unicode="&#x2122;" horiz-adv-x="889" 
d="M32 748h332v-80h-125v-279h-83v279h-124v80zM759 748h70v-359h-83v181l-104 -178h-38l-104 178v-181h-83v359h70l136 -235z" />
    <glyph glyph-name="estimated" unicode="&#x212e;" horiz-adv-x="794" 
d="M223 34q-81 44 -129.5 123t-48.5 179q0 99 48.5 178t129.5 122.5t174 43.5t174 -43.5t129.5 -122.5t48.5 -178v-16h-575v-151q0 -39 37 -73q40 -37 83.5 -54.5t102.5 -17.5q80 0 154.5 40.5t109.5 102.5h62q-42 -80 -132 -128.5t-194 -48.5q-93 0 -174 44zM174 351h447
v150q0 41 -38 74q-40 36 -83 53.5t-103 17.5q-59 0 -102.5 -17.5t-83.5 -53.5q-37 -34 -37 -74v-150z" />
    <glyph glyph-name="uni2153" unicode="&#x2153;" horiz-adv-x="756" 
d="M129 733h55v-411h-87v297l-62 -47l-35 72zM551 748h95l-518 -748h-95zM688 385.5q34 -31.5 34 -87.5q0 -31 -14 -52.5t-38 -32.5q26 -9 42.5 -33t16.5 -59q0 -59 -37.5 -93t-98.5 -34q-64 0 -99 33.5t-37 91.5l87 6q2 -25 14.5 -39t34.5 -14q23 0 36 13.5t13 37.5
q0 25 -14.5 37.5t-39.5 12.5h-42v74h41q21 0 35.5 12.5t14.5 34.5t-12 34t-32 12q-21 0 -32.5 -13t-12.5 -37l-85 5q1 58 34.5 90t95.5 32q61 0 95 -31.5z" />
    <glyph glyph-name="arrowleft" unicode="&#x2190;" horiz-adv-x="677" 
d="M367 171l-62 -62l-262 263l262 262l62 -62l-156 -154h424v-93h-424z" />
    <glyph glyph-name="arrowup" unicode="&#x2191;" horiz-adv-x="610" 
d="M105 343l-62 62l263 262l262 -262l-62 -62l-154 156v-424h-93v424z" />
    <glyph glyph-name="arrowright" unicode="&#x2192;" horiz-adv-x="677" 
d="M311 572l62 62l262 -263l-262 -262l-62 62l156 154h-424v93h424z" />
    <glyph glyph-name="arrowdown" unicode="&#x2193;" horiz-adv-x="610" 
d="M506 400l62 -62l-263 -262l-262 262l62 62l154 -156v424h93v-424z" />
    <glyph glyph-name="arrowboth" unicode="&#x2194;" horiz-adv-x="848" 
d="M274 140l-231 231l231 231l62 -62l-125 -123h428l-126 123l62 62l231 -231l-231 -231l-62 62l126 123h-428l125 -123z" />
    <glyph glyph-name="arrowupdn" unicode="&#x2195;" horiz-adv-x="608" 
d="M535 221l-231 -231l-231 231l62 62l123 -125v428l-123 -126l-62 62l231 231l231 -231l-62 -62l-123 126v-428l123 125z" />
    <glyph glyph-name="uni2196" unicode="&#x2196;" horiz-adv-x="580" 
d="M173 209h-87v372h371v-88l-219 1l300 -299l-66 -66l-300 300z" />
    <glyph glyph-name="uni2197" unicode="&#x2197;" horiz-adv-x="548" 
d="M123 494v87h372v-371h-88l1 219l-299 -300l-66 66l300 300z" />
    <glyph glyph-name="uni2198" unicode="&#x2198;" horiz-adv-x="582" 
d="M408 534h87v-372h-371v88l219 -1l-300 299l66 66l300 -300z" />
    <glyph glyph-name="uni2199" unicode="&#x2199;" horiz-adv-x="580" 
d="M458 249v-87h-372v371h88l-1 -219l299 300l66 -66l-300 -300z" />
    <glyph glyph-name="partialdiff" unicode="&#x2202;" horiz-adv-x="608" 
d="M563 298q0 -148 -71 -228.5t-197 -80.5q-70 0 -128 31.5t-92 89t-34 132.5q0 72 32.5 127t89.5 84.5t129 29.5q89 0 151 -54q-6 107 -43.5 165t-113.5 58q-48 0 -85 -17t-70 -50l-64 98q49 37 99 56t117 19q280 0 280 -460zM404.5 135q39.5 40 39.5 105v4
q-1 65 -40.5 105.5t-100.5 40.5t-101 -41t-40 -106q0 -66 39 -107t102 -41q62 0 101.5 40z" />
    <glyph glyph-name="uni2206" unicode="&#x2206;" horiz-adv-x="720" 
d="M361 650l333 -650h-668zM361 440l-174 -343h346z" />
    <glyph glyph-name="product" unicode="&#x220f;" horiz-adv-x="645" 
d="M19 748h606v-105h-99v-807h-102v807h-204v-807h-101v807h-100v105z" />
    <glyph glyph-name="summation" unicode="&#x2211;" horiz-adv-x="594" 
d="M45 748h508v-105h-371l202 -269l-202 -268h371v-106h-508v87l215 287l-215 287v87z" />
    <glyph glyph-name="minus" unicode="&#x2212;" horiz-adv-x="541" 
d="M29 423h483v-105h-483v105z" />
    <glyph glyph-name="radical" unicode="&#x221a;" horiz-adv-x="689" 
d="M333 155l218 593h108l-324 -825l-148 332l-109 -70l-56 89l207 129z" />
    <glyph glyph-name="infinity" unicode="&#x221e;" horiz-adv-x="777" 
d="M660 474q42 -26 65.5 -71t23.5 -98q0 -54 -23.5 -99t-65.5 -71t-95 -26q-99 0 -177 97l-18 22l-18 -22q-37 -39 -74.5 -60.5t-83.5 -21.5q-49 0 -87 24t-58.5 65t-20.5 91t20.5 91t58.5 65.5t87 24.5q48 0 85 -22t72 -63l17 -21l15 17q44 52 84.5 78t97.5 26q53 0 95 -26
zM502.5 385q-27.5 -20 -59.5 -60l-17 -22l18 -23q31 -35 59 -55.5t62 -20.5q40 0 64.5 29.5t24.5 71.5t-25 71t-64 29q-35 0 -62.5 -20zM138.5 367.5q-21.5 -25.5 -21.5 -63.5t21.5 -63.5t57.5 -25.5q56 0 104 64l18 24l-18 22q-26 34 -51 51t-53 17q-36 0 -57.5 -25.5z" />
    <glyph glyph-name="integral" unicode="&#x222b;" horiz-adv-x="332" 
d="M342 743l-19 -86q-28 10 -53 10q-28 0 -40.5 -16.5t-12.5 -54.5v-606q0 -82 -31.5 -121.5t-97.5 -39.5q-51 0 -96 15l19 86q28 -10 50 -10q31 0 45 17.5t14 55.5v607q0 79 31 118.5t96 39.5q46 0 95 -15z" />
    <glyph glyph-name="approxequal" unicode="&#x2248;" horiz-adv-x="533" 
d="M520 496q-34 -44 -70.5 -66t-84.5 -22q-30 0 -51.5 8t-53.5 24q-24 14 -43 21t-41 7q-36 0 -61 -12.5t-51 -43.5l-51 75q34 43 69.5 64.5t82.5 21.5q26 0 45.5 -7.5t48.5 -22.5t48.5 -22.5t46.5 -7.5q38 0 64 13t51 44zM520 256q-34 -43 -70.5 -65t-84.5 -22
q-30 0 -51.5 8t-53.5 24q-24 14 -43 21t-41 7q-36 0 -61 -12.5t-51 -43.5l-51 74q34 43 69.5 65t82.5 22q26 0 45.5 -7.5t48.5 -22.5q27 -16 47.5 -23.5t47.5 -7.5q37 0 63.5 13.5t51.5 44.5z" />
    <glyph glyph-name="notequal" unicode="&#x2260;" horiz-adv-x="541" 
d="M512 543v-106h-173l-42 -136h215v-106h-247l-39 -125l-96 23l31 102h-132v106h165l41 136h-206v106h239l38 124l97 -23l-31 -101h140z" />
    <glyph glyph-name="lessequal" unicode="&#x2264;" horiz-adv-x="521" 
d="M25 460l466 222l1 -115l-241 -107l241 -107l-1 -115zM25 186h467v-106h-467v106z" />
    <glyph glyph-name="greaterequal" unicode="&#x2265;" horiz-adv-x="521" 
d="M29 567l1 115l466 -222l-466 -222l-1 115l241 107zM29 186h467v-106h-467v106z" />
    <glyph glyph-name="triagup" unicode="&#x25b2;" horiz-adv-x="930" 
d="M405 513q0 116 26 224q1 4 1 9q0 10 -7 10q-4 0 -9 -6q-17 -22 -81.5 -126.5t-119.5 -198.5q-3 -4 -16 -28q-125 -215 -155 -297q-4 -12 -4 -17q0 -8 4 -15q7 -13 23 -13q9 0 33 8q38 14 110 53q55 32 107 71t76 64q15 16 20.5 29t5.5 29q0 7 -2 27q-12 101 -12 177z
M716 200q84 -51 154 -118l6 -6q3 -3 7 -3q5 0 6 5t-1 10q-9 24 -66.5 132t-113.5 205q-3 4 -16 28q-63 106 -105.5 175t-75.5 108q-14 16 -27 16q-15 0 -22 -12t-10 -34q-9 -45 -9 -122q0 -64 7.5 -128.5t17.5 -97.5q8 -28 20.5 -39t41.5 -24q102 -44 186 -95zM262.5 103.5
q-85.5 -47.5 -179.5 -74.5l-8 -2q-7 -2 -7 -8t11 -9q28 -3 151.5 -7.5t230.5 -4.5h32q122 1 204 4t132 11q19 2 27 15q3 6 3 12q0 17 -27 39q-35 30 -101 69q-54 32 -114 57.5t-94 33.5q-13 4 -27 4q-16 0 -27.5 -6t-31.5 -20q-89 -66 -174.5 -113.5z" />
    <glyph glyph-name="lozenge" unicode="&#x25ca;" horiz-adv-x="540" 
d="M234 748h72l204 -402l-204 -401h-72l-205 401zM399 346l-128 250l-129 -250l129 -250z" />
    <glyph glyph-name="uni2605" unicode="&#x2605;" horiz-adv-x="850" 
d="M467 730q-6 14 -17 21t-24 7t-24.5 -7t-17.5 -21l-83 -193q-5 -12 -15.5 -19t-22.5 -8l-191 -15q-19 -1 -30.5 -14.5t-11.5 -30.5q0 -22 17 -35l152 -121q17 -12 17 -34q0 -4 -2 -12l-50 -201q-1 -4 -1 -11q0 -19 13.5 -32t31.5 -13q13 0 24 7l169 108q11 7 25 7t24 -7
l169 -108q11 -7 24 -7q18 0 32 13t14 31q0 4 -2 12l-51 201q-1 3 -1 10q0 22 17 36l151 121q17 13 17 35q0 17 -11 30.5t-30 14.5l-191 15q-12 1 -22.5 8t-15.5 19z" />
    <glyph glyph-name="De-cy.loclBGR" unicode="&#xe1e0;" horiz-adv-x="800" 
d="M449 748l255 -643h82v-275h-108v170h-557v-170h-107v275h81l254 643h100zM400 569l-177 -464h354z" />
    <glyph glyph-name="El-cy.loclBGR" unicode="&#xe1e1;" horiz-adv-x="707" 
d="M138 0h-129l294 748h100l295 -748h-130l-214 569z" />
    <glyph glyph-name="Ef-cy.loclBGR" unicode="&#xe1e2;" horiz-adv-x="957" 
d="M419 21q-174 5 -273 97t-99 256q0 108 45 186.5t128.5 122t198.5 47.5v97h118v-97q175 -7 274 -100t99 -256q0 -164 -99 -256t-274 -97v-100h-118v100zM419 627q-121 -5 -186 -70t-65 -183t65 -182t186 -67v502zM537 124q122 4 187 68t65 182t-65.5 183t-186.5 70v-503z
" />
    <glyph glyph-name="ve-cy.loclBGR" unicode="&#xe1e3;" horiz-adv-x="594" 
d="M131.5 57q-61.5 67 -61.5 178v312q0 75 29.5 128t81 80t117.5 27t115.5 -26t76.5 -72.5t27 -106.5q0 -53 -25.5 -96t-62.5 -67q48 -18 83 -68.5t35 -119.5q0 -70 -30.5 -123.5t-84.5 -83t-123 -29.5q-116 0 -177.5 67zM298 448q52 0 79.5 34.5t27.5 86.5t-29.5 84.5
t-79.5 32.5q-52 0 -83.5 -34.5t-31.5 -96.5v-107h117zM401 123.5q35 36.5 35 99.5q0 56 -36 92.5t-102 36.5h-117v-122q0 -68 33 -105.5t95 -37.5q57 0 92 36.5z" />
    <glyph glyph-name="ge-cy.loclBGR" unicode="&#xe1e4;" horiz-adv-x="497" 
d="M393.5 479.5q51.5 -42.5 51.5 -112.5q0 -49 -21.5 -77.5t-57.5 -43t-99 -29.5q-47 -11 -69 -19t-32 -20t-10 -33q0 -28 24 -43t63 -15q45 0 70 19t30 55l112 -7q-9 -77 -64 -120.5t-146 -43.5q-94 0 -147.5 43.5t-53.5 120.5q0 64 43.5 96t133.5 55q16 4 23 5
q49 11 69 21.5t20 37.5t-20.5 42t-59.5 15q-41 0 -63 -19.5t-25 -53.5l-112 6q8 72 58.5 117.5t138.5 45.5q92 0 143.5 -42.5z" />
    <glyph glyph-name="de-cy.loclBGR" unicode="&#xe1e5;" horiz-adv-x="640" 
d="M141.5 -213.5q-64.5 50.5 -80.5 137.5l112 4q7 -45 45 -71t95 -26q65 0 104 35.5t39 100.5v94q-22 -32 -65 -51.5t-98 -19.5q-71 0 -127.5 32.5t-88 93t-31.5 140.5t31.5 140.5t88 93t127.5 32.5q58 0 102.5 -22.5t66.5 -58.5v72h106v-538q0 -73 -31 -127t-88 -83
t-133 -29q-110 0 -174.5 50.5zM416 127q40 41 40 115v27q0 74 -40 115t-105 41q-67 0 -109 -44.5t-42 -124.5t42 -125t109 -45q65 0 105 41z" />
    <glyph glyph-name="zhe-cy.loclBGR" unicode="&#xe1e6;" horiz-adv-x="782" 
d="M142 0h-138l224 262l-210 251h129l191 -238v502h111v-503l187 239h129l-205 -251l218 -262h-136l-193 241v-241h-111v240z" />
    <glyph glyph-name="ze-cy.loclBGR" unicode="&#xe1e7;" horiz-adv-x="579" 
d="M111 -203.5q-64 60.5 -69 167.5l113 7q5 -65 39 -100.5t98 -35.5q62 0 96 34t34 96t-38.5 93.5t-102.5 31.5h-75v98h74q54 0 90 32.5t36 85.5q0 56 -31 86.5t-86 30.5q-56 0 -88 -32.5t-36 -92.5l-113 6q4 102 65.5 160t171.5 58q108 0 169 -59t61 -158q0 -59 -29 -99.5
t-75 -62.5q53 -18 86.5 -64t33.5 -113q0 -107 -67 -168.5t-177 -61.5q-116 0 -180 60.5z" />
    <glyph glyph-name="ii-cy.loclBGR" unicode="&#xe1e8;" horiz-adv-x="590" 
d="M512 513v-513h-106v67q-16 -32 -53 -54.5t-92 -22.5q-86 0 -137 56.5t-51 150.5v316h112v-299q0 -56 27 -87.5t77 -31.5q51 0 81 36.5t30 88.5v293h112z" />
    <glyph glyph-name="iishort-cy.loclBGR" unicode="&#xe1e9;" horiz-adv-x="590" 
d="M512 513v-513h-106v67q-16 -32 -53 -54.5t-92 -22.5q-86 0 -137 56.5t-51 150.5v316h112v-299q0 -56 27 -87.5t77 -31.5q51 0 81 36.5t30 88.5v293h112zM466 753q0 -77 -46 -117t-124 -40q-77 0 -123 40.5t-46 116.5h89q0 -35 21.5 -55.5t58.5 -20.5t59 20.5t22 55.5h89z
" />
    <glyph glyph-name="iigrave-cy.loclBGR" unicode="&#xe1ea;" horiz-adv-x="590" 
d="M512 513v-513h-106v67q-16 -32 -53 -54.5t-92 -22.5q-86 0 -137 56.5t-51 150.5v316h112v-299q0 -56 27 -87.5t77 -31.5q51 0 81 36.5t30 88.5v293h112zM116 787h128l94 -191h-88z" />
    <glyph glyph-name="ka-cy.loclBGR" unicode="&#xe1eb;" horiz-adv-x="529" 
d="M189 0h-111v777h111v-504l193 240h128l-204 -247l219 -266h-138l-198 243v-243z" />
    <glyph glyph-name="el-cy.loclBGR" unicode="&#xe1ec;" horiz-adv-x="543" 
d="M125 0h-120l221 513h90l222 -513h-119l-148 347z" />
    <glyph glyph-name="pe-cy.loclBGR" unicode="&#xe1ed;" horiz-adv-x="607" 
d="M438 496.5q45 -25.5 70.5 -74t25.5 -113.5v-309h-113v294q0 57 -30.5 90.5t-81.5 33.5q-53 0 -86 -35.5t-33 -89.5v-293h-112v513h106v-68q21 36 58.5 56.5t91.5 20.5q59 0 104 -25.5z" />
    <glyph glyph-name="te-cy.loclBGR" unicode="&#xe1ee;" horiz-adv-x="927" 
d="M762.5 496q43.5 -26 67.5 -74t24 -111v-311h-113v294q0 58 -28 91t-79 33q-47 0 -76.5 -29.5t-34.5 -76.5v-3v-309h-113v294q0 57 -28.5 90.5t-74.5 33.5q-52 0 -84.5 -35.5t-32.5 -89.5v-293h-112v513h106v-68q21 36 57.5 56.5t90.5 20.5q53 0 95.5 -24t67.5 -69
q24 42 66.5 67.5t100.5 25.5q57 0 100.5 -26z" />
    <glyph glyph-name="tse-cy.loclBGR" unicode="&#xe1ef;" horiz-adv-x="625" 
d="M512 105h83v-255h-99v150h-90v67q-16 -32 -53 -54.5t-92 -22.5q-86 0 -137 56.5t-51 150.5v316h112v-299q0 -56 27 -87.5t77 -31.5q51 0 81 36.5t30 88.5v293h112v-408z" />
    <glyph glyph-name="sha-cy.loclBGR" unicode="&#xe1f0;" horiz-adv-x="927" 
d="M737 513h112v-513h-106v68q-21 -36 -57.5 -56.5t-90.5 -20.5q-53 0 -95.5 24t-67.5 69q-24 -42 -66.5 -67.5t-100.5 -25.5q-57 0 -100.5 26t-67.5 74t-24 111v311h113v-294q0 -58 28 -91t79 -33q47 0 76.5 29.5t34.5 76.5v3v309h113v-294q0 -57 28.5 -90.5t74.5 -33.5
q52 0 84.5 35.5t32.5 89.5v293z" />
    <glyph glyph-name="shcha-cy.loclBGR" unicode="&#xe1f1;" horiz-adv-x="962" 
d="M849 105h83v-255h-99v150h-90v68q-21 -36 -57.5 -56.5t-90.5 -20.5q-53 0 -95.5 24t-67.5 69q-24 -42 -66.5 -67.5t-100.5 -25.5q-57 0 -100.5 26t-67.5 74t-24 111v311h113v-294q0 -58 28 -91t79 -33q47 0 76.5 29.5t34.5 76.5v3v309h113v-294q0 -57 28.5 -90.5
t74.5 -33.5q52 0 84.5 35.5t32.5 89.5v293h112v-408z" />
    <glyph glyph-name="softsign-cy.loclBGR" unicode="&#xe1f2;" horiz-adv-x="544" 
d="M78 0v513h112v-172h124q95 0 150 -44t55 -127t-55 -126.5t-150 -43.5h-236zM304 95q49 0 76.5 16.5t27.5 58.5t-27.5 58.5t-76.5 16.5h-114v-150h114z" />
    <glyph glyph-name="hardsign-cy.loclBGR" unicode="&#xe1f3;" horiz-adv-x="624" 
d="M158 0v416h-149v97h261v-172h124q95 0 150 -44t55 -127t-55 -126.5t-150 -43.5h-236zM384 95q49 0 76.5 16.5t27.5 58.5t-27.5 58.5t-76.5 16.5h-114v-150h114z" />
    <glyph glyph-name="iu-cy.loclBGR" unicode="&#xe1f4;" horiz-adv-x="802" 
d="M636 489.5q56 -32.5 87.5 -93t31.5 -140.5t-31.5 -140t-87.5 -93t-127 -33q-64 0 -116.5 27.5t-86 79t-41.5 120.5h-77v-217h-110v777h110v-463h80q16 96 82 152t159 56q71 0 127 -32.5zM606.5 132.5q37.5 45.5 37.5 123.5q0 79 -37.5 124.5t-97.5 45.5q-59 0 -97 -46
t-38 -124t38 -123.5t97 -45.5q60 0 97.5 45.5z" />
    </font>
</defs>
</svg>
