<?xml version="1.0" standalone="no"?>
<!DOCTYPE svg PUBLIC "-//W3C//DTD SVG 1.1//EN" "http://www.w3.org/Graphics/SVG/1.1/DTD/svg11.dtd" >
<svg xmlns="http://www.w3.org/2000/svg" xmlns:xlink="http://www.w3.org/1999/xlink" version="1.1">
<metadata>
Created by FontForge 20201107 at Tue Oct 26 15:57:38 2021
 By 
Copyright (c) 2021 by Nico Inosanto. All rights reserved.
</metadata>
<defs>
<font id="TBCXBold" horiz-adv-x="285" >
  <font-face 
    font-family="TBCXBold"
    font-weight="700"
    font-stretch="normal"
    units-per-em="1000"
    panose-1="0 0 8 0 0 0 0 0 0 0"
    ascent="800"
    descent="-200"
    x-height="517"
    cap-height="748"
    bbox="-379 -326 1255 1079"
    underline-thickness="50"
    underline-position="-100"
    unicode-range="U+000D-FB02"
  />
<missing-glyph horiz-adv-x="729" 
d="M64 748h601v-748h-601v748zM367 466l109 179h-219zM299 372l-125 193v-386zM555 186v373l-120 -187zM474 103l-107 176l-108 -176h215z" />
    <glyph glyph-name="fi" unicode="fi" horiz-adv-x="669" 
d="M373 780v-126q-20 2 -35 2q-38 0 -62 -22.5t-24 -59.5v-57h120v-126h-120v-391h-146v391h-93v126h93v53q0 97 59 155t157 58q29 0 51 -3zM588.5 748.5q25.5 -25.5 25.5 -62.5q0 -36 -25.5 -61.5t-62.5 -25.5t-62 25.5t-25 61.5q0 37 26 62.5t61 25.5q37 0 62.5 -25.5z
M453 517h146v-517h-146v517z" />
    <glyph glyph-name="f_j" unicode="fj" horiz-adv-x="674" 
d="M373 780v-126q-20 2 -35 2q-38 0 -62 -22.5t-24 -59.5v-57h120v-126h-120v-391h-146v391h-93v126h93v53q0 97 59 155t157 58q29 0 51 -3zM593.5 748.5q25.5 -25.5 25.5 -62.5q0 -36 -25.5 -61.5t-62.5 -25.5t-62 25.5t-25 61.5q0 37 25 62.5t62 25.5t62.5 -25.5zM605 -50
q0 -97 -58.5 -154.5t-155.5 -57.5q-29 0 -51 3v127q14 -3 34 -3q38 0 61.5 22.5t23.5 59.5v570h146v-567z" />
    <glyph glyph-name=".notdef" horiz-adv-x="729" 
d="M64 748h601v-748h-601v748zM367 466l109 179h-219zM299 372l-125 193v-386zM555 186v373l-120 -187zM474 103l-107 176l-108 -176h215z" />
    <glyph glyph-name=".null" horiz-adv-x="594" 
 />
    <glyph glyph-name="nonmarkingreturn" unicode="&#xd;" horiz-adv-x="594" 
 />
    <glyph glyph-name="space" unicode=" " horiz-adv-x="225" 
 />
    <glyph glyph-name="exclam" unicode="!" horiz-adv-x="318" 
d="M73 748h171l-9 -520h-154zM221 140q26 -26 26 -63t-26 -62.5t-63 -25.5t-62.5 25.5t-25.5 62.5t25.5 63t62.5 26t63 -26z" />
    <glyph glyph-name="quotedbl" unicode="&#x22;" horiz-adv-x="413" 
d="M38 748h140l-15 -275h-111zM235 748h140l-15 -275h-111z" />
    <glyph glyph-name="numbersign" unicode="#" horiz-adv-x="663" 
d="M476 748h122l-44 -185h106l-28 -116h-106l-36 -151h108l-27 -116h-108l-43 -180h-122l43 180h-112l-42 -180h-123l43 180h-104l27 116h105l35 151h-106l28 116h106l45 185h122l-45 -185h111zM368 296l36 151h-112l-35 -151h111z" />
    <glyph glyph-name="dollar" unicode="$" horiz-adv-x="657" 
d="M555.5 61q-61.5 -57 -161.5 -69v-110h-121v112q-105 15 -167.5 76t-63.5 159l157 8q1 -51 41.5 -82.5t100.5 -31.5q55 0 86.5 21t31.5 65q0 28 -16.5 45t-48 28.5t-89.5 25.5q-79 20 -131 44t-83.5 66.5t-31.5 111.5q0 87 55 149.5t159 76.5v109h121v-112
q94 -16 149.5 -75t57.5 -149l-157 -8q-2 48 -33 76t-84 28q-52 0 -81.5 -24.5t-29.5 -65.5q0 -28 14.5 -44t44 -26t88.5 -24q127 -32 190.5 -81t63.5 -142q0 -100 -61.5 -157z" />
    <glyph glyph-name="percent" unicode="%" horiz-adv-x="886" 
d="M296 735.5q40 -23.5 62.5 -66t22.5 -98.5t-22.5 -98.5t-62.5 -66t-91 -23.5t-91 23.5t-63 66t-23 98.5t23 98.5t63 66t91 23.5t91 -23.5zM627 748h125l-493 -748h-125zM154 634.5q-19 -22.5 -19 -63.5q0 -40 19 -63.5t51 -23.5q31 0 50 23t19 64t-18.5 63.5t-50.5 22.5
t-51 -22.5zM773 342q40 -23 62.5 -65.5t22.5 -98.5t-22.5 -99t-62.5 -66.5t-91 -23.5t-91 23.5t-63 66.5t-23 99t23 98.5t63 65.5t91 23t91 -23zM631 241q-19 -23 -19 -63q0 -41 19 -64t51 -23t50.5 23t18.5 64q0 40 -18.5 63t-50.5 23t-51 -23z" />
    <glyph glyph-name="ampersand" unicode="&#x26;" horiz-adv-x="714" 
d="M731 100l-86 -111l-117 98q-91 -97 -227 -97q-86 0 -145.5 28.5t-89.5 77.5t-30 110q0 67 30 115t87 89q-59 68 -59 140q0 101 63.5 155t168.5 54q93 0 156 -50.5t76 -139.5l-149 -12q-11 74 -83 74q-37 0 -57.5 -20.5t-20.5 -58.5q0 -25 12 -45.5t28 -35t53 -45.5
l158 -132q19 47 37 119l136 -35q-26 -96 -64 -175zM425 174l-181 152q-25 -20 -38 -45.5t-13 -60.5q0 -46 29.5 -72.5t80.5 -26.5q69 0 122 53z" />
    <glyph glyph-name="quotesingle" unicode="'" horiz-adv-x="216" 
d="M38 748h140l-15 -275h-111z" />
    <glyph glyph-name="parenleft" unicode="(" horiz-adv-x="362" 
d="M329 721q-150 -182 -150 -391t150 -391l-126 -44q-77 86 -123 196.5t-46 238.5t46 238.5t123 196.5z" />
    <glyph glyph-name="parenright" unicode=")" horiz-adv-x="362" 
d="M160 765q77 -86 123 -196.5t46 -238.5t-46 -238.5t-123 -196.5l-126 44q149 183 149 391t-149 391z" />
    <glyph glyph-name="asterisk" unicode="*" horiz-adv-x="383" 
d="M151 764h81l-3 -122l115 40l25 -76l-116 -37l73 -95l-65 -48l-69 99l-70 -100l-65 49l73 95l-116 37l25 76l115 -40z" />
    <glyph glyph-name="plus" unicode="+" horiz-adv-x="542" 
d="M200 612h142v-176h172v-132h-172v-178h-142v178h-172v132h172v176z" />
    <glyph glyph-name="comma" unicode="," horiz-adv-x="257" 
d="M190 139q22 -27 22 -71q0 -152 -152 -229v61q53 33 66 90q-34 2 -57.5 27t-23.5 60q0 37 24 63t61 26q38 0 60 -27z" />
    <glyph glyph-name="hyphen" unicode="-" horiz-adv-x="400" 
d="M42 350h316v-136h-316v136z" />
    <glyph glyph-name="period" unicode="." horiz-adv-x="257" 
d="M191 140q26 -26 26 -63t-26 -62.5t-63 -25.5t-62.5 25.5t-25.5 62.5t25.5 63t62.5 26t63 -26z" />
    <glyph glyph-name="slash" unicode="/" horiz-adv-x="415" 
d="M259 748h152l-254 -815h-153z" />
    <glyph glyph-name="zero" unicode="0" horiz-adv-x="645" 
d="M471 714q64 -45 99.5 -131.5t35.5 -208.5q0 -121 -35.5 -208t-99.5 -132t-148 -45t-148.5 45t-100 131.5t-35.5 208.5t35.5 208.5t99.5 131.5t149 45q84 0 148 -45zM227 559.5q-31 -62.5 -31 -185.5t31 -185.5t96 -62.5q64 0 95 62.5t31 185.5t-31 185.5t-95 62.5
q-65 0 -96 -62.5z" />
    <glyph glyph-name="one" unicode="1" horiz-adv-x="387" 
d="M201 748h113v-748h-154v554l-100 -71l-63 126z" />
    <glyph glyph-name="two" unicode="2" horiz-adv-x="536" 
d="M444 703.5q60 -55.5 60 -157.5q0 -83 -34.5 -146t-99.5 -132l-123 -131h261v-137h-462v121l206 227q57 61 77 99.5t20 91.5q0 39 -18.5 61t-52.5 22q-41 0 -59.5 -27t-19.5 -78l-154 9q2 109 62 171t168 62q109 0 169 -55.5z" />
    <glyph glyph-name="three" unicode="3" horiz-adv-x="562" 
d="M449 700q61 -59 61 -160q0 -57 -22 -93t-60 -61q42 -16 68.5 -59.5t26.5 -104.5q0 -72 -30.5 -124.5t-86 -80.5t-127.5 -28q-116 0 -180 61t-67 167l154 9q2 -48 25.5 -74t66.5 -26t66.5 26t23.5 73q0 46 -27 70t-72 24h-77v132h75q39 0 63.5 23.5t24.5 63.5q0 42 -20 63
t-57 21q-38 0 -59.5 -24t-23.5 -69l-153 8q2 104 63.5 163t172.5 59q110 0 171 -59z" />
    <glyph glyph-name="four" unicode="4" horiz-adv-x="597" 
d="M344 748h122v-480h111v-137h-111v-131h-139v131h-303v127zM326 268v221l-145 -221h145z" />
    <glyph glyph-name="five" unicode="5" horiz-adv-x="564" 
d="M416 446q52 -27 81.5 -80t29.5 -128t-30.5 -131.5t-87 -87t-132.5 -30.5q-112 0 -176 59t-67 159l154 9q2 -42 25 -66t65 -24q45 0 69.5 29.5t24.5 78.5t-24.5 77.5t-67.5 28.5q-44 0 -82 -28h-139v436h439v-136h-285v-156q36 17 84 17q67 0 119 -27z" />
    <glyph glyph-name="six" unicode="6" horiz-adv-x="602" 
d="M336 489q67 -6 119 -39t81.5 -87.5t29.5 -122.5q0 -75 -34 -132t-94 -88t-135 -31q-76 0 -136 31t-94.5 88t-34.5 132q0 46 14 84t41 77l244 347h185zM380 158.5q30 32.5 30 86.5q0 55 -29.5 86t-78.5 31q-57 0 -86 -40q-21 -28 -21 -77q0 -54 29.5 -86.5t77.5 -32.5
t78 32.5z" />
    <glyph glyph-name="seven" unicode="7" horiz-adv-x="535" 
d="M16 748h492v-124l-292 -624h-169l292 612h-323v136z" />
    <glyph glyph-name="eight" unicode="8" horiz-adv-x="609" 
d="M427.5 733.5q55.5 -25.5 87 -73.5t31.5 -112q0 -48 -19 -85.5t-53 -62.5q43 -29 67 -74.5t24 -103.5q0 -71 -34 -124t-93 -81t-134 -28t-134 28t-93 81t-34 124q0 58 24 103t66 74q-34 25 -52.5 63t-18.5 86q0 65 31 112.5t86 73t124 25.5t124.5 -25.5zM241 599
q-25 -23 -25 -62q0 -37 25 -59.5t63 -22.5q39 0 63.5 22t24.5 60q0 40 -24.5 62.5t-63.5 22.5q-38 0 -63 -23zM227 303.5q-30 -27.5 -30 -74.5t30.5 -75t76.5 -28q47 0 77 27.5t30 75.5t-30 75t-77 27t-77 -27.5z" />
    <glyph glyph-name="nine" unicode="9" horiz-adv-x="602" 
d="M437.5 728q60.5 -31 95 -88.5t34.5 -131.5q0 -45 -14 -83t-42 -78l-244 -347h-184l185 259q-67 7 -119 40t-81.5 87t-29.5 122q0 75 34.5 132t94.5 88t135 31t135.5 -31zM388 426q22 30 22 77q0 55 -29.5 87t-78.5 32q-48 0 -78 -32.5t-30 -86.5q0 -55 29.5 -86t78.5 -31
q57 0 86 40z" />
    <glyph glyph-name="colon" unicode=":" horiz-adv-x="257" 
d="M191 140q26 -26 26 -63t-26 -62.5t-63 -25.5t-62.5 25.5t-25.5 62.5t25.5 63t62.5 26t63 -26zM191 500q26 -26 26 -63t-26 -62.5t-63 -25.5t-62.5 25.5t-25.5 62.5t25.5 63t62.5 26t63 -26z" />
    <glyph glyph-name="semicolon" unicode=";" horiz-adv-x="257" 
d="M191 500q26 -26 26 -63t-26 -62.5t-63 -25.5t-62.5 25.5t-25.5 62.5t25.5 63t62.5 26t63 -26zM190 139q22 -27 22 -71q0 -152 -152 -229v61q53 33 66 90q-34 2 -57.5 27t-23.5 60q0 37 24 63t61 26q38 0 60 -27z" />
    <glyph glyph-name="less" unicode="&#x3c;" horiz-adv-x="532" 
d="M26 369l478 266v-165l-193 -101l193 -101v-166z" />
    <glyph glyph-name="equal" unicode="=" horiz-adv-x="542" 
d="M28 561h486v-137h-486v137zM28 316h486v-137h-486v137z" />
    <glyph glyph-name="greater" unicode="&#x3e;" horiz-adv-x="532" 
d="M28 470v165l478 -266l-478 -267v166l193 101z" />
    <glyph glyph-name="question" unicode="?" horiz-adv-x="569" 
d="M467.5 698.5q67.5 -61.5 67.5 -165.5q0 -56 -25 -92t-73 -74q-40 -31 -57.5 -53.5t-17.5 -53.5v-32h-154v38q0 44 24.5 78t71.5 74q37 31 55.5 56t18.5 57q0 43 -25 68t-68 25q-44 0 -70 -26.5t-28 -73.5l-154 10q2 68 34.5 119t88.5 79t129 28q115 0 182.5 -61.5z
M347 140q26 -26 26 -63t-26 -62.5t-63 -25.5q-36 0 -61.5 25.5t-25.5 62.5t25.5 63t61.5 26q37 0 63 -26z" />
    <glyph glyph-name="at" unicode="@" horiz-adv-x="852" 
d="M623 607.5q88 -49.5 137.5 -136t49.5 -194.5q0 -103 -48 -156t-133 -53q-77 0 -103 51q-46 -54 -127 -54q-56 0 -99 26.5t-67 74t-24 110.5t24 111t67 74.5t99 26.5q40 0 70.5 -13t47.5 -33v31h105v-290q0 -39 36 -39t58.5 34t22.5 99q0 88 -41 159.5t-112.5 113
t-159.5 41.5q-89 0 -161 -41t-112.5 -113t-40.5 -160q0 -93 42 -164t112.5 -110t152.5 -39q56 0 98.5 11t81.5 33l23 -65q-42 -24 -89 -35t-114 -11q-104 0 -190.5 48t-136.5 135t-50 197q0 108 49.5 194.5t137 136t197.5 49.5q109 0 197 -49.5zM511 285q0 49 -25.5 76.5
t-67.5 27.5q-44 0 -70 -29.5t-26 -83.5q0 -53 26 -83t70 -30q42 0 67.5 28t25.5 77v17z" />
    <glyph glyph-name="A" unicode="A" horiz-adv-x="783" 
d="M326 748h130l322 -748h-169l-60 144h-315l-60 -144h-169zM495 270l-103 249l-103 -249h206z" />
    <glyph glyph-name="B" unicode="B" horiz-adv-x="690" 
d="M385 748q106 0 169.5 -53t63.5 -155q0 -51 -19.5 -88t-53.5 -59q46 -18 75 -63t29 -112q0 -105 -66 -161.5t-176 -56.5h-335v748h313zM226 612v-164h149q41 0 63.5 20t22.5 61t-25 62t-69 21h-141zM226 317v-180h163q47 0 74.5 22t27.5 67q0 46 -27.5 68.5t-72.5 22.5
h-165z" />
    <glyph glyph-name="C" unicode="C" horiz-adv-x="816" 
d="M226.5 35.5q-86.5 46.5 -135.5 134t-49 204.5t49 204.5t135.5 134t195.5 46.5q89 0 164.5 -34.5t125 -99.5t62.5 -153l-158 -13q-17 79 -70 121t-129 42q-64 0 -113.5 -30.5t-77 -86.5t-27.5 -131q0 -78 28.5 -134t78 -85t111.5 -29q77 0 129 41t70 118l157 -12
q-16 -88 -65 -152t-123 -98t-163 -34q-109 0 -195.5 46.5z" />
    <glyph glyph-name="D" unicode="D" horiz-adv-x="794" 
d="M380 748q107 0 191 -45t132 -129.5t48 -199.5t-48 -199.5t-132.5 -129.5t-191.5 -45h-307v748h308zM226 616v-484h155q100 0 158.5 62t58.5 180t-58 180t-159 62h-155z" />
    <glyph glyph-name="E" unicode="E" horiz-adv-x="598" 
d="M72 748h480v-136h-325v-162h282v-133h-282v-180h326v-137h-481v748z" />
    <glyph glyph-name="F" unicode="F" horiz-adv-x="582" 
d="M72 748h480v-136h-325v-162h265v-136h-265v-314h-155v748z" />
    <glyph glyph-name="G" unicode="G" horiz-adv-x="821" 
d="M421 408h358v-50q0 -110 -43.5 -193.5t-124 -129.5t-189.5 -46t-195.5 46.5t-135.5 133.5t-49 205t49 205.5t135 133.5t196 46q132 0 225.5 -68t123.5 -189l-160 -27q-16 69 -65.5 108t-125.5 39q-103 0 -162 -63t-59 -185q0 -121 59.5 -184.5t161.5 -63.5q72 0 122.5 36
t67.5 110h-189v136z" />
    <glyph glyph-name="H" unicode="H" horiz-adv-x="756" 
d="M530 748h154v-748h-154v315h-303v-315h-155v748h155v-296h303v296z" />
    <glyph glyph-name="I" unicode="I" horiz-adv-x="299" 
d="M72 748h155v-748h-155v748z" />
    <glyph glyph-name="J" unicode="J" horiz-adv-x="608" 
d="M541 267q0 -131 -70 -204.5t-193 -73.5q-116 0 -186 66.5t-77 185.5l155 25q4 -67 32 -103.5t77 -36.5q53 0 80.5 34.5t27.5 101.5v486h154v-481z" />
    <glyph glyph-name="K" unicode="K" horiz-adv-x="715" 
d="M481 748h198l-257 -307l287 -441h-184l-206 318l-92 -111v-207h-155v748h155v-309z" />
    <glyph glyph-name="L" unicode="L" horiz-adv-x="574" 
d="M72 748h155v-611h326v-137h-481v748z" />
    <glyph glyph-name="M" unicode="M" horiz-adv-x="947" 
d="M739 748h136v-748h-153v414l-196 -406h-102l-197 406v-414h-155v748h137l266 -520z" />
    <glyph glyph-name="N" unicode="N" horiz-adv-x="758" 
d="M532 748h154v-748h-131l-328 463v-463h-155v748h131l329 -464v464z" />
    <glyph glyph-name="O" unicode="O" horiz-adv-x="857" 
d="M627.5 711.5q87.5 -47.5 137.5 -135t50 -202.5t-50 -202.5t-137.5 -135t-198.5 -47.5t-199 47.5t-138 135t-50 202.5t50 202.5t138 135t199 47.5t198.5 -47.5zM309 592q-52 -30 -81 -86t-29 -132t29 -132t81 -86t120 -30q67 0 119 30t81 86t29 132t-29 132t-81 86
t-119 30q-68 0 -120 -30z" />
    <glyph glyph-name="P" unicode="P" horiz-adv-x="661" 
d="M396 748q71 0 125.5 -28.5t85 -82.5t30.5 -130t-30.5 -130t-85 -82.5t-125.5 -28.5h-169v-266h-155v748h324zM226 612v-209h150q46 0 75 27t29 77t-29 77.5t-75 27.5h-150z" />
    <glyph glyph-name="Q" unicode="Q" horiz-adv-x="873" 
d="M866 32l-108 -110l-121 120q-92 -53 -208 -53q-111 0 -199 47.5t-138 135t-50 202.5t50 202.5t138 135t199 47.5t198.5 -47.5t137.5 -135t50 -202.5q0 -130 -65 -227zM531 147l-111 110l108 108l109 -107q21 53 21 116q0 76 -29 132t-81 86t-119 30q-68 0 -120 -30
t-81 -86t-29 -132t29 -132t81 -86t120 -30q57 0 102 21z" />
    <glyph glyph-name="R" unicode="R" horiz-adv-x="701" 
d="M672 0h-174l-146 269h-125v-269h-155v748h320q109 0 175 -63.5t66 -176.5q0 -77 -31.5 -131.5t-88.5 -82.5zM226 406h147q46 0 74.5 27t28.5 75q0 50 -28.5 77t-74.5 27h-147v-206z" />
    <glyph glyph-name="S" unicode="S" horiz-adv-x="657" 
d="M467.5 731.5q62.5 -27.5 97.5 -79.5t36 -123l-157 -8q-2 48 -33 76t-84 28q-52 0 -81.5 -24.5t-29.5 -65.5q0 -28 14.5 -44t44 -26t88.5 -24q127 -32 190.5 -81t63.5 -142q0 -113 -77.5 -171t-198.5 -58q-87 0 -154 28t-105.5 82t-39.5 130l157 8q1 -51 41.5 -82.5
t100.5 -31.5q55 0 86.5 21t31.5 65q0 28 -16.5 45t-48 28.5t-89.5 25.5q-79 20 -131 44t-83.5 66.5t-31.5 111.5q0 63 30 115t89.5 83t145.5 31q81 0 143.5 -27.5z" />
    <glyph glyph-name="T" unicode="T" horiz-adv-x="697" 
d="M21 748h655v-136h-250v-612h-155v612h-250v136z" />
    <glyph glyph-name="U" unicode="U" horiz-adv-x="771" 
d="M704 304q0 -99 -38.5 -170t-110 -108t-169.5 -37q-149 0 -234 83t-85 232v444h154v-442q0 -88 42 -134t123 -46q80 0 122 46t42 134v442h154v-444z" />
    <glyph glyph-name="V" unicode="V" horiz-adv-x="777" 
d="M600 748h169l-315 -748h-130l-315 748h168l212 -510z" />
    <glyph glyph-name="W" unicode="W" horiz-adv-x="1061" 
d="M885 748h164l-231 -748h-130l-157 474l-157 -474h-131l-231 748h164l134 -485l157 485h127l158 -485z" />
    <glyph glyph-name="X" unicode="X" horiz-adv-x="721" 
d="M515 748h178l-218 -368l231 -380h-179l-166 281l-167 -281h-179l231 380l-218 368h178l155 -269z" />
    <glyph glyph-name="Y" unicode="Y" horiz-adv-x="738" 
d="M550 748h180l-283 -460v-288h-154v288l-284 460h179l181 -307z" />
    <glyph glyph-name="Z" unicode="Z" horiz-adv-x="620" 
d="M39 748h540v-117l-348 -494h358v-137h-555v117l346 495h-341v136z" />
    <glyph glyph-name="bracketleft" unicode="[" horiz-adv-x="311" 
d="M50 748h234v-121h-89v-593h89v-121h-234v835z" />
    <glyph glyph-name="backslash" unicode="\" horiz-adv-x="415" 
d="M4 748h152l255 -815h-152z" />
    <glyph glyph-name="bracketright" unicode="]" horiz-adv-x="311" 
d="M28 748h234v-835h-234v121h88v593h-88v121z" />
    <glyph glyph-name="asciicircum" unicode="^" horiz-adv-x="590" 
d="M24 372l271 394l271 -394h-165l-106 167l-106 -167h-165z" />
    <glyph glyph-name="underscore" unicode="_" horiz-adv-x="600" 
d="M0 -80h600v-103h-600v103z" />
    <glyph glyph-name="grave" unicode="`" horiz-adv-x="262" 
d="M6 789h166l83 -191h-113z" />
    <glyph glyph-name="a" unicode="a" horiz-adv-x="551" 
d="M431 474q55 -53 55 -155v-319h-141v42q-51 -53 -132 -53q-80 0 -126 39.5t-46 113.5q0 80 57 116.5t150 40.5l92 5v20q0 80 -67 80q-35 0 -53.5 -20t-18.5 -48l-146 6q0 46 27 89t76 69.5t113 26.5q105 0 160 -53zM262 203q-75 -3 -75 -54q0 -47 60 -47q41 0 67 22t26 62
v22z" />
    <glyph glyph-name="b" unicode="b" horiz-adv-x="651" 
d="M269 7q-40 18 -62 46v-53h-138v777h146v-305q21 24 59 39.5t86 15.5q73 0 130 -33.5t88.5 -94.5t31.5 -141t-31.5 -141t-88.5 -94.5t-130 -33.5q-51 0 -91 18zM427.5 152.5q34.5 37.5 34.5 105.5t-34.5 106t-90.5 38q-55 0 -88.5 -35.5t-33.5 -96.5v-23q0 -62 33.5 -97
t88.5 -35q56 0 90.5 37.5z" />
    <glyph glyph-name="c" unicode="c" horiz-adv-x="586" 
d="M469.5 473q67.5 -54 81.5 -146l-143 -12q-5 40 -32.5 63.5t-69.5 23.5q-52 0 -84.5 -38t-32.5 -106q0 -67 32.5 -105t84.5 -38q43 0 70 22.5t33 61.5l142 -13q-15 -91 -82 -144t-163 -53q-76 0 -136.5 32.5t-94.5 93t-34 143.5t34 144t94 93t137 32q96 0 163.5 -54z" />
    <glyph glyph-name="d" unicode="d" horiz-adv-x="651" 
d="M161 22.5q-57 33.5 -88.5 94.5t-31.5 141t31.5 141t88 94.5t129.5 33.5q48 0 86.5 -15.5t59.5 -39.5v305h145v-777h-137v53q-22 -28 -62 -46t-92 -18q-72 0 -129 33.5zM402.5 150q33.5 35 33.5 97v23q0 61 -33.5 96.5t-88.5 35.5q-56 0 -90.5 -38t-34.5 -106t34.5 -105.5
t90.5 -37.5q55 0 88.5 35z" />
    <glyph glyph-name="e" unicode="e" horiz-adv-x="592" 
d="M551 212h-355q2 -49 30.5 -77t77.5 -28q38 0 62.5 15t32.5 42l147 -7q-9 -48 -42.5 -86.5t-84.5 -60t-111 -21.5q-79 0 -139.5 33t-94 93.5t-33.5 142.5t33.5 143t93 93.5t136.5 32.5q74 0 130 -31t86.5 -89t30.5 -137v-58zM227.5 385.5q-28.5 -27.5 -31.5 -76.5h208
q-2 49 -27.5 76.5t-73.5 27.5q-47 0 -75.5 -27.5z" />
    <glyph glyph-name="f" unicode="f" horiz-adv-x="384" 
d="M373 780v-126q-20 2 -35 2q-38 0 -62 -22.5t-24 -59.5v-57h120v-126h-120v-391h-146v391h-93v126h93v53q0 97 59 155t157 58q29 0 51 -3z" />
    <glyph glyph-name="g" unicode="g" horiz-adv-x="642" 
d="M136 -211.5q-67 53.5 -82 145.5l145 5q5 -38 36 -59t80 -21q56 0 88.5 28.5t32.5 82.5v74q-23 -24 -60.5 -39.5t-85.5 -15.5q-72 0 -129 33.5t-88.5 94.5t-31.5 141t31.5 141t88.5 94.5t129 33.5q52 0 92.5 -17.5t61.5 -46.5v54h137v-536q0 -74 -32 -129.5t-91 -86
t-138 -30.5q-117 0 -184 53.5zM402.5 149.5q33.5 35.5 33.5 96.5v24q0 61 -33.5 96.5t-88.5 35.5q-56 0 -90.5 -38t-34.5 -106t34.5 -106t90.5 -38q55 0 88.5 35.5z" />
    <glyph glyph-name="h" unicode="h" horiz-adv-x="610" 
d="M215 473q19 24 51.5 39t79.5 15q91 0 146.5 -56t55.5 -155v-316h-146v288q0 49 -24.5 76t-66.5 27q-43 0 -69.5 -28.5t-26.5 -75.5v-287h-146v777h146v-304z" />
    <glyph glyph-name="i" unicode="i" 
d="M204.5 748.5q25.5 -25.5 25.5 -62.5q0 -36 -25.5 -61.5t-62.5 -25.5t-62 25.5t-25 61.5q0 37 26 62.5t61 25.5q37 0 62.5 -25.5zM69 517h146v-517h-146v517z" />
    <glyph glyph-name="j" unicode="j" horiz-adv-x="290" 
d="M209.5 748.5q25.5 -25.5 25.5 -62.5q0 -36 -25.5 -61.5t-62.5 -25.5t-62 25.5t-25 61.5q0 37 25 62.5t62 25.5t62.5 -25.5zM221 -50q0 -97 -58.5 -154.5t-155.5 -57.5q-29 0 -51 3v127q14 -3 34 -3q38 0 61.5 22.5t23.5 59.5v570h146v-567z" />
    <glyph glyph-name="k" unicode="k" horiz-adv-x="576" 
d="M69 777h146v-448l167 188h177l-195 -221l209 -296h-177l-135 187l-46 -50v-137h-146v777z" />
    <glyph glyph-name="l" unicode="l" 
d="M69 777h146v-777h-146v777z" />
    <glyph glyph-name="m" unicode="m" horiz-adv-x="924" 
d="M806.5 470.5q53.5 -56.5 53.5 -153.5v-317h-146v288q0 50 -22 76.5t-64 26.5q-38 0 -61.5 -23t-28.5 -63v-305h-146v288q0 49 -22 76t-62 27q-43 0 -68 -28.5t-25 -75.5v-287h-146v517h138v-53q40 63 136 63q53 0 94.5 -21t67.5 -61q24 38 63.5 60t95.5 22
q89 0 142.5 -56.5z" />
    <glyph glyph-name="n" unicode="n" horiz-adv-x="612" 
d="M492.5 471q55.5 -56 55.5 -155v-316h-146v288q0 49 -24.5 76t-66.5 27q-43 0 -69.5 -28.5t-26.5 -75.5v-287h-146v517h138v-53q18 29 53.5 46t85.5 17q91 0 146.5 -56z" />
    <glyph glyph-name="o" unicode="o" horiz-adv-x="632" 
d="M457.5 493.5q62.5 -33.5 98 -94.5t35.5 -141t-35.5 -141t-98 -94.5t-141.5 -33.5t-141.5 33.5t-98 94.5t-35.5 141t35.5 141t98 94.5t141.5 33.5t141.5 -33.5zM224 363.5q-35 -38.5 -35 -105.5t35 -105t92 -38t92 38t35 105t-35 105.5t-92 38.5t-92 -38.5z" />
    <glyph glyph-name="p" unicode="p" horiz-adv-x="651" 
d="M69 -255v772h138v-54q21 29 61 46.5t92 17.5q73 0 130 -33.5t88.5 -94.5t31.5 -141t-31.5 -141t-88.5 -94.5t-130 -33.5q-47 0 -85 15.5t-60 39.5v-299h-146zM427.5 152q34.5 38 34.5 106t-34.5 106t-90.5 38q-55 0 -88.5 -35.5t-33.5 -96.5v-24q0 -61 33.5 -96.5
t88.5 -35.5q56 0 90.5 38z" />
    <glyph glyph-name="q" unicode="q" horiz-adv-x="651" 
d="M436 44q-22 -24 -60 -39.5t-86 -15.5q-72 0 -129 33.5t-88.5 94.5t-31.5 141t31.5 141t88.5 94.5t129 33.5q52 0 92.5 -17.5t61.5 -46.5v54h137v-772h-145v299zM402.5 149.5q33.5 35.5 33.5 96.5v24q0 61 -33.5 96.5t-88.5 35.5q-56 0 -90.5 -38t-34.5 -106t34.5 -106
t90.5 -38q55 0 88.5 35.5z" />
    <glyph glyph-name="r" unicode="r" horiz-adv-x="392" 
d="M372 381q-68 0 -112.5 -33t-44.5 -86v-262h-146v517h141v-59q22 28 62.5 46t99.5 18v-141z" />
    <glyph glyph-name="s" unicode="s" horiz-adv-x="502" 
d="M397.5 481.5q53.5 -45.5 61.5 -121.5l-146 -8q-2 29 -17.5 46t-47.5 17q-29 0 -44.5 -11.5t-15.5 -32.5q0 -22 17.5 -31t63.5 -21l20 -5q89 -23 132.5 -55.5t43.5 -97.5q0 -80 -55.5 -126t-155.5 -46q-99 0 -156 43.5t-65 124.5l146 8q5 -64 76 -64q30 0 47.5 12.5
t17.5 34.5q0 16 -8 25.5t-27.5 16.5t-58.5 17q-67 17 -103.5 32.5t-58.5 45t-22 79.5q0 75 55.5 119t151.5 44q95 0 148.5 -45.5z" />
    <glyph glyph-name="t" unicode="t" horiz-adv-x="398" 
d="M370 391h-122l-1 -192q0 -40 22 -59t56 -19q18 0 45 5v-130q-42 -6 -81 -6q-88 0 -138.5 43.5t-49.5 130.5l1 227h-94v126h95l1 171h146l-1 -171h121v-126z" />
    <glyph glyph-name="u" unicode="u" horiz-adv-x="596" 
d="M527 517v-517h-138v52q-17 -27 -50 -45t-84 -18q-89 0 -140 54t-51 149v325h146v-294q0 -98 83 -98q41 0 64.5 27.5t23.5 72.5v292h146z" />
    <glyph glyph-name="v" unicode="v" horiz-adv-x="567" 
d="M410 517h155l-223 -517h-117l-223 517h155l127 -311z" />
    <glyph glyph-name="w" unicode="w" horiz-adv-x="800" 
d="M643 517h150l-171 -517h-124l-98 275l-99 -275h-123l-172 517h151l90 -311l101 311h103l101 -311z" />
    <glyph glyph-name="x" unicode="x" horiz-adv-x="547" 
d="M174 0h-165l162 263l-160 254h165l97 -160l98 160h164l-161 -257l165 -260h-166l-100 163z" />
    <glyph glyph-name="y" unicode="y" horiz-adv-x="567" 
d="M408 517h156l-331 -772h-159l132 301l-202 471h155l125 -315z" />
    <glyph glyph-name="z" unicode="z" horiz-adv-x="449" 
d="M35 517h376v-99l-201 -297h209v-121h-388v99l202 297h-198v121z" />
    <glyph glyph-name="braceleft" unicode="{" horiz-adv-x="317" 
d="M289 748v-121h-6q-34 0 -50 -19.5t-16 -61.5q0 -21 5 -59q5 -32 5 -56q0 -43 -16.5 -69.5t-56.5 -30.5q40 -5 56.5 -31.5t16.5 -69.5q0 -24 -5 -56q-5 -38 -5 -59q0 -42 16 -61.5t50 -19.5h6v-121h-6q-95 0 -153.5 48.5t-58.5 137.5q0 30 7 61q10 43 10 65q0 23 -13 34.5
t-43 11.5h-8v119h8q30 0 43 11.5t13 34.5q0 22 -10 65q-7 31 -7 61q0 89 58.5 137.5t153.5 48.5h6z" />
    <glyph glyph-name="bar" unicode="|" horiz-adv-x="282" 
d="M68 748h146v-815h-146v815z" />
    <glyph glyph-name="braceright" unicode="}" horiz-adv-x="317" 
d="M34 748q95 0 153.5 -48.5t58.5 -137.5q0 -30 -7 -61q-10 -43 -10 -65q0 -23 13 -34.5t43 -11.5h8v-119h-8q-30 0 -43 -11.5t-13 -34.5q0 -22 10 -65q7 -31 7 -61q0 -89 -58.5 -137.5t-153.5 -48.5h-6v121h6q34 0 50 19.5t16 61.5q0 21 -5 59q-5 32 -5 56q0 92 72 101
q-72 8 -72 100q0 24 5 56q5 38 5 59q0 42 -16 61.5t-50 19.5h-6v121h6z" />
    <glyph glyph-name="asciitilde" unicode="~" horiz-adv-x="538" 
d="M531 367q-35 -46 -73.5 -69.5t-87.5 -23.5q-28 0 -49.5 7t-54.5 23q-25 13 -44 20t-41 7q-35 0 -59.5 -11.5t-48.5 -40.5l-66 97q35 45 73.5 68t86.5 23q27 0 47.5 -7t49.5 -22q29 -14 48 -21t43 -7q36 0 61 12t49 41z" />
    <glyph glyph-name="exclamdown" unicode="&#xa1;" horiz-adv-x="318" 
d="M97 375q-26 26 -26 63t26 62.5t63 25.5q36 0 61.5 -25.5t25.5 -62.5t-25.5 -63t-61.5 -26q-37 0 -63 26zM244 -233h-170l8 520h154z" />
    <glyph glyph-name="cent" unicode="&#xa2;" horiz-adv-x="586" 
d="M376 137.5q27 22.5 33 61.5l142 -13q-13 -76 -63.5 -127t-125.5 -65v-112h-121v114q-91 18 -145.5 87t-54.5 175t54 175t146 88v106h121v-105q76 -15 126.5 -66t62.5 -129l-143 -12q-5 40 -32.5 63.5t-69.5 23.5q-52 0 -84.5 -38t-32.5 -106q0 -67 32.5 -105t84.5 -38
q43 0 70 22.5z" />
    <glyph glyph-name="sterling" unicode="&#xa3;" horiz-adv-x="578" 
d="M550 137v-137h-516v126q52 10 73.5 41.5t21.5 90.5q0 29 -2 46v2h-93v121h82l-6 63q-2 16 -2 46q0 107 55.5 165t162.5 58q103 0 159 -54.5t58 -151.5l-154 -8q0 36 -17 56.5t-49 20.5q-39 0 -56.5 -27t-12.5 -77l8 -91h150v-121h-138v-5q2 -22 2 -30q0 -82 -55 -134h329
z" />
    <glyph glyph-name="currency" unicode="&#xa4;" horiz-adv-x="595" 
d="M488 240l82 -82l-92 -91l-82 82q-42 -21 -98 -21q-53 0 -97 22l-84 -83l-92 91l84 84q-25 50 -25 110q0 61 25 111l-84 84l92 92l84 -84q46 22 97 22t97 -22l83 84l92 -92l-84 -84q25 -50 25 -111q0 -63 -23 -112zM227.5 262.5q25.5 -31.5 70.5 -31.5q44 0 69.5 33
t25.5 88q0 57 -25.5 89t-69.5 32t-70 -32t-26 -89q0 -58 25.5 -89.5z" />
    <glyph glyph-name="yen" unicode="&#xa5;" horiz-adv-x="738" 
d="M550 748h180l-242 -394h92v-90h-133v-66h133v-91h-133v-107h-154v107h-134v91h134v66h-134v90h93l-243 394h179l181 -307z" />
    <glyph glyph-name="brokenbar" unicode="&#xa6;" horiz-adv-x="282" 
d="M68 748h146v-319h-146v319zM68 252h146v-319h-146v319z" />
    <glyph glyph-name="section" unicode="&#xa7;" horiz-adv-x="523" 
d="M472 213.5q15 -27.5 15 -69.5q0 -50 -27 -89t-78 -61t-119 -22q-108 0 -169 45t-61 123l146 6q0 -31 21.5 -49.5t63.5 -18.5q36 0 56.5 15t20.5 42q0 25 -21.5 38.5t-79.5 26.5q-72 15 -117 33t-70 48.5t-25 78.5q0 41 17.5 69t51.5 50q-27 19 -40.5 46t-13.5 67
q0 75 57.5 121t154.5 46q102 0 159 -43t58 -117l-145 -5q-2 58 -71 58q-32 0 -49.5 -13.5t-17.5 -39.5q0 -24 19.5 -36.5t74.5 -25.5q74 -15 118.5 -33t68.5 -48t24 -78q0 -41 -16.5 -68.5t-49.5 -49.5q29 -19 44 -46.5zM191.5 331q29.5 -14 103.5 -28l23 -5q21 15 31.5 29
t10.5 36q0 30 -29 43.5t-104 27.5l-23 5q-21 -14 -31.5 -28.5t-10.5 -36.5q0 -29 29.5 -43z" />
    <glyph glyph-name="dieresis" unicode="&#xa8;" horiz-adv-x="365" 
d="M133.5 744.5q23.5 -23.5 23.5 -58.5q0 -34 -23.5 -57.5t-58.5 -23.5t-58.5 23.5t-23.5 57.5q0 35 24 58.5t58 23.5q35 0 58.5 -23.5zM348.5 744.5q23.5 -23.5 23.5 -58.5q0 -34 -23.5 -57.5t-58.5 -23.5t-58.5 23.5t-23.5 57.5q0 35 24 58.5t58 23.5q35 0 58.5 -23.5z
" />
    <glyph glyph-name="copyright" unicode="&#xa9;" horiz-adv-x="589" 
d="M432.5 727.5q61.5 -33.5 97 -92t35.5 -130.5t-35.5 -130.5t-97 -92t-137.5 -33.5q-77 0 -139 33.5t-97 92t-35 130.5t35 130.5t97 92t139 33.5q76 0 137.5 -33.5zM183.5 684.5q-48.5 -26.5 -75.5 -73.5t-27 -106t27 -106t75.5 -73.5t111.5 -26.5q62 0 110.5 26.5
t75.5 73.5t27 106t-27 106t-75.5 73.5t-110.5 26.5q-63 0 -111.5 -26.5zM392 631.5q40 -31.5 48 -84.5l-83 -5q-4 24 -21 37.5t-42 13.5q-32 0 -51 -23t-19 -63t20 -63t51 -23q24 0 41 13t21 37l83 -6q-9 -53 -48.5 -84t-95.5 -31q-67 0 -110.5 42.5t-43.5 114.5t43 114
t111 42q56 0 96 -31.5z" />
    <glyph glyph-name="ordfeminine" unicode="&#xaa;" horiz-adv-x="451" 
d="M403 590v-257h-123v31q-16 -17 -45 -28t-66 -11q-66 0 -103.5 31.5t-37.5 89.5q0 65 49 94t131 34l65 4v21q0 24 -13.5 38.5t-37.5 14.5q-27 0 -41.5 -15t-14.5 -37l-127 4q0 38 22.5 73.5t64 57.5t96.5 22q181 0 181 -167zM218 495q-58 -5 -58 -41q0 -35 45 -35
q28 0 48 16.5t20 45.5v18z" />
    <glyph glyph-name="guillemotleft" unicode="&#xab;" horiz-adv-x="602" 
d="M26 268l163 235l117 -72l-117 -163l117 -163l-117 -72zM297 268l163 235l116 -72l-117 -163l117 -163l-116 -72z" />
    <glyph glyph-name="logicalnot" unicode="&#xac;" horiz-adv-x="596" 
d="M30 450h531v-303h-114v190h-417v113z" />
    <glyph glyph-name="uni00AD" unicode="&#xad;" horiz-adv-x="400" 
d="M42 350h316v-136h-316v136z" />
    <glyph glyph-name="registered" unicode="&#xae;" horiz-adv-x="589" 
d="M432.5 727.5q61.5 -33.5 97 -92t35.5 -130.5t-35.5 -130.5t-97 -92t-137.5 -33.5q-77 0 -139 33.5t-97 92t-35 130.5t35 130.5t97 92t139 33.5q76 0 137.5 -33.5zM405.5 325.5q48.5 26.5 75.5 73.5t27 106t-27 106t-75.5 73.5t-110.5 26.5q-63 0 -111.5 -26.5
t-75.5 -73.5t-27 -106t27 -106t75.5 -73.5t111.5 -26.5q62 0 110.5 26.5zM404 508q-12 -22 -34 -34l55 -121h-87l-47 106h-34v-106h-80v306h134q46 0 75.5 -27t29.5 -73q0 -29 -12 -51zM257 594v-71h39q38 0 38 36q0 17 -10 26t-28 9h-39z" />
    <glyph glyph-name="macron" unicode="&#xaf;" horiz-adv-x="311" 
d="M-5 727h320v-104h-320v104z" />
    <glyph glyph-name="degree" unicode="&#xb0;" horiz-adv-x="371" 
d="M69 481q-45 45 -45 116t45 116t116 45t116.5 -45t45.5 -116t-45.5 -116t-116.5 -45t-116 45zM230 545q17 20 17 52t-17 52t-45 20t-45 -20t-17 -52t17 -52t45 -20t45 20z" />
    <glyph glyph-name="plusminus" unicode="&#xb1;" horiz-adv-x="542" 
d="M200 723h142v-176h172v-132h-172v-177h-142v177h-172v132h172v176zM28 186h486v-136h-486v136z" />
    <glyph glyph-name="two.numr" unicode="&#xb2;" horiz-adv-x="313" 
d="M257 702.5q35 -36.5 35 -96.5q0 -39 -16.5 -71.5t-46.5 -66.5l-43 -48h108v-99h-276v77l132 140q17 18 25 33.5t8 35.5q0 15 -7 23.5t-20 8.5q-31 0 -31 -37l-108 6q1 60 38 95.5t98 35.5q69 0 104 -36.5z" />
    <glyph glyph-name="three.numr" unicode="&#xb3;" horiz-adv-x="323" 
d="M259 705.5q35 -33.5 35 -91.5q0 -29 -11 -48t-32 -33q21 -10 34.5 -33t13.5 -54q0 -61 -39 -96.5t-102 -35.5q-67 0 -103.5 35t-37.5 94l111 8q2 -37 30 -37q14 0 22.5 9t8.5 26q0 36 -36 36h-45v90h43q16 0 26 9t10 24t-8 23t-20 8q-29 0 -29 -33l-107 6q0 60 35 93.5
t101 33.5q65 0 100 -33.5z" />
    <glyph glyph-name="acute" unicode="&#xb4;" horiz-adv-x="262" 
d="M91 789h164l-135 -191h-114z" />
    <glyph glyph-name="paragraph" unicode="&#xb6;" horiz-adv-x="705" 
d="M691 748v-108h-70v-707h-113v707h-96v-707h-112v435h-56q-97 0 -154.5 49t-57.5 142q0 91 57.5 140t154.5 49h447z" />
    <glyph glyph-name="periodcentered" unicode="&#xb7;" horiz-adv-x="257" 
d="M191 386q26 -26 26 -63t-26 -62.5t-63 -25.5t-62.5 25.5t-25.5 62.5t25.5 63t62.5 26t63 -26z" />
    <glyph glyph-name="cedilla" unicode="&#xb8;" horiz-adv-x="268" 
d="M143 -41q46 -3 79 -30.5t33 -73.5q0 -52 -41 -79.5t-99 -27.5q-61 0 -99 19l23 77q22 -14 55 -14q21 0 36.5 8.5t15.5 26.5q0 19 -15.5 28t-39.5 9q-19 0 -36 -5l40 125h64z" />
    <glyph glyph-name="one.numr" unicode="&#xb9;" horiz-adv-x="228" 
d="M128 733h71v-411h-112v264l-50 -34l-44 94z" />
    <glyph glyph-name="ordmasculine" unicode="&#xba;" horiz-adv-x="507" 
d="M368 730q51 -27 79.5 -76.5t28.5 -113.5t-28.5 -113t-79.5 -75.5t-115 -26.5t-114.5 26.5t-79 75.5t-28.5 113t28.5 113.5t79 76.5t114.5 27t115 -27zM187.5 617q-24.5 -28 -24.5 -77q0 -48 24.5 -76t65.5 -28q42 0 67 28t25 76q0 49 -25 77t-67 28q-41 0 -65.5 -28z" />
    <glyph glyph-name="guillemotright" unicode="&#xbb;" horiz-adv-x="602" 
d="M26 431l117 72l163 -235l-163 -235l-117 72l117 163zM296 431l116 72l163 -235l-163 -235l-116 72l117 163z" />
    <glyph glyph-name="onequarter" unicode="&#xbc;" horiz-adv-x="745" 
d="M128 733h71v-411h-112v264l-50 -34l-44 94zM548 748h118l-506 -748h-118zM581 411h105v-249h45v-99h-45v-63h-110v63h-165v87zM577 162v100l-69 -100h69z" />
    <glyph glyph-name="onehalf" unicode="&#xbd;" horiz-adv-x="765" 
d="M128 733h71v-411h-112v264l-50 -34l-44 94zM548 748h118l-506 -748h-118zM709 381.5q35 -36.5 35 -96.5q0 -39 -16.5 -71.5t-46.5 -66.5l-43 -48h108v-99h-276v77l132 140q17 18 25 33.5t8 35.5q0 15 -7 23.5t-20 8.5q-31 0 -31 -37l-108 6q1 60 38 95.5t98 35.5
q69 0 104 -36.5z" />
    <glyph glyph-name="threequarters" unicode="&#xbe;" horiz-adv-x="824" 
d="M259 705.5q35 -33.5 35 -91.5q0 -29 -11 -48t-32 -33q21 -10 34.5 -33t13.5 -54q0 -61 -39 -96.5t-102 -35.5q-67 0 -103.5 35t-37.5 94l111 8q2 -37 30 -37q14 0 22.5 9t8.5 26q0 36 -36 36h-45v90h43q16 0 26 9t10 24t-8 23t-20 8q-29 0 -29 -33l-107 6q0 60 35 93.5
t101 33.5q65 0 100 -33.5zM627 748h118l-506 -748h-118zM660 411h105v-249h45v-99h-45v-63h-110v63h-165v87zM656 162v100l-69 -100h69z" />
    <glyph glyph-name="questiondown" unicode="&#xbf;" horiz-adv-x="569" 
d="M221 375q-26 26 -26 63t26 62.5t63 25.5t62.5 -25.5t25.5 -62.5t-25.5 -63t-62.5 -26t-63 26zM150.5 -217q-56.5 28 -87 79t-30.5 120q0 56 25.5 91.5t73.5 74.5q38 31 56 54t18 54v31h155v-37q0 -44 -24.5 -78.5t-71.5 -73.5q-37 -32 -55.5 -57t-18.5 -56
q0 -44 25 -68.5t68 -24.5t69 26t29 73l154 -10q-2 -68 -34.5 -119t-88.5 -79t-129 -28q-77 0 -133.5 28z" />
    <glyph glyph-name="Agrave" unicode="&#xc0;" horiz-adv-x="783" 
d="M326 748h130l322 -748h-169l-60 144h-315l-60 -144h-169zM495 270l-103 249l-103 -249h206zM123 960h204l128 -154h-137z" />
    <glyph glyph-name="Aacute" unicode="&#xc1;" horiz-adv-x="783" 
d="M326 748h130l322 -748h-169l-60 144h-315l-60 -144h-169zM495 270l-103 249l-103 -249h206zM450 959h204l-195 -154h-137z" />
    <glyph glyph-name="Acircumflex" unicode="&#xc2;" horiz-adv-x="783" 
d="M326 748h130l322 -748h-169l-60 144h-315l-60 -144h-169zM495 270l-103 249l-103 -249h206zM322 965h141l116 -160h-123l-64 75l-65 -75h-122z" />
    <glyph glyph-name="Atilde" unicode="&#xc3;" horiz-adv-x="783" 
d="M326 748h130l322 -748h-169l-60 144h-315l-60 -144h-169zM495 270l-103 249l-103 -249h206zM357.5 961.5q17.5 -7.5 39.5 -22.5q18 -12 29 -17.5t24 -5.5q40 0 42 46h82q1 -6 1 -17q0 -58 -30 -98t-79 -40q-23 0 -41 8t-39 23q-3 2 -14 8.5t-20 10t-18 3.5q-42 0 -42 -46
h-82q-1 6 -1 18q0 58 29.5 97.5t78.5 39.5q23 0 40.5 -7.5z" />
    <glyph glyph-name="Adieresis" unicode="&#xc4;" horiz-adv-x="783" 
d="M326 748h130l322 -748h-169l-60 144h-315l-60 -144h-169zM495 270l-103 249l-103 -249h206zM343 952.5q24 -23.5 24 -57.5q0 -35 -23.5 -58.5t-58.5 -23.5t-58.5 23.5t-23.5 58.5q0 34 24 57.5t58 23.5t58 -23.5zM558 952.5q24 -23.5 24 -57.5q0 -35 -24 -58.5t-59 -23.5
q-34 0 -58 23.5t-24 58.5q0 34 24 57.5t58 23.5q35 0 59 -23.5z" />
    <glyph glyph-name="Aring" unicode="&#xc5;" horiz-adv-x="783" 
d="M326 748h130l322 -748h-169l-60 144h-315l-60 -144h-169zM495 270l-103 249l-103 -249h206zM472 987.5q33 -30.5 33 -77.5q0 -46 -33 -76.5t-80 -30.5q-49 0 -82.5 30.5t-33.5 76.5q0 47 33.5 77.5t82.5 30.5q47 0 80 -30.5zM358.5 942.5q-12.5 -12.5 -12.5 -32.5
q0 -19 12.5 -31t33.5 -12q19 0 31 12t12 31q0 20 -12 32.5t-31 12.5q-21 0 -33.5 -12.5z" />
    <glyph glyph-name="AE" unicode="&#xc6;" horiz-adv-x="1049" 
d="M1003 748v-136h-326v-162h282v-133h-282v-180h326v-137h-480v144h-239l-95 -144h-187l504 748h497zM523 506l-155 -236h155v236z" />
    <glyph glyph-name="Ccedilla" unicode="&#xc7;" horiz-adv-x="816" 
d="M546 167q52 41 70 118l157 -12q-24 -127 -112.5 -202t-215.5 -81l-9 -36q46 -3 79 -30.5t33 -73.5q0 -52 -41 -79.5t-99 -27.5q-61 0 -99 19l23 77q22 -14 55 -14q21 0 36.5 8.5t15.5 26.5q0 19 -15.5 28t-39.5 9q-19 0 -36 -5l32 99q-99 9 -175.5 57.5t-119.5 132
t-43 193.5q0 117 49 204.5t135.5 134t195.5 46.5q89 0 164.5 -34.5t125 -99.5t62.5 -153l-158 -13q-17 79 -70 121t-129 42q-64 0 -113.5 -30.5t-77 -86.5t-27.5 -131q0 -78 28.5 -134t78 -85t111.5 -29q77 0 129 41z" />
    <glyph glyph-name="Egrave" unicode="&#xc8;" horiz-adv-x="598" 
d="M72 748h480v-136h-325v-162h282v-133h-282v-180h326v-137h-481v748zM47 960h204l128 -154h-137z" />
    <glyph glyph-name="Eacute" unicode="&#xc9;" horiz-adv-x="598" 
d="M72 748h480v-136h-325v-162h282v-133h-282v-180h326v-137h-481v748zM375 959h204l-195 -154h-137z" />
    <glyph glyph-name="Ecircumflex" unicode="&#xca;" horiz-adv-x="598" 
d="M72 748h480v-136h-325v-162h282v-133h-282v-180h326v-137h-481v748zM246 965h141l116 -160h-123l-64 75l-65 -75h-122z" />
    <glyph glyph-name="Edieresis" unicode="&#xcb;" horiz-adv-x="598" 
d="M72 748h480v-136h-325v-162h282v-133h-282v-180h326v-137h-481v748zM267 952.5q24 -23.5 24 -57.5q0 -35 -23.5 -58.5t-58.5 -23.5t-58.5 23.5t-23.5 58.5q0 34 24 57.5t58 23.5t58 -23.5zM482 952.5q24 -23.5 24 -57.5q0 -35 -24 -58.5t-59 -23.5q-34 0 -58 23.5
t-24 58.5q0 34 24 57.5t58 23.5q35 0 59 -23.5z" />
    <glyph glyph-name="Igrave" unicode="&#xcc;" horiz-adv-x="299" 
d="M72 748h155v-748h-155v748zM-115 960h204l128 -154h-137z" />
    <glyph glyph-name="Iacute" unicode="&#xcd;" horiz-adv-x="299" 
d="M72 748h155v-748h-155v748zM213 959h204l-195 -154h-137z" />
    <glyph glyph-name="Icircumflex" unicode="&#xce;" horiz-adv-x="299" 
d="M72 748h155v-748h-155v748zM84 965h141l116 -160h-123l-64 75l-65 -75h-122z" />
    <glyph glyph-name="Idieresis" unicode="&#xcf;" horiz-adv-x="299" 
d="M110.5 944q23.5 -23 23.5 -56t-23.5 -56t-56.5 -23t-56 23t-23 56t23 56t56 23t56.5 -23zM311 944q23 -23 23 -56t-23 -56t-56 -23t-56 23t-23 56t23 56t56 23t56 -23zM72 748h155v-748h-155v748z" />
    <glyph glyph-name="Eth" unicode="&#xd0;" horiz-adv-x="821" 
d="M407 748q107 0 191.5 -45t132.5 -129.5t48 -199.5t-48 -199.5t-133 -129.5t-192 -45h-306v315h-85v117h85v316h307zM408 132q101 0 159 62t58 180t-58 180t-159 62h-154v-184h109v-117h-109v-183h154z" />
    <glyph glyph-name="Ntilde" unicode="&#xd1;" horiz-adv-x="758" 
d="M532 748h154v-748h-131l-328 463v-463h-155v748h131l329 -464v464zM337.5 961.5q17.5 -7.5 39.5 -22.5q18 -12 29 -17.5t24 -5.5q40 0 42 46h82q1 -6 1 -17q0 -58 -30 -98t-79 -40q-23 0 -41 8t-39 23q-3 2 -14 8.5t-20 10t-18 3.5q-42 0 -42 -46h-82q-1 6 -1 18
q0 58 29.5 97.5t78.5 39.5q23 0 40.5 -7.5z" />
    <glyph glyph-name="Ograve" unicode="&#xd2;" horiz-adv-x="857" 
d="M627.5 711.5q87.5 -47.5 137.5 -135t50 -202.5t-50 -202.5t-137.5 -135t-198.5 -47.5t-199 47.5t-138 135t-50 202.5t50 202.5t138 135t199 47.5t198.5 -47.5zM309 592q-52 -30 -81 -86t-29 -132t29 -132t81 -86t120 -30q67 0 119 30t81 86t29 132t-29 132t-81 86
t-119 30q-68 0 -120 -30zM158 960h204l128 -154h-137z" />
    <glyph glyph-name="Oacute" unicode="&#xd3;" horiz-adv-x="857" 
d="M627.5 711.5q87.5 -47.5 137.5 -135t50 -202.5t-50 -202.5t-137.5 -135t-198.5 -47.5t-199 47.5t-138 135t-50 202.5t50 202.5t138 135t199 47.5t198.5 -47.5zM309 592q-52 -30 -81 -86t-29 -132t29 -132t81 -86t120 -30q67 0 119 30t81 86t29 132t-29 132t-81 86
t-119 30q-68 0 -120 -30zM486 959h204l-195 -154h-137z" />
    <glyph glyph-name="Ocircumflex" unicode="&#xd4;" horiz-adv-x="857" 
d="M627.5 711.5q87.5 -47.5 137.5 -135t50 -202.5t-50 -202.5t-137.5 -135t-198.5 -47.5t-199 47.5t-138 135t-50 202.5t50 202.5t138 135t199 47.5t198.5 -47.5zM309 592q-52 -30 -81 -86t-29 -132t29 -132t81 -86t120 -30q67 0 119 30t81 86t29 132t-29 132t-81 86
t-119 30q-68 0 -120 -30zM358 965h141l116 -160h-123l-64 75l-65 -75h-122z" />
    <glyph glyph-name="Otilde" unicode="&#xd5;" horiz-adv-x="857" 
d="M627.5 711.5q87.5 -47.5 137.5 -135t50 -202.5t-50 -202.5t-137.5 -135t-198.5 -47.5t-199 47.5t-138 135t-50 202.5t50 202.5t138 135t199 47.5t198.5 -47.5zM309 592q-52 -30 -81 -86t-29 -132t29 -132t81 -86t120 -30q67 0 119 30t81 86t29 132t-29 132t-81 86
t-119 30q-68 0 -120 -30zM392.5 961.5q17.5 -7.5 39.5 -22.5q18 -12 29 -17.5t24 -5.5q40 0 42 46h82q1 -6 1 -17q0 -58 -30 -98t-79 -40q-23 0 -41 8t-39 23q-3 2 -14 8.5t-20 10t-18 3.5q-42 0 -42 -46h-82q-1 6 -1 18q0 58 29.5 97.5t78.5 39.5q23 0 40.5 -7.5z" />
    <glyph glyph-name="Odieresis" unicode="&#xd6;" horiz-adv-x="857" 
d="M627.5 711.5q87.5 -47.5 137.5 -135t50 -202.5t-50 -202.5t-137.5 -135t-198.5 -47.5t-199 47.5t-138 135t-50 202.5t50 202.5t138 135t199 47.5t198.5 -47.5zM309 592q-52 -30 -81 -86t-29 -132t29 -132t81 -86t120 -30q67 0 119 30t81 86t29 132t-29 132t-81 86
t-119 30q-68 0 -120 -30zM379 952.5q24 -23.5 24 -57.5q0 -35 -23.5 -58.5t-58.5 -23.5t-58.5 23.5t-23.5 58.5q0 34 24 57.5t58 23.5t58 -23.5zM594 952.5q24 -23.5 24 -57.5q0 -35 -24 -58.5t-59 -23.5q-34 0 -58 23.5t-24 58.5q0 34 24 57.5t58 23.5q35 0 59 -23.5z" />
    <glyph glyph-name="multiply" unicode="&#xd7;" horiz-adv-x="543" 
d="M271 467l134 134l97 -97l-134 -133l135 -135l-97 -97l-135 135l-134 -135l-97 97l135 135l-134 134l96 97z" />
    <glyph glyph-name="Oslash" unicode="&#xd8;" horiz-adv-x="857" 
d="M712 648q50 -50 76.5 -120t26.5 -154q0 -115 -50 -202.5t-137.5 -135t-198.5 -47.5q-103 0 -189 42l-62 -80l-94 72l60 78q-49 51 -75.5 120.5t-26.5 152.5q0 115 50 202.5t138 135t199 47.5q103 0 187 -42l63 82l94 -71zM238 224l290 378q-45 20 -99 20q-68 0 -120 -30
t-81 -86t-29 -132q0 -88 39 -150zM548 156q52 30 81 86t29 132q0 90 -40 152l-290 -380q46 -20 101 -20q67 0 119 30z" />
    <glyph glyph-name="Ugrave" unicode="&#xd9;" horiz-adv-x="771" 
d="M704 304q0 -99 -38.5 -170t-110 -108t-169.5 -37q-149 0 -234 83t-85 232v444h154v-442q0 -88 42 -134t123 -46q80 0 122 46t42 134v442h154v-444zM116 960h204l128 -154h-137z" />
    <glyph glyph-name="Uacute" unicode="&#xda;" horiz-adv-x="771" 
d="M704 304q0 -99 -38.5 -170t-110 -108t-169.5 -37q-149 0 -234 83t-85 232v444h154v-442q0 -88 42 -134t123 -46q80 0 122 46t42 134v442h154v-444zM444 959h204l-195 -154h-137z" />
    <glyph glyph-name="Ucircumflex" unicode="&#xdb;" horiz-adv-x="771" 
d="M704 304q0 -99 -38.5 -170t-110 -108t-169.5 -37q-149 0 -234 83t-85 232v444h154v-442q0 -88 42 -134t123 -46q80 0 122 46t42 134v442h154v-444zM316 965h141l116 -160h-123l-64 75l-65 -75h-122z" />
    <glyph glyph-name="Udieresis" unicode="&#xdc;" horiz-adv-x="771" 
d="M704 304q0 -99 -38.5 -170t-110 -108t-169.5 -37q-149 0 -234 83t-85 232v444h154v-442q0 -88 42 -134t123 -46q80 0 122 46t42 134v442h154v-444zM337 952.5q24 -23.5 24 -57.5q0 -35 -23.5 -58.5t-58.5 -23.5t-58.5 23.5t-23.5 58.5q0 34 24 57.5t58 23.5t58 -23.5z
M552 952.5q24 -23.5 24 -57.5q0 -35 -24 -58.5t-59 -23.5q-34 0 -58 23.5t-24 58.5q0 34 24 57.5t58 23.5q35 0 59 -23.5z" />
    <glyph glyph-name="Yacute" unicode="&#xdd;" horiz-adv-x="738" 
d="M550 748h180l-283 -460v-288h-154v288l-284 460h179l181 -307zM428 959h204l-195 -154h-137z" />
    <glyph glyph-name="Thorn" unicode="&#xde;" horiz-adv-x="650" 
d="M227 748v-95h157q71 0 126 -28.5t85.5 -82.5t30.5 -129t-30.5 -129t-85.5 -82.5t-126 -28.5h-157v-173h-155v748h155zM226 516v-206h138q46 0 75 27t29 76t-29 76t-75 27h-138z" />
    <glyph glyph-name="germandbls" unicode="&#xdf;" horiz-adv-x="653" 
d="M431.5 763q54.5 -22 84 -61.5t29.5 -92.5q0 -38 -14 -63t-39 -51q-17 -18 -25.5 -31t-8.5 -29q0 -15 11.5 -27t37.5 -31q32 -23 53.5 -44t37.5 -55.5t16 -82.5q0 -65 -30.5 -110.5t-83 -69t-119.5 -23.5q-58 0 -107 19l28 116q33 -13 66 -13q43 0 71 24t28 67
q0 23 -15.5 41t-48.5 44q-44 34 -68 64.5t-24 76.5q0 35 13.5 56.5t39.5 45.5q18 17 26 28t8 26q0 35 -23.5 55.5t-66.5 20.5q-44 0 -69 -26.5t-25 -74.5v-562h-146v566q0 66 29.5 115.5t83 76.5t124.5 27q72 0 126.5 -22z" />
    <glyph glyph-name="agrave" unicode="&#xe0;" horiz-adv-x="551" 
d="M431 474q55 -53 55 -155v-319h-141v42q-51 -53 -132 -53q-80 0 -126 39.5t-46 113.5q0 80 57 116.5t150 40.5l92 5v20q0 80 -67 80q-35 0 -53.5 -20t-18.5 -48l-146 6q0 46 27 89t76 69.5t113 26.5q105 0 160 -53zM262 203q-75 -3 -75 -54q0 -47 60 -47q41 0 67 22t26 62
v22zM86 789h166l83 -191h-113z" />
    <glyph glyph-name="aacute" unicode="&#xe1;" horiz-adv-x="551" 
d="M431 474q55 -53 55 -155v-319h-141v42q-51 -53 -132 -53q-80 0 -126 39.5t-46 113.5q0 80 57 116.5t150 40.5l92 5v20q0 80 -67 80q-35 0 -53.5 -20t-18.5 -48l-146 6q0 46 27 89t76 69.5t113 26.5q105 0 160 -53zM262 203q-75 -3 -75 -54q0 -47 60 -47q41 0 67 22t26 62
v22zM308 789h164l-135 -191h-114z" />
    <glyph glyph-name="acircumflex" unicode="&#xe2;" horiz-adv-x="551" 
d="M431 474q55 -53 55 -155v-319h-141v42q-51 -53 -132 -53q-80 0 -126 39.5t-46 113.5q0 80 57 116.5t150 40.5l92 5v20q0 80 -67 80q-35 0 -53.5 -20t-18.5 -48l-146 6q0 46 27 89t76 69.5t113 26.5q105 0 160 -53zM262 203q-75 -3 -75 -54q0 -47 60 -47q41 0 67 22t26 62
v22zM212 776h141l117 -177h-122l-65 82l-65 -82h-122z" />
    <glyph glyph-name="atilde" unicode="&#xe3;" horiz-adv-x="551" 
d="M431 474q55 -53 55 -155v-319h-141v42q-51 -53 -132 -53q-80 0 -126 39.5t-46 113.5q0 80 57 116.5t150 40.5l92 5v20q0 80 -67 80q-35 0 -53.5 -20t-18.5 -48l-146 6q0 46 27 89t76 69.5t113 26.5q105 0 160 -53zM262 203q-75 -3 -75 -54q0 -47 60 -47q41 0 67 22t26 62
v22zM248 753q18 -8 39 -23q18 -12 29 -17.5t24 -5.5q40 0 42 47h82q1 -6 1 -17q0 -58 -30 -98.5t-79 -40.5q-23 0 -41 8t-39 23q-3 2 -14 8.5t-20 10t-18 3.5q-42 0 -42 -46h-82q-1 6 -1 18q0 58 29.5 98t78.5 40q23 0 41 -8z" />
    <glyph glyph-name="adieresis" unicode="&#xe4;" horiz-adv-x="551" 
d="M431 474q55 -53 55 -155v-319h-141v42q-51 -53 -132 -53q-80 0 -126 39.5t-46 113.5q0 80 57 116.5t150 40.5l92 5v20q0 80 -67 80q-35 0 -53.5 -20t-18.5 -48l-146 6q0 46 27 89t76 69.5t113 26.5q105 0 160 -53zM262 203q-75 -3 -75 -54q0 -47 60 -47q41 0 67 22t26 62
v22zM232.5 744.5q23.5 -23.5 23.5 -58.5q0 -34 -23.5 -57.5t-58.5 -23.5t-58.5 23.5t-23.5 57.5q0 35 24 58.5t58 23.5q35 0 58.5 -23.5zM447.5 744.5q23.5 -23.5 23.5 -58.5q0 -34 -23.5 -57.5t-58.5 -23.5t-58.5 23.5t-23.5 57.5q0 35 24 58.5t58 23.5q35 0 58.5 -23.5z
" />
    <glyph glyph-name="aring" unicode="&#xe5;" horiz-adv-x="551" 
d="M431 474q55 -53 55 -155v-319h-141v42q-51 -53 -132 -53q-80 0 -126 39.5t-46 113.5q0 80 57 116.5t150 40.5l92 5v20q0 80 -67 80q-35 0 -53.5 -20t-18.5 -48l-146 6q0 46 27 89t76 69.5t113 26.5q105 0 160 -53zM262 203q-75 -3 -75 -54q0 -47 60 -47q41 0 67 22t26 62
v22zM375 788.5q38 -34.5 38 -87.5t-38 -87.5t-93 -34.5t-93 34.5t-38 87.5t38 87.5t93 34.5t93 -34.5zM246.5 735.5q-13.5 -13.5 -13.5 -34.5q0 -22 13.5 -35t35.5 -13t35.5 13t13.5 35q0 21 -13.5 34.5t-35.5 13.5t-35.5 -13.5z" />
    <glyph glyph-name="ae" unicode="&#xe6;" horiz-adv-x="856" 
d="M815 212h-347q2 -49 29.5 -77t74.5 -28q36 0 60 15t32 42l146 -7q-9 -48 -42 -86.5t-83 -60t-108 -21.5q-56 0 -103 17.5t-82 51.5q-33 -32 -76.5 -50.5t-95.5 -18.5q-83 0 -131 40t-48 113q0 149 208 158l84 4v19q0 37 -16 59.5t-49 22.5q-32 0 -49.5 -20.5t-17.5 -48.5
l-146 6q0 46 25.5 89t73 69.5t109.5 26.5q97 0 151 -57q31 26 72.5 41.5t86.5 15.5q73 0 127.5 -31t84.5 -89t30 -137v-58zM498.5 385q-27.5 -28 -30.5 -78l200 2q-2 49 -27 76.5t-71 27.5q-44 0 -71.5 -28zM333 207l-70 -4q-76 -3 -76 -53q0 -24 15.5 -36t41.5 -12
q37 0 63 21.5t26 62.5v21z" />
    <glyph glyph-name="ccedilla" unicode="&#xe7;" horiz-adv-x="586" 
d="M376 137.5q27 22.5 33 61.5l142 -13q-14 -87 -76.5 -139.5t-152.5 -57.5l-9 -34q46 -3 79 -30.5t33 -73.5q0 -52 -41 -79.5t-99 -27.5q-61 0 -99 19l23 77q22 -14 55 -14q21 0 36.5 8.5t15.5 26.5q0 19 -15.5 28t-39.5 9q-19 0 -36 -5l32 100q-98 15 -157 85t-59 180
q0 83 34 144t94 93t137 32q96 0 163.5 -54t81.5 -146l-143 -12q-5 40 -32.5 63.5t-69.5 23.5q-52 0 -84.5 -38t-32.5 -106q0 -67 32.5 -105t84.5 -38q43 0 70 22.5z" />
    <glyph glyph-name="egrave" unicode="&#xe8;" horiz-adv-x="592" 
d="M551 212h-355q2 -49 30.5 -77t77.5 -28q38 0 62.5 15t32.5 42l147 -7q-9 -48 -42.5 -86.5t-84.5 -60t-111 -21.5q-79 0 -139.5 33t-94 93.5t-33.5 142.5t33.5 143t93 93.5t136.5 32.5q74 0 130 -31t86.5 -89t30.5 -137v-58zM227.5 385.5q-28.5 -27.5 -31.5 -76.5h208
q-2 49 -27.5 76.5t-73.5 27.5q-47 0 -75.5 -27.5zM104 789h166l83 -191h-113z" />
    <glyph glyph-name="eacute" unicode="&#xe9;" horiz-adv-x="592" 
d="M551 212h-355q2 -49 30.5 -77t77.5 -28q38 0 62.5 15t32.5 42l147 -7q-9 -48 -42.5 -86.5t-84.5 -60t-111 -21.5q-79 0 -139.5 33t-94 93.5t-33.5 142.5t33.5 143t93 93.5t136.5 32.5q74 0 130 -31t86.5 -89t30.5 -137v-58zM227.5 385.5q-28.5 -27.5 -31.5 -76.5h208
q-2 49 -27.5 76.5t-73.5 27.5q-47 0 -75.5 -27.5zM327 789h164l-135 -191h-114z" />
    <glyph glyph-name="ecircumflex" unicode="&#xea;" horiz-adv-x="592" 
d="M551 212h-355q2 -49 30.5 -77t77.5 -28q38 0 62.5 15t32.5 42l147 -7q-9 -48 -42.5 -86.5t-84.5 -60t-111 -21.5q-79 0 -139.5 33t-94 93.5t-33.5 142.5t33.5 143t93 93.5t136.5 32.5q74 0 130 -31t86.5 -89t30.5 -137v-58zM227.5 385.5q-28.5 -27.5 -31.5 -76.5h208
q-2 49 -27.5 76.5t-73.5 27.5q-47 0 -75.5 -27.5zM230 776h141l117 -177h-122l-65 82l-65 -82h-122z" />
    <glyph glyph-name="edieresis" unicode="&#xeb;" horiz-adv-x="592" 
d="M551 212h-355q2 -49 30.5 -77t77.5 -28q38 0 62.5 15t32.5 42l147 -7q-9 -48 -42.5 -86.5t-84.5 -60t-111 -21.5q-79 0 -139.5 33t-94 93.5t-33.5 142.5t33.5 143t93 93.5t136.5 32.5q74 0 130 -31t86.5 -89t30.5 -137v-58zM227.5 385.5q-28.5 -27.5 -31.5 -76.5h208
q-2 49 -27.5 76.5t-73.5 27.5q-47 0 -75.5 -27.5zM250.5 744.5q23.5 -23.5 23.5 -58.5q0 -34 -23.5 -57.5t-58.5 -23.5t-58.5 23.5t-23.5 57.5q0 35 24 58.5t58 23.5q35 0 58.5 -23.5zM465.5 744.5q23.5 -23.5 23.5 -58.5q0 -34 -23.5 -57.5t-58.5 -23.5t-58.5 23.5
t-23.5 57.5q0 35 24 58.5t58 23.5q35 0 58.5 -23.5z" />
    <glyph glyph-name="igrave" unicode="&#xec;" 
d="M69 517h146v-517h-146v517zM-51 789h166l83 -191h-113z" />
    <glyph glyph-name="iacute" unicode="&#xed;" 
d="M69 517h146v-517h-146v517zM171 789h164l-135 -191h-114z" />
    <glyph glyph-name="icircumflex" unicode="&#xee;" 
d="M69 517h146v-517h-146v517zM75 776h141l117 -177h-122l-65 82l-65 -82h-122z" />
    <glyph glyph-name="idieresis" unicode="&#xef;" 
d="M103 742q23 -23 23 -56t-23 -55.5t-56 -22.5t-56 22.5t-23 55.5t23 56t56 23t56 -23zM298 742q23 -23 23 -56t-23 -55.5t-57 -22.5q-33 0 -56 22.5t-23 55.5t23.5 56t55.5 23q34 0 57 -23zM69 517h146v-517h-146v517z" />
    <glyph glyph-name="eth" unicode="&#xf0;" horiz-adv-x="621" 
d="M427 681q75 -62 113.5 -156.5t38.5 -209.5q0 -164 -73 -245t-200 -81q-72 0 -132.5 31t-96.5 89.5t-36 138.5q0 77 36 134.5t96 88.5t132 31q54 0 102 -20q-25 71 -71 114l-73 -68l-66 64l57 53q-53 19 -122 22v110q121 0 215 -44l79 74l68 -63zM402 148.5
q34 38.5 34 98.5q0 63 -33.5 100t-91.5 37q-56 0 -91.5 -37.5t-35.5 -99.5q0 -63 35.5 -100t91.5 -37q57 0 91 38.5z" />
    <glyph glyph-name="ntilde" unicode="&#xf1;" horiz-adv-x="612" 
d="M492.5 471q55.5 -56 55.5 -155v-316h-146v288q0 49 -24.5 76t-66.5 27q-43 0 -69.5 -28.5t-26.5 -75.5v-287h-146v517h138v-53q18 29 53.5 46t85.5 17q91 0 146.5 -56zM283 753q18 -8 39 -23q18 -12 29 -17.5t24 -5.5q40 0 42 47h82q1 -6 1 -17q0 -58 -30 -98.5
t-79 -40.5q-23 0 -41 8t-39 23q-3 2 -14 8.5t-20 10t-18 3.5q-42 0 -42 -46h-82q-1 6 -1 18q0 58 29.5 98t78.5 40q23 0 41 -8z" />
    <glyph glyph-name="ograve" unicode="&#xf2;" horiz-adv-x="632" 
d="M457.5 493.5q62.5 -33.5 98 -94.5t35.5 -141t-35.5 -141t-98 -94.5t-141.5 -33.5t-141.5 33.5t-98 94.5t-35.5 141t35.5 141t98 94.5t141.5 33.5t141.5 -33.5zM224 363.5q-35 -38.5 -35 -105.5t35 -105t92 -38t92 38t35 105t-35 105.5t-92 38.5t-92 -38.5zM118 789h166
l83 -191h-113z" />
    <glyph glyph-name="oacute" unicode="&#xf3;" horiz-adv-x="632" 
d="M457.5 493.5q62.5 -33.5 98 -94.5t35.5 -141t-35.5 -141t-98 -94.5t-141.5 -33.5t-141.5 33.5t-98 94.5t-35.5 141t35.5 141t98 94.5t141.5 33.5t141.5 -33.5zM224 363.5q-35 -38.5 -35 -105.5t35 -105t92 -38t92 38t35 105t-35 105.5t-92 38.5t-92 -38.5zM341 789h164
l-135 -191h-114z" />
    <glyph glyph-name="ocircumflex" unicode="&#xf4;" horiz-adv-x="632" 
d="M457.5 493.5q62.5 -33.5 98 -94.5t35.5 -141t-35.5 -141t-98 -94.5t-141.5 -33.5t-141.5 33.5t-98 94.5t-35.5 141t35.5 141t98 94.5t141.5 33.5t141.5 -33.5zM224 363.5q-35 -38.5 -35 -105.5t35 -105t92 -38t92 38t35 105t-35 105.5t-92 38.5t-92 -38.5zM244 776h141
l117 -177h-122l-65 82l-65 -82h-122z" />
    <glyph glyph-name="otilde" unicode="&#xf5;" horiz-adv-x="632" 
d="M457.5 493.5q62.5 -33.5 98 -94.5t35.5 -141t-35.5 -141t-98 -94.5t-141.5 -33.5t-141.5 33.5t-98 94.5t-35.5 141t35.5 141t98 94.5t141.5 33.5t141.5 -33.5zM224 363.5q-35 -38.5 -35 -105.5t35 -105t92 -38t92 38t35 105t-35 105.5t-92 38.5t-92 -38.5zM280 753
q18 -8 39 -23q18 -12 29 -17.5t24 -5.5q40 0 42 47h82q1 -6 1 -17q0 -58 -30 -98.5t-79 -40.5q-23 0 -41 8t-39 23q-3 2 -14 8.5t-20 10t-18 3.5q-42 0 -42 -46h-82q-1 6 -1 18q0 58 29.5 98t78.5 40q23 0 41 -8z" />
    <glyph glyph-name="odieresis" unicode="&#xf6;" horiz-adv-x="632" 
d="M457.5 493.5q62.5 -33.5 98 -94.5t35.5 -141t-35.5 -141t-98 -94.5t-141.5 -33.5t-141.5 33.5t-98 94.5t-35.5 141t35.5 141t98 94.5t141.5 33.5t141.5 -33.5zM224 363.5q-35 -38.5 -35 -105.5t35 -105t92 -38t92 38t35 105t-35 105.5t-92 38.5t-92 -38.5zM264.5 744.5
q23.5 -23.5 23.5 -58.5q0 -34 -23.5 -57.5t-58.5 -23.5t-58.5 23.5t-23.5 57.5q0 35 24 58.5t58 23.5q35 0 58.5 -23.5zM479.5 744.5q23.5 -23.5 23.5 -58.5q0 -34 -23.5 -57.5t-58.5 -23.5t-58.5 23.5t-23.5 57.5q0 35 24 58.5t58 23.5q35 0 58.5 -23.5z" />
    <glyph glyph-name="divide" unicode="&#xf7;" horiz-adv-x="542" 
d="M334 676q26 -26 26 -63t-26 -62t-63 -25t-62.5 25t-25.5 62t25.5 63t62.5 26t63 -26zM28 440h486v-137h-486v137zM334 192.5q26 -25.5 26 -62.5t-26 -63t-63 -26t-62.5 26t-25.5 63t25.5 62.5t62.5 25.5t63 -25.5z" />
    <glyph glyph-name="oslash" unicode="&#xf8;" horiz-adv-x="632" 
d="M521 445q34 -35 52 -82.5t18 -104.5q0 -80 -35.5 -141t-98 -94.5t-141.5 -33.5q-67 0 -121 24l-44 -59l-80 59l42 56q-72 75 -72 189q0 80 35.5 141t98 94.5t141.5 33.5q66 0 124 -25l37 50l80 -60zM202 187l157 208q-18 7 -43 7q-57 0 -92 -38.5t-35 -105.5
q0 -38 13 -71zM408 153q35 38 35 105q0 39 -12 67l-154 -205q20 -5 39 -5q57 0 92 38z" />
    <glyph glyph-name="ugrave" unicode="&#xf9;" horiz-adv-x="596" 
d="M527 517v-517h-138v52q-17 -27 -50 -45t-84 -18q-89 0 -140 54t-51 149v325h146v-294q0 -98 83 -98q41 0 64.5 27.5t23.5 72.5v292h146zM102 789h166l83 -191h-113z" />
    <glyph glyph-name="uacute" unicode="&#xfa;" horiz-adv-x="596" 
d="M527 517v-517h-138v52q-17 -27 -50 -45t-84 -18q-89 0 -140 54t-51 149v325h146v-294q0 -98 83 -98q41 0 64.5 27.5t23.5 72.5v292h146zM325 789h164l-135 -191h-114z" />
    <glyph glyph-name="ucircumflex" unicode="&#xfb;" horiz-adv-x="596" 
d="M527 517v-517h-138v52q-17 -27 -50 -45t-84 -18q-89 0 -140 54t-51 149v325h146v-294q0 -98 83 -98q41 0 64.5 27.5t23.5 72.5v292h146zM228 776h141l117 -177h-122l-65 82l-65 -82h-122z" />
    <glyph glyph-name="udieresis" unicode="&#xfc;" horiz-adv-x="596" 
d="M527 517v-517h-138v52q-17 -27 -50 -45t-84 -18q-89 0 -140 54t-51 149v325h146v-294q0 -98 83 -98q41 0 64.5 27.5t23.5 72.5v292h146zM248.5 744.5q23.5 -23.5 23.5 -58.5q0 -34 -23.5 -57.5t-58.5 -23.5t-58.5 23.5t-23.5 57.5q0 35 24 58.5t58 23.5q35 0 58.5 -23.5z
M463.5 744.5q23.5 -23.5 23.5 -58.5q0 -34 -23.5 -57.5t-58.5 -23.5t-58.5 23.5t-23.5 57.5q0 35 24 58.5t58 23.5q35 0 58.5 -23.5z" />
    <glyph glyph-name="yacute" unicode="&#xfd;" horiz-adv-x="567" 
d="M408 517h156l-331 -772h-159l132 301l-202 471h155l125 -315zM309 789h164l-135 -191h-114z" />
    <glyph glyph-name="thorn" unicode="&#xfe;" horiz-adv-x="651" 
d="M69 -255v1032h146v-305q21 24 59 39.5t86 15.5q73 0 130 -33.5t88.5 -94.5t31.5 -141t-31.5 -141t-88.5 -94.5t-130 -33.5q-47 0 -85 15.5t-60 39.5v-299h-146zM427.5 152q34.5 38 34.5 106t-34.5 106t-90.5 38q-55 0 -88.5 -35.5t-33.5 -96.5v-24q0 -61 33.5 -96.5
t88.5 -35.5q56 0 90.5 38z" />
    <glyph glyph-name="ydieresis" unicode="&#xff;" horiz-adv-x="567" 
d="M408 517h156l-331 -772h-159l132 301l-202 471h155l125 -315zM233.5 744.5q23.5 -23.5 23.5 -58.5q0 -34 -23.5 -57.5t-58.5 -23.5t-58.5 23.5t-23.5 57.5q0 35 24 58.5t58 23.5q35 0 58.5 -23.5zM448.5 744.5q23.5 -23.5 23.5 -58.5q0 -34 -23.5 -57.5t-58.5 -23.5
t-58.5 23.5t-23.5 57.5q0 35 24 58.5t58 23.5q35 0 58.5 -23.5z" />
    <glyph glyph-name="Amacron" unicode="&#x100;" horiz-adv-x="783" 
d="M326 748h130l322 -748h-169l-60 144h-315l-60 -144h-169zM495 270l-103 249l-103 -249h206zM222 932h340v-103h-340v103z" />
    <glyph glyph-name="amacron" unicode="&#x101;" horiz-adv-x="551" 
d="M431 474q55 -53 55 -155v-319h-141v42q-51 -53 -132 -53q-80 0 -126 39.5t-46 113.5q0 80 57 116.5t150 40.5l92 5v20q0 80 -67 80q-35 0 -53.5 -20t-18.5 -48l-146 6q0 46 27 89t76 69.5t113 26.5q105 0 160 -53zM262 203q-75 -3 -75 -54q0 -47 60 -47q41 0 67 22t26 62
v22zM122 727h320v-104h-320v104z" />
    <glyph glyph-name="Abreve" unicode="&#x102;" horiz-adv-x="783" 
d="M326 748h130l322 -748h-169l-60 144h-315l-60 -144h-169zM495 270l-103 249l-103 -249h206zM577 974q0 -82 -50.5 -125t-135.5 -43q-84 0 -134.5 43t-50.5 125h112q0 -31 19.5 -48.5t53.5 -17.5t54 17.5t20 48.5h112z" />
    <glyph glyph-name="abreve" unicode="&#x103;" horiz-adv-x="551" 
d="M431 474q55 -53 55 -155v-319h-141v42q-51 -53 -132 -53q-80 0 -126 39.5t-46 113.5q0 80 57 116.5t150 40.5l92 5v20q0 80 -67 80q-35 0 -53.5 -20t-18.5 -48l-146 6q0 46 27 89t76 69.5t113 26.5q105 0 160 -53zM262 203q-75 -3 -75 -54q0 -47 60 -47q41 0 67 22t26 62
v22zM468 763q0 -84 -50.5 -127t-135.5 -43q-84 0 -134.5 43.5t-50.5 126.5h112q0 -32 19.5 -50t53.5 -18t54 18t20 50h112z" />
    <glyph glyph-name="Aogonek" unicode="&#x104;" horiz-adv-x="783" 
d="M725 -169l13 -71q-41 -18 -89 -18q-63 0 -101.5 28.5t-38.5 84.5q0 94 100 146l-60 143h-315l-60 -144h-169l321 748h130l322 -748h-64q-51 -32 -74 -61t-23 -69q0 -24 14 -37t40 -13q30 0 54 11zM392 519l-103 -249h206z" />
    <glyph glyph-name="aogonek" unicode="&#x105;" horiz-adv-x="551" 
d="M456 0q-50 -31 -73 -60.5t-23 -68.5q0 -24 14 -37t40 -13q30 0 54 11l13 -71q-41 -18 -89 -18q-63 0 -101.5 28.5t-38.5 84.5q0 92 95 144h-2v42q-51 -53 -132 -53q-80 0 -126 39.5t-46 113.5q0 80 57 116.5t150 40.5l92 5v20q0 80 -67 80q-35 0 -53.5 -20t-18.5 -48
l-146 6q0 46 27 89t76 69.5t113 26.5q105 0 160 -53t55 -155v-319h-30zM340 208l-78 -5q-75 -3 -75 -54q0 -47 60 -47q41 0 67 22t26 62v22z" />
    <glyph glyph-name="Cacute" unicode="&#x106;" horiz-adv-x="816" 
d="M226.5 35.5q-86.5 46.5 -135.5 134t-49 204.5t49 204.5t135.5 134t195.5 46.5q89 0 164.5 -34.5t125 -99.5t62.5 -153l-158 -13q-17 79 -70 121t-129 42q-64 0 -113.5 -30.5t-77 -86.5t-27.5 -131q0 -78 28.5 -134t78 -85t111.5 -29q77 0 129 41t70 118l157 -12
q-16 -88 -65 -152t-123 -98t-163 -34q-109 0 -195.5 46.5zM473 959h204l-195 -154h-137z" />
    <glyph glyph-name="cacute" unicode="&#x107;" horiz-adv-x="586" 
d="M469.5 473q67.5 -54 81.5 -146l-143 -12q-5 40 -32.5 63.5t-69.5 23.5q-52 0 -84.5 -38t-32.5 -106q0 -67 32.5 -105t84.5 -38q43 0 70 22.5t33 61.5l142 -13q-15 -91 -82 -144t-163 -53q-76 0 -136.5 32.5t-94.5 93t-34 143.5t34 144t94 93t137 32q96 0 163.5 -54z
M325 789h164l-135 -191h-114z" />
    <glyph glyph-name="Ccircumflex" unicode="&#x108;" horiz-adv-x="816" 
d="M226.5 35.5q-86.5 46.5 -135.5 134t-49 204.5t49 204.5t135.5 134t195.5 46.5q89 0 164.5 -34.5t125 -99.5t62.5 -153l-158 -13q-17 79 -70 121t-129 42q-64 0 -113.5 -30.5t-77 -86.5t-27.5 -131q0 -78 28.5 -134t78 -85t111.5 -29q77 0 129 41t70 118l157 -12
q-16 -88 -65 -152t-123 -98t-163 -34q-109 0 -195.5 46.5zM344 965h141l116 -160h-123l-64 75l-65 -75h-122z" />
    <glyph glyph-name="ccircumflex" unicode="&#x109;" horiz-adv-x="586" 
d="M469.5 473q67.5 -54 81.5 -146l-143 -12q-5 40 -32.5 63.5t-69.5 23.5q-52 0 -84.5 -38t-32.5 -106q0 -67 32.5 -105t84.5 -38q43 0 70 22.5t33 61.5l142 -13q-15 -91 -82 -144t-163 -53q-76 0 -136.5 32.5t-94.5 93t-34 143.5t34 144t94 93t137 32q96 0 163.5 -54z
M229 776h141l117 -177h-122l-65 82l-65 -82h-122z" />
    <glyph glyph-name="Cdotaccent" unicode="&#x10a;" horiz-adv-x="816" 
d="M226.5 35.5q-86.5 46.5 -135.5 134t-49 204.5t49 204.5t135.5 134t195.5 46.5q89 0 164.5 -34.5t125 -99.5t62.5 -153l-158 -13q-17 79 -70 121t-129 42q-64 0 -113.5 -30.5t-77 -86.5t-27.5 -131q0 -78 28.5 -134t78 -85t111.5 -29q77 0 129 41t70 118l157 -12
q-16 -88 -65 -152t-123 -98t-163 -34q-109 0 -195.5 46.5zM476.5 957.5q25.5 -25.5 25.5 -62.5t-25.5 -62t-62.5 -25q-36 0 -61.5 25t-25.5 62t26 62.5t61 25.5q37 0 62.5 -25.5z" />
    <glyph glyph-name="cdotaccent" unicode="&#x10b;" horiz-adv-x="586" 
d="M469.5 473q67.5 -54 81.5 -146l-143 -12q-5 40 -32.5 63.5t-69.5 23.5q-52 0 -84.5 -38t-32.5 -106q0 -67 32.5 -105t84.5 -38q43 0 70 22.5t33 61.5l142 -13q-15 -91 -82 -144t-163 -53q-76 0 -136.5 32.5t-94.5 93t-34 143.5t34 144t94 93t137 32q96 0 163.5 -54z
M361.5 744q25.5 -26 25.5 -62q0 -37 -25.5 -62.5t-62.5 -25.5q-36 0 -61.5 25.5t-25.5 62.5q0 36 26 62t61 26q37 0 62.5 -26z" />
    <glyph glyph-name="Ccaron" unicode="&#x10c;" horiz-adv-x="816" 
d="M226.5 35.5q-86.5 46.5 -135.5 134t-49 204.5t49 204.5t135.5 134t195.5 46.5q89 0 164.5 -34.5t125 -99.5t62.5 -153l-158 -13q-17 79 -70 121t-129 42q-64 0 -113.5 -30.5t-77 -86.5t-27.5 -131q0 -78 28.5 -134t78 -85t111.5 -29q77 0 129 41t70 118l157 -12
q-16 -88 -65 -152t-123 -98t-163 -34q-109 0 -195.5 46.5zM478 965h123l-116 -160h-141l-117 160h122l65 -75z" />
    <glyph glyph-name="ccaron" unicode="&#x10d;" horiz-adv-x="586" 
d="M469.5 473q67.5 -54 81.5 -146l-143 -12q-5 40 -32.5 63.5t-69.5 23.5q-52 0 -84.5 -38t-32.5 -106q0 -67 32.5 -105t84.5 -38q43 0 70 22.5t33 61.5l142 -13q-15 -91 -82 -144t-163 -53q-76 0 -136.5 32.5t-94.5 93t-34 143.5t34 144t94 93t137 32q96 0 163.5 -54z
M365 773h122l-117 -176h-141l-116 176h122l65 -82z" />
    <glyph glyph-name="Dcaron" unicode="&#x10e;" horiz-adv-x="794" 
d="M380 748q107 0 191 -45t132 -129.5t48 -199.5t-48 -199.5t-132.5 -129.5t-191.5 -45h-307v748h308zM226 616v-484h155q100 0 158.5 62t58.5 180t-58 180t-159 62h-155zM409 965h123l-116 -160h-141l-117 160h122l65 -75z" />
    <glyph glyph-name="dcaron" unicode="&#x10f;" horiz-adv-x="671" 
d="M760 756.5q18 -21.5 18 -55.5q0 -121 -126 -183v49q43 27 55 71q-29 2 -48 22t-19 48q0 30 20 50t50 20q32 0 50 -21.5zM436 777h145v-777h-137v53q-22 -28 -62 -46t-92 -18q-72 0 -129 33.5t-88.5 94.5t-31.5 141t31.5 141t88 94.5t129.5 33.5q48 0 86.5 -15.5
t59.5 -39.5v305zM436 270q0 61 -33.5 96.5t-88.5 35.5q-56 0 -90.5 -38t-34.5 -106t34.5 -105.5t90.5 -37.5q55 0 88.5 35t33.5 97v23z" />
    <glyph glyph-name="Dcroat" unicode="&#x110;" horiz-adv-x="821" 
d="M407 748q107 0 191.5 -45t132.5 -129.5t48 -199.5t-48 -199.5t-133 -129.5t-192 -45h-306v315h-85v117h85v316h307zM408 132q101 0 159 62t58 180t-58 180t-159 62h-154v-184h109v-117h-109v-183h154z" />
    <glyph glyph-name="dcroat" unicode="&#x111;" horiz-adv-x="651" 
d="M656 699v-103h-75v-596h-137v53q-22 -28 -62 -46t-92 -18q-72 0 -129 33.5t-88.5 94.5t-31.5 141t31.5 141t88 94.5t129.5 33.5q48 0 86.5 -15.5t59.5 -39.5v124h-130v103h130v78h145v-78h75zM436 270q0 61 -33.5 96.5t-88.5 35.5q-56 0 -90.5 -38t-34.5 -106
t34.5 -105.5t90.5 -37.5q55 0 88.5 35t33.5 97v23z" />
    <glyph glyph-name="Emacron" unicode="&#x112;" horiz-adv-x="598" 
d="M72 748h480v-136h-325v-162h282v-133h-282v-180h326v-137h-481v748zM146 932h340v-103h-340v103z" />
    <glyph glyph-name="emacron" unicode="&#x113;" horiz-adv-x="592" 
d="M551 212h-355q2 -49 30.5 -77t77.5 -28q38 0 62.5 15t32.5 42l147 -7q-9 -48 -42.5 -86.5t-84.5 -60t-111 -21.5q-79 0 -139.5 33t-94 93.5t-33.5 142.5t33.5 143t93 93.5t136.5 32.5q74 0 130 -31t86.5 -89t30.5 -137v-58zM227.5 385.5q-28.5 -27.5 -31.5 -76.5h208
q-2 49 -27.5 76.5t-73.5 27.5q-47 0 -75.5 -27.5zM141 727h320v-104h-320v104z" />
    <glyph glyph-name="Ebreve" unicode="&#x114;" horiz-adv-x="598" 
d="M72 748h480v-136h-325v-162h282v-133h-282v-180h326v-137h-481v748zM502 974q0 -82 -50.5 -125t-135.5 -43q-84 0 -134.5 43t-50.5 125h112q0 -31 19.5 -48.5t53.5 -17.5t54 17.5t20 48.5h112z" />
    <glyph glyph-name="ebreve" unicode="&#x115;" horiz-adv-x="592" 
d="M551 212h-355q2 -49 30.5 -77t77.5 -28q38 0 62.5 15t32.5 42l147 -7q-9 -48 -42.5 -86.5t-84.5 -60t-111 -21.5q-79 0 -139.5 33t-94 93.5t-33.5 142.5t33.5 143t93 93.5t136.5 32.5q74 0 130 -31t86.5 -89t30.5 -137v-58zM227.5 385.5q-28.5 -27.5 -31.5 -76.5h208
q-2 49 -27.5 76.5t-73.5 27.5q-47 0 -75.5 -27.5zM486 763q0 -84 -50.5 -127t-135.5 -43q-84 0 -134.5 43.5t-50.5 126.5h112q0 -32 19.5 -50t53.5 -18t54 18t20 50h112z" />
    <glyph glyph-name="Edotaccent" unicode="&#x116;" horiz-adv-x="598" 
d="M72 748h480v-136h-325v-162h282v-133h-282v-180h326v-137h-481v748zM378.5 957.5q25.5 -25.5 25.5 -62.5t-25.5 -62t-62.5 -25q-36 0 -61.5 25t-25.5 62t26 62.5t61 25.5q37 0 62.5 -25.5z" />
    <glyph glyph-name="edotaccent" unicode="&#x117;" horiz-adv-x="592" 
d="M551 212h-355q2 -49 30.5 -77t77.5 -28q38 0 62.5 15t32.5 42l147 -7q-9 -48 -42.5 -86.5t-84.5 -60t-111 -21.5q-79 0 -139.5 33t-94 93.5t-33.5 142.5t33.5 143t93 93.5t136.5 32.5q74 0 130 -31t86.5 -89t30.5 -137v-58zM227.5 385.5q-28.5 -27.5 -31.5 -76.5h208
q-2 49 -27.5 76.5t-73.5 27.5q-47 0 -75.5 -27.5zM363.5 744q25.5 -26 25.5 -62q0 -37 -25.5 -62.5t-62.5 -25.5q-36 0 -61.5 25.5t-25.5 62.5q0 36 26 62t61 26q37 0 62.5 -26z" />
    <glyph glyph-name="Eogonek" unicode="&#x118;" horiz-adv-x="598" 
d="M572 -240q-41 -18 -89 -18q-63 0 -101.5 28.5t-38.5 84.5q0 92 97 145h-368v748h480v-136h-325v-162h282v-133h-282v-180h326v-137h-5q-51 -32 -74 -61t-23 -69q0 -24 14 -37t40 -13q30 0 54 11z" />
    <glyph glyph-name="eogonek" unicode="&#x119;" horiz-adv-x="592" 
d="M551 212h-355q2 -49 30.5 -77t77.5 -28q38 0 62.5 15t32.5 42l147 -7q-7 -39 -30 -71t-59 -55q-43 -27 -63 -62t-20 -79q0 -30 14 -48.5t40 -18.5q29 0 53 11l14 -71q-21 -9 -41.5 -13.5t-48.5 -4.5q-62 0 -101 31.5t-39 90.5q0 73 63 123q-7 -1 -20 -1q-79 0 -139.5 33
t-94 93.5t-33.5 142.5t33.5 143t93 93.5t136.5 32.5q74 0 130 -31t86.5 -89t30.5 -137v-58zM227.5 385.5q-28.5 -27.5 -31.5 -76.5h208q-2 49 -27.5 76.5t-73.5 27.5q-47 0 -75.5 -27.5z" />
    <glyph glyph-name="Ecaron" unicode="&#x11a;" horiz-adv-x="598" 
d="M72 748h480v-136h-325v-162h282v-133h-282v-180h326v-137h-481v748zM380 965h123l-116 -160h-141l-117 160h122l65 -75z" />
    <glyph glyph-name="ecaron" unicode="&#x11b;" horiz-adv-x="592" 
d="M551 212h-355q2 -49 30.5 -77t77.5 -28q38 0 62.5 15t32.5 42l147 -7q-9 -48 -42.5 -86.5t-84.5 -60t-111 -21.5q-79 0 -139.5 33t-94 93.5t-33.5 142.5t33.5 143t93 93.5t136.5 32.5q74 0 130 -31t86.5 -89t30.5 -137v-58zM227.5 385.5q-28.5 -27.5 -31.5 -76.5h208
q-2 49 -27.5 76.5t-73.5 27.5q-47 0 -75.5 -27.5zM366 773h122l-117 -176h-141l-116 176h122l65 -82z" />
    <glyph glyph-name="Gcircumflex" unicode="&#x11c;" horiz-adv-x="821" 
d="M421 408h358v-50q0 -110 -43.5 -193.5t-124 -129.5t-189.5 -46t-195.5 46.5t-135.5 133.5t-49 205t49 205.5t135 133.5t196 46q132 0 225.5 -68t123.5 -189l-160 -27q-16 69 -65.5 108t-125.5 39q-103 0 -162 -63t-59 -185q0 -121 59.5 -184.5t161.5 -63.5q72 0 122.5 36
t67.5 110h-189v136zM346 965h141l116 -160h-123l-64 75l-65 -75h-122z" />
    <glyph glyph-name="gcircumflex" unicode="&#x11d;" horiz-adv-x="642" 
d="M136 -211.5q-67 53.5 -82 145.5l145 5q5 -38 36 -59t80 -21q56 0 88.5 28.5t32.5 82.5v74q-23 -24 -60.5 -39.5t-85.5 -15.5q-72 0 -129 33.5t-88.5 94.5t-31.5 141t31.5 141t88.5 94.5t129 33.5q52 0 92.5 -17.5t61.5 -46.5v54h137v-536q0 -74 -32 -129.5t-91 -86
t-138 -30.5q-117 0 -184 53.5zM402.5 149.5q33.5 35.5 33.5 96.5v24q0 61 -33.5 96.5t-88.5 35.5q-56 0 -90.5 -38t-34.5 -106t34.5 -106t90.5 -38q55 0 88.5 35.5zM244 776h141l117 -177h-122l-65 82l-65 -82h-122z" />
    <glyph glyph-name="Gbreve" unicode="&#x11e;" horiz-adv-x="821" 
d="M421 408h358v-50q0 -110 -43.5 -193.5t-124 -129.5t-189.5 -46t-195.5 46.5t-135.5 133.5t-49 205t49 205.5t135 133.5t196 46q132 0 225.5 -68t123.5 -189l-160 -27q-16 69 -65.5 108t-125.5 39q-103 0 -162 -63t-59 -185q0 -121 59.5 -184.5t161.5 -63.5q72 0 122.5 36
t67.5 110h-189v136zM601 974q0 -82 -50.5 -125t-135.5 -43q-84 0 -134.5 43t-50.5 125h112q0 -31 19.5 -48.5t53.5 -17.5t54 17.5t20 48.5h112z" />
    <glyph glyph-name="gbreve" unicode="&#x11f;" horiz-adv-x="642" 
d="M136 -211.5q-67 53.5 -82 145.5l145 5q5 -38 36 -59t80 -21q56 0 88.5 28.5t32.5 82.5v74q-23 -24 -60.5 -39.5t-85.5 -15.5q-72 0 -129 33.5t-88.5 94.5t-31.5 141t31.5 141t88.5 94.5t129 33.5q52 0 92.5 -17.5t61.5 -46.5v54h137v-536q0 -74 -32 -129.5t-91 -86
t-138 -30.5q-117 0 -184 53.5zM402.5 149.5q33.5 35.5 33.5 96.5v24q0 61 -33.5 96.5t-88.5 35.5q-56 0 -90.5 -38t-34.5 -106t34.5 -106t90.5 -38q55 0 88.5 35.5zM500 763q0 -84 -50.5 -127t-135.5 -43q-84 0 -134.5 43.5t-50.5 126.5h112q0 -32 19.5 -50t53.5 -18t54 18
t20 50h112z" />
    <glyph glyph-name="Gdotaccent" unicode="&#x120;" horiz-adv-x="821" 
d="M421 408h358v-50q0 -110 -43.5 -193.5t-124 -129.5t-189.5 -46t-195.5 46.5t-135.5 133.5t-49 205t49 205.5t135 133.5t196 46q132 0 225.5 -68t123.5 -189l-160 -27q-16 69 -65.5 108t-125.5 39q-103 0 -162 -63t-59 -185q0 -121 59.5 -184.5t161.5 -63.5q72 0 122.5 36
t67.5 110h-189v136zM477.5 957.5q25.5 -25.5 25.5 -62.5t-25.5 -62t-62.5 -25q-36 0 -61.5 25t-25.5 62t26 62.5t61 25.5q37 0 62.5 -25.5z" />
    <glyph glyph-name="gdotaccent" unicode="&#x121;" horiz-adv-x="642" 
d="M136 -211.5q-67 53.5 -82 145.5l145 5q5 -38 36 -59t80 -21q56 0 88.5 28.5t32.5 82.5v74q-23 -24 -60.5 -39.5t-85.5 -15.5q-72 0 -129 33.5t-88.5 94.5t-31.5 141t31.5 141t88.5 94.5t129 33.5q52 0 92.5 -17.5t61.5 -46.5v54h137v-536q0 -74 -32 -129.5t-91 -86
t-138 -30.5q-117 0 -184 53.5zM402.5 149.5q33.5 35.5 33.5 96.5v24q0 61 -33.5 96.5t-88.5 35.5q-56 0 -90.5 -38t-34.5 -106t34.5 -106t90.5 -38q55 0 88.5 35.5zM377.5 744q25.5 -26 25.5 -62q0 -37 -25.5 -62.5t-62.5 -25.5q-36 0 -61.5 25.5t-25.5 62.5q0 36 26 62
t61 26q37 0 62.5 -26z" />
    <glyph glyph-name="uni0122" unicode="&#x122;" horiz-adv-x="821" 
d="M421 408h358v-50q0 -110 -43.5 -193.5t-124 -129.5t-189.5 -46t-195.5 46.5t-135.5 133.5t-49 205t49 205.5t135 133.5t196 46q132 0 225.5 -68t123.5 -189l-160 -27q-16 69 -65.5 108t-125.5 39q-103 0 -162 -63t-59 -185q0 -121 59.5 -184.5t161.5 -63.5q72 0 122.5 36
t67.5 110h-189v136zM486 -69.5q22 -22.5 22 -59.5q0 -128 -152 -194v52q53 29 66 76q-34 2 -57.5 23t-23.5 50q0 32 24 53.5t61 21.5q38 0 60 -22.5z" />
    <glyph glyph-name="uni0123" unicode="&#x123;" horiz-adv-x="642" 
d="M247.5 594.5q-21.5 22.5 -21.5 59.5q0 128 152 194v-52q-53 -29 -66 -76q34 -2 57.5 -23t23.5 -50q0 -32 -24 -53.5t-61 -21.5q-39 0 -60.5 22.5zM444 517h137v-536q0 -74 -32 -129.5t-91 -86t-138 -30.5q-117 0 -184 53.5t-82 145.5l145 5q5 -38 36 -59t80 -21
q56 0 88.5 28.5t32.5 82.5v74q-23 -24 -60.5 -39.5t-85.5 -15.5q-72 0 -129 33.5t-88.5 94.5t-31.5 141t31.5 141t88.5 94.5t129 33.5q52 0 92.5 -17.5t61.5 -46.5v54zM436 270q0 61 -33.5 96.5t-88.5 35.5q-56 0 -90.5 -38t-34.5 -106t34.5 -106t90.5 -38q55 0 88.5 35.5
t33.5 96.5v24z" />
    <glyph glyph-name="Hcircumflex" unicode="&#x124;" horiz-adv-x="756" 
d="M530 748h154v-748h-154v315h-303v-315h-155v748h155v-296h303v296zM309 965h141l116 -160h-123l-64 75l-65 -75h-122z" />
    <glyph glyph-name="hcircumflex" unicode="&#x125;" horiz-adv-x="610" 
d="M215 473q19 24 51.5 39t79.5 15q91 0 146.5 -56t55.5 -155v-316h-146v288q0 49 -24.5 76t-66.5 27q-43 0 -69.5 -28.5t-26.5 -75.5v-287h-146v777h146v-304zM74 971h141l116 -160h-123l-64 75l-65 -75h-122z" />
    <glyph glyph-name="Hbar" unicode="&#x126;" horiz-adv-x="773" 
d="M692 656h75v-117h-75v-539h-154v315h-303v-315h-154v539h-75v117h75v92h154v-92h303v92h154v-92zM235 452h303v87h-303v-87z" />
    <glyph glyph-name="hbar" unicode="&#x127;" horiz-adv-x="610" 
d="M492.5 471q55.5 -56 55.5 -155v-316h-146v288q0 49 -24.5 76t-66.5 27q-43 0 -69.5 -28.5t-26.5 -75.5v-287h-146v596h-74v103h74v78h146v-78h130v-103h-130v-123q19 24 51.5 39t79.5 15q91 0 146.5 -56z" />
    <glyph glyph-name="Itilde" unicode="&#x128;" horiz-adv-x="299" 
d="M72 748h155v-748h-155v748zM119.5 961.5q17.5 -7.5 39.5 -22.5q18 -12 29 -17.5t24 -5.5q40 0 42 46h82q1 -6 1 -17q0 -58 -30 -98t-79 -40q-23 0 -41 8t-39 23q-3 2 -14 8.5t-20 10t-18 3.5q-42 0 -42 -46h-82q-1 6 -1 18q0 58 29.5 97.5t78.5 39.5q23 0 40.5 -7.5z" />
    <glyph glyph-name="itilde" unicode="&#x129;" 
d="M69 517h146v-517h-146v517zM111 753q18 -8 39 -23q18 -12 29 -17.5t24 -5.5q40 0 42 47h82q1 -6 1 -17q0 -58 -30 -98.5t-79 -40.5q-23 0 -41 8t-39 23q-3 2 -14 8.5t-20 10t-18 3.5q-42 0 -42 -46h-82q-1 6 -1 18q0 58 29.5 98t78.5 40q23 0 41 -8z" />
    <glyph glyph-name="Imacron" unicode="&#x12a;" horiz-adv-x="299" 
d="M72 748h155v-748h-155v748zM-16 932h340v-103h-340v103z" />
    <glyph glyph-name="imacron" unicode="&#x12b;" 
d="M69 517h146v-517h-146v517zM-15 727h320v-104h-320v104z" />
    <glyph glyph-name="Ibreve" unicode="&#x12c;" horiz-adv-x="299" 
d="M72 748h155v-748h-155v748zM339 974q0 -82 -50.5 -125t-135.5 -43q-84 0 -134.5 43t-50.5 125h112q0 -31 19.5 -48.5t53.5 -17.5t54 17.5t20 48.5h112z" />
    <glyph glyph-name="ibreve" unicode="&#x12d;" 
d="M69 517h146v-517h-146v517zM331 763q0 -84 -50.5 -127t-135.5 -43q-84 0 -134.5 43.5t-50.5 126.5h112q0 -32 19.5 -50t53.5 -18t54 18t20 50h112z" />
    <glyph glyph-name="Iogonek" unicode="&#x12e;" horiz-adv-x="299" 
d="M165 0q-50 -31 -73 -60.5t-23 -68.5q0 -24 14 -37t40 -13q30 0 54 11l13 -71q-41 -18 -89 -18q-63 0 -101.5 28.5t-38.5 84.5q0 100 111 152v740h155v-748h-62z" />
    <glyph glyph-name="iogonek" unicode="&#x12f;" 
d="M83.5 619.5q-25.5 25.5 -25.5 62.5q0 36 26 62t61 26q37 0 62.5 -26t25.5 -62q0 -37 -25.5 -62.5t-62.5 -25.5q-36 0 -61.5 25.5zM204 -168l13 -71q-41 -18 -89 -18q-63 0 -101.5 28.5t-38.5 84.5q0 92 95 144h-14v517h146v-517h-23q-50 -31 -73 -60.5t-23 -68.5
q0 -24 14 -37t40 -13q30 0 54 11z" />
    <glyph glyph-name="Idotaccent" unicode="&#x130;" horiz-adv-x="299" 
d="M72 748h155v-748h-155v748zM216.5 957.5q25.5 -25.5 25.5 -62.5t-25.5 -62t-62.5 -25q-36 0 -61.5 25t-25.5 62t26 62.5t61 25.5q37 0 62.5 -25.5z" />
    <glyph glyph-name="dotlessi" unicode="&#x131;" 
d="M69 517h146v-517h-146v517z" />
    <glyph glyph-name="IJ" unicode="&#x132;" horiz-adv-x="896" 
d="M72 748h155v-748h-155v748zM830 267q0 -131 -70 -204.5t-193 -73.5q-116 0 -186 66.5t-77 185.5l155 25q4 -67 32 -103.5t77 -36.5q53 0 80.5 34.5t27.5 101.5v486h154v-481z" />
    <glyph glyph-name="ij" unicode="&#x133;" horiz-adv-x="564" 
d="M204.5 748.5q25.5 -25.5 25.5 -62.5q0 -36 -25.5 -61.5t-62.5 -25.5t-62 25.5t-25 61.5q0 37 26 62.5t61 25.5q37 0 62.5 -25.5zM69 517h146v-517h-146v517zM484.5 748.5q25.5 -25.5 25.5 -62.5q0 -36 -25.5 -61.5t-62.5 -25.5t-62 25.5t-25 61.5q0 37 25 62.5t62 25.5
t62.5 -25.5zM496 -50q0 -97 -58.5 -154.5t-155.5 -57.5q-29 0 -51 3v127q14 -3 34 -3q38 0 61.5 22.5t23.5 59.5v570h146v-567z" />
    <glyph glyph-name="Jcircumflex" unicode="&#x134;" horiz-adv-x="608" 
d="M541 267q0 -131 -70 -204.5t-193 -73.5q-116 0 -186 66.5t-77 185.5l155 25q4 -67 32 -103.5t77 -36.5q53 0 80.5 34.5t27.5 101.5v486h154v-481zM402 965h141l116 -160h-123l-64 75l-65 -75h-122z" />
    <glyph glyph-name="jcircumflex" unicode="&#x135;" horiz-adv-x="290" 
d="M221 -50q0 -97 -58.5 -154.5t-155.5 -57.5q-29 0 -51 3v127q14 -3 34 -3q38 0 61.5 22.5t23.5 59.5v570h146v-567zM77 776h141l117 -177h-122l-65 82l-65 -82h-122z" />
    <glyph glyph-name="uni0136" unicode="&#x136;" horiz-adv-x="715" 
d="M481 748h198l-257 -307l287 -441h-184l-206 318l-92 -111v-207h-155v748h155v-309zM435 -64.5q22 -22.5 22 -59.5q0 -128 -152 -194v52q53 29 66 76q-34 2 -57.5 23t-23.5 50q0 32 24 53.5t61 21.5q38 0 60 -22.5z" />
    <glyph glyph-name="uni0137" unicode="&#x137;" horiz-adv-x="576" 
d="M69 777h146v-448l167 188h177l-195 -221l209 -296h-177l-135 187l-46 -50v-137h-146v777zM368 -64.5q22 -22.5 22 -59.5q0 -128 -152 -194v52q53 29 66 76q-34 2 -57.5 23t-23.5 50q0 32 24 53.5t61 21.5q38 0 60 -22.5z" />
    <glyph glyph-name="Lacute" unicode="&#x139;" horiz-adv-x="574" 
d="M72 748h155v-611h326v-137h-481v748zM214 959h204l-195 -154h-137z" />
    <glyph glyph-name="lacute" unicode="&#x13a;" 
d="M69 777h146v-777h-146v777zM207 976h204l-195 -154h-137z" />
    <glyph glyph-name="uni013B" unicode="&#x13b;" horiz-adv-x="574" 
d="M72 748h155v-611h326v-137h-481v748zM390 -64.5q22 -22.5 22 -59.5q0 -128 -152 -194v52q53 29 66 76q-34 2 -57.5 23t-23.5 50q0 32 24 53.5t61 21.5q38 0 60 -22.5z" />
    <glyph glyph-name="uni013C" unicode="&#x13c;" 
d="M69 777h146v-777h-146v777zM212 -64.5q22 -22.5 22 -59.5q0 -128 -152 -194v52q53 29 66 76q-34 2 -57.5 23t-23.5 50q0 32 24 53.5t61 21.5q38 0 60 -22.5z" />
    <glyph glyph-name="Lcaron" unicode="&#x13d;" horiz-adv-x="574" 
d="M315.5 627q-19.5 21 -19.5 49q0 31 20 52t51 21q32 0 49.5 -22t17.5 -58q0 -124 -125 -189v50q42 29 54 74q-28 2 -47.5 23zM227 748v-611h326v-137h-481v748h155z" />
    <glyph glyph-name="lcaron" unicode="&#x13e;" horiz-adv-x="305" 
d="M394 756.5q18 -21.5 18 -55.5q0 -121 -126 -183v49q44 27 54 71q-28 2 -47 22t-19 48q0 30 20 50t50 20q32 0 50 -21.5zM215 0h-146v777h146v-777z" />
    <glyph glyph-name="Ldot" unicode="&#x13f;" horiz-adv-x="574" 
d="M72 748h155v-611h326v-137h-481v748zM507 476q26 -26 26 -63t-26 -62.5t-63 -25.5t-62.5 25.5t-25.5 62.5t25.5 63t62.5 26t63 -26z" />
    <glyph glyph-name="ldot" unicode="&#x140;" horiz-adv-x="445" 
d="M69 777h146v-777h-146v777zM427 431q26 -26 26 -63t-26 -62.5t-63 -25.5t-62.5 25.5t-25.5 62.5t25.5 63t62.5 26t63 -26z" />
    <glyph glyph-name="Lslash" unicode="&#x141;" horiz-adv-x="585" 
d="M238 358v-221h326v-137h-481v318l-80 -26v122l80 26v308h155v-268l104 32v-122z" />
    <glyph glyph-name="lslash" unicode="&#x142;" horiz-adv-x="309" 
d="M228 483l89 24v-122l-89 -24v-361h-146v331l-90 -24v123l90 24v323h146v-294z" />
    <glyph glyph-name="Nacute" unicode="&#x143;" horiz-adv-x="758" 
d="M532 748h154v-748h-131l-328 463v-463h-155v748h131l329 -464v464zM430 959h204l-195 -154h-137z" />
    <glyph glyph-name="nacute" unicode="&#x144;" horiz-adv-x="612" 
d="M492.5 471q55.5 -56 55.5 -155v-316h-146v288q0 49 -24.5 76t-66.5 27q-43 0 -69.5 -28.5t-26.5 -75.5v-287h-146v517h138v-53q18 29 53.5 46t85.5 17q91 0 146.5 -56zM343 789h164l-135 -191h-114z" />
    <glyph glyph-name="uni0145" unicode="&#x145;" horiz-adv-x="758" 
d="M532 748h154v-748h-131l-328 463v-463h-155v748h131l329 -464v464zM462 -64.5q22 -22.5 22 -59.5q0 -128 -152 -194v52q53 29 66 76q-34 2 -57.5 23t-23.5 50q0 32 24 53.5t61 21.5q38 0 60 -22.5z" />
    <glyph glyph-name="uni0146" unicode="&#x146;" horiz-adv-x="612" 
d="M492.5 471q55.5 -56 55.5 -155v-316h-146v288q0 49 -24.5 76t-66.5 27q-43 0 -69.5 -28.5t-26.5 -75.5v-287h-146v517h138v-53q18 29 53.5 46t85.5 17q91 0 146.5 -56zM379 -64.5q22 -22.5 22 -59.5q0 -128 -152 -194v52q53 29 66 76q-34 2 -57.5 23t-23.5 50
q0 32 24 53.5t61 21.5q38 0 60 -22.5z" />
    <glyph glyph-name="Ncaron" unicode="&#x147;" horiz-adv-x="758" 
d="M532 748h154v-748h-131l-328 463v-463h-155v748h131l329 -464v464zM436 965h123l-116 -160h-141l-117 160h122l65 -75z" />
    <glyph glyph-name="ncaron" unicode="&#x148;" horiz-adv-x="612" 
d="M492.5 471q55.5 -56 55.5 -155v-316h-146v288q0 49 -24.5 76t-66.5 27q-43 0 -69.5 -28.5t-26.5 -75.5v-287h-146v517h138v-53q18 29 53.5 46t85.5 17q91 0 146.5 -56zM383 773h122l-117 -176h-141l-116 176h122l65 -82z" />
    <glyph glyph-name="Eng" unicode="&#x14a;" horiz-adv-x="758" 
d="M686 748v-769q0 -66 -32 -119.5t-91.5 -84t-140.5 -30.5v136q53 0 81.5 35t28.5 101v15l-305 431v-463h-155v748h131l329 -464v464h154z" />
    <glyph glyph-name="eng" unicode="&#x14b;" horiz-adv-x="612" 
d="M492.5 471q55.5 -56 55.5 -155v-366q0 -98 -59.5 -155t-162.5 -57v127q32 0 54 22.5t22 59.5v341q0 49 -24.5 76t-66.5 27q-43 0 -69.5 -28.5t-26.5 -75.5v-287h-146v517h138v-53q18 29 53.5 46t85.5 17q91 0 146.5 -56z" />
    <glyph glyph-name="Omacron" unicode="&#x14c;" horiz-adv-x="857" 
d="M627.5 711.5q87.5 -47.5 137.5 -135t50 -202.5t-50 -202.5t-137.5 -135t-198.5 -47.5t-199 47.5t-138 135t-50 202.5t50 202.5t138 135t199 47.5t198.5 -47.5zM309 592q-52 -30 -81 -86t-29 -132t29 -132t81 -86t120 -30q67 0 119 30t81 86t29 132t-29 132t-81 86
t-119 30q-68 0 -120 -30zM257 932h340v-103h-340v103z" />
    <glyph glyph-name="omacron" unicode="&#x14d;" horiz-adv-x="632" 
d="M457.5 493.5q62.5 -33.5 98 -94.5t35.5 -141t-35.5 -141t-98 -94.5t-141.5 -33.5t-141.5 33.5t-98 94.5t-35.5 141t35.5 141t98 94.5t141.5 33.5t141.5 -33.5zM224 363.5q-35 -38.5 -35 -105.5t35 -105t92 -38t92 38t35 105t-35 105.5t-92 38.5t-92 -38.5zM155 727h320
v-104h-320v104z" />
    <glyph glyph-name="Obreve" unicode="&#x14e;" horiz-adv-x="857" 
d="M627.5 711.5q87.5 -47.5 137.5 -135t50 -202.5t-50 -202.5t-137.5 -135t-198.5 -47.5t-199 47.5t-138 135t-50 202.5t50 202.5t138 135t199 47.5t198.5 -47.5zM309 592q-52 -30 -81 -86t-29 -132t29 -132t81 -86t120 -30q67 0 119 30t81 86t29 132t-29 132t-81 86
t-119 30q-68 0 -120 -30zM613 974q0 -82 -50.5 -125t-135.5 -43q-84 0 -134.5 43t-50.5 125h112q0 -31 19.5 -48.5t53.5 -17.5t54 17.5t20 48.5h112z" />
    <glyph glyph-name="obreve" unicode="&#x14f;" horiz-adv-x="632" 
d="M457.5 493.5q62.5 -33.5 98 -94.5t35.5 -141t-35.5 -141t-98 -94.5t-141.5 -33.5t-141.5 33.5t-98 94.5t-35.5 141t35.5 141t98 94.5t141.5 33.5t141.5 -33.5zM224 363.5q-35 -38.5 -35 -105.5t35 -105t92 -38t92 38t35 105t-35 105.5t-92 38.5t-92 -38.5zM500 763
q0 -84 -50.5 -127t-135.5 -43q-84 0 -134.5 43.5t-50.5 126.5h112q0 -32 19.5 -50t53.5 -18t54 18t20 50h112z" />
    <glyph glyph-name="Ohungarumlaut" unicode="&#x150;" horiz-adv-x="857" 
d="M627.5 711.5q87.5 -47.5 137.5 -135t50 -202.5t-50 -202.5t-137.5 -135t-198.5 -47.5t-199 47.5t-138 135t-50 202.5t50 202.5t138 135t199 47.5t198.5 -47.5zM309 592q-52 -30 -81 -86t-29 -132t29 -132t81 -86t120 -30q67 0 119 30t81 86t29 132t-29 132t-81 86
t-119 30q-68 0 -120 -30zM324 977h138l-86 -169h-113zM526 977h138l-86 -169h-113z" />
    <glyph glyph-name="ohungarumlaut" unicode="&#x151;" horiz-adv-x="632" 
d="M457.5 493.5q62.5 -33.5 98 -94.5t35.5 -141t-35.5 -141t-98 -94.5t-141.5 -33.5t-141.5 33.5t-98 94.5t-35.5 141t35.5 141t98 94.5t141.5 33.5t141.5 -33.5zM224 363.5q-35 -38.5 -35 -105.5t35 -105t92 -38t92 38t35 105t-35 105.5t-92 38.5t-92 -38.5zM216 782h138
l-86 -180h-114zM418 782h138l-86 -180h-114z" />
    <glyph glyph-name="OE" unicode="&#x152;" horiz-adv-x="1167" 
d="M796 137h326v-137h-480v57q-93 -68 -221 -68q-109 0 -195 47.5t-135 135t-49 202.5t49 202.5t135 135t195 47.5q128 0 221 -68v57h479v-136h-325v-162h282v-133h-282v-180zM536 156q50 30 78 86t28 132t-28 132t-78 86t-115 30t-115.5 -30t-78.5 -86t-28 -132t28 -132
t78.5 -86t115.5 -30t115 30z" />
    <glyph glyph-name="oe" unicode="&#x153;" horiz-adv-x="964" 
d="M923 212h-348q2 -48 30 -76.5t74 -28.5q36 0 60.5 15t31.5 42l147 -7q-9 -48 -42.5 -86.5t-83.5 -60t-108 -21.5q-57 0 -104.5 18.5t-80.5 53.5q-34 -35 -82.5 -53.5t-105.5 -18.5q-77 0 -138.5 33.5t-96.5 94.5t-35 141t35 141t96.5 94.5t138.5 33.5q56 0 104.5 -18.5
t83.5 -52.5q32 35 79 53t103 18q72 0 127 -31t85 -89t30 -137v-58zM605.5 385.5q-27.5 -27.5 -30.5 -76.5h201q-2 49 -27 76.5t-71 27.5q-45 0 -72.5 -27.5zM401.5 153.5q34.5 38.5 34.5 104.5q0 67 -34.5 105.5t-88.5 38.5q-55 0 -89.5 -38.5t-34.5 -105.5
q0 -66 34.5 -104.5t89.5 -38.5q54 0 88.5 38.5z" />
    <glyph glyph-name="Racute" unicode="&#x154;" horiz-adv-x="701" 
d="M672 0h-174l-146 269h-125v-269h-155v748h320q109 0 175 -63.5t66 -176.5q0 -77 -31.5 -131.5t-88.5 -82.5zM226 406h147q46 0 74.5 27t28.5 75q0 50 -28.5 77t-74.5 27h-147v-206zM374 959h204l-195 -154h-137z" />
    <glyph glyph-name="racute" unicode="&#x155;" horiz-adv-x="392" 
d="M372 381q-68 0 -112.5 -33t-44.5 -86v-262h-146v517h141v-59q22 28 62.5 46t99.5 18v-141zM251 789h164l-135 -191h-114z" />
    <glyph glyph-name="uni0156" unicode="&#x156;" horiz-adv-x="701" 
d="M672 0h-174l-146 269h-125v-269h-155v748h320q109 0 175 -63.5t66 -176.5q0 -77 -31.5 -131.5t-88.5 -82.5zM226 406h147q46 0 74.5 27t28.5 75q0 50 -28.5 77t-74.5 27h-147v-206zM426 -64.5q22 -22.5 22 -59.5q0 -128 -152 -194v52q53 29 66 76q-34 2 -57.5 23
t-23.5 50q0 32 24 53.5t61 21.5q38 0 60 -22.5z" />
    <glyph glyph-name="uni0157" unicode="&#x157;" horiz-adv-x="392" 
d="M372 381q-68 0 -112.5 -33t-44.5 -86v-262h-146v517h141v-59q22 28 62.5 46t99.5 18v-141zM212 -64.5q22 -22.5 22 -59.5q0 -128 -152 -194v52q53 29 66 76q-34 2 -57.5 23t-23.5 50q0 32 24 53.5t61 21.5q38 0 60 -22.5z" />
    <glyph glyph-name="Rcaron" unicode="&#x158;" horiz-adv-x="701" 
d="M672 0h-174l-146 269h-125v-269h-155v748h320q109 0 175 -63.5t66 -176.5q0 -77 -31.5 -131.5t-88.5 -82.5zM226 406h147q46 0 74.5 27t28.5 75q0 50 -28.5 77t-74.5 27h-147v-206zM379 965h123l-116 -160h-141l-117 160h122l65 -75z" />
    <glyph glyph-name="rcaron" unicode="&#x159;" horiz-adv-x="392" 
d="M372 381q-68 0 -112.5 -33t-44.5 -86v-262h-146v517h141v-59q22 28 62.5 46t99.5 18v-141zM291 773h122l-117 -176h-141l-116 176h122l65 -82z" />
    <glyph glyph-name="Sacute" unicode="&#x15a;" horiz-adv-x="657" 
d="M467.5 731.5q62.5 -27.5 97.5 -79.5t36 -123l-157 -8q-2 48 -33 76t-84 28q-52 0 -81.5 -24.5t-29.5 -65.5q0 -28 14.5 -44t44 -26t88.5 -24q127 -32 190.5 -81t63.5 -142q0 -113 -77.5 -171t-198.5 -58q-87 0 -154 28t-105.5 82t-39.5 130l157 8q1 -51 41.5 -82.5
t100.5 -31.5q55 0 86.5 21t31.5 65q0 28 -16.5 45t-48 28.5t-89.5 25.5q-79 20 -131 44t-83.5 66.5t-31.5 111.5q0 63 30 115t89.5 83t145.5 31q81 0 143.5 -27.5zM386 959h204l-195 -154h-137z" />
    <glyph glyph-name="sacute" unicode="&#x15b;" horiz-adv-x="502" 
d="M397.5 481.5q53.5 -45.5 61.5 -121.5l-146 -8q-2 29 -17.5 46t-47.5 17q-29 0 -44.5 -11.5t-15.5 -32.5q0 -22 17.5 -31t63.5 -21l20 -5q89 -23 132.5 -55.5t43.5 -97.5q0 -80 -55.5 -126t-155.5 -46q-99 0 -156 43.5t-65 124.5l146 8q5 -64 76 -64q30 0 47.5 12.5
t17.5 34.5q0 16 -8 25.5t-27.5 16.5t-58.5 17q-67 17 -103.5 32.5t-58.5 45t-22 79.5q0 75 55.5 119t151.5 44q95 0 148.5 -45.5zM271 789h164l-135 -191h-114z" />
    <glyph glyph-name="Scircumflex" unicode="&#x15c;" horiz-adv-x="657" 
d="M467.5 731.5q62.5 -27.5 97.5 -79.5t36 -123l-157 -8q-2 48 -33 76t-84 28q-52 0 -81.5 -24.5t-29.5 -65.5q0 -28 14.5 -44t44 -26t88.5 -24q127 -32 190.5 -81t63.5 -142q0 -113 -77.5 -171t-198.5 -58q-87 0 -154 28t-105.5 82t-39.5 130l157 8q1 -51 41.5 -82.5
t100.5 -31.5q55 0 86.5 21t31.5 65q0 28 -16.5 45t-48 28.5t-89.5 25.5q-79 20 -131 44t-83.5 66.5t-31.5 111.5q0 63 30 115t89.5 83t145.5 31q81 0 143.5 -27.5zM257 965h141l116 -160h-123l-64 75l-65 -75h-122z" />
    <glyph glyph-name="scircumflex" unicode="&#x15d;" horiz-adv-x="502" 
d="M397.5 481.5q53.5 -45.5 61.5 -121.5l-146 -8q-2 29 -17.5 46t-47.5 17q-29 0 -44.5 -11.5t-15.5 -32.5q0 -22 17.5 -31t63.5 -21l20 -5q89 -23 132.5 -55.5t43.5 -97.5q0 -80 -55.5 -126t-155.5 -46q-99 0 -156 43.5t-65 124.5l146 8q5 -64 76 -64q30 0 47.5 12.5
t17.5 34.5q0 16 -8 25.5t-27.5 16.5t-58.5 17q-67 17 -103.5 32.5t-58.5 45t-22 79.5q0 75 55.5 119t151.5 44q95 0 148.5 -45.5zM175 776h141l117 -177h-122l-65 82l-65 -82h-122z" />
    <glyph glyph-name="Scedilla" unicode="&#x15e;" horiz-adv-x="657" 
d="M548 53.5q-69 -57.5 -180 -63.5l-9 -36q46 -3 79 -30.5t33 -73.5q0 -52 -41 -79.5t-99 -27.5q-61 0 -99 19l23 77q22 -14 55 -14q21 0 36.5 8.5t15.5 26.5q0 19 -15.5 28t-39.5 9q-19 0 -36 -5l32 98q-117 9 -188.5 71.5t-72.5 167.5l157 8q1 -51 41.5 -82.5t100.5 -31.5
q55 0 86.5 21t31.5 65q0 28 -16.5 45t-48 28.5t-89.5 25.5q-79 20 -131 44t-83.5 66.5t-31.5 111.5q0 63 30 115t89.5 83t145.5 31q81 0 143.5 -27.5t97.5 -79.5t36 -123l-157 -8q-2 48 -33 76t-84 28q-52 0 -81.5 -24.5t-29.5 -65.5q0 -28 14.5 -44t44 -26t88.5 -24
q127 -32 190.5 -81t63.5 -142q0 -107 -69 -164.5z" />
    <glyph glyph-name="scedilla" unicode="&#x15f;" horiz-adv-x="502" 
d="M415 39.5q-50 -45.5 -141 -49.5l-9 -36q46 -3 79 -30.5t33 -73.5q0 -52 -41 -79.5t-99 -27.5q-61 0 -99 19l23 77q22 -14 55 -14q21 0 36.5 8.5t15.5 26.5q0 19 -15.5 28t-39.5 9q-19 0 -36 -5l32 100q-79 9 -123.5 51.5t-52.5 113.5l146 8q5 -64 76 -64q30 0 47.5 12.5
t17.5 34.5q0 16 -8 25.5t-27.5 16.5t-58.5 17q-67 17 -103.5 32.5t-58.5 45t-22 79.5q0 75 55.5 119t151.5 44q95 0 148.5 -45.5t61.5 -121.5l-146 -8q-2 29 -17.5 46t-47.5 17q-29 0 -44.5 -11.5t-15.5 -32.5q0 -22 17.5 -31t63.5 -21l20 -5q89 -23 132.5 -55.5t43.5 -97.5
q0 -76 -50 -121.5z" />
    <glyph glyph-name="Scaron" unicode="&#x160;" horiz-adv-x="657" 
d="M467.5 731.5q62.5 -27.5 97.5 -79.5t36 -123l-157 -8q-2 48 -33 76t-84 28q-52 0 -81.5 -24.5t-29.5 -65.5q0 -28 14.5 -44t44 -26t88.5 -24q127 -32 190.5 -81t63.5 -142q0 -113 -77.5 -171t-198.5 -58q-87 0 -154 28t-105.5 82t-39.5 130l157 8q1 -51 41.5 -82.5
t100.5 -31.5q55 0 86.5 21t31.5 65q0 28 -16.5 45t-48 28.5t-89.5 25.5q-79 20 -131 44t-83.5 66.5t-31.5 111.5q0 63 30 115t89.5 83t145.5 31q81 0 143.5 -27.5zM391 965h123l-116 -160h-141l-117 160h122l65 -75z" />
    <glyph glyph-name="scaron" unicode="&#x161;" horiz-adv-x="502" 
d="M397.5 481.5q53.5 -45.5 61.5 -121.5l-146 -8q-2 29 -17.5 46t-47.5 17q-29 0 -44.5 -11.5t-15.5 -32.5q0 -22 17.5 -31t63.5 -21l20 -5q89 -23 132.5 -55.5t43.5 -97.5q0 -80 -55.5 -126t-155.5 -46q-99 0 -156 43.5t-65 124.5l146 8q5 -64 76 -64q30 0 47.5 12.5
t17.5 34.5q0 16 -8 25.5t-27.5 16.5t-58.5 17q-67 17 -103.5 32.5t-58.5 45t-22 79.5q0 75 55.5 119t151.5 44q95 0 148.5 -45.5zM311 773h122l-117 -176h-141l-116 176h122l65 -82z" />
    <glyph glyph-name="uni0162" unicode="&#x162;" horiz-adv-x="697" 
d="M426 0h-43l-10 -41q46 -3 79 -30.5t33 -73.5q0 -52 -41 -79.5t-99 -27.5q-61 0 -99 19l23 77q22 -14 55 -14q21 0 36.5 8.5t15.5 26.5q0 19 -15.5 28t-39.5 9q-19 0 -36 -5l33 103h-47v612h-250v136h655v-136h-250v-612z" />
    <glyph glyph-name="uni0163" unicode="&#x163;" horiz-adv-x="398" 
d="M370 391h-122l-1 -192q0 -40 22 -59t56 -19q18 0 45 5v-130q-42 -6 -81 -6q-17 0 -26 1l-10 -40q46 -3 79 -30.5t33 -73.5q0 -52 -41 -79.5t-99 -27.5q-61 0 -99 19l23 77q22 -14 55 -14q21 0 36.5 8.5t15.5 26.5q0 19 -15.5 28t-39.5 9q-19 0 -36 -5l37 115
q-49 18 -75.5 58t-25.5 102l1 227h-94v126h95l1 171h146l-1 -171h121v-126z" />
    <glyph glyph-name="Tcaron" unicode="&#x164;" horiz-adv-x="697" 
d="M21 748h655v-136h-250v-612h-155v612h-250v136zM415 965h123l-116 -160h-141l-117 160h122l65 -75z" />
    <glyph glyph-name="tcaron" unicode="&#x165;" horiz-adv-x="406" 
d="M428.5 784.5q17.5 -19.5 17.5 -51.5q0 -112 -125 -169v45q43 26 54 66q-28 1 -47.5 19.5t-19.5 44.5q0 27 20 46t51 19q32 0 49.5 -19.5zM250 688l-1 -171h121v-126h-122l-1 -192q0 -40 22 -59t56 -19q18 0 45 5v-130q-42 -6 -81 -6q-88 0 -138.5 43.5t-49.5 130.5l1 227
h-94v126h95l1 171h146z" />
    <glyph glyph-name="Tbar" unicode="&#x166;" horiz-adv-x="697" 
d="M676 748v-136h-250v-198h123v-118h-123v-296h-155v296h-123v118h123v198h-250v136h655z" />
    <glyph glyph-name="tbar" unicode="&#x167;" horiz-adv-x="398" 
d="M370 391h-122v-76h122v-104h-123v-12q0 -40 22 -59t56 -19q18 0 45 5v-130q-42 -6 -81 -6q-88 0 -138.5 43.5t-49.5 130.5v47h-93v104h94v76h-94v126h95l1 171h146l-1 -171h121v-126z" />
    <glyph glyph-name="Utilde" unicode="&#x168;" horiz-adv-x="771" 
d="M704 304q0 -99 -38.5 -170t-110 -108t-169.5 -37q-149 0 -234 83t-85 232v444h154v-442q0 -88 42 -134t123 -46q80 0 122 46t42 134v442h154v-444zM350.5 961.5q17.5 -7.5 39.5 -22.5q18 -12 29 -17.5t24 -5.5q40 0 42 46h82q1 -6 1 -17q0 -58 -30 -98t-79 -40
q-23 0 -41 8t-39 23q-3 2 -14 8.5t-20 10t-18 3.5q-42 0 -42 -46h-82q-1 6 -1 18q0 58 29.5 97.5t78.5 39.5q23 0 40.5 -7.5z" />
    <glyph glyph-name="utilde" unicode="&#x169;" horiz-adv-x="596" 
d="M527 517v-517h-138v52q-17 -27 -50 -45t-84 -18q-89 0 -140 54t-51 149v325h146v-294q0 -98 83 -98q41 0 64.5 27.5t23.5 72.5v292h146zM264 753q18 -8 39 -23q18 -12 29 -17.5t24 -5.5q40 0 42 47h82q1 -6 1 -17q0 -58 -30 -98.5t-79 -40.5q-23 0 -41 8t-39 23
q-3 2 -14 8.5t-20 10t-18 3.5q-42 0 -42 -46h-82q-1 6 -1 18q0 58 29.5 98t78.5 40q23 0 41 -8z" />
    <glyph glyph-name="Umacron" unicode="&#x16a;" horiz-adv-x="771" 
d="M704 304q0 -99 -38.5 -170t-110 -108t-169.5 -37q-149 0 -234 83t-85 232v444h154v-442q0 -88 42 -134t123 -46q80 0 122 46t42 134v442h154v-444zM215 932h340v-103h-340v103z" />
    <glyph glyph-name="umacron" unicode="&#x16b;" horiz-adv-x="596" 
d="M527 517v-517h-138v52q-17 -27 -50 -45t-84 -18q-89 0 -140 54t-51 149v325h146v-294q0 -98 83 -98q41 0 64.5 27.5t23.5 72.5v292h146zM139 727h320v-104h-320v104z" />
    <glyph glyph-name="Ubreve" unicode="&#x16c;" horiz-adv-x="771" 
d="M704 304q0 -99 -38.5 -170t-110 -108t-169.5 -37q-149 0 -234 83t-85 232v444h154v-442q0 -88 42 -134t123 -46q80 0 122 46t42 134v442h154v-444zM571 974q0 -82 -50.5 -125t-135.5 -43q-84 0 -134.5 43t-50.5 125h112q0 -31 19.5 -48.5t53.5 -17.5t54 17.5t20 48.5h112
z" />
    <glyph glyph-name="ubreve" unicode="&#x16d;" horiz-adv-x="596" 
d="M527 517v-517h-138v52q-17 -27 -50 -45t-84 -18q-89 0 -140 54t-51 149v325h146v-294q0 -98 83 -98q41 0 64.5 27.5t23.5 72.5v292h146zM484 763q0 -84 -50.5 -127t-135.5 -43q-84 0 -134.5 43.5t-50.5 126.5h112q0 -32 19.5 -50t53.5 -18t54 18t20 50h112z" />
    <glyph glyph-name="Uring" unicode="&#x16e;" horiz-adv-x="771" 
d="M704 304q0 -99 -38.5 -170t-110 -108t-169.5 -37q-149 0 -234 83t-85 232v444h154v-442q0 -88 42 -134t123 -46q80 0 122 46t42 134v442h154v-444zM466 987.5q33 -30.5 33 -77.5q0 -46 -33 -76.5t-80 -30.5q-49 0 -82.5 30.5t-33.5 76.5q0 47 33.5 77.5t82.5 30.5
q47 0 80 -30.5zM352.5 942.5q-12.5 -12.5 -12.5 -32.5q0 -19 12.5 -31t33.5 -12q19 0 31 12t12 31q0 20 -12 32.5t-31 12.5q-21 0 -33.5 -12.5z" />
    <glyph glyph-name="uring" unicode="&#x16f;" horiz-adv-x="596" 
d="M527 517v-517h-138v52q-17 -27 -50 -45t-84 -18q-89 0 -140 54t-51 149v325h146v-294q0 -98 83 -98q41 0 64.5 27.5t23.5 72.5v292h146zM392 788.5q38 -34.5 38 -87.5t-38 -87.5t-93 -34.5t-93 34.5t-38 87.5t38 87.5t93 34.5t93 -34.5zM263.5 735.5
q-13.5 -13.5 -13.5 -34.5q0 -22 13.5 -35t35.5 -13t35.5 13t13.5 35q0 21 -13.5 34.5t-35.5 13.5t-35.5 -13.5z" />
    <glyph glyph-name="Uhungarumlaut" unicode="&#x170;" horiz-adv-x="771" 
d="M704 304q0 -99 -38.5 -170t-110 -108t-169.5 -37q-149 0 -234 83t-85 232v444h154v-442q0 -88 42 -134t123 -46q80 0 122 46t42 134v442h154v-444zM282 977h138l-86 -169h-113zM484 977h138l-86 -169h-113z" />
    <glyph glyph-name="uhungarumlaut" unicode="&#x171;" horiz-adv-x="596" 
d="M527 517v-517h-138v52q-17 -27 -50 -45t-84 -18q-89 0 -140 54t-51 149v325h146v-294q0 -98 83 -98q41 0 64.5 27.5t23.5 72.5v292h146zM200 782h138l-86 -180h-114zM402 782h138l-86 -180h-114z" />
    <glyph glyph-name="Uogonek" unicode="&#x172;" horiz-adv-x="771" 
d="M550 748h154v-444q0 -94 -35 -163t-101 -108q-51 -29 -75 -64t-24 -82q0 -28 14.5 -46t39.5 -18q30 0 54 11l13 -71q-41 -18 -89 -18q-63 0 -101.5 32t-38.5 94q0 72 49 119q-8 -1 -24 -1q-149 0 -234 83t-85 232v444h154v-442q0 -88 42 -134t123 -46q80 0 122 46t42 134
v442z" />
    <glyph glyph-name="uogonek" unicode="&#x173;" horiz-adv-x="596" 
d="M498 0q-51 -32 -74 -61t-23 -69q0 -24 14 -37t40 -13q30 0 54 11l13 -71q-41 -18 -89 -18q-63 0 -101.5 28.5t-38.5 84.5q0 92 97 145h-1v52q-17 -27 -50 -45t-84 -18q-89 0 -140 54t-51 149v325h146v-294q0 -98 83 -98q41 0 64.5 27.5t23.5 72.5v292h146v-517h-29z" />
    <glyph glyph-name="Wcircumflex" unicode="&#x174;" horiz-adv-x="1061" 
d="M885 748h164l-231 -748h-130l-157 474l-157 -474h-131l-231 748h164l134 -485l157 485h127l158 -485zM461 965h141l116 -160h-123l-64 75l-65 -75h-122z" />
    <glyph glyph-name="wcircumflex" unicode="&#x175;" horiz-adv-x="800" 
d="M643 517h150l-171 -517h-124l-98 275l-99 -275h-123l-172 517h151l90 -311l101 311h103l101 -311zM330 776h141l117 -177h-122l-65 82l-65 -82h-122z" />
    <glyph glyph-name="Ycircumflex" unicode="&#x176;" horiz-adv-x="738" 
d="M550 748h180l-283 -460v-288h-154v288l-284 460h179l181 -307zM299 965h141l116 -160h-123l-64 75l-65 -75h-122z" />
    <glyph glyph-name="ycircumflex" unicode="&#x177;" horiz-adv-x="567" 
d="M408 517h156l-331 -772h-159l132 301l-202 471h155l125 -315zM213 776h141l117 -177h-122l-65 82l-65 -82h-122z" />
    <glyph glyph-name="Ydieresis" unicode="&#x178;" horiz-adv-x="738" 
d="M550 748h180l-283 -460v-288h-154v288l-284 460h179l181 -307zM321 952.5q24 -23.5 24 -57.5q0 -35 -23.5 -58.5t-58.5 -23.5t-58.5 23.5t-23.5 58.5q0 34 24 57.5t58 23.5t58 -23.5zM536 952.5q24 -23.5 24 -57.5q0 -35 -24 -58.5t-59 -23.5q-34 0 -58 23.5t-24 58.5
q0 34 24 57.5t58 23.5q35 0 59 -23.5z" />
    <glyph glyph-name="Zacute" unicode="&#x179;" horiz-adv-x="620" 
d="M39 748h540v-117l-348 -494h358v-137h-555v117l346 495h-341v136zM366 959h204l-195 -154h-137z" />
    <glyph glyph-name="zacute" unicode="&#x17a;" horiz-adv-x="449" 
d="M35 517h376v-99l-201 -297h209v-121h-388v99l202 297h-198v121zM253 789h164l-135 -191h-114z" />
    <glyph glyph-name="Zdotaccent" unicode="&#x17b;" horiz-adv-x="620" 
d="M39 748h540v-117l-348 -494h358v-137h-555v117l346 495h-341v136zM370.5 957.5q25.5 -25.5 25.5 -62.5t-25.5 -62t-62.5 -25q-36 0 -61.5 25t-25.5 62t26 62.5t61 25.5q37 0 62.5 -25.5z" />
    <glyph glyph-name="zdotaccent" unicode="&#x17c;" horiz-adv-x="449" 
d="M35 517h376v-99l-201 -297h209v-121h-388v99l202 297h-198v121zM289.5 744q25.5 -26 25.5 -62q0 -37 -25.5 -62.5t-62.5 -25.5q-36 0 -61.5 25.5t-25.5 62.5q0 36 26 62t61 26q37 0 62.5 -26z" />
    <glyph glyph-name="Zcaron" unicode="&#x17d;" horiz-adv-x="620" 
d="M39 748h540v-117l-348 -494h358v-137h-555v117l346 495h-341v136zM372 965h123l-116 -160h-141l-117 160h122l65 -75z" />
    <glyph glyph-name="zcaron" unicode="&#x17e;" horiz-adv-x="449" 
d="M35 517h376v-99l-201 -297h209v-121h-388v99l202 297h-198v121zM293 773h122l-117 -176h-141l-116 176h122l65 -82z" />
    <glyph glyph-name="uni018F" unicode="&#x18f;" horiz-adv-x="821" 
d="M219.5 34.5q-81.5 45.5 -125.5 132t-44 205.5v64h571q-6 85 -63 135.5t-149 50.5q-70 0 -119 -30.5t-71 -84.5l-157 13q20 69 68.5 123.5t119.5 85t156 30.5q110 0 194.5 -46t131.5 -132.5t47 -204.5q0 -119 -47 -206.5t-130.5 -134t-189.5 -46.5q-111 0 -192.5 45.5z
M557 173q57 47 66 132h-415q5 -81 58.5 -130t148.5 -49q85 0 142 47z" />
    <glyph glyph-name="florin" unicode="&#x192;" horiz-adv-x="520" 
d="M515 745l-58 -120q-30 32 -73 32q-31 0 -49 -15.5t-25 -50.5l-13 -74h125v-121h-147l-95 -538h-148l95 538h-95v121h117l17 98q15 86 68.5 128.5t133.5 42.5q88 0 147 -41z" />
    <glyph glyph-name="Aringacute" unicode="&#x1fa;" horiz-adv-x="783" 
d="M319 802.5q-33 30.5 -33 76.5q0 28 12 50t33 37l118 113h182l-168 -109q24 -14 37.5 -37.5t13.5 -53.5q0 -46 -32.5 -76.5t-80.5 -30.5q-49 0 -82 30.5zM432.5 848q12.5 12 12.5 31q0 20 -12 32.5t-32 12.5q-21 0 -33 -12.5t-12 -32.5q0 -19 12 -31t33 -12q19 0 31.5 12z
M326 748h130l322 -748h-169l-60 144h-315l-60 -144h-169zM392 519l-103 -249h206z" />
    <glyph glyph-name="aringacute" unicode="&#x1fb;" horiz-adv-x="551" 
d="M196 605.5q-33 30.5 -33 77.5q0 25 10.5 46t28.5 36l124 117h182l-168 -108q24 -14 38 -38t14 -53q0 -47 -33 -77.5t-81 -30.5q-49 0 -82 30.5zM310 651.5q12 12.5 12 31.5q0 20 -12 32t-32 12q-21 0 -33 -12t-12 -32t12 -32t33 -12q20 0 32 12.5zM431 474
q55 -53 55 -155v-319h-141v42q-51 -53 -132 -53q-80 0 -126 39.5t-46 113.5q0 80 57 116.5t150 40.5l92 5v20q0 80 -67 80q-35 0 -53.5 -20t-18.5 -48l-146 6q0 46 27 89t76 69.5t113 26.5q105 0 160 -53zM340 208l-78 -5q-75 -3 -75 -54q0 -47 60 -47q41 0 67 22t26 62v22z
" />
    <glyph glyph-name="AEacute" unicode="&#x1fc;" horiz-adv-x="1049" 
d="M1003 748v-136h-326v-162h282v-133h-282v-180h326v-137h-480v144h-239l-95 -144h-187l504 748h497zM523 506l-155 -236h155v236zM731 959h204l-195 -154h-137z" />
    <glyph glyph-name="aeacute" unicode="&#x1fd;" horiz-adv-x="856" 
d="M815 212h-347q2 -49 29.5 -77t74.5 -28q36 0 60 15t32 42l146 -7q-9 -48 -42 -86.5t-83 -60t-108 -21.5q-56 0 -103 17.5t-82 51.5q-33 -32 -76.5 -50.5t-95.5 -18.5q-83 0 -131 40t-48 113q0 149 208 158l84 4v19q0 37 -16 59.5t-49 22.5q-32 0 -49.5 -20.5t-17.5 -48.5
l-146 6q0 46 25.5 89t73 69.5t109.5 26.5q97 0 151 -57q31 26 72.5 41.5t86.5 15.5q73 0 127.5 -31t84.5 -89t30 -137v-58zM498.5 385q-27.5 -28 -30.5 -78l200 2q-2 49 -27 76.5t-71 27.5q-44 0 -71.5 -28zM333 207l-70 -4q-76 -3 -76 -53q0 -24 15.5 -36t41.5 -12
q37 0 63 21.5t26 62.5v21zM446 789h164l-135 -191h-114z" />
    <glyph glyph-name="Oslashacute" unicode="&#x1fe;" horiz-adv-x="857" 
d="M712 648q50 -50 76.5 -120t26.5 -154q0 -115 -50 -202.5t-137.5 -135t-198.5 -47.5q-103 0 -189 42l-62 -80l-94 72l60 78q-49 51 -75.5 120.5t-26.5 152.5q0 115 50 202.5t138 135t199 47.5q103 0 187 -42l63 82l94 -71zM238 224l290 378q-45 20 -99 20q-68 0 -120 -30
t-81 -86t-29 -132q0 -88 39 -150zM548 156q52 30 81 86t29 132q0 90 -40 152l-290 -380q46 -20 101 -20q67 0 119 30zM486 959h204l-195 -154h-137z" />
    <glyph glyph-name="oslashacute" unicode="&#x1ff;" horiz-adv-x="632" 
d="M521 445q34 -35 52 -82.5t18 -104.5q0 -80 -35.5 -141t-98 -94.5t-141.5 -33.5q-67 0 -121 24l-44 -59l-80 59l42 56q-72 75 -72 189q0 80 35.5 141t98 94.5t141.5 33.5q66 0 124 -25l37 50l80 -60zM202 187l157 208q-18 7 -43 7q-57 0 -92 -38.5t-35 -105.5
q0 -38 13 -71zM408 153q35 38 35 105q0 39 -12 67l-154 -205q20 -5 39 -5q57 0 92 38zM341 789h164l-135 -191h-114z" />
    <glyph glyph-name="uni0218" unicode="&#x218;" horiz-adv-x="657" 
d="M467.5 731.5q62.5 -27.5 97.5 -79.5t36 -123l-157 -8q-2 48 -33 76t-84 28q-52 0 -81.5 -24.5t-29.5 -65.5q0 -28 14.5 -44t44 -26t88.5 -24q127 -32 190.5 -81t63.5 -142q0 -113 -77.5 -171t-198.5 -58q-87 0 -154 28t-105.5 82t-39.5 130l157 8q1 -51 41.5 -82.5
t100.5 -31.5q55 0 86.5 21t31.5 65q0 28 -16.5 45t-48 28.5t-89.5 25.5q-79 20 -131 44t-83.5 66.5t-31.5 111.5q0 63 30 115t89.5 83t145.5 31q81 0 143.5 -27.5zM405 -69.5q22 -22.5 22 -59.5q0 -128 -152 -194v52q53 29 66 76q-34 2 -57.5 23t-23.5 50q0 32 24 53.5
t61 21.5q38 0 60 -22.5z" />
    <glyph glyph-name="uni0219" unicode="&#x219;" horiz-adv-x="502" 
d="M397.5 481.5q53.5 -45.5 61.5 -121.5l-146 -8q-2 29 -17.5 46t-47.5 17q-29 0 -44.5 -11.5t-15.5 -32.5q0 -22 17.5 -31t63.5 -21l20 -5q89 -23 132.5 -55.5t43.5 -97.5q0 -80 -55.5 -126t-155.5 -46q-99 0 -156 43.5t-65 124.5l146 8q5 -64 76 -64q30 0 47.5 12.5
t17.5 34.5q0 16 -8 25.5t-27.5 16.5t-58.5 17q-67 17 -103.5 32.5t-58.5 45t-22 79.5q0 75 55.5 119t151.5 44q95 0 148.5 -45.5zM311 -69.5q22 -22.5 22 -59.5q0 -128 -152 -194v52q53 29 66 76q-34 2 -57.5 23t-23.5 50q0 32 24 53.5t61 21.5q38 0 60 -22.5z" />
    <glyph glyph-name="uni021A" unicode="&#x21a;" horiz-adv-x="697" 
d="M21 748h655v-136h-250v-612h-155v612h-250v136zM419 -64.5q22 -22.5 22 -59.5q0 -128 -152 -194v52q53 29 66 76q-34 2 -57.5 23t-23.5 50q0 32 24 53.5t61 21.5q38 0 60 -22.5z" />
    <glyph glyph-name="uni021B" unicode="&#x21b;" horiz-adv-x="398" 
d="M370 391h-122l-1 -192q0 -40 22 -59t56 -19q18 0 45 5v-130q-42 -6 -81 -6q-88 0 -138.5 43.5t-49.5 130.5l1 227h-94v126h95l1 171h146l-1 -171h121v-126zM299 -72.5q22 -22.5 22 -59.5q0 -128 -152 -194v52q53 29 66 76q-34 2 -57.5 23t-23.5 50q0 32 24 53.5t61 21.5
q38 0 60 -22.5z" />
    <glyph glyph-name="uni0237" unicode="&#x237;" horiz-adv-x="290" 
d="M221 -50q0 -97 -58.5 -154.5t-155.5 -57.5q-29 0 -51 3v127q14 -3 34 -3q38 0 61.5 22.5t23.5 59.5v570h146v-567z" />
    <glyph glyph-name="uni0259" unicode="&#x259;" horiz-adv-x="593" 
d="M423.5 495q60.5 -33 94 -93.5t33.5 -142.5t-33.5 -143t-93 -93.5t-136.5 -32.5q-74 0 -130 31t-86.5 89t-30.5 137v58h355q-2 49 -30.5 77t-77.5 28q-38 0 -62.5 -15t-32.5 -42l-147 7q9 48 42.5 86.5t84.5 60t111 21.5q79 0 139.5 -33zM364.5 131.5q28.5 27.5 31.5 76.5
h-208q2 -49 27.5 -76.5t73.5 -27.5q47 0 75.5 27.5z" />
    <glyph glyph-name="h.sups" unicode="&#x2b0;" horiz-adv-x="489" 
d="M182 720q14 15 39.5 26t60.5 11q73 0 117 -44t44 -122v-258h-130v228q0 36 -17 55.5t-47 19.5q-31 0 -49 -20.5t-18 -55.5v-227h-130v622h130v-235z" />
    <glyph glyph-name="j.sups" unicode="&#x2b2;" horiz-adv-x="233" 
d="M170.5 934.5q22.5 -22.5 22.5 -54.5t-22.5 -54t-54.5 -22t-54 22t-22 54t22 54.5t54 22.5t54.5 -22.5zM182 299q0 -80 -49.5 -128t-130.5 -48q-25 0 -44 3v113q12 -3 29 -3q29 0 47 17t18 44v451h130v-449z" />
    <glyph glyph-name="r.sups" unicode="&#x2b3;" horiz-adv-x="314" 
d="M303 627q-53 0 -87 -25t-34 -66v-203h-130v415h125v-37q17 18 48.5 29.5t77.5 11.5v-125z" />
    <glyph glyph-name="w.sups" unicode="&#x2b7;" horiz-adv-x="680" 
d="M538 748h142l-160 -415h-101l-79 224l-79 -224h-101l-160 415h142l77 -214l76 214h90l77 -214z" />
    <glyph glyph-name="y.sups" unicode="&#x2b8;" horiz-adv-x="462" 
d="M318 748h142l-266 -619h-142l108 250l-158 369h142l87 -213z" />
    <glyph glyph-name="uni02BB" unicode="&#x2bb;" horiz-adv-x="234" 
d="M173 598.5q22 -23.5 22 -55.5q0 -35 -22.5 -59t-57.5 -24q-36 0 -56.5 25t-20.5 66q0 140 143 214v-57q-49 -32 -62 -84q32 -2 54 -25.5z" />
    <glyph glyph-name="uni02BC" unicode="&#x2bc;" horiz-adv-x="234" 
d="M175.5 739.5q20.5 -24.5 20.5 -65.5q0 -68 -35 -122.5t-108 -91.5v56q49 34 62 84q-32 2 -54 25.5t-22 56.5q0 34 22.5 58t57.5 24q36 0 56.5 -24.5z" />
    <glyph glyph-name="circumflex" unicode="&#x2c6;" horiz-adv-x="385" 
d="M122 776h141l117 -177h-122l-65 82l-65 -82h-122z" />
    <glyph glyph-name="caron" unicode="&#x2c7;" horiz-adv-x="385" 
d="M258 773h122l-117 -176h-141l-116 176h122l65 -82z" />
    <glyph glyph-name="breve" unicode="&#x2d8;" horiz-adv-x="385" 
d="M378 763q0 -84 -50.5 -127t-135.5 -43q-84 0 -134.5 43.5t-50.5 126.5h112q0 -32 19.5 -50t53.5 -18t54 18t20 50h112z" />
    <glyph glyph-name="dotaccent" unicode="&#x2d9;" horiz-adv-x="189" 
d="M156.5 744q25.5 -26 25.5 -62q0 -37 -25.5 -62.5t-62.5 -25.5q-36 0 -61.5 25.5t-25.5 62.5q0 36 26 62t61 26q37 0 62.5 -26z" />
    <glyph glyph-name="ring" unicode="&#x2da;" horiz-adv-x="275" 
d="M231 788.5q38 -34.5 38 -87.5t-38 -87.5t-93 -34.5t-93 34.5t-38 87.5t38 87.5t93 34.5t93 -34.5zM102.5 735.5q-13.5 -13.5 -13.5 -34.5q0 -22 13.5 -35t35.5 -13t35.5 13t13.5 35q0 21 -13.5 34.5t-35.5 13.5t-35.5 -13.5z" />
    <glyph glyph-name="ogonek" unicode="&#x2db;" horiz-adv-x="229" 
d="M193 4q-51 -32 -75 -61.5t-24 -69.5q0 -24 14 -37t40 -13q30 0 54 11l13 -71q-41 -18 -89 -18q-63 0 -101.5 28.5t-38.5 84.5q0 68 48 111t135 67z" />
    <glyph glyph-name="tilde" unicode="&#x2dc;" horiz-adv-x="378" 
d="M155 753q18 -8 39 -23q18 -12 29 -17.5t24 -5.5q40 0 42 47h82q1 -6 1 -17q0 -58 -30 -98.5t-79 -40.5q-23 0 -41 8t-39 23q-3 2 -14 8.5t-20 10t-18 3.5q-42 0 -42 -46h-82q-1 6 -1 18q0 58 29.5 98t78.5 40q23 0 41 -8z" />
    <glyph glyph-name="hungarumlaut" unicode="&#x2dd;" horiz-adv-x="414" 
d="M68 782h138l-86 -180h-114zM270 782h138l-86 -180h-114z" />
    <glyph glyph-name="l.sups" unicode="&#x2e1;" horiz-adv-x="233" 
d="M52 955h130v-622h-130v622z" />
    <glyph glyph-name="s.sups" unicode="&#x2e2;" horiz-adv-x="400" 
d="M320 719.5q44 -37.5 50 -100.5l-130 -8q-2 46 -43 46q-19 0 -29.5 -7.5t-10.5 -21.5t12.5 -20.5t33.5 -11.5t31 -7q71 -19 105.5 -45t34.5 -79q0 -65 -45.5 -102.5t-128.5 -37.5q-81 0 -127.5 36t-52.5 102l130 7q2 -46 50 -46q21 0 32.5 8t11.5 23t-13 22t-56 18
q-53 13 -83.5 26t-47.5 37t-17 65q0 62 45.5 98t124.5 36t123 -37.5z" />
    <glyph glyph-name="x.sups" unicode="&#x2e3;" horiz-adv-x="445" 
d="M291 748h148l-126 -206l128 -209h-149l-70 118l-67 -118h-150l127 208l-126 207h148l68 -117z" />
    <glyph glyph-name="acutecomb" unicode="&#x301;" horiz-adv-x="0" 
d="M-171 789h164l-135 -191h-114z" />
    <glyph glyph-name="uni0326" unicode="&#x326;" horiz-adv-x="0" 
d="M-48 -64.5q22 -22.5 22 -59.5q0 -128 -152 -194v52q53 29 66 76q-34 2 -57.5 23t-23.5 50q0 32 24 53.5t61 21.5q38 0 60 -22.5z" />
    <glyph glyph-name="uni03A9" unicode="&#x3a9;" horiz-adv-x="792" 
d="M572.5 680.5q75.5 -45.5 115.5 -124.5t40 -177q0 -82 -32 -153.5t-76 -113.5h154v-112h-308v103q58 38 98.5 114t40.5 157q0 70 -25 124.5t-72 85t-112 30.5t-112 -30.5t-72 -85t-25 -124.5q0 -81 40.5 -157t98.5 -114v-103h-308v112h154q-43 42 -75 113.5t-32 153.5
q0 98 40 177t115 124.5t176 45.5t176.5 -45.5z" />
    <glyph glyph-name="uni03BC" unicode="&#x3bc;" horiz-adv-x="601" 
d="M386 517h146v-517h-138v52q-17 -27 -50 -45t-84 -18q-26 0 -45 4v-248h-146v772h146v-294q0 -98 83 -98q41 0 64.5 27.5t23.5 72.5v292z" />
    <glyph glyph-name="pi" unicode="&#x3c0;" horiz-adv-x="715" 
d="M694 466q-17 -59 -56 -96t-106 -37h-8l-22 -181q-1 -4 -1 -12q0 -27 25 -27q18 0 39 17l65 -85q-25 -27 -55 -40.5t-70 -13.5q-60 0 -90.5 33t-30.5 91q0 8 2 28l22 190h-94l-24 -194q-11 -78 -42 -139h-136q28 59 40 90t18 72l22 171h-17q-50 0 -88 -49l-67 100
q40 40 79 59t105 19h254q55 0 80.5 16.5t43.5 52.5z" />
    <glyph glyph-name="uni0400" unicode="&#x400;" horiz-adv-x="598" 
d="M72 748h480v-136h-325v-162h282v-133h-282v-180h326v-137h-481v748zM47 960h204l128 -154h-137z" />
    <glyph glyph-name="uni0401" unicode="&#x401;" horiz-adv-x="598" 
d="M72 748h480v-136h-325v-162h282v-133h-282v-180h326v-137h-481v748zM267 952.5q24 -23.5 24 -57.5q0 -35 -23.5 -58.5t-58.5 -23.5t-58.5 23.5t-23.5 58.5q0 34 24 57.5t58 23.5t58 -23.5zM482 952.5q24 -23.5 24 -57.5q0 -35 -24 -58.5t-59 -23.5q-34 0 -58 23.5
t-24 58.5q0 34 24 57.5t58 23.5q35 0 59 -23.5z" />
    <glyph glyph-name="uni0402" unicode="&#x402;" horiz-adv-x="863" 
d="M508 -3v139q35 -10 65 -10q48 0 75 24.5t27 70.5q0 55 -34 83.5t-92 28.5q-83 0 -148 -29v-304h-154v612h-226v136h631v-136h-251v-172q25 11 68 18.5t82 7.5q132 0 205.5 -60.5t73.5 -172.5q0 -120 -68.5 -182t-183.5 -62q-36 0 -70 8z" />
    <glyph glyph-name="uni0403" unicode="&#x403;" horiz-adv-x="567" 
d="M227 611v-611h-155v748h474v-137h-319zM368 959h204l-195 -154h-137z" />
    <glyph glyph-name="uni0404" unicode="&#x404;" horiz-adv-x="816" 
d="M546 165.5q52 41.5 70 119.5l157 -12q-16 -88 -65 -152t-123 -98t-163 -34q-109 0 -195.5 46.5t-135.5 134t-49 204.5t49 204.5t135.5 134t195.5 46.5q89 0 164.5 -34.5t125 -99.5t62.5 -153l-158 -13q-17 80 -70 122.5t-129 42.5q-79 0 -135 -46.5t-75 -127.5h282v-133
h-286q15 -92 73 -142.5t141 -50.5q77 0 129 41.5z" />
    <glyph glyph-name="uni0405" unicode="&#x405;" horiz-adv-x="657" 
d="M467.5 731.5q62.5 -27.5 97.5 -79.5t36 -123l-157 -8q-2 48 -33 76t-84 28q-52 0 -81.5 -24.5t-29.5 -65.5q0 -28 14.5 -44t44 -26t88.5 -24q127 -32 190.5 -81t63.5 -142q0 -113 -77.5 -171t-198.5 -58q-87 0 -154 28t-105.5 82t-39.5 130l157 8q1 -51 41.5 -82.5
t100.5 -31.5q55 0 86.5 21t31.5 65q0 28 -16.5 45t-48 28.5t-89.5 25.5q-79 20 -131 44t-83.5 66.5t-31.5 111.5q0 63 30 115t89.5 83t145.5 31q81 0 143.5 -27.5z" />
    <glyph glyph-name="uni0406" unicode="&#x406;" horiz-adv-x="299" 
d="M72 748h155v-748h-155v748z" />
    <glyph glyph-name="uni0407" unicode="&#x407;" horiz-adv-x="299" 
d="M116.5 944q17.5 -23 17.5 -56t-17.5 -56t-42.5 -23t-42.5 23t-17.5 56t17.5 56t42.5 23t42.5 -23zM277.5 944q17.5 -23 17.5 -56t-17.5 -56t-42.5 -23t-42.5 23t-17.5 56t17.5 56t42.5 23t42.5 -23zM72 748h155v-748h-155v748z" />
    <glyph glyph-name="uni0408" unicode="&#x408;" horiz-adv-x="608" 
d="M541 267q0 -131 -70 -204.5t-193 -73.5q-116 0 -186 66.5t-77 185.5l155 25q4 -67 32 -103.5t77 -36.5q53 0 80.5 34.5t27.5 101.5v486h154v-481z" />
    <glyph glyph-name="uni0409" unicode="&#x409;" horiz-adv-x="1070" 
d="M52 -4.5q-17 1.5 -29 4.5v135q18 -2 25 -2q47 0 71.5 25t34.5 71t15 126l27 393h459v-266h149q72 0 126.5 -28.5t85 -82.5t30.5 -130t-30.5 -130t-85 -82.5t-126.5 -28.5h-303v612h-162l-26 -311q-10 -121 -39.5 -188.5t-75.5 -93t-113 -25.5q-16 0 -33 1.5zM785 137
q46 0 75 27t29 77t-29 77t-75 27h-130v-208h130z" />
    <glyph glyph-name="uni040A" unicode="&#x40a;" horiz-adv-x="1079" 
d="M72 0v748h154v-286h284v286h154v-286h149q109 0 175.5 -61t66.5 -170t-66.5 -170t-175.5 -61h-303v325h-284v-325h-154zM794 133q46 0 75 25.5t29 70.5q0 46 -28.5 71t-75.5 25h-130v-192h130z" />
    <glyph glyph-name="uni040B" unicode="&#x40b;" horiz-adv-x="871" 
d="M247 0v612h-226v136h630v-136h-250v-162q24 7 76 13t103 6q121 0 174 -54t53 -160v-255h-155v207q0 43 -7.5 69.5t-32 42t-74.5 15.5q-37 0 -75.5 -5t-61.5 -11v-318h-154z" />
    <glyph glyph-name="uni040C" unicode="&#x40c;" horiz-adv-x="704" 
d="M226 0h-154v748h154v-347l264 347h180l-282 -364l311 -384h-194l-279 349v-349zM419 959h204l-195 -154h-137z" />
    <glyph glyph-name="uni040D" unicode="&#x40d;" horiz-adv-x="758" 
d="M117 960h204l128 -154h-137zM72 0v748h154v-464l329 464h131v-748h-155v463l-328 -463h-131z" />
    <glyph glyph-name="uni040E" unicode="&#x40e;" horiz-adv-x="726" 
d="M153 2.5q-36 6.5 -65 17.5l35 131q51 -19 89 -19q58 0 84 54l13 26l-298 536h176l199 -376l167 376h165l-259 -554q-32 -69 -55.5 -103.5t-51.5 -57.5q-46 -37 -129 -37q-34 0 -70 6.5zM558 974q0 -82 -51 -125t-136 -43q-84 0 -135 43t-51 125h118q0 -34 18 -54t50 -20
t50.5 20t18.5 54h118z" />
    <glyph glyph-name="uni040F" unicode="&#x40f;" horiz-adv-x="746" 
d="M520 748h154v-748h-230v-170h-140v170h-232v748h154v-611h294v611z" />
    <glyph glyph-name="uni0410" unicode="&#x410;" horiz-adv-x="783" 
d="M326 748h130l322 -748h-169l-60 144h-315l-60 -144h-169zM495 270l-103 249l-103 -249h206z" />
    <glyph glyph-name="uni0411" unicode="&#x411;" horiz-adv-x="670" 
d="M72 0v748h511v-136h-358v-130h171q71 0 125.5 -28.5t85 -82.5t30.5 -130t-30.5 -130t-85 -82.5t-125.5 -28.5h-324zM377 136q46 0 74.5 27.5t28.5 77.5t-28.5 77t-74.5 27h-152v-209h152z" />
    <glyph glyph-name="uni0412" unicode="&#x412;" horiz-adv-x="690" 
d="M385 748q106 0 169.5 -53t63.5 -155q0 -51 -19.5 -88t-53.5 -59q46 -18 75 -63t29 -112q0 -105 -66 -161.5t-176 -56.5h-335v748h313zM226 612v-164h149q41 0 63.5 20t22.5 61t-25 62t-69 21h-141zM226 317v-180h163q47 0 74.5 22t27.5 67q0 46 -27.5 68.5t-72.5 22.5
h-165z" />
    <glyph glyph-name="uni0413" unicode="&#x413;" horiz-adv-x="567" 
d="M227 611v-611h-155v748h474v-137h-319z" />
    <glyph glyph-name="uni0414" unicode="&#x414;" horiz-adv-x="787" 
d="M659 136h103v-306h-139v170h-471v-170h-139v306h52q38 33 67 119t37 225l17 268h473v-612zM331 612l-17 -190q-10 -111 -31.5 -176.5t-49.5 -110.5l272 1v476h-174z" />
    <glyph glyph-name="uni0415" unicode="&#x415;" horiz-adv-x="598" 
d="M72 748h480v-136h-325v-162h282v-133h-282v-180h326v-137h-481v748z" />
    <glyph glyph-name="uni0416" unicode="&#x416;" horiz-adv-x="1062" 
d="M193 0h-188l290 381l-267 367h178l249 -348v348h154v-347l247 347h179l-267 -367l289 -381h-188l-260 351v-351h-154v351z" />
    <glyph glyph-name="uni0417" unicode="&#x417;" horiz-adv-x="663" 
d="M112.5 50q-75.5 61 -79.5 169l153 13q11 -107 150 -107q64 0 96.5 28t32.5 74q0 93 -121 93h-119v132h115q53 0 80 22t27 62t-29 63t-87 23q-56 0 -88.5 -24.5t-38.5 -69.5l-155 9q9 103 83.5 162.5t203.5 59.5q135 0 202 -53.5t67 -148.5q0 -60 -26.5 -98.5t-68.5 -64.5
q48 -19 80 -62.5t32 -106.5q0 -112 -76.5 -174t-213.5 -62q-144 0 -219.5 61z" />
    <glyph glyph-name="uni0418" unicode="&#x418;" horiz-adv-x="758" 
d="M72 0v748h154v-464l329 464h131v-748h-155v463l-328 -463h-131z" />
    <glyph glyph-name="uni0419" unicode="&#x419;" horiz-adv-x="758" 
d="M72 0v748h154v-464l329 464h131v-748h-155v463l-328 -463h-131zM572 974q0 -82 -51 -125t-136 -43q-84 0 -135 43t-51 125h118q0 -34 18 -54t50 -20t50.5 20t18.5 54h118z" />
    <glyph glyph-name="uni041A" unicode="&#x41a;" horiz-adv-x="704" 
d="M226 0h-154v748h154v-347l264 347h180l-282 -364l311 -384h-194l-279 349v-349z" />
    <glyph glyph-name="uni041B" unicode="&#x41b;" horiz-adv-x="745" 
d="M52 -4.5q-17 1.5 -29 4.5v135q18 -2 25 -2q47 0 71.5 25t34.5 71t15 126l27 393h477v-748h-154v611h-180l-26 -310q-10 -121 -39.5 -188.5t-75.5 -93t-113 -25.5q-16 0 -33 1.5z" />
    <glyph glyph-name="uni041C" unicode="&#x41c;" horiz-adv-x="947" 
d="M739 748h136v-748h-153v414l-196 -406h-102l-197 406v-414h-155v748h137l266 -520z" />
    <glyph glyph-name="uni041D" unicode="&#x41d;" horiz-adv-x="756" 
d="M530 748h154v-748h-154v315h-303v-315h-155v748h155v-296h303v296z" />
    <glyph glyph-name="uni041E" unicode="&#x41e;" horiz-adv-x="857" 
d="M627.5 711.5q87.5 -47.5 137.5 -135t50 -202.5t-50 -202.5t-137.5 -135t-198.5 -47.5t-199 47.5t-138 135t-50 202.5t50 202.5t138 135t199 47.5t198.5 -47.5zM309 592q-52 -30 -81 -86t-29 -132t29 -132t81 -86t120 -30q67 0 119 30t81 86t29 132t-29 132t-81 86
t-119 30q-68 0 -120 -30z" />
    <glyph glyph-name="uni041F" unicode="&#x41f;" horiz-adv-x="746" 
d="M226 0h-154v748h602v-748h-154v612h-294v-612z" />
    <glyph glyph-name="uni0420" unicode="&#x420;" horiz-adv-x="661" 
d="M396 748q71 0 125.5 -28.5t85 -82.5t30.5 -130t-30.5 -130t-85 -82.5t-125.5 -28.5h-169v-266h-155v748h324zM226 612v-209h150q46 0 75 27t29 77t-29 77.5t-75 27.5h-150z" />
    <glyph glyph-name="uni0421" unicode="&#x421;" horiz-adv-x="816" 
d="M226.5 35.5q-86.5 46.5 -135.5 134t-49 204.5t49 204.5t135.5 134t195.5 46.5q89 0 164.5 -34.5t125 -99.5t62.5 -153l-158 -13q-17 79 -70 121t-129 42q-64 0 -113.5 -30.5t-77 -86.5t-27.5 -131q0 -78 28.5 -134t78 -85t111.5 -29q77 0 129 41t70 118l157 -12
q-16 -88 -65 -152t-123 -98t-163 -34q-109 0 -195.5 46.5z" />
    <glyph glyph-name="uni0422" unicode="&#x422;" horiz-adv-x="697" 
d="M21 748h655v-136h-250v-612h-155v612h-250v136z" />
    <glyph glyph-name="uni0423" unicode="&#x423;" horiz-adv-x="726" 
d="M153 2.5q-36 6.5 -65 17.5l35 131q51 -19 89 -19q58 0 84 54l13 26l-298 536h176l199 -376l167 376h165l-259 -554q-32 -69 -55.5 -103.5t-51.5 -57.5q-46 -37 -129 -37q-34 0 -70 6.5z" />
    <glyph glyph-name="uni0424" unicode="&#x424;" horiz-adv-x="961" 
d="M404 59q-170 8 -266 90.5t-96 224.5q0 94 43.5 163t124.5 108.5t194 44.5v95h153v-95q113 -5 194 -44.5t124.5 -108.5t43.5 -163q0 -142 -96 -224.5t-266 -90.5v-97h-153v97zM404 557q-100 -7 -152.5 -53.5t-52.5 -129.5t52.5 -130t152.5 -51v364zM557 192
q101 5 153 51.5t52 130.5q0 83 -52 129.5t-153 53.5v-365z" />
    <glyph glyph-name="uni0425" unicode="&#x425;" horiz-adv-x="721" 
d="M515 748h178l-218 -368l231 -380h-179l-166 281l-167 -281h-179l231 380l-218 368h178l155 -269z" />
    <glyph glyph-name="uni0426" unicode="&#x426;" horiz-adv-x="803" 
d="M778 -170h-139v170h-567v748h155v-611h293v611h154v-611h104v-307z" />
    <glyph glyph-name="uni0427" unicode="&#x427;" horiz-adv-x="668" 
d="M442 309q-23 -8 -66 -13t-82 -5q-100 0 -154.5 28t-74 77t-19.5 121v231h153v-195q0 -43 10 -70.5t38 -42t82 -14.5q30 0 61 4.5t52 11.5v306h154v-748h-154v309z" />
    <glyph glyph-name="uni0428" unicode="&#x428;" horiz-adv-x="1074" 
d="M1002 0h-930v748h154v-611h234v611h154v-611h234v611h154v-748z" />
    <glyph glyph-name="uni0429" unicode="&#x429;" horiz-adv-x="1130" 
d="M1002 748v-611h104v-307h-139v170h-895v748h154v-611h234v611h154v-611h234v611h154z" />
    <glyph glyph-name="uni042A" unicode="&#x42a;" horiz-adv-x="810" 
d="M545 482q71 0 125.5 -28.5t85 -82.5t30.5 -130t-30.5 -130t-85 -82.5t-125.5 -28.5h-324v612h-200v136h355v-266h169zM525 136q46 0 75 27.5t29 77.5t-29 77t-75 27h-149v-209h149z" />
    <glyph glyph-name="uni042B" unicode="&#x42b;" horiz-adv-x="949" 
d="M72 0v748h155v-266h169q71 0 125.5 -28.5t85 -82.5t30.5 -130t-30.5 -130t-85 -82.5t-125.5 -28.5h-324zM376 136q46 0 75 27.5t29 77.5t-29 77t-75 27h-150v-209h150zM722 748h155v-748h-155v748z" />
    <glyph glyph-name="uni042C" unicode="&#x42c;" horiz-adv-x="661" 
d="M72 0v748h155v-266h169q71 0 125.5 -28.5t85 -82.5t30.5 -130t-30.5 -130t-85 -82.5t-125.5 -28.5h-324zM376 136q46 0 75 27.5t29 77.5t-29 77t-75 27h-150v-209h150z" />
    <glyph glyph-name="uni042D" unicode="&#x42d;" horiz-adv-x="816" 
d="M589.5 712.5q86.5 -46.5 135.5 -134t49 -204.5t-49 -204.5t-135.5 -134t-195.5 -46.5q-89 0 -163 34t-123 98t-65 152l157 12q18 -78 70 -119.5t129 -41.5q83 0 141 50.5t73 142.5h-286v133h282q-19 81 -75 127.5t-135 46.5q-76 0 -129 -42.5t-70 -122.5l-158 13
q13 88 62.5 153t125 99.5t164.5 34.5q109 0 195.5 -46.5z" />
    <glyph glyph-name="uni042E" unicode="&#x42e;" horiz-adv-x="1071" 
d="M857.5 711.5q80.5 -47.5 126 -134.5t45.5 -203q0 -115 -45.5 -202.5t-126 -135t-182.5 -47.5q-93 0 -168.5 39.5t-123.5 113.5t-59 173h-98v-315h-154v748h154v-296h101q14 94 62 163.5t122 106.5t164 37q102 0 182.5 -47.5zM777.5 156q44.5 30 69.5 86t25 132t-25 132
t-69.5 86t-102.5 30t-103 -30t-69.5 -86t-24.5 -132t24.5 -132t69.5 -86t103 -30t102.5 30z" />
    <glyph glyph-name="uni042F" unicode="&#x42f;" horiz-adv-x="701" 
d="M629 748v-748h-155v268h-81l-185 -268h-179l204 285q-82 23 -124 81t-42 142q0 75 30.5 129.5t85.5 82.5t126 28h320zM475 405v207h-147q-47 0 -76 -27t-29 -77q0 -48 30 -75.5t79 -27.5h143z" />
    <glyph glyph-name="uni0430" unicode="&#x430;" horiz-adv-x="551" 
d="M431 474q55 -53 55 -155v-319h-141v42q-51 -53 -132 -53q-80 0 -126 39.5t-46 113.5q0 80 57 116.5t150 40.5l92 5v20q0 80 -67 80q-35 0 -53.5 -20t-18.5 -48l-146 6q0 46 27 89t76 69.5t113 26.5q105 0 160 -53zM262 203q-75 -3 -75 -54q0 -47 60 -47q41 0 67 22t26 62
v22z" />
    <glyph glyph-name="uni0431" unicode="&#x431;" horiz-adv-x="632" 
d="M467.5 484.5q58.5 -30.5 91 -89t32.5 -138.5q0 -79 -35.5 -140t-98 -94.5t-140.5 -33.5q-181 0 -244 154q-17 39 -24.5 88t-7.5 114q0 129 27 208t93.5 125t186.5 67l60 10q49 8 74 13.5t44 13.5v-136q-17 -8 -53.5 -15.5t-116.5 -18.5q-84 -12 -120.5 -44t-45.5 -100
q50 47 143 47q76 0 134.5 -30.5zM409 152q35 37 35 101q0 63 -35 100t-92 37t-92 -37t-35 -101t35 -100.5t93 -36.5q56 0 91 37z" />
    <glyph glyph-name="uni0432" unicode="&#x432;" horiz-adv-x="584" 
d="M69 0v517h268q85 0 134.5 -35.5t49.5 -105.5q0 -33 -16 -59t-40 -43q36 -16 59 -47t23 -76q0 -72 -53.5 -111.5t-139.5 -39.5h-285zM320 313q57 0 57 46q0 25 -15 38t-43 13h-107v-97h108zM334 108q31 0 50 14t19 41q0 52 -70 52h-121v-107h122z" />
    <glyph glyph-name="uni0433" unicode="&#x433;" horiz-adv-x="447" 
d="M214 0h-145v517h370v-127h-225v-390z" />
    <glyph glyph-name="uni0434" unicode="&#x434;" horiz-adv-x="644" 
d="M537 125h85v-275h-127v151h-355v-151h-127v275h36q33 15 57.5 76t31.5 179l8 137h391v-392zM270 392l-7 -72q-8 -76 -23 -121t-37 -74h192v267h-125z" />
    <glyph glyph-name="uni0435" unicode="&#x435;" horiz-adv-x="592" 
d="M551 212h-355q2 -49 30.5 -77t77.5 -28q38 0 62.5 15t32.5 42l147 -7q-9 -48 -42.5 -86.5t-84.5 -60t-111 -21.5q-79 0 -139.5 33t-94 93.5t-33.5 142.5t33.5 143t93 93.5t136.5 32.5q74 0 130 -31t86.5 -89t30.5 -137v-58zM227.5 385.5q-28.5 -27.5 -31.5 -76.5h208
q-2 49 -27.5 76.5t-73.5 27.5q-47 0 -75.5 -27.5z" />
    <glyph glyph-name="uni0436" unicode="&#x436;" horiz-adv-x="813" 
d="M172 0h-169l196 262l-187 255h161l164 -235v235h142v-236l162 236h161l-184 -255l193 -262h-168l-164 238v-238h-142v237z" />
    <glyph glyph-name="uni0437" unicode="&#x437;" horiz-adv-x="554" 
d="M103 35.5q-62 46.5 -66 128.5l142 7q13 -72 102 -72q42 0 64.5 16t22.5 46q0 28 -19.5 41t-60.5 13h-77v100h77q69 0 69 51q0 24 -20.5 38t-59.5 14t-61 -16.5t-27 -46.5l-141 6q5 77 63.5 121.5t168.5 44.5q107 0 165 -41t59 -111q0 -69 -70 -107q33 -13 56.5 -43
t23.5 -70q0 -78 -63.5 -122t-171.5 -44q-114 0 -176 46.5z" />
    <glyph glyph-name="uni0438" unicode="&#x438;" horiz-adv-x="635" 
d="M213 0h-144v517h144v-304l209 304h143v-517h-143v302z" />
    <glyph glyph-name="uni0439" unicode="&#x439;" horiz-adv-x="635" 
d="M213 0h-144v517h144v-304l209 304h143v-517h-143v302zM504 763q0 -83 -51 -126.5t-136 -43.5q-84 0 -135 43.5t-51 126.5h118q0 -35 18 -55.5t50 -20.5t50.5 20.5t18.5 55.5h118z" />
    <glyph glyph-name="uni043A" unicode="&#x43a;" horiz-adv-x="553" 
d="M214 0h-145v517h145v-236l166 236h158l-178 -248l190 -269h-169l-167 242v-242z" />
    <glyph glyph-name="uni043B" unicode="&#x43b;" horiz-adv-x="609" 
d="M16 123q7 -1 20 -1q34 0 52.5 16.5t28.5 54t16 107.5l19 217h387v-517h-145v391h-113l-19 -162q-10 -90 -35 -140.5t-67 -71.5t-109 -21q-23 0 -35 1v126z" />
    <glyph glyph-name="uni043C" unicode="&#x43c;" horiz-adv-x="774" 
d="M212 0h-143v517h144l177 -335l177 335h137v-517h-142v268l-133 -255h-80l-137 255v-268z" />
    <glyph glyph-name="uni043D" unicode="&#x43d;" horiz-adv-x="617" 
d="M215 0h-146v517h146v-189h187v189h146v-517h-146v203h-187v-203z" />
    <glyph glyph-name="uni043E" unicode="&#x43e;" horiz-adv-x="632" 
d="M457.5 493.5q62.5 -33.5 98 -94.5t35.5 -141t-35.5 -141t-98 -94.5t-141.5 -33.5t-141.5 33.5t-98 94.5t-35.5 141t35.5 141t98 94.5t141.5 33.5t141.5 -33.5zM224 363.5q-35 -38.5 -35 -105.5t35 -105t92 -38t92 38t35 105t-35 105.5t-92 38.5t-92 -38.5z" />
    <glyph glyph-name="uni043F" unicode="&#x43f;" horiz-adv-x="609" 
d="M214 0h-145v517h470v-517h-144v391h-181v-391z" />
    <glyph glyph-name="uni0440" unicode="&#x440;" horiz-adv-x="651" 
d="M69 -255v772h138v-54q21 29 61 46.5t92 17.5q73 0 130 -33.5t88.5 -94.5t31.5 -141t-31.5 -141t-88.5 -94.5t-130 -33.5q-47 0 -85 15.5t-60 39.5v-299h-146zM427.5 152q34.5 38 34.5 106t-34.5 106t-90.5 38q-55 0 -88.5 -35.5t-33.5 -96.5v-24q0 -61 33.5 -96.5
t88.5 -35.5q56 0 90.5 38z" />
    <glyph glyph-name="uni0441" unicode="&#x441;" horiz-adv-x="586" 
d="M469.5 473q67.5 -54 81.5 -146l-143 -12q-5 40 -32.5 63.5t-69.5 23.5q-52 0 -84.5 -38t-32.5 -106q0 -67 32.5 -105t84.5 -38q43 0 70 22.5t33 61.5l142 -13q-15 -91 -82 -144t-163 -53q-76 0 -136.5 32.5t-94.5 93t-34 143.5t34 144t94 93t137 32q96 0 163.5 -54z" />
    <glyph glyph-name="uni0442" unicode="&#x442;" horiz-adv-x="480" 
d="M313 0h-146v391h-159v126h464v-126h-159v-391z" />
    <glyph glyph-name="uni0443" unicode="&#x443;" horiz-adv-x="567" 
d="M408 517h156l-331 -772h-159l132 301l-202 471h155l125 -315z" />
    <glyph glyph-name="uni0444" unicode="&#x444;" horiz-adv-x="800" 
d="M328 -9q-87 6 -152 41t-100 93t-35 133t35 133.5t100 93t152 40.5v252h144v-252q87 -6 152 -40.5t100 -93t35 -133.5t-35 -133t-100 -93t-152 -41v-246h-144v246zM328 407q-68 -6 -105 -46.5t-37 -101.5t36.5 -101t105.5 -46v295zM472 112q68 6 104.5 46t36.5 101
t-36.5 101.5t-104.5 46.5v-295z" />
    <glyph glyph-name="uni0445" unicode="&#x445;" horiz-adv-x="547" 
d="M174 0h-165l162 263l-160 254h165l97 -160l98 160h164l-161 -257l165 -260h-166l-100 163z" />
    <glyph glyph-name="uni0446" unicode="&#x446;" horiz-adv-x="644" 
d="M538 517v-392h84v-275h-123v150h-430v517h145v-392h179v392h145z" />
    <glyph glyph-name="uni0447" unicode="&#x447;" horiz-adv-x="572" 
d="M358 187q-52 -14 -118 -14q-96 0 -143 42t-47 134v168h143v-139q0 -42 19 -61.5t63 -19.5q51 0 83 13v207h145v-517h-145v187z" />
    <glyph glyph-name="uni0448" unicode="&#x448;" horiz-adv-x="878" 
d="M809 0h-740v517h145v-392h154v392h142v-392h155v392h144v-517z" />
    <glyph glyph-name="uni0449" unicode="&#x449;" horiz-adv-x="916" 
d="M809 517v-392h85v-275h-124v150h-701v517h145v-392h154v392h142v-392h155v392h144z" />
    <glyph glyph-name="uni044A" unicode="&#x44a;" horiz-adv-x="633" 
d="M146 0v391h-138v126h283v-165h112q96 0 152 -45t56 -131t-56 -131t-152 -45h-257zM382 112q41 0 63 14t22 50q0 35 -22 49.5t-63 14.5h-91v-128h91z" />
    <glyph glyph-name="uni044B" unicode="&#x44b;" horiz-adv-x="818" 
d="M603 517h146v-517h-146v517zM69 0v517h146v-165h111q96 0 152 -45t56 -131t-56 -131t-152 -45h-257zM305 112q41 0 63 14t22 50q0 35 -22 49.5t-63 14.5h-90v-128h90z" />
    <glyph glyph-name="uni044C" unicode="&#x44c;" horiz-adv-x="556" 
d="M69 0v517h146v-165h111q96 0 152 -45t56 -131t-56 -131t-152 -45h-257zM305 112q41 0 63 14t22 50q0 35 -22 49.5t-63 14.5h-90v-128h90z" />
    <glyph glyph-name="uni044D" unicode="&#x44d;" horiz-adv-x="583" 
d="M413 495q60 -32 94 -93t34 -144t-34 -143.5t-94.5 -93t-136.5 -32.5q-90 0 -155.5 48t-85.5 131l141 14q11 -37 36.5 -58t63.5 -21q45 0 76 28.5t40 83.5h-178v94h176q-10 52 -40.5 78t-73.5 26q-37 0 -63.5 -21t-35.5 -59l-141 13q19 84 84.5 132.5t155.5 48.5
q77 0 137 -32z" />
    <glyph glyph-name="uni044E" unicode="&#x44e;" horiz-adv-x="824" 
d="M659.5 493.5q57.5 -33.5 90 -94.5t32.5 -141t-32.5 -141t-90 -94.5t-131.5 -33.5q-98 0 -166.5 58.5t-84.5 156.5h-64v-204h-144v517h144v-188h67q20 91 87 144.5t161 53.5q74 0 131.5 -33.5zM608 153q30 38 30 105t-30 105.5t-80 38.5t-80.5 -38.5t-30.5 -105.5
q0 -66 30.5 -104.5t80.5 -38.5t80 38z" />
    <glyph glyph-name="uni044F" unicode="&#x44f;" horiz-adv-x="583" 
d="M513 517v-517h-145v160h-62l-111 -160h-167l136 181q-112 42 -112 159q0 87 55.5 132t148.5 45h257zM368 271v136h-87q-84 0 -84 -68t84 -68h87z" />
    <glyph glyph-name="uni0450" unicode="&#x450;" horiz-adv-x="592" 
d="M551 212h-355q2 -49 30.5 -77t77.5 -28q38 0 62.5 15t32.5 42l147 -7q-9 -48 -42.5 -86.5t-84.5 -60t-111 -21.5q-79 0 -139.5 33t-94 93.5t-33.5 142.5t33.5 143t93 93.5t136.5 32.5q74 0 130 -31t86.5 -89t30.5 -137v-58zM227.5 385.5q-28.5 -27.5 -31.5 -76.5h208
q-2 49 -27.5 76.5t-73.5 27.5q-47 0 -75.5 -27.5zM104 789h166l83 -191h-113z" />
    <glyph glyph-name="uni0451" unicode="&#x451;" horiz-adv-x="592" 
d="M551 212h-355q2 -49 30.5 -77t77.5 -28q38 0 62.5 15t32.5 42l147 -7q-9 -48 -42.5 -86.5t-84.5 -60t-111 -21.5q-79 0 -139.5 33t-94 93.5t-33.5 142.5t33.5 143t93 93.5t136.5 32.5q74 0 130 -31t86.5 -89t30.5 -137v-58zM227.5 385.5q-28.5 -27.5 -31.5 -76.5h208
q-2 49 -27.5 76.5t-73.5 27.5q-47 0 -75.5 -27.5zM250.5 744.5q23.5 -23.5 23.5 -58.5q0 -34 -23.5 -57.5t-58.5 -23.5t-58.5 23.5t-23.5 57.5q0 35 24 58.5t58 23.5q35 0 58.5 -23.5zM465.5 744.5q23.5 -23.5 23.5 -58.5q0 -34 -23.5 -57.5t-58.5 -23.5t-58.5 23.5
t-23.5 57.5q0 35 24 58.5t58 23.5q35 0 58.5 -23.5z" />
    <glyph glyph-name="uni0452" unicode="&#x452;" horiz-adv-x="612" 
d="M492.5 471q55.5 -56 55.5 -155v-366q0 -97 -58.5 -154.5t-155.5 -57.5q-28 0 -51 3v127q15 -3 35 -3q37 0 60.5 22.5t23.5 59.5v341q0 49 -24.5 76t-66.5 27q-43 0 -69.5 -28.5t-26.5 -75.5v-287h-146v596h-74v103h74v78h146v-78h130v-103h-130v-123q19 24 51.5 39
t79.5 15q91 0 146.5 -56z" />
    <glyph glyph-name="uni0453" unicode="&#x453;" horiz-adv-x="447" 
d="M214 0h-145v517h370v-127h-225v-390zM280 789h164l-135 -191h-114z" />
    <glyph glyph-name="uni0454" unicode="&#x454;" horiz-adv-x="582" 
d="M548 168q-21 -83 -86 -131t-155 -48q-77 0 -137.5 32.5t-94.5 93t-34 143.5t34 144t94.5 93t136.5 32q90 0 155.5 -48t85.5 -133l-141 -13q-10 38 -36 59t-64 21q-44 0 -74 -26t-39 -78h176v-94h-178q9 -55 40 -83.5t76 -28.5q37 0 63 21t37 58z" />
    <glyph glyph-name="uni0455" unicode="&#x455;" horiz-adv-x="502" 
d="M397.5 481.5q53.5 -45.5 61.5 -121.5l-146 -8q-2 29 -17.5 46t-47.5 17q-29 0 -44.5 -11.5t-15.5 -32.5q0 -22 17.5 -31t63.5 -21l20 -5q89 -23 132.5 -55.5t43.5 -97.5q0 -80 -55.5 -126t-155.5 -46q-99 0 -156 43.5t-65 124.5l146 8q5 -64 76 -64q30 0 47.5 12.5
t17.5 34.5q0 16 -8 25.5t-27.5 16.5t-58.5 17q-67 17 -103.5 32.5t-58.5 45t-22 79.5q0 75 55.5 119t151.5 44q95 0 148.5 -45.5z" />
    <glyph glyph-name="uni0456" unicode="&#x456;" 
d="M204.5 748.5q25.5 -25.5 25.5 -62.5q0 -36 -25.5 -61.5t-62.5 -25.5t-62 25.5t-25 61.5q0 37 26 62.5t61 25.5q37 0 62.5 -25.5zM69 517h146v-517h-146v517z" />
    <glyph glyph-name="uni0457" unicode="&#x457;" 
d="M110 742q19 -23 19 -56t-19 -55.5t-46 -22.5q-26 0 -44.5 22.5t-18.5 55.5t18.5 56t44.5 23q27 0 46 -23zM269 742q18 -23 18 -56t-18 -55.5t-45 -22.5q-26 0 -45 22.5t-19 55.5t19 56t45 23q27 0 45 -23zM69 517h146v-517h-146v517z" />
    <glyph glyph-name="uni0458" unicode="&#x458;" horiz-adv-x="290" 
d="M209.5 748.5q25.5 -25.5 25.5 -62.5q0 -36 -25.5 -61.5t-62.5 -25.5t-62 25.5t-25 61.5q0 37 25 62.5t62 25.5t62.5 -25.5zM221 -50q0 -97 -58.5 -154.5t-155.5 -57.5q-29 0 -51 3v127q14 -3 34 -3q38 0 61.5 22.5t23.5 59.5v570h146v-567z" />
    <glyph glyph-name="uni0459" unicode="&#x459;" horiz-adv-x="869" 
d="M16 123q7 -1 20 -1q34 0 52.5 16.5t28.5 54t16 107.5l19 217h376v-165h112q96 0 152 -45t56 -131t-56 -131t-152 -45h-257v391h-102l-19 -162q-10 -90 -35 -140.5t-67 -71.5t-109 -21q-23 0 -35 1v126zM618 112q41 0 63.5 14t22.5 50q0 35 -22.5 49.5t-63.5 14.5h-90
v-128h90z" />
    <glyph glyph-name="uni045A" unicode="&#x45a;" horiz-adv-x="869" 
d="M69 0v517h146v-177h177v177h145v-177h101q97 0 153.5 -43.5t56.5 -128.5q0 -84 -56 -126t-154 -42h-246v223h-177v-223h-146zM617 106q39 0 62.5 14.5t23.5 44.5t-23.5 45t-62.5 15h-80v-119h80z" />
    <glyph glyph-name="uni045B" unicode="&#x45b;" horiz-adv-x="610" 
d="M492.5 471q55.5 -56 55.5 -155v-316h-146v288q0 49 -24.5 76t-66.5 27q-43 0 -69.5 -28.5t-26.5 -75.5v-287h-146v596h-74v103h74v78h146v-78h130v-103h-130v-123q19 24 51.5 39t79.5 15q91 0 146.5 -56z" />
    <glyph glyph-name="uni045C" unicode="&#x45c;" horiz-adv-x="553" 
d="M214 0h-145v517h145v-236l166 236h158l-178 -248l190 -269h-169l-167 242v-242zM331 789h164l-135 -191h-114z" />
    <glyph glyph-name="uni045D" unicode="&#x45d;" horiz-adv-x="635" 
d="M213 0h-144v517h144v-304l209 304h143v-517h-143v302zM121 789h166l83 -191h-113z" />
    <glyph glyph-name="uni045E" unicode="&#x45e;" horiz-adv-x="567" 
d="M408 517h156l-331 -772h-159l132 301l-202 471h155l125 -315zM470 763q0 -83 -51 -126.5t-136 -43.5q-84 0 -135 43.5t-51 126.5h118q0 -35 18 -55.5t50 -20.5t50.5 20.5t18.5 55.5h118z" />
    <glyph glyph-name="uni045F" unicode="&#x45f;" horiz-adv-x="607" 
d="M392 517h145v-517h-172v-150h-124v150h-172v517h146v-392h177v392z" />
    <glyph glyph-name="uni0462" unicode="&#x462;" horiz-adv-x="759" 
d="M170 0v547h-149v120h149v81h153v-81h211v-120h-211v-89h170q110 0 176 -59.5t66 -168.5q0 -108 -66.5 -169t-175.5 -61h-323zM474 137q47 0 75.5 24.5t28.5 68.5q0 45 -28.5 68.5t-75.5 23.5h-151v-185h151z" />
    <glyph glyph-name="uni0463" unicode="&#x463;" horiz-adv-x="638" 
d="M151 0v405h-143v112h143v260h146v-260h177v-112h-177v-75h131q89 0 139 -42t50 -116q0 -85 -55 -128.5t-148 -43.5h-263zM392 105q39 0 59.5 14.5t20.5 48.5q0 35 -20 50t-60 15h-95v-128h95z" />
    <glyph glyph-name="uni0472" unicode="&#x472;" horiz-adv-x="857" 
d="M627.5 711.5q87.5 -47.5 137.5 -135t50 -202.5t-50 -202.5t-137.5 -135t-198.5 -47.5t-199 47.5t-138 135t-50 202.5t50 202.5t138 135t199 47.5t198.5 -47.5zM282.5 574.5q-59.5 -47.5 -76.5 -132.5h445q-17 85 -76.5 132.5t-145.5 47.5q-87 0 -146.5 -47.5zM576 175
q60 49 76 135h-447q16 -86 76 -135t148 -49q87 0 147 49z" />
    <glyph glyph-name="uni0473" unicode="&#x473;" horiz-adv-x="632" 
d="M457.5 493.5q62.5 -33.5 98 -94.5t35.5 -141t-35.5 -141t-98 -94.5t-141.5 -33.5t-141.5 33.5t-98 94.5t-35.5 141t35.5 141t98 94.5t141.5 33.5t141.5 -33.5zM237.5 385.5q-32.5 -27.5 -43.5 -76.5h244q-11 49 -43.5 76.5t-78.5 27.5t-78.5 -27.5zM396 132.5
q33 28.5 43 79.5h-246q10 -51 43 -79.5t80 -28.5t80 28.5z" />
    <glyph glyph-name="uni0474" unicode="&#x474;" horiz-adv-x="797" 
d="M307 0l-298 748h170l208 -544l113 355q32 105 74 152t119 47q29 0 81 -10l-19 -138q-18 5 -36 5q-32 0 -48 -23t-37 -86l-171 -506h-156z" />
    <glyph glyph-name="uni0475" unicode="&#x475;" horiz-adv-x="608" 
d="M217 0l-215 517h169l128 -340l58 188q24 83 62.5 120.5t111.5 37.5q24 0 70 -7l-12 -127q-16 4 -32 4q-24 0 -37.5 -14.5t-27.5 -52.5l-122 -326h-153z" />
    <glyph glyph-name="uni0490" unicode="&#x490;" horiz-adv-x="567" 
d="M408 748v170h138v-307h-319v-611h-155v748h336z" />
    <glyph glyph-name="uni0491" unicode="&#x491;" horiz-adv-x="457" 
d="M315 517v150h124v-277h-225v-390h-145v517h246z" />
    <glyph glyph-name="uni0492" unicode="&#x492;" horiz-adv-x="614" 
d="M594 748v-137h-320v-173h193v-132h-193v-306h-154v306h-98v132h98v310h474z" />
    <glyph glyph-name="uni0493" unicode="&#x493;" horiz-adv-x="456" 
d="M447 517v-127h-224v-96h139v-100h-139v-194h-145v194h-58v100h58v223h369z" />
    <glyph glyph-name="uni0496" unicode="&#x496;" horiz-adv-x="1092" 
d="M768 381l185 -244h115v-307h-139v170h-60l-260 351v-351h-154v351l-262 -351h-188l290 381l-267 367h178l249 -348v348h154v-347l247 347h179z" />
    <glyph glyph-name="uni0497" unicode="&#x497;" horiz-adv-x="837" 
d="M618 262l101 -137h96v-275h-124v150h-48l-164 238v-238h-142v237l-165 -237h-169l196 262l-187 255h161l164 -235v235h142v-236l162 236h161z" />
    <glyph glyph-name="uni049A" unicode="&#x49a;" horiz-adv-x="731" 
d="M388 384l200 -247h118v-307h-139v170h-62l-279 349v-349h-154v748h154v-347l264 347h180z" />
    <glyph glyph-name="uni049B" unicode="&#x49b;" horiz-adv-x="581" 
d="M360 269l102 -144h97v-275h-124v150h-54l-167 242v-242h-145v517h145v-236l166 236h158z" />
    <glyph glyph-name="uni04A2" unicode="&#x4a2;" horiz-adv-x="813" 
d="M684 748v-611h104v-307h-139v170h-119v315h-303v-315h-155v748h155v-296h303v296h154z" />
    <glyph glyph-name="uni04A3" unicode="&#x4a3;" horiz-adv-x="655" 
d="M548 517v-392h85v-275h-124v150h-107v203h-187v-203h-146v517h146v-189h187v189h146z" />
    <glyph glyph-name="uni04AE" unicode="&#x4ae;" horiz-adv-x="738" 
d="M550 748h180l-283 -460v-288h-154v288l-284 460h179l181 -307z" />
    <glyph glyph-name="uni04AF" unicode="&#x4af;" horiz-adv-x="567" 
d="M356 -255h-145v264l-209 508h155l127 -336l126 336h155l-209 -509v-263z" />
    <glyph glyph-name="uni04B0" unicode="&#x4b0;" horiz-adv-x="738" 
d="M550 748h180l-240 -390h133v-133h-176v-225h-154v225h-178v133h135l-241 390h179l181 -307z" />
    <glyph glyph-name="uni04B1" unicode="&#x4b1;" horiz-adv-x="567" 
d="M565 517l-209 -509v-8h143v-100h-143v-155h-145v155h-142v100h142v9l-209 508h155l127 -336l126 336h155z" />
    <glyph glyph-name="uni04B2" unicode="&#x4b2;" horiz-adv-x="756" 
d="M475 380l148 -243h108v-307h-139v170h-65l-166 281l-167 -281h-179l231 380l-218 368h178l155 -269l154 269h178z" />
    <glyph glyph-name="uni04B3" unicode="&#x4b3;" horiz-adv-x="576" 
d="M374 260l86 -135h94v-275h-124v150h-57l-100 163l-99 -163h-165l162 263l-160 254h165l97 -160l98 160h164z" />
    <glyph glyph-name="uni04B6" unicode="&#x4b6;" horiz-adv-x="724" 
d="M596 137h104v-307h-139v170h-119v309q-23 -8 -66 -13t-82 -5q-100 0 -154.5 28t-74 77t-19.5 121v231h153v-195q0 -43 10 -70.5t38 -42t82 -14.5q30 0 61 4.5t52 11.5v306h154v-611z" />
    <glyph glyph-name="uni04B7" unicode="&#x4b7;" horiz-adv-x="609" 
d="M503 125h84v-275h-124v150h-105v187q-52 -14 -118 -14q-96 0 -143 42t-47 134v168h143v-139q0 -42 19 -61.5t63 -19.5q51 0 83 13v207h145v-392z" />
    <glyph glyph-name="uni04BA" unicode="&#x4ba;" horiz-adv-x="668" 
d="M72 0v748h154v-276q24 8 66.5 13t82.5 5q99 0 153.5 -28.5t74 -77.5t19.5 -121v-263h-152v227q0 44 -10 71t-38.5 41.5t-82.5 14.5q-71 0 -113 -16v-338h-154z" />
    <glyph glyph-name="uni04BB" unicode="&#x4bb;" horiz-adv-x="610" 
d="M215 473q19 24 51.5 39t79.5 15q91 0 146.5 -56t55.5 -155v-316h-146v288q0 49 -24.5 76t-66.5 27q-43 0 -69.5 -28.5t-26.5 -75.5v-287h-146v777h146v-304z" />
    <glyph glyph-name="uni04C0" unicode="&#x4c0;" horiz-adv-x="299" 
d="M72 748h155v-748h-155v748z" />
    <glyph glyph-name="uni04C1" unicode="&#x4c1;" horiz-adv-x="1062" 
d="M193 0h-188l290 381l-267 367h178l249 -348v348h154v-347l247 347h179l-267 -367l289 -381h-188l-260 351v-351h-154v351zM718 974q0 -82 -51 -125t-136 -43q-84 0 -135 43t-51 125h118q0 -34 18 -54t50 -20t50.5 20t18.5 54h118z" />
    <glyph glyph-name="uni04C2" unicode="&#x4c2;" horiz-adv-x="813" 
d="M172 0h-169l196 262l-187 255h161l164 -235v235h142v-236l162 236h161l-184 -255l193 -262h-168l-164 238v-238h-142v237zM596 763q0 -83 -51 -126.5t-136 -43.5q-84 0 -135 43.5t-51 126.5h118q0 -35 18 -55.5t50 -20.5t50.5 20.5t18.5 55.5h118z" />
    <glyph glyph-name="uni04CF" unicode="&#x4cf;" 
d="M69 777h146v-777h-146v777z" />
    <glyph glyph-name="uni04D8" unicode="&#x4d8;" horiz-adv-x="821" 
d="M219.5 34.5q-81.5 45.5 -125.5 132t-44 205.5v64h571q-6 85 -63 135.5t-149 50.5q-70 0 -119 -30.5t-71 -84.5l-157 13q20 69 68.5 123.5t119.5 85t156 30.5q110 0 194.5 -46t131.5 -132.5t47 -204.5q0 -119 -47 -206.5t-130.5 -134t-189.5 -46.5q-111 0 -192.5 45.5z
M557 173q57 47 66 132h-415q5 -81 58.5 -130t148.5 -49q85 0 142 47z" />
    <glyph glyph-name="uni04D9" unicode="&#x4d9;" horiz-adv-x="593" 
d="M423.5 495q60.5 -33 94 -93.5t33.5 -142.5t-33.5 -143t-93 -93.5t-136.5 -32.5q-74 0 -130 31t-86.5 89t-30.5 137v58h355q-2 49 -30.5 77t-77.5 28q-38 0 -62.5 -15t-32.5 -42l-147 7q9 48 42.5 86.5t84.5 60t111 21.5q79 0 139.5 -33zM364.5 131.5q28.5 27.5 31.5 76.5
h-208q2 -49 27.5 -76.5t73.5 -27.5q47 0 75.5 27.5z" />
    <glyph glyph-name="uni04E2" unicode="&#x4e2;" horiz-adv-x="758" 
d="M72 0v748h154v-464l329 464h131v-748h-155v463l-328 -463h-131zM216 932h340v-103h-340v103z" />
    <glyph glyph-name="uni04E3" unicode="&#x4e3;" horiz-adv-x="635" 
d="M213 0h-144v517h144v-304l209 304h143v-517h-143v302zM157 727h320v-104h-320v104z" />
    <glyph glyph-name="uni04E8" unicode="&#x4e8;" horiz-adv-x="857" 
d="M627.5 711.5q87.5 -47.5 137.5 -135t50 -202.5t-50 -202.5t-137.5 -135t-198.5 -47.5t-199 47.5t-138 135t-50 202.5t50 202.5t138 135t199 47.5t198.5 -47.5zM282.5 574.5q-59.5 -47.5 -76.5 -132.5h445q-17 85 -76.5 132.5t-145.5 47.5q-87 0 -146.5 -47.5zM576 175
q60 49 76 135h-447q16 -86 76 -135t148 -49q87 0 147 49z" />
    <glyph glyph-name="uni04E9" unicode="&#x4e9;" horiz-adv-x="632" 
d="M457.5 493.5q62.5 -33.5 98 -94.5t35.5 -141t-35.5 -141t-98 -94.5t-141.5 -33.5t-141.5 33.5t-98 94.5t-35.5 141t35.5 141t98 94.5t141.5 33.5t141.5 -33.5zM237.5 385.5q-32.5 -27.5 -43.5 -76.5h244q-11 49 -43.5 76.5t-78.5 27.5t-78.5 -27.5zM396 132.5
q33 28.5 43 79.5h-246q10 -51 43 -79.5t80 -28.5t80 28.5z" />
    <glyph glyph-name="uni04EE" unicode="&#x4ee;" horiz-adv-x="726" 
d="M153 2.5q-36 6.5 -65 17.5l35 131q51 -19 89 -19q58 0 84 54l13 26l-298 536h176l199 -376l167 376h165l-259 -554q-32 -69 -55.5 -103.5t-51.5 -57.5q-46 -37 -129 -37q-34 0 -70 6.5zM201 932h340v-103h-340v103z" />
    <glyph glyph-name="uni04EF" unicode="&#x4ef;" horiz-adv-x="567" 
d="M408 517h156l-331 -772h-159l132 301l-202 471h155l125 -315zM123 727h320v-104h-320v104z" />
    <glyph glyph-name="uni10D0" unicode="&#x10d0;" horiz-adv-x="551" 
d="M346 496q0 -34 16.5 -57.5t51.5 -54.5q31 -27 50 -49.5t33 -57t14 -82.5q0 -66 -32 -112.5t-86 -70t-120 -23.5q-67 0 -120.5 27t-84.5 76.5t-31 114.5q0 34 7 66l143 -5q-4 -32 -4 -51q0 -48 24.5 -77.5t66.5 -29.5q43 0 68 23t25 66q0 33 -17 55t-54 53
q-32 26 -52.5 48t-33 57t-9.5 84h145z" />
    <glyph glyph-name="uni10D1" unicode="&#x10d1;" horiz-adv-x="618" 
d="M394 494q81 -24 130.5 -89.5t49.5 -157.5q0 -77 -34.5 -135.5t-95 -90.5t-135.5 -32t-135.5 32t-94.5 90.5t-34 135.5q0 99 54 166t144 86v72q0 19 -8.5 31.5t-27.5 30.5q-20 19 -32 34.5t-19.5 42.5t-4.5 67h151q0 -31 10.5 -48.5t32.5 -38.5q24 -23 36.5 -45t12.5 -62
v-89zM394 150.5q32 35.5 32 96.5q0 62 -32.5 98t-84.5 36t-84.5 -36t-32.5 -98q0 -61 32 -96.5t85 -35.5t85 35.5z" />
    <glyph glyph-name="uni10D2" unicode="&#x10d2;" horiz-adv-x="610" 
d="M169 -232q-60 32 -94.5 90.5t-34.5 135.5q0 109 65.5 176t172.5 82q84 9 84 77q0 30 -16.5 45.5t-46.5 15.5t-45.5 -17.5t-16.5 -50.5l-149 5q4 80 61 130t150 50q63 0 110 -21.5t72.5 -58.5t25.5 -80q0 -45 -17.5 -77t-53.5 -53q64 -30 99 -88t35 -135t-35 -135.5
t-95 -90.5t-135 -32q-76 0 -136 32zM389.5 -103q32.5 36 32.5 97t-32.5 97.5t-84.5 36.5q-53 0 -85.5 -36t-32.5 -98t32.5 -97.5t85.5 -35.5q52 0 84.5 36z" />
    <glyph glyph-name="uni10D3" unicode="&#x10d3;" horiz-adv-x="875" 
d="M534 -260q-9 59 -57 82t-122 23h-237v115h69q-68 39 -105 112.5t-37 168.5q0 88 29.5 148t78.5 89t109 29q55 0 100 -24t64 -71q20 45 68 70t106 25q64 0 116.5 -30t83 -84.5t30.5 -124.5t-30.5 -123.5t-84.5 -83.5t-123 -30q-68 0 -122.5 29.5t-85.5 83.5t-31 124v18
q0 43 -19 70t-56 27q-40 0 -63.5 -36t-23.5 -110q0 -85 31.5 -143t82.5 -88.5t111 -36.5l32 -3q105 -12 165.5 -67.5t67.5 -153.5zM660 186q25 31 25 83t-25 83t-68 31t-68 -31t-25 -83t25 -83t68 -31t68 31z" />
    <glyph glyph-name="uni10D4" unicode="&#x10d4;" horiz-adv-x="608" 
d="M160.5 -235.5q-57.5 30.5 -89 84.5t-31.5 124q0 40 12 83l142 -6q-7 -31 -7 -63q0 -60 28.5 -93.5t80.5 -33.5q50 0 80.5 32.5t30.5 92.5v289q0 56 -28.5 83t-73.5 27q-46 0 -71.5 -28.5t-25.5 -75.5q0 -19 5 -51l-147 -5q-6 35 -6 67q0 65 31.5 114t86.5 75.5t124 26.5
q71 0 128 -28.5t90 -82.5t33 -128v-283q0 -116 -68.5 -183.5t-189.5 -67.5q-77 0 -134.5 30.5z" />
    <glyph glyph-name="uni10D5" unicode="&#x10d5;" horiz-adv-x="609" 
d="M435.5 480q56.5 -27 89.5 -77.5t33 -119.5q0 -56 -24 -94.5t-72 -56.5q49 -16 77.5 -62.5t28.5 -110.5q0 -63 -31 -114.5t-90 -81t-139 -29.5q-83 0 -143.5 31.5t-92.5 87t-32 125.5q0 32 7 63l143 -6q-4 -20 -4 -43q0 -63 32.5 -98t87.5 -35q53 0 84.5 31t31.5 84
q0 51 -30.5 78.5t-84.5 27.5h-31v119h40q46 0 71 23.5t25 65.5q0 44 -28.5 70t-74.5 26q-49 0 -75.5 -29t-26.5 -80q0 -10 2 -32l-147 -4q-4 32 -4 47q0 66 32.5 116t90 77.5t128.5 27.5q70 0 126.5 -27z" />
    <glyph glyph-name="uni10D6" unicode="&#x10d6;" horiz-adv-x="644" 
d="M199 20.5q-60 31.5 -94.5 89t-34.5 132.5q0 93 60 154q-55 19 -90 66.5t-35 112.5q0 63 28.5 110.5t79.5 73.5t116 26t116.5 -25t81 -70t29.5 -104q0 -31 -8.5 -57t-27.5 -50q84 -18 131.5 -80t47.5 -152q0 -77 -34.5 -135.5t-95 -90.5t-135.5 -32t-135 31.5zM291 513
q24 25 24 62q0 39 -23 64t-63 25q-38 0 -61.5 -25t-23.5 -63q0 -37 23.5 -62.5t61.5 -25.5t62 25zM419.5 150.5q32.5 35.5 32.5 96.5q0 60 -33 96t-85 36t-84.5 -36t-32.5 -96q0 -61 32 -96.5t85 -35.5t85.5 35.5z" />
    <glyph glyph-name="uni10D7" unicode="&#x10d7;" horiz-adv-x="893" 
d="M164 20.5q-56 31.5 -87.5 90t-31.5 136.5t31.5 137t86 91t122.5 32q59 0 108.5 -26t69.5 -74q22 49 68 74.5t101 25.5q60 0 109 -29.5t78 -90.5t29 -152q0 -65 -12.5 -121.5t-34.5 -113.5h-143q23 64 33.5 116t10.5 114q0 78 -22.5 115.5t-60.5 37.5t-59 -30t-21 -87v-19
q0 -78 -32 -136.5t-88 -90t-128 -31.5q-71 0 -127 31.5zM365.5 149q27.5 36 27.5 98q0 64 -27.5 100t-74.5 36q-46 0 -73 -36.5t-27 -99.5t27 -98.5t73 -35.5q47 0 74.5 36z" />
    <glyph glyph-name="uni10D8" unicode="&#x10d8;" horiz-adv-x="587" 
d="M91 0q-46 117 -46 234q0 130 67 201.5t181 71.5t181.5 -71.5t67.5 -201.5q0 -64 -12.5 -120.5t-34.5 -113.5h-143q22 63 32.5 114t10.5 111q0 157 -102 157q-51 0 -76.5 -40.5t-25.5 -116.5q0 -59 10.5 -110t33.5 -115h-144z" />
    <glyph glyph-name="uni10D9" unicode="&#x10d9;" horiz-adv-x="601" 
d="M312 506q70 0 123.5 -26.5t82.5 -74t29 -108.5q0 -53 -24 -94.5t-73 -60.5q49 -16 77.5 -62t28.5 -110q0 -65 -30.5 -119t-90 -85.5t-140.5 -31.5t-141 31.5t-92 87t-32 125.5q0 32 7 64l144 -7q-5 -23 -5 -43q0 -63 32 -97.5t86 -34.5q53 0 84 31.5t31 86.5q0 53 -30 82
t-83 29h-38v122h47q45 0 69.5 22t24.5 61t-26 64.5t-69 27.5z" />
    <glyph glyph-name="uni10DA" unicode="&#x10da;" horiz-adv-x="1137" 
d="M697 -260q-9 64 -70 89t-158 25h-329v115h74q-81 41 -125 115t-44 175q0 78 30 134t79.5 84.5t107.5 28.5q50 0 92 -21.5t64 -71.5q22 49 62.5 71t87.5 22t89 -21.5t64 -71.5q23 50 64.5 71.5t91.5 21.5q60 0 108.5 -29t78 -91.5t29.5 -156.5q0 -83 -30 -193l-144 7
q27 86 27 187q0 78 -22 115t-59 37q-34 0 -54 -28t-20 -84v-157h-146v176q0 46 -21 69.5t-55 23.5q-37 0 -57 -23.5t-20 -69.5v-176h-146v157q0 55 -20 83.5t-53 28.5q-37 0 -59.5 -36t-22.5 -108q0 -137 82 -195.5t193 -63.5l72 -3q138 -5 217.5 -65.5t87.5 -165.5z" />
    <glyph glyph-name="uni10DB" unicode="&#x10db;" horiz-adv-x="623" 
d="M167 22q-59 33 -90.5 91.5t-31.5 134.5t30 135t84 91.5t126 32.5q44 0 79.5 -13t57.5 -38v99q0 54 -32 83t-83 29q-50 0 -81 -27t-31 -70l-147 5q0 62 34 110.5t92.5 75.5t129.5 27q76 0 136 -30t94 -84.5t34 -124.5v-301q0 -77 -31 -135.5t-90 -91t-141 -32.5
q-80 0 -139 33zM390 149q32 34 32 88v22q0 56 -31.5 89.5t-83.5 33.5t-84 -36t-32 -98q0 -61 32 -97t84 -36q51 0 83 34z" />
    <glyph glyph-name="uni10DC" unicode="&#x10dc;" horiz-adv-x="623" 
d="M176 21.5q-59 32.5 -90 91t-31 135.5v317q0 98 62.5 155t171.5 57h255v-125h-244q-99 0 -99 -85v-111q22 25 58 38t80 13q71 0 125.5 -32.5t84.5 -91.5t30 -135t-31.5 -134.5t-90.5 -91.5t-140 -33q-82 0 -141 32.5zM400 151q32 36 32 97q0 62 -32 98t-84 36t-83.5 -33.5
t-31.5 -89.5v-22q0 -54 32 -88t83 -34q52 0 84 36z" />
    <glyph glyph-name="uni10DD" unicode="&#x10dd;" horiz-adv-x="854" 
d="M91 0q-46 119 -46 235q0 91 29 152t78.5 90.5t109.5 29.5q120 0 164 -93q45 93 165 93q61 0 110 -29.5t78.5 -90.5t29.5 -152q0 -65 -13 -121t-35 -114h-143q23 64 33.5 116t10.5 114q0 78 -22.5 115.5t-61.5 37.5t-59 -31t-20 -91v-143h-146v143q0 61 -19 91.5t-58 30.5
q-40 0 -62.5 -37.5t-22.5 -115.5q0 -64 10.5 -115.5t33.5 -114.5h-144z" />
    <glyph glyph-name="uni10DE" unicode="&#x10de;" horiz-adv-x="603" 
d="M162 17.5q-59 29.5 -90.5 81.5t-31.5 119q0 32 7 63l144 -7q-4 -19 -4 -41q0 -58 31 -89t82 -31t82.5 31t31.5 84q0 51 -30.5 78.5t-85.5 27.5h-30v119h36q46 0 68 18.5t22 50.5q0 30 -17.5 49.5t-54.5 45.5q-45 32 -70.5 66.5t-24.5 93.5l146 7q2 -30 17.5 -49t49.5 -44
q49 -38 74.5 -77t25.5 -92q0 -46 -23.5 -80.5t-68.5 -52.5q50 -16 80.5 -63t30.5 -113q0 -64 -31 -115t-89.5 -80.5t-138.5 -29.5q-79 0 -138 29.5z" />
    <glyph glyph-name="uni10DF" unicode="&#x10df;" horiz-adv-x="614" 
d="M167 -236q-58 30 -89.5 84t-31.5 123q0 42 12 85l142 -6q-7 -38 -7 -64q0 -58 29 -92t80 -34q50 0 80.5 32.5t30.5 92.5v404l-192 -35q33 -5 59.5 -30.5t26.5 -72.5q0 -60 -45 -93t-118 -33q-64 0 -99 20l24 80q26 -13 54 -13q23 0 40.5 12.5t17.5 37.5q0 26 -17.5 39.5
t-43.5 13.5q-18 0 -36 -4l-4 126l333 59h146v-511q0 -115 -68 -183t-187 -68q-79 0 -137 30z" />
    <glyph glyph-name="uni10E0" unicode="&#x10e0;" horiz-adv-x="855" 
d="M701.5 477.5q49.5 -29.5 79 -90.5t29.5 -152q0 -65 -13 -121t-35 -114h-144q23 64 34 115.5t11 114.5q0 78 -22.5 115.5t-61.5 37.5q-79 0 -79 -122v-143h-146v143q0 122 -77 122q-40 0 -62.5 -37t-22.5 -116q0 -63 10 -114.5t33 -115.5h-143q-24 72 -35.5 140t-11.5 156
q0 143 45.5 225.5t106.5 118t151 64.5q60 19 89 35t36 45l150 -7q-5 -59 -39 -95.5t-81 -56t-124 -40.5q-65 -18 -104.5 -32.5t-70.5 -39.5t-43 -63q21 30 54 43.5t67 13.5q102 0 145 -93q45 93 165 93q60 0 109.5 -29.5z" />
    <glyph glyph-name="uni10E1" unicode="&#x10e1;" horiz-adv-x="612" 
d="M127.5 57q-67.5 68 -67.5 183v537h145v-542q0 -56 30.5 -88t77.5 -32q45 0 76 31.5t31 79.5q0 33 -8 56.5t-25 56.5q-21 40 -30.5 73.5t-6.5 84.5h145q0 -38 8.5 -65t25.5 -59q19 -39 29 -71t10 -82q0 -62 -31 -115t-89 -84.5t-134 -31.5q-119 0 -186.5 68z" />
    <glyph glyph-name="uni10E2" unicode="&#x10e2;" horiz-adv-x="819" 
d="M485 493q87 -15 154 -64t105 -128.5t38 -181.5q0 -117 -48.5 -203t-133 -131.5t-190.5 -45.5t-190.5 45.5t-133.5 131.5t-49 203q0 103 38.5 182.5t107 128.5t156.5 63v122h146v-122zM526.5 -105.5q51.5 29.5 80.5 87t29 137.5q0 106 -44 169.5t-120 81.5q13 -41 13 -83
v-197h-146v197q0 42 13 84q-78 -17 -123.5 -80.5t-45.5 -171.5q0 -80 29 -137.5t80.5 -87t117.5 -29.5q65 0 116.5 29.5z" />
    <glyph glyph-name="uni10E3" unicode="&#x10e3;" horiz-adv-x="615" 
d="M167 -235.5q-58 30.5 -89 84.5t-31 124q0 40 12 83l142 -6q-8 -35 -8 -63q0 -59 29 -93t81 -34q50 0 80.5 32t30.5 93v338q0 32 -17 49t-44 17t-43.5 -17t-16.5 -49v-147h-145v117q0 39 -19.5 59t-54.5 20h-44v129h68q92 0 128 -78q21 42 61.5 63t89.5 21q54 0 95.5 -24
t64.5 -66t23 -95v-337q0 -116 -68.5 -183.5t-189.5 -67.5q-77 0 -135 30.5z" />
    <glyph glyph-name="uni10E4" unicode="&#x10e4;" horiz-adv-x="862" 
d="M353 -236.5q-67 27.5 -103 77.5t-36 118q0 16 1 24l146 -4q-5 -55 34.5 -88t113.5 -33q73 0 110 31.5t37 85.5q0 42 -22.5 68.5t-64.5 29.5l-13 1v119h25q47 0 71.5 23t24.5 70q0 46 -22 71.5t-60 25.5t-58.5 -25.5t-20.5 -72.5v-27q0 -62 -31 -110t-85 -74.5t-121 -26.5
q-70 0 -124 29t-84.5 81t-30.5 119t30.5 119.5t83 82t116.5 29.5q58 0 105.5 -25t67.5 -70q19 47 64 71t100 24q58 0 107.5 -25.5t79 -73t29.5 -110.5q-1 -67 -35.5 -111.5t-87.5 -62.5q48 -14 75 -58t27 -105q0 -65 -32.5 -116t-97.5 -80t-160 -29q-92 0 -159 27.5z
M347 198.5q25 29.5 25 78.5q0 48 -25.5 78t-68.5 30t-68.5 -30t-25.5 -78q0 -49 25 -78.5t69 -29.5t69 29.5z" />
    <glyph glyph-name="uni10E5" unicode="&#x10e5;" horiz-adv-x="613" 
d="M160.5 -235.5q-57.5 30.5 -89 84.5t-31.5 124q0 40 12 83l142 -6q-7 -31 -7 -63q0 -60 28.5 -93.5t80.5 -33.5q50 0 80.5 32.5t30.5 92.5v281q0 55 -29 86t-77 31q-42 0 -67.5 -28.5t-25.5 -74.5q0 -19 5 -51l-147 -5q-6 35 -6 67q0 65 29 114t78 75.5t108 26.5
q40 0 75.5 -13.5t56.5 -37.5v321h146v-792q0 -116 -68.5 -183.5t-189.5 -67.5q-77 0 -134.5 30.5z" />
    <glyph glyph-name="uni10E6" unicode="&#x10e6;" horiz-adv-x="856" 
d="M533 -260q-9 65 -56.5 89.5t-121.5 24.5h-244v115h69q-67 38 -100 109t-33 160q0 90 29.5 150.5t79 89.5t109.5 29q119 0 164 -93q47 93 165 93q60 0 109.5 -29.5t79 -90.5t29.5 -153q0 -97 -32 -198l-142 7q27 91 27 184q0 80 -22.5 118t-62.5 38q-78 0 -78 -122v-143
h-146v143q0 122 -77 122q-40 0 -62.5 -37.5t-22.5 -117.5q0 -230 208 -250l31 -2q106 -9 172.5 -68t73.5 -163z" />
    <glyph glyph-name="uni10E7" unicode="&#x10e7;" horiz-adv-x="622" 
d="M161.5 -237q-58.5 29 -90 81.5t-31.5 120.5q0 15 4 45l144 -4q-1 -9 -1 -32q0 -53 31 -83.5t83 -30.5q51 0 81.5 32.5t30.5 92.5v135q-22 -24 -58 -38t-80 -14q-62 0 -114 28t-83.5 82t-31.5 130q0 59 8.5 99.5t25.5 88.5h144q-30 -90 -30 -172q0 -66 28 -99.5t79 -33.5
q52 0 81.5 29.5t30.5 83.5v192h146v-511q0 -116 -69 -183.5t-191 -67.5q-79 0 -137.5 29z" />
    <glyph glyph-name="uni10E8" unicode="&#x10e8;" horiz-adv-x="623" 
d="M167 22q-59 33 -90.5 91.5t-31.5 134.5t30 135t84.5 91.5t125.5 32.5q44 0 80 -13t58 -38l-1 144q0 32 -17 49.5t-44 17.5q-25 0 -42.5 -17t-17.5 -45v-43h-145v22q0 33 -20.5 53.5t-53.5 20.5q-21 0 -36 -3v124q23 5 61 5q42 0 75.5 -20t52.5 -62q21 42 61.5 62.5
t89.5 20.5q54 0 95.5 -24t64 -66t22.5 -94v-353q0 -77 -31 -135.5t-90 -91t-141 -32.5q-80 0 -139 33zM390.5 149q31.5 34 31.5 88v22q0 56 -31.5 89.5t-83.5 33.5t-84 -36t-32 -98q0 -61 32 -97t84 -36t83.5 34z" />
    <glyph glyph-name="uni10E9" unicode="&#x10e9;" horiz-adv-x="606" 
d="M61 581q0 61 27 107t77 71.5t117 25.5q62 0 109 -22t72 -60.5t25 -86.5q0 -85 -80 -135q75 -18 114 -78.5t39 -154.5q0 -73 -12.5 -131.5t-34.5 -115.5l-143 -1q23 64 33 116.5t10 122.5q0 69 -27.5 106t-76.5 37q-46 0 -75 -33.5t-29 -89.5v-259h-145v581zM205 449
q25 30 63 47q40 19 59.5 44.5t19.5 59.5q0 33 -18 51t-49 18q-33 0 -54 -21.5t-21 -64.5v-134z" />
    <glyph glyph-name="uni10EA" unicode="&#x10ea;" horiz-adv-x="698" 
d="M203 -221q-76 40 -121 127.5t-45 224.5q0 195 77 365h143q-33 -82 -53 -167.5t-20 -197.5q0 -151 55 -209t135 -58q64 0 103 32.5t39 82.5t-32 78t-88 28h-63v119h83q45 0 67 19t22 51q0 22 -11 38.5t-33 37.5q-32 32 -49.5 63t-16.5 83h146q2 -27 14.5 -47t37.5 -47
q29 -32 44 -58.5t15 -66.5q0 -47 -26 -84t-76 -54q50 -15 80.5 -62t30.5 -113q0 -61 -34 -112.5t-99 -82t-154 -30.5q-95 0 -171 40z" />
    <glyph glyph-name="uni10EB" unicode="&#x10eb;" horiz-adv-x="628" 
d="M167 22q-59 33 -90.5 91.5t-31.5 134.5t30 135t84 91.5t126 32.5q44 0 79.5 -13t57.5 -38v321h146v-529q0 -77 -31 -135.5t-90 -91t-141 -32.5q-80 0 -139 33zM390 149q32 34 32 88v22q0 56 -31.5 89.5t-83.5 33.5t-84 -36t-32 -98q0 -61 32 -97t84 -36q51 0 83 34z" />
    <glyph glyph-name="uni10EC" unicode="&#x10ec;" horiz-adv-x="624" 
d="M176 21.5q-59 32.5 -90 91t-31 135.5v353q0 52 22.5 94t64 66t95.5 24q49 0 90 -20.5t62 -62.5q19 42 52.5 62t74.5 20q39 0 62 -5v-124q-16 3 -36 3q-34 0 -54 -20.5t-20 -53.5v-22h-145v43q0 28 -17.5 45t-43.5 17t-43.5 -17.5t-17.5 -49.5v-144q22 25 57.5 38t79.5 13
q72 0 126.5 -32.5t84.5 -91.5t30 -135t-31.5 -134.5t-90.5 -91.5t-140 -33q-82 0 -141 32.5zM400 151q32 36 32 97q0 62 -32 98t-84 36t-83.5 -33.5t-31.5 -89.5v-22q0 -54 32 -88t83 -34q52 0 84 36z" />
    <glyph glyph-name="uni10ED" unicode="&#x10ed;" horiz-adv-x="707" 
d="M162.5 -235.5q-57.5 30.5 -89 84.5t-31.5 124q0 40 12 83l142 -6q-7 -31 -7 -63q0 -60 28.5 -93.5t80.5 -33.5q50 0 80.5 32t30.5 93v222l-45 -30q-28 -18 -63 -28t-69 -10q-47 0 -90 23t-69.5 65t-26.5 96t26.5 96t69.5 65t90 23q35 0 69.5 -9.5t62.5 -27.5l45 -31v338
h142v-345l115 78l11 -120l-126 -67l126 -67l-11 -120l-115 78v-229q0 -116 -66.5 -183.5t-187.5 -67.5q-77 0 -134.5 30.5zM363 293l46 30l-46 30q-50 32 -98 32q-33 0 -53.5 -16t-20.5 -46t20.5 -46t53.5 -16q51 0 98 32z" />
    <glyph glyph-name="uni10EE" unicode="&#x10ee;" horiz-adv-x="629" 
d="M182 21.5q-59 32.5 -90 91t-31 135.5v529h145v-321q22 25 58 38t80 13q71 0 125.5 -32.5t84.5 -91.5t30 -135t-31.5 -134.5t-90.5 -91.5t-139 -33q-82 0 -141 32.5zM405.5 151q31.5 36 31.5 97q0 62 -31.5 98t-83.5 36q-53 0 -84 -33.5t-31 -89.5v-22q0 -54 31.5 -88
t83.5 -34t83.5 36z" />
    <glyph glyph-name="uni10EF" unicode="&#x10ef;" horiz-adv-x="604" 
d="M372 187q92 -11 142 -73t50 -151q0 -66 -31 -118t-90 -81.5t-141 -29.5q-79 0 -138.5 29.5t-91.5 82.5t-32 122q0 14 4 50l145 -4q-2 -13 -2 -37q0 -54 30.5 -85.5t83.5 -31.5q54 0 85 28t31 80q0 50 -30 78.5t-83 28.5h-73v171q-63 -9 -106 -9q-36 0 -75 6l6 125
q36 -7 76 -7t99 9v126h141v-104q54 7 97 7q41 0 85 -6l-6 -124q-35 6 -84 6q-47 0 -92 -6v-82z" />
    <glyph glyph-name="uni10F0" unicode="&#x10f0;" horiz-adv-x="598" 
d="M523 254q30 -34 30 -87q0 -50 -30.5 -90.5t-89.5 -64.5t-139 -24t-140.5 27.5t-91.5 79t-27 120.5l146 -4q-2 -45 30.5 -71.5t82.5 -26.5q52 0 83 18t31 52q0 30 -26 47.5t-73 17.5h-50v106h73q31 0 48.5 12t17.5 34t-18 34t-48 12h-73v105h72q26 0 40 8.5t14 25.5
t-14 27.5t-45 26.5q-33 17 -55 32t-37.5 41.5t-15.5 64.5l147 7q2 -21 18.5 -35.5t51.5 -35.5q31 -18 50 -32t32.5 -36t13.5 -52q0 -35 -21.5 -61.5t-63.5 -36.5q45 -5 71 -32t26 -69q0 -79 -97 -98q47 -8 77 -42z" />
    <glyph glyph-name="uni1C90" unicode="&#x1c90;" horiz-adv-x="623" 
d="M385 748q0 -44 11.5 -79.5t28 -62.5t45.5 -64q34 -45 54.5 -79t35 -83.5t14.5 -115.5q0 -88 -35.5 -150t-96.5 -93.5t-136 -31.5q-76 0 -136 32t-94.5 94.5t-34.5 150.5q0 58 13 110l151 -4q-10 -47 -10 -92q0 -71 29.5 -112t82.5 -41q52 0 81 36.5t29 104.5q0 56 -20 97
t-62 95q-35 45 -56.5 80.5t-35.5 87.5t-12 120h154z" />
    <glyph glyph-name="uni1C91" unicode="&#x1c91;" horiz-adv-x="633" 
d="M409 475q83 -23 133 -86t50 -151q0 -74 -36 -130.5t-99 -87.5t-141 -31q-79 0 -141.5 31t-98 87.5t-35.5 130.5q0 97 59 162.5t155 82.5v57q0 23 -9.5 37t-30.5 33q-20 18 -31.5 33t-18.5 41t-4 64h152q0 -30 11 -47t34 -37q25 -22 38 -43.5t13 -60.5v-85zM403 153.5
q34 31.5 34 84.5t-34 85t-87 32t-86.5 -32t-33.5 -85t33.5 -84.5t86.5 -31.5t87 31.5z" />
    <glyph glyph-name="uni1C92" unicode="&#x1c92;" horiz-adv-x="639" 
d="M178 20q-63 31 -98.5 87.5t-35.5 130.5q0 104 66 170t175 79q47 5 68.5 23.5t21.5 53.5q0 30 -16.5 46.5t-47.5 16.5q-30 0 -47 -17.5t-16 -48.5l-160 5q2 54 30.5 98t79 69.5t115.5 25.5t114.5 -24.5t76.5 -64.5t27 -84q0 -91 -74 -129q64 -29 101.5 -86t37.5 -133
q0 -74 -36 -130.5t-99.5 -87.5t-141.5 -31t-141 31zM406 153.5q34 31.5 34 84.5t-34 85t-87 32t-86 -32t-33 -85t33 -84.5t86 -31.5t87 31.5z" />
    <glyph glyph-name="uni1C93" unicode="&#x1c93;" horiz-adv-x="912" 
d="M564 0q-19 99 -188 99h-248v116h74q-69 40 -111 114t-42 163t31 149t83.5 89t115.5 29q56 0 104 -24.5t71 -69.5q24 43 72.5 68.5t107.5 25.5q68 0 123 -30t86.5 -85t31.5 -126q0 -68 -32 -121.5t-89 -83t-128 -29.5q-72 0 -129.5 29t-90 80.5t-32.5 117.5v20
q0 43 -20.5 69.5t-57.5 26.5q-91 0 -91 -138q0 -125 68 -188.5t168 -73.5l33 -3q110 -12 175 -68.5t72 -155.5h-157zM695.5 443q26.5 29 26.5 78t-26.5 78.5t-70.5 29.5t-71 -29.5t-27 -78.5t26.5 -78t71.5 -29q44 0 70.5 29z" />
    <glyph glyph-name="uni1C94" unicode="&#x1c94;" horiz-adv-x="644" 
d="M170.5 20q-60.5 31 -93.5 86t-33 125q0 41 13 83l149 -6q-7 -37 -7 -61q0 -56 30 -89t83 -33q51 0 82.5 30.5t31.5 87.5v275q-1 51 -30 78t-73 27q-48 0 -74.5 -27.5t-26.5 -75.5q0 -19 3 -42l-154 -4q-6 35 -6 67q0 65 34 114.5t92.5 76.5t131.5 27q74 0 132.5 -29
t91.5 -83t33 -128v-277q0 -76 -32 -133t-92.5 -88.5t-144.5 -31.5q-80 0 -140.5 31z" />
    <glyph glyph-name="uni1C95" unicode="&#x1c95;" horiz-adv-x="646" 
d="M458.5 732q59.5 -27 93.5 -78t34 -119q0 -54 -25.5 -92.5t-75.5 -58.5q52 -16 82 -62t30 -108q0 -63 -33 -114.5t-94.5 -81t-145.5 -29.5q-86 0 -149.5 31.5t-97 87t-33.5 126.5q0 31 7 62l151 -6q-4 -20 -4 -42q0 -61 33.5 -94t90.5 -33q55 0 87 29t32 80q0 49 -31 75
t-87 26h-25v123h34q47 0 73 22.5t26 62.5q0 41 -29.5 65t-76.5 24q-50 0 -77.5 -26.5t-27.5 -74.5q0 -11 2 -31l-154 -5q-4 32 -4 47q0 65 34 115.5t93.5 78t133.5 27.5t133.5 -27z" />
    <glyph glyph-name="uni1C96" unicode="&#x1c96;" horiz-adv-x="671" 
d="M213.5 20q-62.5 31 -98.5 87.5t-36 130.5q0 47 17.5 87t50.5 69q-51 18 -84.5 61t-33.5 100q0 60 29.5 105.5t82.5 71t121 25.5t122 -24t84.5 -66.5t30.5 -97.5q0 -66 -43 -112q78 -18 126.5 -77.5t48.5 -141.5q0 -74 -36 -130.5t-99 -87.5t-141 -31q-79 0 -141.5 31z
M323.5 498q23.5 22 23.5 54t-23.5 54.5t-60.5 22.5q-36 0 -59.5 -22.5t-23.5 -54.5q0 -31 24 -53.5t59 -22.5q37 0 60.5 22zM441.5 153.5q33.5 31.5 33.5 84.5t-33.5 85t-87.5 32q-52 0 -85.5 -32t-33.5 -85t33 -84.5t86 -31.5q54 0 87.5 31.5z" />
    <glyph glyph-name="uni1C97" unicode="&#x1c97;" horiz-adv-x="953" 
d="M183 22.5q-59 33.5 -92 97t-33 150.5v209q0 87 31.5 150.5t88.5 96.5t131 33q62 0 111 -23.5t76 -76.5q25 52 73.5 76t100.5 24q104 0 164 -67.5t60 -195.5v-125q0 -110 -14 -197.5t-41 -173.5h-151q51 175 51 367v140q0 58 -22 87t-61 29q-82 0 -82 -116v-240
q0 -86 -33.5 -149t-92 -96t-132.5 -33t-133 33.5zM392 160.5q27 35.5 27 107.5v212q0 72 -27 107.5t-76 35.5t-76 -35.5t-27 -107.5v-211q0 -73 27 -108.5t76 -35.5t76 35.5z" />
    <glyph glyph-name="uni1C98" unicode="&#x1c98;" horiz-adv-x="645" 
d="M113 0q-27 85 -41 172t-14 192v115q0 87 34 150.5t94.5 96.5t136.5 33q75 0 135 -33t94 -95.5t34 -148.5v-118q0 -105 -14.5 -192.5t-40.5 -171.5h-150q51 175 51 357v117q0 72 -29 110.5t-80 38.5q-52 0 -81 -38.5t-29 -111.5v-116q0 -184 52 -357h-152z" />
    <glyph glyph-name="uni1C99" unicode="&#x1c99;" horiz-adv-x="629" 
d="M161.5 20.5q-62.5 31.5 -96 87t-33.5 126.5q0 31 7 62l151 -6q-3 -15 -3 -42q0 -61 32 -94t87 -33t87 30.5t32 81.5t-31 78t-86 27h-38v128h48q48 0 72.5 20.5t24.5 57.5q0 35 -26 59t-71 26l8 127q73 0 128.5 -26.5t85.5 -74t30 -108.5q0 -52 -25 -93.5t-74 -60.5
q49 -15 79.5 -64t30.5 -111q0 -65 -32.5 -117t-94.5 -82t-146 -30t-146.5 31.5z" />
    <glyph glyph-name="uni1C9A" unicode="&#x1c9a;" horiz-adv-x="1185" 
d="M729 0q-10 63 -73.5 85.5t-163.5 22.5h-343v116h78q-85 35 -131.5 109.5t-46.5 175.5q0 79 31.5 135.5t83.5 85.5t114 29q51 0 94.5 -22t66.5 -72q22 49 64.5 71.5t92.5 22.5q48 0 92.5 -22.5t65.5 -71.5q24 50 66.5 72t95.5 22q63 0 114.5 -29.5t82 -92t30.5 -156.5
q0 -87 -30 -189l-154 8q29 87 29 183q0 72 -23 106.5t-61 34.5q-35 0 -55.5 -26.5t-20.5 -78.5v-140h-153v154q0 43 -22 67t-57 24q-36 0 -56.5 -23.5t-20.5 -67.5v-154h-155v140q0 51 -20.5 78t-53.5 27q-38 0 -61.5 -33t-23.5 -97q0 -137 84.5 -192.5t200.5 -59.5l75 -3
q145 -5 229.5 -67t90.5 -172h-156z" />
    <glyph glyph-name="uni1C9B" unicode="&#x1c9b;" horiz-adv-x="658" 
d="M175.5 21q-61.5 32 -94 89t-32.5 130t31 130t87.5 89t130.5 32q45 0 82 -15.5t61 -41.5l-1 97q0 47 -33 74t-84 27q-48 0 -80.5 -24.5t-32.5 -61.5l-158 5q0 61 35.5 108.5t97.5 73.5t137 26q77 0 139 -29.5t97.5 -83t35.5 -122.5v-277q0 -78 -32.5 -136t-94 -90
t-146.5 -32q-84 0 -145.5 32zM407 152.5q33 30.5 33 77.5v20q0 49 -32.5 78.5t-84.5 29.5q-54 0 -86 -31.5t-32 -85.5q0 -55 32.5 -87t85.5 -32q51 0 84 30.5z" />
    <glyph glyph-name="uni1C9C" unicode="&#x1c9c;" horiz-adv-x="657" 
d="M136 59q-72 70 -72 188v298q0 101 62.5 152t172.5 51h259v-135h-255q-40 0 -63 -21t-23 -60l-1 -98q24 26 61 41.5t82 15.5q74 0 130.5 -32t87.5 -89t31 -130t-32.5 -130t-94 -89t-145.5 -32q-128 0 -200 70zM419.5 154q32.5 32 32.5 87q0 54 -32 85.5t-85 31.5
t-85.5 -29.5t-32.5 -78.5v-19q0 -48 33 -78.5t85 -30.5t84.5 32z" />
    <glyph glyph-name="uni1C9D" unicode="&#x1c9d;" horiz-adv-x="911" 
d="M113 0q-27 86 -41 173.5t-14 197.5v125q0 127 63 195t167 68q120 0 168 -99q47 99 174 99q103 0 163 -67.5t60 -195.5v-125q0 -110 -14 -197.5t-41 -173.5h-152q53 177 53 367v140q0 58 -22.5 87t-62.5 29q-39 0 -60.5 -28.5t-21.5 -87.5v-291h-154v291q0 116 -82 116
q-39 0 -61 -29t-22 -87v-140q0 -194 52 -367h-152z" />
    <glyph glyph-name="uni1C9E" unicode="&#x1c9e;" horiz-adv-x="625" 
d="M163 16.5q-62 28.5 -96.5 80t-34.5 117.5q2 32 7 56l152 -7q-2 -9 -2 -29q0 -53 31.5 -83.5t84.5 -30.5t85 26.5t32 72.5t-30 71.5t-83 25.5h-37v126h46q83 0 83 55q0 27 -18 45t-57 44q-45 29 -72 65.5t-26 96.5h157q1 -24 15.5 -40.5t50.5 -42.5q51 -37 78 -74.5
t27 -88.5q0 -42 -24 -76.5t-72 -51.5q52 -16 84 -60.5t32 -108.5q0 -61 -32.5 -110t-94 -78t-144.5 -29q-80 0 -142 28.5z" />
    <glyph glyph-name="uni1C9F" unicode="&#x1c9f;" horiz-adv-x="655" 
d="M173.5 15.5q-62.5 27.5 -97.5 76.5t-35 112q0 32 6 66l152 -7q-2 -18 -2 -29q0 -53 31.5 -83.5t85.5 -30.5t85.5 29.5t31.5 87.5v396l-196 -31q21 -3 42 -18t35.5 -40.5t14.5 -58.5q0 -68 -47 -101t-126 -33q-58 0 -106 23l26 98q26 -12 57 -12q25 0 43 12.5t18 39.5
q0 28 -20.5 42t-49.5 14q-18 0 -32 -3l-5 130l345 54h155v-522q0 -71 -32.5 -125t-93.5 -84t-145 -30q-78 0 -140.5 27.5z" />
    <glyph glyph-name="uni1CA0" unicode="&#x1ca0;" horiz-adv-x="889" 
d="M734.5 455q51.5 -28 82.5 -87.5t31 -149.5q0 -59 -13.5 -111.5t-35.5 -106.5h-153q24 60 35 108.5t11 103.5q0 70 -23.5 103.5t-63.5 33.5q-39 0 -59 -29t-20 -80v-128h-156v128q0 51 -20 80t-57 29q-88 0 -88 -137q0 -57 11 -104.5t35 -107.5h-153q-25 70 -37 135
t-12 151q0 139 48 218.5t112 113t158 59.5q62 18 90 32t35 39h159q-4 -61 -41 -99t-87.5 -57t-133.5 -40q-64 -15 -104 -28.5t-71 -35.5t-43 -56q22 27 56 39t69 12q107 0 152 -85q48 85 171 85q64 0 115.5 -28z" />
    <glyph glyph-name="uni1CA1" unicode="&#x1ca1;" horiz-adv-x="645" 
d="M141.5 57q-71.5 68 -71.5 189v500h154v-502q0 -60 31.5 -91t79.5 -31t80 27.5t32 70.5q0 31 -8.5 52.5t-26.5 52.5q-23 39 -34 73t-7 88h152q0 -39 9.5 -65.5t28.5 -60.5q21 -38 32 -68.5t11 -78.5q0 -60 -33 -111.5t-94 -82t-141 -30.5q-123 0 -194.5 68z" />
    <glyph glyph-name="uni1CA2" unicode="&#x1ca2;" horiz-adv-x="852" 
d="M504 730q89 -15 157 -62.5t105.5 -124t37.5 -175.5q0 -114 -48.5 -200t-134.5 -132.5t-195 -46.5t-194.5 46.5t-134 132.5t-48.5 200q0 100 37.5 176.5t105.5 124t158 61.5v47h154v-47zM542.5 153q50.5 29 78.5 84.5t28 130.5q0 100 -41.5 160.5t-114.5 78.5
q10 -34 10 -97v-218h-151v216q0 62 14 101q-76 -17 -119 -78t-43 -163q0 -76 28 -131t78 -84t116 -29t116.5 29z" />
    <glyph glyph-name="uni1CA3" unicode="&#x1ca3;" horiz-adv-x="657" 
d="M183 20q-60 31 -93 86t-33 125q0 40 12 83l149 -6q-7 -37 -7 -61q0 -56 30 -89t83 -33q51 0 82.5 30.5t31.5 87.5v311q0 32 -18 50.5t-45 18.5t-44.5 -18.5t-17.5 -51.5v-127h-153v110q0 36 -19.5 55.5t-55.5 19.5h-44v142h69q95 0 133 -77q22 41 64.5 62t92.5 21
q56 0 100 -24t68 -66.5t24 -95.5v-330q0 -76 -32 -133.5t-92.5 -89t-144.5 -31.5q-80 0 -140 31z" />
    <glyph glyph-name="uni1CA4" unicode="&#x1ca4;" horiz-adv-x="914" 
d="M372 18q-70 27 -107.5 75.5t-37.5 113.5q0 14 1 22l155 -4q-5 -47 35.5 -76.5t116.5 -29.5t114 30.5t38 81.5q0 39 -23 64t-65 27l-13 1v126h25q97 0 97 86q0 42 -22.5 67t-61.5 25q-37 0 -59.5 -25t-22.5 -67v-24q0 -66 -33 -117.5t-90.5 -80.5t-128.5 -29
q-72 0 -128.5 29.5t-88.5 83t-32 121.5q0 71 31.5 126t86 85t122.5 30q59 0 108 -25.5t72 -68.5q23 45 71 69.5t104 24.5q62 0 114.5 -25.5t84 -73.5t31.5 -111q0 -69 -37 -114t-92 -62q49 -16 78 -59t29 -103q0 -62 -35 -112t-104 -79t-168 -29q-95 0 -165 27zM362.5 443
q26.5 29 26.5 78t-27 78.5t-71 29.5q-45 0 -71.5 -29.5t-26.5 -78.5t27 -78t71 -29q45 0 71.5 29z" />
    <glyph glyph-name="uni1CA5" unicode="&#x1ca5;" horiz-adv-x="655" 
d="M172 16.5q-62 28.5 -96.5 80t-34.5 117.5q2 29 6 56l152 -7q-2 -18 -2 -29q0 -53 31.5 -83.5t85.5 -30.5t85.5 30t31.5 86v158q0 49 -29.5 79t-76.5 30q-43 0 -72 -23.5t-29 -69.5q0 -10 1 -18l-153 -4q-3 18 -3 34q0 63 30 112t81 75.5t110 26.5q43 0 80.5 -16t60.5 -42
v170h154v-522q0 -70 -32.5 -124t-94 -84t-144.5 -30q-80 0 -142 28.5z" />
    <glyph glyph-name="uni1CA6" unicode="&#x1ca6;" horiz-adv-x="890" 
d="M556 0q-10 64 -59 86.5t-126 22.5h-254v115h77q-72 39 -108.5 111t-36.5 156q0 90 31 150t82.5 89t115.5 29q56 0 100.5 -21.5t69.5 -69.5q49 91 172 91q64 0 115.5 -29t82.5 -90.5t31 -153.5q0 -98 -33 -195l-152 8q29 85 29 180q0 76 -23.5 111.5t-64.5 35.5
q-37 0 -57.5 -30t-20.5 -82v-135h-156v135q0 53 -20 82.5t-58 29.5q-88 0 -88 -146q0 -127 60.5 -180t155.5 -61l33 -2q110 -9 180 -69t76 -168h-154z" />
    <glyph glyph-name="uni1CA7" unicode="&#x1ca7;" horiz-adv-x="661" 
d="M179 17q-62 29 -96 80t-34 117q0 32 5 56l151 -7q-2 -22 -2 -29q0 -53 32.5 -83.5t85.5 -30.5t85 30t32 86v132q-24 -23 -61 -36t-81 -13q-65 0 -120 29t-88 85t-33 132q0 58 8.5 98t26.5 86h153q-31 -89 -31 -171q0 -62 28.5 -93.5t81.5 -31.5q54 0 84.5 30t30.5 87v179
h154v-523q0 -70 -32 -124t-93 -84t-144 -30q-81 0 -143 29z" />
    <glyph glyph-name="uni1CA8" unicode="&#x1ca8;" horiz-adv-x="658" 
d="M175.5 21q-61.5 32 -94 88t-32.5 127t31 127.5t88 88t130 31.5q45 0 82 -15t61 -42v142q0 32 -18.5 48.5t-44.5 16.5q-27 0 -45 -17t-18 -44v-38h-153v23q0 30 -20.5 47t-54.5 17q-22 0 -38 -3v133q26 6 60 6q46 0 81.5 -19.5t54.5 -59.5q22 40 64.5 60t94.5 20
q56 0 99.5 -23.5t67 -65t23.5 -92.5v-330q0 -78 -32.5 -136t-94 -90t-146.5 -32q-84 0 -145.5 32zM407 152q33 30 33 73v17q0 49 -32.5 79t-84.5 30q-53 0 -85.5 -31.5t-32.5 -83.5q0 -51 33 -82.5t85 -31.5q51 0 84 30z" />
    <glyph glyph-name="uni1CA9" unicode="&#x1ca9;" horiz-adv-x="643" 
d="M70 555q0 93 62.5 148.5t168.5 55.5q65 0 114 -22t75.5 -61t26.5 -88q0 -79 -83 -128q79 -16 119.5 -75t40.5 -152q0 -121 -49 -232l-153 -1q24 62 35 111.5t11 117.5q0 62 -28.5 94.5t-79.5 32.5q-47 0 -76.5 -29.5t-29.5 -77.5v-249h-154v555zM222 438q12 12 29.5 23
t35.5 18q43 16 62 38t19 54q0 29 -19 45.5t-50 16.5q-34 0 -55.5 -18.5t-21.5 -56.5v-120z" />
    <glyph glyph-name="uni1CAA" unicode="&#x1caa;" horiz-adv-x="743" 
d="M221.5 29.5q-78.5 40.5 -125.5 128.5t-47 226q0 114 23 206.5t56 159.5h151q-34 -81 -55 -167t-21 -199q0 -150 56.5 -206.5t137.5 -56.5q68 0 108 31t40 80q0 48 -33 74.5t-90 26.5h-66v127h87q46 0 68.5 18t22.5 48q0 21 -10.5 36.5t-33.5 38.5q-34 31 -52.5 63.5
t-17.5 85.5h153q3 -27 16 -47t38 -46q31 -33 46.5 -59.5t15.5 -66.5q0 -47 -27 -85t-79 -54q53 -17 84.5 -63.5t31.5 -112.5q0 -62 -35.5 -114t-104 -82.5t-161.5 -30.5q-98 0 -176.5 40.5z" />
    <glyph glyph-name="uni1CAB" unicode="&#x1cab;" horiz-adv-x="657" 
d="M167.5 21q-61.5 32 -94 89t-32.5 130t31 130t87.5 89t130.5 32q45 0 82 -15.5t61 -41.5l-1 314h154v-501q0 -119 -72 -188.5t-201 -69.5q-84 0 -145.5 32zM399 152.5q33 30.5 33 77.5v20q0 49 -32.5 78.5t-85.5 29.5t-85 -31.5t-32 -85.5q0 -55 32.5 -87t84.5 -32
t85 30.5z" />
    <glyph glyph-name="uni1CAC" unicode="&#x1cac;" horiz-adv-x="658" 
d="M190.5 21q-61.5 32 -94 90t-32.5 136v330q0 51 23.5 92.5t67 65t99.5 23.5q52 0 94.5 -20t64.5 -60q19 40 54.5 59.5t81.5 19.5q34 0 60 -6v-133q-16 3 -38 3q-34 0 -54.5 -17t-20.5 -47v-23h-153v38q0 27 -18 44t-45 17q-26 0 -44.5 -16.5t-18.5 -48.5v-142q24 27 61 42
t82 15q73 0 130 -31.5t88 -88t31 -127.5t-32.5 -127t-94 -88t-145.5 -32q-85 0 -146.5 32zM420 153.5q33 31.5 33 82.5q0 52 -32.5 83.5t-85.5 31.5q-52 0 -84.5 -30t-32.5 -79v-17q0 -43 33 -73t84 -30q52 0 85 31.5z" />
    <glyph glyph-name="uni1CAD" unicode="&#x1cad;" horiz-adv-x="738" 
d="M180 16.5q-62 28.5 -96.5 80t-34.5 117.5q0 28 6 56l152 -7q-2 -9 -2 -29q0 -53 31.5 -83.5t85.5 -30.5t85.5 30t31.5 86v143l-46 -25q-31 -16 -68 -25.5t-74 -9.5q-50 0 -95 20.5t-73 60t-28 93.5t28 93t73 59t95 20q81 0 141 -33l47 -26v142h149v-150l119 70l12 -117
l-131 -58l131 -59l-12 -117l-119 70v-161q0 -70 -31.5 -124t-91.5 -84t-143 -30q-80 0 -142 28.5zM392 468l47 25l-47 24q-57 26 -106 26q-36 0 -57 -13t-21 -37q0 -25 21.5 -38.5t56.5 -13.5q50 0 106 27z" />
    <glyph glyph-name="uni1CAE" unicode="&#x1cae;" horiz-adv-x="657" 
d="M143 58.5q-72 69.5 -72 188.5v501h154l-1 -314q24 26 61 41.5t82 15.5q74 0 130.5 -32t87.5 -89t31 -130t-32.5 -130t-94 -89t-145.5 -32q-129 0 -201 69.5zM427.5 154q32.5 32 32.5 87q0 54 -32 85.5t-85 31.5t-85.5 -29.5t-32.5 -78.5v-20q0 -47 33 -77.5t85 -30.5
t84.5 32z" />
    <glyph glyph-name="uni1CAF" unicode="&#x1caf;" horiz-adv-x="633" 
d="M391 441q95 -12 146.5 -73.5t51.5 -148.5q0 -70 -32.5 -122t-94 -80.5t-144.5 -28.5q-80 0 -142.5 28.5t-97 80t-34.5 117.5q0 29 7 56l152 -7q-2 -9 -2 -29q0 -53 31.5 -83.5t85.5 -30.5q53 0 84.5 28t32.5 75q-1 47 -32 74t-85 27h-76v174q-65 -9 -110 -9q-37 0 -78 6
l6 128q31 -6 77 -6q49 0 105 8v123h149v-99q58 7 101 7t88 -6l-6 -129q-36 6 -87 6q-50 0 -96 -6v-80z" />
    <glyph glyph-name="uni1CB0" unicode="&#x1cb0;" horiz-adv-x="630" 
d="M551.5 244q30.5 -33 30.5 -83q0 -47 -33 -86.5t-94 -62.5t-142 -23q-86 0 -149.5 26.5t-96.5 76t-29 116.5l154 -4q-1 -39 31.5 -61.5t85.5 -22.5q54 0 85 15t31 44q0 25 -23.5 39.5t-70.5 14.5h-59v111h90q25 0 38.5 10.5t13.5 30.5q0 18 -13.5 28.5t-38.5 10.5h-90v110
h79q50 0 50 29q0 15 -13.5 24t-44.5 23q-35 15 -58.5 30t-40 41.5t-16.5 66.5h155q2 -18 19 -31t51 -29q50 -24 77.5 -48.5t27.5 -68.5q0 -75 -88 -96q49 -5 75 -30.5t26 -66.5q0 -40 -25 -62.5t-76 -31.5q51 -7 81.5 -40z" />
    <glyph glyph-name="uni1CB1" unicode="&#x1cb1;" horiz-adv-x="600" 
 />
    <glyph glyph-name="uni1CB2" unicode="&#x1cb2;" horiz-adv-x="600" 
 />
    <glyph glyph-name="uni1CB3" unicode="&#x1cb3;" horiz-adv-x="600" 
 />
    <glyph glyph-name="uni1CB4" unicode="&#x1cb4;" horiz-adv-x="600" 
 />
    <glyph glyph-name="uni1CB5" unicode="&#x1cb5;" horiz-adv-x="600" 
 />
    <glyph glyph-name="uni1CB6" unicode="&#x1cb6;" horiz-adv-x="600" 
 />
    <glyph glyph-name="uni1CB7" unicode="&#x1cb7;" horiz-adv-x="600" 
 />
    <glyph glyph-name="uni1CB8" unicode="&#x1cb8;" horiz-adv-x="600" 
 />
    <glyph glyph-name="a.sups" unicode="&#x1d43;" horiz-adv-x="451" 
d="M403 590v-257h-123v31q-16 -17 -45 -28t-66 -11q-66 0 -103.5 31.5t-37.5 89.5q0 65 49 94t131 34l65 4v21q0 24 -13.5 38.5t-37.5 14.5q-27 0 -41.5 -15t-14.5 -37l-127 4q0 38 22.5 73.5t64 57.5t96.5 22q181 0 181 -167zM218 495q-58 -5 -58 -41q0 -35 45 -35
q28 0 48 16.5t20 45.5v18z" />
    <glyph glyph-name="b.sups" unicode="&#x1d47;" horiz-adv-x="522" 
d="M182 722q16 15 44.5 25t63.5 10q59 0 104.5 -27t71 -76.5t25.5 -113.5q0 -63 -25.5 -112t-71 -76t-104.5 -27q-39 0 -69 11.5t-47 29.5v-33h-122v622h130v-233zM205.5 619q-24.5 -26 -24.5 -70v-17q0 -44 24.5 -70t63.5 -26q41 0 66 27.5t25 76.5t-25 77t-66 28
q-39 0 -63.5 -26z" />
    <glyph glyph-name="d.sups" unicode="&#x1d48;" horiz-adv-x="522" 
d="M470 955v-622h-123v33q-16 -18 -46.5 -29.5t-69.5 -11.5q-58 0 -103.5 27t-71 76t-25.5 112q0 64 25.5 113.5t71 76.5t103.5 27q35 0 64 -10t45 -25v233h130zM187.5 617.5q-24.5 -27.5 -24.5 -77.5q0 -49 24.5 -76.5t65.5 -27.5q39 0 63 26t24 70v17q0 44 -24 70t-63 26
q-41 0 -65.5 -27.5z" />
    <glyph glyph-name="e.sups" unicode="&#x1d49;" horiz-adv-x="475" 
d="M444 501h-275q2 -33 21 -52.5t54 -19.5q26 0 43 11t22 30l131 -7q-10 -62 -64.5 -100t-128.5 -38q-98 0 -157 58t-59 157q0 66 27 115t75 75.5t111 26.5q91 0 145.5 -55t54.5 -153v-48zM192.5 636.5q-19.5 -18.5 -22.5 -50.5h143q-3 32 -20.5 50.5t-49.5 18.5
q-31 0 -50.5 -18.5z" />
    <glyph glyph-name="uni1D4A" unicode="&#x1d4a;" horiz-adv-x="475" 
d="M341 730.5q49 -26.5 76 -75t27 -114.5t-27 -115t-75.5 -75t-110.5 -26q-91 0 -145.5 55t-54.5 152v49h275q-2 34 -21 52.5t-54 18.5q-27 0 -43.5 -11t-21.5 -30l-131 7q10 62 64.5 100.5t128.5 38.5q64 0 113 -26.5zM283.5 445.5q19.5 18.5 22.5 50.5h-144
q2 -32 19.5 -50.5t50.5 -18.5q32 0 51.5 18.5z" />
    <glyph glyph-name="g.sups" unicode="&#x1d4d;" horiz-adv-x="518" 
d="M300.5 745q30.5 -12 46.5 -30v33h123v-428q0 -90 -58 -144t-155 -54t-151 43t-66 119l130 5q2 -27 24 -42.5t58 -15.5q41 0 64.5 20.5t23.5 59.5v48q-17 -15 -45.5 -24.5t-63.5 -9.5q-58 0 -103.5 27t-71 76t-25.5 112q0 64 25.5 113.5t71 76.5t103.5 27q39 0 69.5 -12z
M187.5 617.5q-24.5 -27.5 -24.5 -77.5q0 -49 24.5 -76.5t65.5 -27.5q39 0 63 26t24 70v17q0 44 -24 70t-63 26q-41 0 -65.5 -27.5z" />
    <glyph glyph-name="k.sups" unicode="&#x1d4f;" horiz-adv-x="469" 
d="M52 955h130v-345l120 138h157l-152 -177l162 -238h-157l-96 142l-34 -39v-103h-130v622z" />
    <glyph glyph-name="m.sups" unicode="&#x1d50;" horiz-adv-x="737" 
d="M646.5 713.5q42.5 -43.5 42.5 -122.5v-258h-130v228q0 36 -15 55.5t-45 19.5t-46.5 -20.5t-16.5 -55.5v-227h-130v228q0 75 -61 75q-30 0 -46.5 -20.5t-16.5 -55.5v-227h-130v415h122v-32q14 17 40 29t64 12q43 0 76 -15.5t53 -44.5q44 60 124 60q73 0 115.5 -43.5z" />
    <glyph glyph-name="o.sups" unicode="&#x1d52;" horiz-adv-x="507" 
d="M368 730q51 -27 79.5 -76.5t28.5 -113.5t-28.5 -113t-79.5 -75.5t-115 -26.5t-114.5 26.5t-79 75.5t-28.5 113t28.5 113.5t79 76.5t114.5 27t115 -27zM187.5 617q-24.5 -28 -24.5 -77q0 -48 24.5 -76t65.5 -28q42 0 67 28t25 76q0 49 -25 77t-67 28q-41 0 -65.5 -28z" />
    <glyph glyph-name="p.sups" unicode="&#x1d56;" horiz-adv-x="522" 
d="M394.5 730q45.5 -27 71 -76.5t25.5 -113.5q0 -63 -25.5 -112t-71 -76t-104.5 -27q-35 0 -63.5 9.5t-44.5 24.5v-230h-130v619h122v-33q17 18 47 30t69 12q59 0 104.5 -27zM205.5 619q-24.5 -26 -24.5 -70v-17q0 -44 24.5 -70t63.5 -26q41 0 66 27.5t25 76.5t-25 77
t-66 28q-39 0 -63.5 -26z" />
    <glyph glyph-name="t.sups" unicode="&#x1d57;" horiz-adv-x="321" 
d="M305 445v-116q-36 -4 -68 -4q-74 0 -116 35.5t-41 107.5l1 168h-76v112h76l1 136h130l-1 -136h93v-112h-94l-1 -140q0 -29 17 -42t43 -13q16 0 36 4z" />
    <glyph glyph-name="u.sups" unicode="&#x1d58;" horiz-adv-x="479" 
d="M427 748v-415h-122v32q-34 -40 -104 -40q-73 0 -113 41t-40 117v265h130v-233q0 -35 13.5 -52t43.5 -17q29 0 45.5 18t16.5 50v234h130z" />
    <glyph glyph-name="v.sups" unicode="&#x1d5b;" horiz-adv-x="462" 
d="M319 748h142l-179 -415h-102l-180 415h142l89 -213z" />
    <glyph glyph-name="c.sups" unicode="&#x1d9c;" horiz-adv-x="471" 
d="M379 713.5q55 -43.5 66 -118.5l-127 -11q-4 28 -23 44.5t-49 16.5q-38 0 -60.5 -27.5t-22.5 -77.5q0 -49 23 -76.5t60 -27.5q30 0 49 16t23 44l127 -11q-11 -74 -66 -117t-133 -43q-62 0 -111 26t-76.5 74.5t-27.5 114.5q0 67 27.5 116t76.5 75t111 26q78 0 133 -43.5z
" />
    <glyph glyph-name="z.sups" unicode="&#x1dbb;" horiz-adv-x="364" 
d="M28 748h305v-94l-159 -212h165v-109h-315v93l159 213h-155v109z" />
    <glyph glyph-name="uni1E20" unicode="&#x1e20;" horiz-adv-x="821" 
d="M421 408h358v-50q0 -110 -43.5 -193.5t-124 -129.5t-189.5 -46t-195.5 46.5t-135.5 133.5t-49 205t49 205.5t135 133.5t196 46q132 0 225.5 -68t123.5 -189l-160 -27q-16 69 -65.5 108t-125.5 39q-103 0 -162 -63t-59 -185q0 -121 59.5 -184.5t161.5 -63.5q72 0 122.5 36
t67.5 110h-189v136zM245 932h340v-103h-340v103z" />
    <glyph glyph-name="uni1E21" unicode="&#x1e21;" horiz-adv-x="642" 
d="M136 -211.5q-67 53.5 -82 145.5l145 5q5 -38 36 -59t80 -21q56 0 88.5 28.5t32.5 82.5v74q-23 -24 -60.5 -39.5t-85.5 -15.5q-72 0 -129 33.5t-88.5 94.5t-31.5 141t31.5 141t88.5 94.5t129 33.5q52 0 92.5 -17.5t61.5 -46.5v54h137v-536q0 -74 -32 -129.5t-91 -86
t-138 -30.5q-117 0 -184 53.5zM402.5 149.5q33.5 35.5 33.5 96.5v24q0 61 -33.5 96.5t-88.5 35.5q-56 0 -90.5 -38t-34.5 -106t34.5 -106t90.5 -38q55 0 88.5 35.5zM155 727h320v-104h-320v104z" />
    <glyph glyph-name="Wgrave" unicode="&#x1e80;" horiz-adv-x="1061" 
d="M885 748h164l-231 -748h-130l-157 474l-157 -474h-131l-231 748h164l134 -485l157 485h127l158 -485zM262 960h204l128 -154h-137z" />
    <glyph glyph-name="wgrave" unicode="&#x1e81;" horiz-adv-x="800" 
d="M643 517h150l-171 -517h-124l-98 275l-99 -275h-123l-172 517h151l90 -311l101 311h103l101 -311zM204 789h166l83 -191h-113z" />
    <glyph glyph-name="Wacute" unicode="&#x1e82;" horiz-adv-x="1061" 
d="M885 748h164l-231 -748h-130l-157 474l-157 -474h-131l-231 748h164l134 -485l157 485h127l158 -485zM590 959h204l-195 -154h-137z" />
    <glyph glyph-name="wacute" unicode="&#x1e83;" horiz-adv-x="800" 
d="M643 517h150l-171 -517h-124l-98 275l-99 -275h-123l-172 517h151l90 -311l101 311h103l101 -311zM427 789h164l-135 -191h-114z" />
    <glyph glyph-name="Wdieresis" unicode="&#x1e84;" horiz-adv-x="1061" 
d="M885 748h164l-231 -748h-130l-157 474l-157 -474h-131l-231 748h164l134 -485l157 485h127l158 -485zM482 952.5q24 -23.5 24 -57.5q0 -35 -23.5 -58.5t-58.5 -23.5t-58.5 23.5t-23.5 58.5q0 34 24 57.5t58 23.5t58 -23.5zM697 952.5q24 -23.5 24 -57.5q0 -35 -24 -58.5
t-59 -23.5q-34 0 -58 23.5t-24 58.5q0 34 24 57.5t58 23.5q35 0 59 -23.5z" />
    <glyph glyph-name="wdieresis" unicode="&#x1e85;" horiz-adv-x="800" 
d="M643 517h150l-171 -517h-124l-98 275l-99 -275h-123l-172 517h151l90 -311l101 311h103l101 -311zM350.5 744.5q23.5 -23.5 23.5 -58.5q0 -34 -23.5 -57.5t-58.5 -23.5t-58.5 23.5t-23.5 57.5q0 35 24 58.5t58 23.5q35 0 58.5 -23.5zM565.5 744.5q23.5 -23.5 23.5 -58.5
q0 -34 -23.5 -57.5t-58.5 -23.5t-58.5 23.5t-23.5 57.5q0 35 24 58.5t58 23.5q35 0 58.5 -23.5z" />
    <glyph glyph-name="uni1E9E" unicode="&#x1e9e;" horiz-adv-x="737" 
d="M525.5 726q73.5 -30 131.5 -87l-117 -178q161 -61 161 -220q0 -75 -35 -131.5t-98 -87t-145 -30.5q-53 0 -101 10l30 136q24 -9 65 -9q54 0 89.5 32t35.5 85q0 65 -49 96t-149 50l123 201q-24 13 -50 20t-64 7q-57 0 -95.5 -29.5t-38.5 -78.5v-512h-155v510q0 74 38 130
t104.5 86t148.5 30q97 0 170.5 -30z" />
    <glyph glyph-name="Ygrave" unicode="&#x1ef2;" horiz-adv-x="738" 
d="M550 748h180l-283 -460v-288h-154v288l-284 460h179l181 -307zM100 960h204l128 -154h-137z" />
    <glyph glyph-name="ygrave" unicode="&#x1ef3;" horiz-adv-x="567" 
d="M408 517h156l-331 -772h-159l132 301l-202 471h155l125 -315zM87 789h166l83 -191h-113z" />
    <glyph glyph-name="endash" unicode="&#x2013;" horiz-adv-x="560" 
d="M42 350h476v-136h-476v136z" />
    <glyph glyph-name="emdash" unicode="&#x2014;" horiz-adv-x="792" 
d="M42 350h708v-136h-708v136z" />
    <glyph glyph-name="quoteleft" unicode="&#x2018;" horiz-adv-x="234" 
d="M173 598.5q22 -23.5 22 -55.5q0 -35 -22.5 -59t-57.5 -24q-36 0 -56.5 25t-20.5 66q0 140 143 214v-57q-49 -32 -62 -84q32 -2 54 -25.5z" />
    <glyph glyph-name="quoteright" unicode="&#x2019;" horiz-adv-x="234" 
d="M175.5 739.5q20.5 -24.5 20.5 -65.5q0 -68 -35 -122.5t-108 -91.5v56q49 34 62 84q-32 2 -54 25.5t-22 56.5q0 34 22.5 58t57.5 24q36 0 56.5 -24.5z" />
    <glyph glyph-name="quotesinglbase" unicode="&#x201a;" horiz-adv-x="234" 
d="M175.5 129.5q20.5 -24.5 20.5 -65.5q0 -140 -143 -214v57q49 31 62 84q-32 2 -54 25t-22 56q0 35 22.5 58.5t57.5 23.5q36 0 56.5 -24.5z" />
    <glyph glyph-name="quotedblleft" unicode="&#x201c;" horiz-adv-x="431" 
d="M369 598.5q22 -23.5 22 -55.5q0 -35 -22.5 -59t-57.5 -24q-36 0 -56.5 25t-20.5 66q0 140 143 214v-57q-49 -32 -62 -84q32 -2 54 -25.5zM173 598.5q22 -23.5 22 -55.5q0 -35 -22.5 -59t-57.5 -24q-36 0 -56.5 25t-20.5 66q0 140 143 214v-57q-49 -32 -62 -84
q32 -2 54 -25.5z" />
    <glyph glyph-name="quotedblright" unicode="&#x201d;" horiz-adv-x="431" 
d="M371.5 739.5q20.5 -24.5 20.5 -65.5q0 -68 -35 -122.5t-108 -91.5v56q49 34 62 84q-32 2 -54 25.5t-22 56.5q0 34 22.5 58t57.5 24q36 0 56.5 -24.5zM175.5 739.5q20.5 -24.5 20.5 -65.5q0 -68 -35 -122.5t-108 -91.5v56q49 34 62 84q-32 2 -54 25.5t-22 56.5
q0 34 22.5 58t57.5 24q36 0 56.5 -24.5z" />
    <glyph glyph-name="quotedblbase" unicode="&#x201e;" horiz-adv-x="431" 
d="M371.5 129.5q20.5 -24.5 20.5 -65.5q0 -140 -143 -214v57q49 31 62 84q-32 2 -54 25t-22 56q0 35 22.5 58.5t57.5 23.5q36 0 56.5 -24.5zM175.5 129.5q20.5 -24.5 20.5 -65.5q0 -140 -143 -214v57q49 31 62 84q-32 2 -54 25t-22 56q0 35 22.5 58.5t57.5 23.5
q36 0 56.5 -24.5z" />
    <glyph glyph-name="dagger" unicode="&#x2020;" horiz-adv-x="528" 
d="M192 748h145v-192h178v-131h-178v-492h-145v492h-178v131h178v192z" />
    <glyph glyph-name="daggerdbl" unicode="&#x2021;" horiz-adv-x="528" 
d="M192 748h145v-192h178v-131h-178v-169h178v-131h-178v-192h-145v192h-178v131h178v169h-178v131h178v192z" />
    <glyph glyph-name="bullet" unicode="&#x2022;" horiz-adv-x="343" 
d="M235 384q29 -17 46 -46t17 -63q0 -35 -17 -64t-46 -46t-63 -17q-53 0 -90 37t-37 90t37 89.5t90 36.5q34 0 63 -17z" />
    <glyph glyph-name="ellipsis" unicode="&#x2026;" horiz-adv-x="771" 
d="M191 140q26 -26 26 -63t-26 -62.5t-63 -25.5t-62.5 25.5t-25.5 62.5t25.5 63t62.5 26t63 -26zM448 140q26 -26 26 -63t-26 -62.5t-63 -25.5t-62.5 25.5t-25.5 62.5t25.5 63t62.5 26t63 -26zM705 140q26 -26 26 -63t-26 -62.5t-63 -25.5t-62.5 25.5t-25.5 62.5t25.5 63
t62.5 26t63 -26z" />
    <glyph glyph-name="perthousand" unicode="&#x2030;" horiz-adv-x="1284" 
d="M296 735.5q40 -23.5 62.5 -66t22.5 -98.5t-22.5 -98.5t-62.5 -66t-91 -23.5t-91 23.5t-63 66t-23 98.5t23 98.5t63 66t91 23.5t91 -23.5zM627 748h125l-493 -748h-125zM154 634.5q-19 -22.5 -19 -63.5q0 -40 19 -63.5t51 -23.5q31 0 50 23t19 64t-18.5 63.5t-50.5 22.5
t-51 -22.5zM773 342q40 -23 62.5 -65.5t22.5 -98.5t-22.5 -99t-62.5 -66.5t-91 -23.5t-91 23.5t-63 66.5t-23 99t23 98.5t63 65.5t91 23t91 -23zM1206 314q49 -51 49 -136q0 -56 -22.5 -99t-62 -66.5t-90.5 -23.5t-91 23.5t-63 66.5t-23 99t23 98.5t63 65.5t91 23
q77 0 126 -51zM631 241q-19 -23 -19 -63q0 -41 19 -64t51 -23t50.5 23t18.5 64q0 40 -18.5 63t-50.5 23t-51 -23zM1029 241q-19 -23 -19 -63q0 -41 19 -64t51 -23q31 0 49.5 23t18.5 64q0 40 -18.5 63t-49.5 23q-32 0 -51 -23z" />
    <glyph glyph-name="guilsinglleft" unicode="&#x2039;" horiz-adv-x="359" 
d="M26 268l202 232l105 -92l-131 -140l131 -140l-105 -92z" />
    <glyph glyph-name="guilsinglright" unicode="&#x203a;" horiz-adv-x="359" 
d="M26 408l104 92l203 -232l-203 -232l-104 92l131 140z" />
    <glyph glyph-name="fraction" unicode="&#x2044;" horiz-adv-x="216" 
d="M302 748h118l-506 -748h-118z" />
    <glyph glyph-name="zero.numr" unicode="&#x2070;" horiz-adv-x="366" 
d="M300.5 683q44.5 -56 44.5 -156q0 -101 -44.5 -157t-116.5 -56q-73 0 -118 56t-45 157q0 100 45 156t118 56q72 0 116.5 -56zM146 612q-11 -27 -11 -85t11 -85.5t37 -27.5t37 27.5t11 85.5t-11 85t-37 27t-37 -27z" />
    <glyph glyph-name="four.numr" unicode="&#x2074;" horiz-adv-x="356" 
d="M181 732h105v-249h45v-99h-45v-63h-110v63h-165v87zM177 483v100l-69 -100h69z" />
    <glyph glyph-name="five.numr" unicode="&#x2075;" horiz-adv-x="318" 
d="M265 555.5q36 -33.5 36 -98.5q0 -66 -39 -104t-105 -38q-64 0 -101 33.5t-38 88.5l109 7q3 -29 31 -29q16 0 24.5 10.5t8.5 28.5t-9 27.5t-24 9.5q-17 0 -30 -11h-96v253h252v-99h-140v-48q12 3 28 3q57 0 93 -33.5z" />
    <glyph glyph-name="six.numr" unicode="&#x2076;" horiz-adv-x="346" 
d="M215 592q49 -11 79 -47.5t30 -88.5q0 -63 -42.5 -102.5t-107.5 -39.5q-66 0 -109 39.5t-43 102.5q0 25 7.5 46t23.5 45l124 185h136zM201.5 426.5q10.5 12.5 10.5 33.5t-10.5 32t-28.5 11q-19 0 -29 -13l-1 -1q-9 -11 -9 -29q0 -21 10.5 -33.5t28.5 -12.5t28.5 12.5z" />
    <glyph glyph-name="seven.numr" unicode="&#x2077;" horiz-adv-x="310" 
d="M12 733h278v-87l-140 -324h-123l135 312h-150v99z" />
    <glyph glyph-name="eight.numr" unicode="&#x2078;" horiz-adv-x="348" 
d="M274 706q40 -33 40 -89q0 -44 -31 -75q43 -37 43 -94q0 -61 -43 -97.5t-109 -36.5q-67 0 -109.5 36.5t-42.5 97.5q0 56 42 93q-31 33 -31 76q0 56 39.5 89t100.5 33t101 -33zM147.5 629.5q-10.5 -9.5 -10.5 -26.5q0 -16 10.5 -25t26.5 -9t26 9t10 25q0 17 -10 26.5
t-26 9.5t-26.5 -9.5zM145 481.5q-12 -10.5 -12 -28.5t12 -28.5t29 -10.5q18 0 29 10.5t11 28.5t-11 28.5t-29 10.5q-17 0 -29 -10.5z" />
    <glyph glyph-name="nine.numr" unicode="&#x2079;" horiz-adv-x="346" 
d="M281 699.5q43 -39.5 43 -102.5q0 -26 -8 -46.5t-24 -44.5l-123 -185h-135l98 140q-50 11 -80 47.5t-30 88.5q0 63 42.5 102.5t107.5 39.5q66 0 109 -39.5zM204 564q8 12 8 29q0 21 -10.5 33.5t-28.5 12.5t-29 -12t-11 -33t11 -32.5t29 -11.5q19 0 31 14z" />
    <glyph glyph-name="n.sups" unicode="&#x207f;" horiz-adv-x="491" 
d="M399 713q44 -44 44 -122v-258h-130v228q0 36 -17 55.5t-47 19.5q-31 0 -49 -20.5t-18 -55.5v-227h-130v415h122v-32q14 17 42 29t66 12q73 0 117 -44z" />
    <glyph glyph-name="zero.dnom" unicode="&#x2080;" horiz-adv-x="366" 
d="M300.5 362q44.5 -56 44.5 -156q0 -101 -44.5 -157t-116.5 -56q-73 0 -118 56t-45 157q0 100 45 156t118 56q72 0 116.5 -56zM146 291q-11 -27 -11 -85t11 -85.5t37 -27.5t37 27.5t11 85.5t-11 85t-37 27t-37 -27z" />
    <glyph glyph-name="one.dnom" unicode="&#x2081;" horiz-adv-x="228" 
d="M128 411h71v-411h-112v264l-50 -34l-44 94z" />
    <glyph glyph-name="two.dnom" unicode="&#x2082;" horiz-adv-x="313" 
d="M257 381.5q35 -36.5 35 -96.5q0 -39 -16.5 -71.5t-46.5 -66.5l-43 -48h108v-99h-276v77l132 140q17 18 25 33.5t8 35.5q0 15 -7 23.5t-20 8.5q-31 0 -31 -37l-108 6q1 60 38 95.5t98 35.5q69 0 104 -36.5z" />
    <glyph glyph-name="three.dnom" unicode="&#x2083;" horiz-adv-x="323" 
d="M259 384.5q35 -33.5 35 -91.5q0 -29 -11 -48t-32 -33q21 -10 34.5 -33t13.5 -54q0 -61 -39 -96.5t-102 -35.5q-67 0 -103.5 35t-37.5 94l111 8q2 -37 30 -37q14 0 22.5 9t8.5 26q0 36 -36 36h-45v90h43q16 0 26 9t10 24t-8 23t-20 8q-29 0 -29 -33l-107 6q0 60 35 93.5
t101 33.5q65 0 100 -33.5z" />
    <glyph glyph-name="four.dnom" unicode="&#x2084;" horiz-adv-x="345" 
d="M181 411h105v-249h45v-99h-45v-63h-110v63h-165v87zM177 162v100l-69 -100h69z" />
    <glyph glyph-name="five.dnom" unicode="&#x2085;" horiz-adv-x="318" 
d="M265 233.5q36 -33.5 36 -98.5q0 -66 -39 -104t-105 -38q-64 0 -101 33.5t-38 88.5l109 7q3 -29 31 -29q16 0 24.5 10.5t8.5 28.5t-9 27.5t-24 9.5q-17 0 -30 -11h-96v253h252v-99h-140v-48q12 3 28 3q57 0 93 -33.5z" />
    <glyph glyph-name="six.dnom" unicode="&#x2086;" horiz-adv-x="346" 
d="M215 271q49 -11 79 -47.5t30 -88.5q0 -63 -42.5 -102.5t-107.5 -39.5q-66 0 -109 39.5t-43 102.5q0 25 7.5 46t23.5 45l124 185h136zM201.5 105.5q10.5 12.5 10.5 33.5t-10.5 32t-28.5 11q-19 0 -29 -13l-1 -1q-9 -11 -9 -29q0 -21 10.5 -33.5t28.5 -12.5t28.5 12.5z" />
    <glyph glyph-name="seven.dnom" unicode="&#x2087;" horiz-adv-x="310" 
d="M12 411h278v-87l-140 -324h-123l135 312h-150v99z" />
    <glyph glyph-name="eight.dnom" unicode="&#x2088;" horiz-adv-x="348" 
d="M274 385q40 -33 40 -89q0 -44 -31 -75q43 -37 43 -94q0 -61 -43 -97.5t-109 -36.5q-67 0 -109.5 36.5t-42.5 97.5q0 56 42 93q-31 33 -31 76q0 56 39.5 89t100.5 33t101 -33zM147.5 308.5q-10.5 -9.5 -10.5 -26.5q0 -16 10.5 -25t26.5 -9t26 9t10 25q0 17 -10 26.5
t-26 9.5t-26.5 -9.5zM145 160.5q-12 -10.5 -12 -28.5t12 -28.5t29 -10.5q18 0 29 10.5t11 28.5t-11 28.5t-29 10.5q-17 0 -29 -10.5z" />
    <glyph glyph-name="nine.dnom" unicode="&#x2089;" horiz-adv-x="346" 
d="M281 378.5q43 -39.5 43 -102.5q0 -26 -8 -46.5t-24 -44.5l-123 -185h-135l98 140q-50 11 -80 47.5t-30 88.5q0 63 42.5 102.5t107.5 39.5q66 0 109 -39.5zM204 243q8 12 8 29q0 21 -10.5 33.5t-28.5 12.5t-29 -12t-11 -33t11 -32.5t29 -11.5q19 0 31 14z" />
    <glyph glyph-name="Euro" unicode="&#x20ac;" horiz-adv-x="700" 
d="M670 51q-51 -32 -100.5 -47t-119.5 -15q-75 0 -140.5 29.5t-113.5 87t-70 138.5h-119l34 90h70q-1 13 -1 40q0 24 1 35h-104l34 90h84q21 83 69.5 141.5t115.5 88.5t142 30q66 0 113 -15.5t92 -47.5l-48 -128q-30 26 -66.5 40t-83.5 14q-60 0 -105 -31t-67 -92h295
l-34 -90h-280q-1 -11 -1 -35q0 -14 2 -40h249l-33 -90h-196q23 -58 67.5 -88t102.5 -30q83 0 147 54z" />
    <glyph glyph-name="uni20B4" unicode="&#x20b4;" horiz-adv-x="731" 
d="M567 410q-32 -38 -100 -67h223v-90h-400q-16 -23 -16 -55q0 -41 25 -62.5t66 -21.5q45 0 70.5 21t26.5 60h164q-3 -98 -73.5 -152t-187.5 -54q-114 0 -184 56.5t-70 163.5q0 25 4 44h-74v90h122q39 38 115 67h-237v90h396q10 20 10 49q0 39 -20.5 62t-57.5 23
q-38 0 -58 -17.5t-21 -50.5h-164q2 91 67.5 142t177.5 51q72 0 126.5 -29.5t83.5 -79.5t29 -111q0 -21 -3 -39h83v-90h-123z" />
    <glyph glyph-name="uni20B9" unicode="&#x20b9;" horiz-adv-x="567" 
d="M522 647h-136q32 -43 42 -89h94v-100h-92q-13 -71 -62.5 -119t-119.5 -67l265 -272h-208l-254 262v111h103q41 0 71.5 22t42.5 63h-217v100h219q-11 43 -42.5 66t-73.5 23h-103v101h471v-101z" />
    <glyph glyph-name="uni20BA" unicode="&#x20ba;" horiz-adv-x="710" 
d="M664 303q0 -97 -41 -165t-113.5 -103t-165.5 -35h-210v254l-87 -34v98l87 35v70l-87 -34v99l87 34v226h154v-174l147 58v-99l-147 -59v-69l147 58v-100l-147 -57v-169h56q75 0 120.5 40t45.5 126h154z" />
    <glyph glyph-name="uni20BD" unicode="&#x20bd;" horiz-adv-x="696" 
d="M298 295v-69h127v-98h-127v-128h-155v128h-92v98h92v69h-92v123h92v330h269q72 0 127 -27.5t85 -77.5t30 -116t-30.5 -118.5t-85.5 -83t-126 -30.5h-114zM298 611v-193h94q48 0 76 24.5t28 72.5q0 47 -28 71.5t-76 24.5h-94z" />
    <glyph glyph-name="uni20BE" unicode="&#x20be;" horiz-adv-x="859" 
d="M234 251.5q32 -55.5 89.5 -85t132.5 -29.5h317v-137h-676v123h97q-67 40 -106 109.5t-39 165.5q0 125 71 217.5t189 126.5v123h81v-108q28 2 44 2q15 0 43 -2v108h83v-124q117 -36 187 -133t70 -234h-153q0 167 -104 226v-226h-83v252q-21 3 -43 3q-23 0 -44 -3v-252h-81
v227q-51 -28 -79 -83t-28 -137q0 -74 32 -129.5z" />
    <glyph glyph-name="uni20BF" unicode="&#x20bf;" horiz-adv-x="690" 
d="M598 71.5q-51 -55.5 -139 -67.5v-124h-91v120h-78v-120h-90v120h-128v748h128v120h90v-120h78v120h91v-128q74 -16 116.5 -66.5t42.5 -133.5q0 -51 -19.5 -88t-53.5 -59q46 -18 75 -63t29 -112q0 -91 -51 -146.5zM436 591q-25 21 -69 21h-141v-164h149q41 0 63.5 20
t22.5 61t-25 62zM389 137q47 0 74.5 22t27.5 67q0 46 -27.5 68.5t-72.5 22.5h-165v-180h163z" />
    <glyph glyph-name="uni2113" unicode="&#x2113;" horiz-adv-x="602" 
d="M562 135q-32 -70 -87.5 -108t-130.5 -38q-82 0 -133 45.5t-56 123.5l-76 -47l-20 -12v138l22 14q68 43 73 47v252q0 104 53.5 156.5t144.5 52.5q47 0 88.5 -21.5t67 -62t25.5 -94.5q0 -88 -59 -166t-171 -159v-65q0 -38 13.5 -57t45.5 -19q31 0 53 21t49 69zM303 405
q107 89 107 165q0 30 -15 46.5t-39 16.5q-25 0 -39 -18.5t-14 -54.5v-155z" />
    <glyph glyph-name="uni2116" unicode="&#x2116;" horiz-adv-x="1129" 
d="M532 748h154v-748h-131l-328 463v-463h-155v748h131l329 -464v464zM817 481q-45 45 -45 116t45 116t116 45t116.5 -45t45.5 -116t-45.5 -116t-116.5 -45t-116 45zM978 545q17 20 17 52t-17 52t-45 20t-45 -20t-17 -52t17 -52t45 -20t45 20z" />
    <glyph glyph-name="uni2117" unicode="&#x2117;" horiz-adv-x="589" 
d="M432.5 727.5q61.5 -33.5 97 -92t35.5 -130.5t-35.5 -130.5t-97 -92t-137.5 -33.5q-77 0 -139 33.5t-97 92t-35 130.5t35 130.5t97 92t139 33.5q76 0 137.5 -33.5zM183.5 684.5q-48.5 -26.5 -75.5 -73.5t-27 -106t27 -106t75.5 -73.5t111.5 -26.5q62 0 110.5 26.5
t75.5 73.5t27 106t-27 106t-75.5 73.5t-110.5 26.5q-63 0 -111.5 -26.5zM324 659q46 0 75.5 -27t29.5 -73q0 -47 -29.5 -73.5t-75.5 -26.5h-55v-106h-79v306h134zM269 594v-71h39q39 0 39 36q0 35 -39 35h-39z" />
    <glyph glyph-name="trademark" unicode="&#x2122;" horiz-adv-x="898" 
d="M27 748h340v-103h-117v-256h-107v256h-116v103zM751 748h91v-359h-107v148l-81 -144h-48l-81 144v-148h-107v359h91l121 -217z" />
    <glyph glyph-name="estimated" unicode="&#x212e;" horiz-adv-x="794" 
d="M223 34q-81 44 -129.5 123t-48.5 179q0 99 48.5 178t129.5 122.5t174 43.5t174 -43.5t129.5 -122.5t48.5 -178v-17h-575v-148q0 -39 37 -73q40 -37 83.5 -54.5t102.5 -17.5q79 0 152.5 39.5t108.5 101.5h65q-42 -80 -132 -128.5t-194 -48.5q-93 0 -174 44zM174 352h447
v147q0 41 -38 74q-40 36 -83 53.5t-103 17.5q-59 0 -102.5 -17.5t-83.5 -53.5q-37 -34 -37 -74v-147z" />
    <glyph glyph-name="uni2153" unicode="&#x2153;" horiz-adv-x="783" 
d="M128 733h71v-411h-112v264l-50 -34l-44 94zM548 748h118l-506 -748h-118zM719 384.5q35 -33.5 35 -91.5q0 -29 -11 -48t-32 -33q21 -10 34.5 -33t13.5 -54q0 -61 -39 -96.5t-102 -35.5q-67 0 -103.5 35t-37.5 94l111 8q2 -37 30 -37q14 0 22.5 9t8.5 26q0 36 -36 36h-45
v90h43q16 0 26 9t10 24t-8 23t-20 8q-29 0 -29 -33l-107 6q0 60 35 93.5t101 33.5q65 0 100 -33.5z" />
    <glyph glyph-name="arrowleft" unicode="&#x2190;" horiz-adv-x="668" 
d="M393 175l-79 -80l-276 276l276 275l79 -79l-137 -136h374v-120h-374z" />
    <glyph glyph-name="arrowup" unicode="&#x2191;" horiz-adv-x="627" 
d="M118 312l-80 79l276 275l275 -275l-79 -79l-136 136v-374h-120v374z" />
    <glyph glyph-name="arrowright" unicode="&#x2192;" horiz-adv-x="668" 
d="M276 567l79 79l275 -276l-275 -274l-79 79l136 136h-374v120h374z" />
    <glyph glyph-name="arrowdown" unicode="&#x2193;" horiz-adv-x="627" 
d="M509 429l80 -79l-276 -275l-275 275l79 79l136 -136v374h120v-374z" />
    <glyph glyph-name="arrowboth" unicode="&#x2194;" horiz-adv-x="852" 
d="M271 137l-233 233l233 233l79 -80l-94 -93h341l-95 93l80 80l233 -233l-233 -233l-80 80l95 94h-341l94 -94z" />
    <glyph glyph-name="arrowupdn" unicode="&#x2195;" horiz-adv-x="602" 
d="M534 215l-233 -232l-233 232l80 80l93 -95v342l-93 -95l-80 79l233 233l233 -233l-80 -79l-93 95v-342l93 95z" />
    <glyph glyph-name="uni2196" unicode="&#x2196;" horiz-adv-x="582" 
d="M195 190h-112v390l389 -1v-112l-193 1l265 -265l-85 -85l-265 265z" />
    <glyph glyph-name="uni2197" unicode="&#x2197;" horiz-adv-x="537" 
d="M110 468v112h389v-389h-112l1 192l-265 -264l-85 85l265 264h-193z" />
    <glyph glyph-name="uni2198" unicode="&#x2198;" horiz-adv-x="583" 
d="M387 551h113l-1 -390l-389 1v112l193 -1l-265 265l85 85l265 -265z" />
    <glyph glyph-name="uni2199" unicode="&#x2199;" horiz-adv-x="582" 
d="M472 273v-112l-389 1v389h112v-193l264 264l85 -85l-264 -264h192z" />
    <glyph glyph-name="partialdiff" unicode="&#x2202;" horiz-adv-x="609" 
d="M501 641.5q68 -117.5 68 -323.5q0 -159 -71.5 -244t-198.5 -85q-74 0 -133.5 31.5t-94 89.5t-34.5 134q0 72 32.5 126.5t90 84t130.5 29.5q70 0 124 -35q-5 88 -37 130.5t-93 42.5q-44 0 -77.5 -15.5t-63.5 -45.5l-82 127q50 35 101 53t118 18q153 0 221 -117.5z
M384.5 158q30.5 32 30.5 84v9q-1 51 -32 82t-78 31q-48 0 -79 -32.5t-31 -85.5q0 -54 30 -87t80 -33q49 0 79.5 32z" />
    <glyph glyph-name="uni2206" unicode="&#x2206;" horiz-adv-x="720" 
d="M361 652l336 -652h-674zM361 381l-130 -256h259z" />
    <glyph glyph-name="product" unicode="&#x220f;" horiz-adv-x="655" 
d="M15 748h624v-136h-95v-776h-132v776h-170v-776h-131v776h-96v136z" />
    <glyph glyph-name="summation" unicode="&#x2211;" horiz-adv-x="594" 
d="M44 748h512v-136h-335l178 -238l-178 -237h335v-137h-512v113l195 261l-195 261v113z" />
    <glyph glyph-name="minus" unicode="&#x2212;" horiz-adv-x="542" 
d="M28 439h486v-136h-486v136z" />
    <glyph glyph-name="radical" unicode="&#x221a;" horiz-adv-x="725" 
d="M344 221l212 527h142l-351 -825l-154 320l-104 -65l-72 114l231 142z" />
    <glyph glyph-name="infinity" unicode="&#x221e;" horiz-adv-x="771" 
d="M651.5 479q43.5 -27 68 -73.5t24.5 -101.5q0 -56 -24.5 -103t-68 -74t-98.5 -27q-96 0 -171 89l-14 16l-13 -16q-38 -36 -73.5 -55t-81.5 -19q-51 0 -90.5 25t-61 68t-21.5 95t21.5 95t61 68.5t90.5 25.5q48 0 83.5 -20t70.5 -58l12 -14l11 12q43 47 82 70.5t94 23.5
t98.5 -27zM502.5 367.5q-22.5 -15.5 -48.5 -47.5l-13 -18l14 -17q27 -29 49.5 -45t48.5 -16q31 0 49.5 23t18.5 57t-18.5 56.5t-49.5 22.5q-28 0 -50.5 -15.5zM158.5 353.5q-16.5 -20.5 -16.5 -50.5t16.5 -50t44.5 -20q48 0 85 51l12 18l-12 15q-24 29 -44 43t-41 14
q-28 0 -44.5 -20.5z" />
    <glyph glyph-name="integral" unicode="&#x222b;" horiz-adv-x="330" 
d="M295.5 754.5q23.5 -4.5 49.5 -13.5l-24 -111q-28 11 -53 11q-39 0 -39 -49v-600q0 -80 -34 -121.5t-101 -41.5q-34 0 -59 5t-49 13l24 110q28 -10 48 -10q45 0 45 49v601q0 79 34.5 120.5t100.5 41.5q34 0 57.5 -4.5z" />
    <glyph glyph-name="approxequal" unicode="&#x2248;" horiz-adv-x="538" 
d="M531 490q-35 -46 -73.5 -69.5t-87.5 -23.5q-29 0 -51 7.5t-53 23.5q-25 13 -44 20t-41 7q-35 0 -59.5 -12t-48.5 -41l-66 97q35 45 73.5 68.5t86.5 23.5q27 0 48.5 -7.5t48.5 -22.5q29 -14 48 -21t43 -7q35 0 60.5 12.5t49.5 41.5zM531 244q-35 -45 -73.5 -68.5
t-87.5 -23.5q-28 0 -49.5 7t-54.5 23q-25 13 -44 20t-41 7q-35 0 -59.5 -12t-48.5 -41l-66 97q35 45 73.5 68.5t86.5 23.5q27 0 48.5 -7.5t48.5 -22.5q29 -14 48 -21t43 -7q35 0 60.5 12.5t49.5 41.5z" />
    <glyph glyph-name="notequal" unicode="&#x2260;" horiz-adv-x="542" 
d="M514 561v-137h-165l-29 -108h194v-137h-230l-31 -119l-124 30l23 89h-124v137h160l28 108h-188v137h224l31 117l125 -29l-23 -88h129z" />
    <glyph glyph-name="lessequal" unicode="&#x2264;" horiz-adv-x="532" 
d="M26 472l478 233v-149l-186 -84l186 -84v-150zM26 193h478v-136h-478v136z" />
    <glyph glyph-name="greaterequal" unicode="&#x2265;" horiz-adv-x="532" 
d="M28 556v149l478 -233l-478 -234v150l187 84zM28 193h478v-136h-478v136z" />
    <glyph glyph-name="triagup" unicode="&#x25b2;" horiz-adv-x="930" 
d="M405 513q0 116 26 224q1 4 1 9q0 10 -7 10q-4 0 -9 -6q-17 -22 -81.5 -126.5t-119.5 -198.5q-3 -4 -16 -28q-125 -215 -155 -297q-4 -12 -4 -17q0 -8 4 -15q7 -13 23 -13q9 0 33 8q38 14 110 53q55 32 107 71t76 64q15 16 20.5 29t5.5 29q0 7 -2 27q-12 101 -12 177z
M716 200q84 -51 154 -118l6 -6q3 -3 7 -3q5 0 6 5t-1 10q-9 24 -66.5 132t-113.5 205q-3 4 -16 28q-63 106 -105.5 175t-75.5 108q-14 16 -27 16q-15 0 -22 -12t-10 -34q-9 -45 -9 -122q0 -64 7.5 -128.5t17.5 -97.5q8 -28 20.5 -39t41.5 -24q102 -44 186 -95zM262.5 103.5
q-85.5 -47.5 -179.5 -74.5l-8 -2q-7 -2 -7 -8t11 -9q28 -3 151.5 -7.5t230.5 -4.5h32q122 1 204 4t132 11q19 2 27 15q3 6 3 12q0 17 -27 39q-35 30 -101 69q-54 32 -114 57.5t-94 33.5q-13 4 -27 4q-16 0 -27.5 -6t-31.5 -20q-89 -66 -174.5 -113.5z" />
    <glyph glyph-name="lozenge" unicode="&#x25ca;" horiz-adv-x="552" 
d="M230 748h93l204 -402l-204 -401h-93l-205 401zM384 346l-107 205l-107 -205l107 -205z" />
    <glyph glyph-name="uni2605" unicode="&#x2605;" horiz-adv-x="850" 
d="M467 730q-6 14 -17 21t-24 7t-24.5 -7t-17.5 -21l-83 -193q-5 -12 -15.5 -19t-22.5 -8l-191 -15q-19 -1 -30.5 -14.5t-11.5 -30.5q0 -22 17 -35l152 -121q17 -12 17 -34q0 -4 -2 -12l-50 -201q-1 -4 -1 -11q0 -19 13.5 -32t31.5 -13q13 0 24 7l169 108q11 7 25 7t24 -7
l169 -108q11 -7 24 -7q18 0 32 13t14 31q0 4 -2 12l-51 201q-1 3 -1 10q0 22 17 36l151 121q17 13 17 35q0 17 -11 30.5t-30 14.5l-191 15q-12 1 -22.5 8t-15.5 19z" />
    <glyph glyph-name="De-cy.loclBGR" unicode="&#xe1e0;" horiz-adv-x="823" 
d="M476 748l251 -612h84v-306h-139v170h-521v-170h-138v306h83l250 612h130zM412 516l-149 -380h299z" />
    <glyph glyph-name="El-cy.loclBGR" unicode="&#xe1e1;" horiz-adv-x="735" 
d="M174 0h-169l297 748h130l298 -748h-169l-193 516z" />
    <glyph glyph-name="Ef-cy.loclBGR" unicode="&#xe1e2;" horiz-adv-x="961" 
d="M404 19q-170 8 -266 101.5t-96 253.5q0 159 96 252.5t266 103.5v95h153v-95q170 -10 266 -103.5t96 -252.5q0 -160 -96 -253.5t-266 -101.5v-97h-153v97zM404 597q-100 -8 -152.5 -65.5t-52.5 -157.5q0 -101 52.5 -157.5t152.5 -63.5v444zM557 152q101 7 153 64t52 158
q0 100 -52 157.5t-153 65.5v-445z" />
    <glyph glyph-name="ve-cy.loclBGR" unicode="&#xe1e3;" horiz-adv-x="598" 
d="M173 21q-56 32 -84 88.5t-28 129.5v309q0 75 30.5 128t83.5 80t121 27q69 0 121.5 -27.5t81.5 -77t29 -112.5q0 -48 -22.5 -88t-53.5 -63q42 -22 73 -70.5t31 -116.5q0 -70 -31.5 -124.5t-88 -84.5t-127.5 -30q-80 0 -136 32zM299 458q41 0 62 28t21 73t-23.5 72
t-63.5 27t-64.5 -27t-24.5 -76v-97h93zM383 144q28 29 28 81q0 49 -29.5 79t-82.5 30h-93v-101q0 -57 26.5 -87.5t76.5 -30.5q46 0 74 29z" />
    <glyph glyph-name="ge-cy.loclBGR" unicode="&#xe1e4;" horiz-adv-x="502" 
d="M404.5 483q55.5 -44 55.5 -119q0 -50 -22 -79.5t-58.5 -45t-103.5 -32.5q-39 -10 -58.5 -17t-27.5 -16.5t-8 -25.5q0 -22 17.5 -34.5t47.5 -12.5q71 0 76 64l146 -8q-8 -81 -65 -124.5t-156 -43.5q-100 0 -155.5 46t-55.5 126q0 65 43.5 97.5t132.5 55.5l20 5
q46 12 63.5 21t17.5 31q0 21 -15.5 32.5t-44.5 11.5q-32 0 -47.5 -17t-17.5 -46l-146 8q8 76 61.5 121.5t148.5 45.5q96 0 151.5 -44z" />
    <glyph glyph-name="de-cy.loclBGR" unicode="&#xe1e5;" horiz-adv-x="642" 
d="M136 -211.5q-67 53.5 -82 145.5l145 5q5 -38 36 -59t80 -21q56 0 88.5 28.5t32.5 82.5v74q-23 -24 -60.5 -39.5t-85.5 -15.5q-72 0 -129 33.5t-88.5 94.5t-31.5 141t31.5 141t88.5 94.5t129 33.5q52 0 92.5 -17.5t61.5 -46.5v54h137v-536q0 -74 -32 -129.5t-91 -86
t-138 -30.5q-117 0 -184 53.5zM402.5 149.5q33.5 35.5 33.5 96.5v24q0 61 -33.5 96.5t-88.5 35.5q-56 0 -90.5 -38t-34.5 -106t34.5 -106t90.5 -38q55 0 88.5 35.5z" />
    <glyph glyph-name="zhe-cy.loclBGR" unicode="&#xe1e6;" horiz-adv-x="813" 
d="M172 0h-169l196 262l-187 255h161l164 -235v495h142v-496l162 236h161l-184 -255l193 -262h-168l-164 238v-238h-142v237z" />
    <glyph glyph-name="ze-cy.loclBGR" unicode="&#xe1e7;" horiz-adv-x="589" 
d="M107.5 -202.5q-66.5 62.5 -70.5 172.5l147 8q2 -54 30.5 -84t82.5 -30q50 0 77.5 28t27.5 80t-32 78t-85 26h-77v127h75q46 0 76 27t30 72q0 47 -25 71.5t-70 24.5q-46 0 -72 -27t-29 -77l-146 8q2 106 66.5 165.5t180.5 59.5q114 0 178.5 -61.5t64.5 -165.5
q0 -101 -90 -155q45 -20 73.5 -65t28.5 -107q0 -112 -69.5 -175t-184.5 -63q-121 0 -187.5 62.5z" />
    <glyph glyph-name="ii-cy.loclBGR" unicode="&#xe1e8;" horiz-adv-x="596" 
d="M527 517v-517h-138v52q-17 -27 -50 -45t-84 -18q-89 0 -140 54t-51 149v325h146v-294q0 -98 83 -98q41 0 64.5 27.5t23.5 72.5v292h146z" />
    <glyph glyph-name="iishort-cy.loclBGR" unicode="&#xe1e9;" horiz-adv-x="596" 
d="M527 517v-517h-138v52q-17 -27 -50 -45t-84 -18q-89 0 -140 54t-51 149v325h146v-294q0 -98 83 -98q41 0 64.5 27.5t23.5 72.5v292h146zM484 763q0 -84 -50.5 -127t-135.5 -43q-84 0 -134.5 43.5t-50.5 126.5h112q0 -32 19.5 -50t53.5 -18t54 18t20 50h112z" />
    <glyph glyph-name="iigrave-cy.loclBGR" unicode="&#xe1ea;" horiz-adv-x="596" 
d="M527 517v-517h-138v52q-17 -27 -50 -45t-84 -18q-89 0 -140 54t-51 149v325h146v-294q0 -98 83 -98q41 0 64.5 27.5t23.5 72.5v292h146zM102 789h166l83 -191h-113z" />
    <glyph glyph-name="ka-cy.loclBGR" unicode="&#xe1eb;" horiz-adv-x="553" 
d="M214 0h-145v777h145v-496l166 236h158l-178 -248l190 -269h-169l-167 242v-242z" />
    <glyph glyph-name="el-cy.loclBGR" unicode="&#xe1ec;" horiz-adv-x="567" 
d="M157 0h-155l223 517h117l223 -517h-155l-127 311z" />
    <glyph glyph-name="pe-cy.loclBGR" unicode="&#xe1ed;" horiz-adv-x="612" 
d="M492.5 471q55.5 -56 55.5 -155v-316h-146v288q0 49 -24.5 76t-66.5 27q-43 0 -69.5 -28.5t-26.5 -75.5v-287h-146v517h138v-53q18 29 53.5 46t85.5 17q91 0 146.5 -56z" />
    <glyph glyph-name="te-cy.loclBGR" unicode="&#xe1ee;" horiz-adv-x="924" 
d="M806.5 470.5q53.5 -56.5 53.5 -153.5v-317h-146v288q0 50 -22 76.5t-64 26.5q-38 0 -61.5 -23t-28.5 -63v-305h-146v288q0 49 -22 76t-62 27q-43 0 -68 -28.5t-25 -75.5v-287h-146v517h138v-53q40 63 136 63q53 0 94.5 -21t67.5 -61q24 38 63.5 60t95.5 22
q89 0 142.5 -56.5z" />
    <glyph glyph-name="tse-cy.loclBGR" unicode="&#xe1ef;" horiz-adv-x="634" 
d="M527 136h85v-286h-124v150h-99v52q-17 -27 -50 -45t-84 -18q-89 0 -140 54t-51 149v325h146v-294q0 -98 83 -98q41 0 64.5 27.5t23.5 72.5v292h146v-381z" />
    <glyph glyph-name="sha-cy.loclBGR" unicode="&#xe1f0;" horiz-adv-x="925" 
d="M709 517h146v-517h-138v53q-40 -63 -136 -63q-53 0 -94.5 21t-67.5 61q-24 -38 -63.5 -60t-95.5 -22q-89 0 -142.5 56.5t-53.5 153.5v317h146v-288q0 -50 22 -76.5t64 -26.5q38 0 61.5 23t28.5 63v305h146v-288q0 -49 22 -76t62 -27q43 0 68 28.5t25 75.5v287z" />
    <glyph glyph-name="shcha-cy.loclBGR" unicode="&#xe1f1;" horiz-adv-x="962" 
d="M855 136h85v-286h-124v150h-99v53q-40 -63 -135 -63q-53 0 -95.5 21t-67.5 61q-24 -38 -63.5 -60t-95.5 -22q-89 0 -142.5 56t-53.5 153v318h147v-288q0 -50 22 -77t64 -27q38 0 61 23.5t28 63.5v305h146v-288q0 -49 22.5 -76.5t62.5 -27.5q42 0 67 29t25 76v287h146
v-381z" />
    <glyph glyph-name="softsign-cy.loclBGR" unicode="&#xe1f2;" horiz-adv-x="556" 
d="M69 0v517h146v-165h111q96 0 152 -45t56 -131t-56 -131t-152 -45h-257zM305 112q41 0 63 14t22 50q0 35 -22 49.5t-63 14.5h-90v-128h90z" />
    <glyph glyph-name="hardsign-cy.loclBGR" unicode="&#xe1f3;" horiz-adv-x="633" 
d="M146 0v391h-138v126h283v-165h112q96 0 152 -45t56 -131t-56 -131t-152 -45h-257zM382 112q41 0 63 14t22 50q0 35 -22 49.5t-63 14.5h-91v-128h91z" />
    <glyph glyph-name="iu-cy.loclBGR" unicode="&#xe1f4;" horiz-adv-x="824" 
d="M659.5 493.5q57.5 -33.5 90 -94.5t32.5 -141t-32.5 -141t-90 -94.5t-131.5 -33.5q-98 0 -166.5 58.5t-84.5 156.5h-64v-204h-144v777h144v-448h67q20 91 87 144.5t161 53.5q74 0 131.5 -33.5zM608 153q30 38 30 105t-30 105.5t-80 38.5t-80.5 -38.5t-30.5 -105.5
q0 -66 30.5 -104.5t80.5 -38.5t80 38z" />
    <glyph glyph-name="be-cy.loclSRB" unicode="&#xe1f5;" horiz-adv-x="632" 
d="M529.5 404.5q61.5 -54.5 61.5 -156.5q0 -77 -35.5 -136t-98 -91t-141.5 -32t-141.5 31t-98 88t-35.5 131q0 71 35 124.5t96 83.5q-112 47 -112 138q0 142 228 165q39 4 53 5q89 9 125.5 13.5t72.5 14.5v-135q-27 -8 -57 -12t-111 -11l-30 -3q-73 -6 -103.5 -17.5
t-30.5 -37.5q0 -22 23.5 -33t79.5 -27q43 -11 60 -17q98 -31 159.5 -85.5zM408.5 148q35.5 33 35.5 91q0 57 -35.5 90t-92.5 33q-58 0 -93 -32.5t-35 -90.5t35 -91t93 -33q57 0 92.5 33z" />
    <glyph glyph-name="ef-cy.loclBGR" unicode="&#xe1fb;" horiz-adv-x="800" 
d="M328 -9q-87 6 -152 41t-100 93t-35 133t35 133.5t100 93t152 40.5v252h144v-252q87 -6 152 -40.5t100 -93t35 -133.5t-35 -133t-100 -93t-152 -41v-246h-144v246zM328 407q-68 -6 -105 -46.5t-37 -101.5t36.5 -101t105.5 -46v295zM472 112q68 6 104.5 46t36.5 101
t-36.5 101.5t-104.5 46.5v-295z" />
    </font>
</defs>
</svg>
