<?xml version="1.0" encoding="utf-8"?>
<!-- Generator: Adobe Illustrator 28.3.0, SVG Export Plug-In . SVG Version: 6.00 Build 0)  -->
<svg version="1.1" id="Layer_1" xmlns="http://www.w3.org/2000/svg" xmlns:xlink="http://www.w3.org/1999/xlink" x="0px" y="0px"
	 viewBox="0 0 22.4 20.1" style="enable-background:new 0 0 22.4 20.1;" xml:space="preserve">
<style type="text/css">
	.st0{fill:#555F62;}
</style>
<path class="st0" d="M11.9,0.5c0.1,0.1,0.3,0.2,0.3,0.3c1.5,1.7,4.2,6.2,5.3,8.1c1.4,2.4,4.6,8.3,4.9,9.1c0,0.1,0,0.2-0.1,0.2
	c-0.1,0-0.2,0.1-0.4-0.2c-1.2-1.2-4.1-3.7-8.8-5.6c-0.2-0.1-0.5-0.2-0.7-0.3c-0.7-0.3-1-0.8-1.2-1.5c-0.5-2-0.9-5.8-0.4-9
	c0-0.1,0.1-0.5,0.2-0.8C11.2,0.3,11.6,0.3,11.9,0.5L11.9,0.5z M10.1,0c0.1,0,0.2,0.1,0.1,0.4C9.7,2.1,9.1,5.8,9.8,10.9
	c0,0.3,0.1,0.5,0.1,0.7c0,0.7-0.2,1.3-0.7,1.8c-1.5,1.5-4.5,3.7-7.6,4.8c-0.1,0-0.5,0.2-0.8,0.2c-0.5,0-0.7-0.3-0.7-0.6
	c0-0.1,0.1-0.3,0.1-0.4c0.7-2.1,3.3-6.7,4.4-8.6c1.4-2.4,4.9-8.1,5.5-8.7C10,0,10.1,0,10.1,0L10.1,0z M12.6,13.7
	c2,0.6,5.5,2.1,8,4.2c0.1,0.1,0.4,0.3,0.6,0.6c0.3,0.4,0.1,0.8-0.2,1c-0.1,0.1-0.3,0.1-0.4,0.1c-2.2,0.4-7.5,0.5-9.7,0.5
	c-2.7,0-9.5-0.2-10.3-0.3c-0.1,0-0.2-0.1-0.2-0.2c0-0.1,0-0.2,0.3-0.3c1.7-0.4,5.2-1.7,9.3-4.8c0.2-0.2,0.4-0.3,0.6-0.4
	C11.3,13.6,11.9,13.5,12.6,13.7L12.6,13.7z"/>
</svg>
