<svg width="166" height="33" viewBox="0 0 166 33" fill="none" xmlns="http://www.w3.org/2000/svg">
<path d="M81.7194 13.2949C79.8794 13.2949 78.6094 14.6849 78.6094 16.3849C78.6094 18.0849 79.7594 19.4749 81.7194 19.4749C83.6794 19.4749 84.8194 18.0849 84.8194 16.3849C84.8194 14.6849 83.5594 13.2949 81.7194 13.2949ZM68.3594 10.5949C71.2094 10.5949 72.9594 12.8049 72.9594 15.9749C72.9594 18.4549 72.0794 20.3549 70.4894 21.8849L68.5494 20.2549C69.4494 19.2449 70.2594 17.6749 70.2594 15.9849C70.2594 14.1749 69.3494 13.0649 68.0194 13.0649C66.6894 13.0649 65.7494 13.9249 65.7494 15.7349V18.3049H63.0394V15.7349C63.0394 13.9249 62.0994 13.0649 60.7694 13.0649C59.4394 13.0649 58.5294 14.1749 58.5294 15.9849V16.1449C58.5794 17.7849 59.3594 19.2849 60.2394 20.2649L58.2994 21.8949C56.7094 20.3649 55.8294 18.4749 55.8294 15.9949V15.8549C55.8794 12.7549 57.6094 10.6149 60.4294 10.6149C62.4194 10.6149 63.8294 11.5149 64.3894 12.8649C64.9594 11.5149 66.3594 10.6149 68.3494 10.6149L68.3594 10.5949ZM152.309 10.5949C155.789 10.5949 157.989 13.1949 157.989 16.3149C157.989 18.6549 157.219 20.4449 155.829 21.8849L153.879 20.2749C154.969 18.8749 155.289 17.6049 155.289 16.3249C155.289 14.4949 154.269 13.0549 152.319 13.0549C150.369 13.0549 149.349 14.4949 149.349 16.3249C149.349 17.6049 149.659 18.8749 150.759 20.2749L148.809 21.8849C147.419 20.4449 146.649 18.6549 146.649 16.3149C146.649 13.2049 148.849 10.5949 152.329 10.5949H152.309ZM124.489 6.2749V6.3949C124.489 7.6049 127.599 8.1249 127.599 10.5149C127.599 11.6949 126.669 12.5149 125.559 12.7649C127.459 13.3749 128.639 14.8749 128.639 17.0349C128.639 19.9049 126.489 22.0049 122.939 22.0049C120.369 22.0049 118.169 20.5649 117.599 18.0949L120.039 17.0849C120.429 18.5749 121.539 19.5349 122.939 19.5349C124.909 19.5349 125.909 18.3849 125.909 16.9849C125.909 15.3449 124.759 14.3049 122.939 14.3049H121.269V11.8549H122.789C124.099 11.8549 124.869 11.3649 124.869 10.5249C124.869 8.9849 121.759 8.9449 121.759 6.4649V6.2849H124.489V6.2749ZM86.3194 6.3549V8.8049H79.6994C78.7094 8.8049 78.3694 9.3949 78.3694 10.1349V12.2349C79.1494 11.0449 80.8494 10.6849 82.0094 10.6849C85.5094 10.6849 87.5294 13.2049 87.5294 16.3849C87.5294 19.5649 85.3494 22.0849 81.7194 22.0849C78.0894 22.0849 75.6694 19.6549 75.6694 15.8849V10.2149C75.6694 8.0849 77.1094 6.3549 79.5494 6.3549H86.3294H86.3194ZM136.739 15.2749C134.479 15.7549 133.589 17.7649 133.539 19.6549C133.599 21.8249 134.749 24.1449 137.809 24.1449C140.869 24.1449 142.019 21.8249 142.079 19.6549C142.029 17.7949 141.179 15.8349 139.009 15.3049C139.079 15.6949 139.219 16.5849 139.219 17.2949V18.4849H136.509V17.2949C136.509 16.5749 136.659 15.6449 136.729 15.2749H136.739ZM139.229 10.8849V11.4549C139.229 11.8749 139.179 12.3749 139.119 12.7849C142.999 13.3449 144.809 16.4349 144.809 19.6549C144.809 23.2149 142.589 26.6149 137.809 26.6149C133.029 26.6149 130.809 23.2149 130.809 19.6549C130.809 16.4049 132.659 13.2849 136.619 12.7749C136.559 12.3649 136.509 11.8849 136.509 11.4649V10.8949H139.219L139.229 10.8849ZM100.779 10.8849V11.0049C100.779 12.4949 101.929 12.8449 101.929 14.4149C101.929 15.9049 100.959 16.6549 99.5594 16.9349C101.579 17.4849 102.639 18.8649 102.639 21.1449C102.639 24.1849 100.439 26.6049 96.6394 26.6049C92.8394 26.6049 90.6594 24.0549 90.6594 20.9249V10.8749H93.3694V20.9249C93.3694 22.5749 94.4694 24.1249 96.6394 24.1249C98.8094 24.1249 99.9094 22.6749 99.9094 21.0749C99.9094 19.2949 98.7594 18.1449 96.9394 18.1449H96.4794V15.6949H97.5194C98.5594 15.6949 99.1894 15.1449 99.1894 14.3049C99.1894 13.0849 98.0394 12.8649 98.0394 11.0449V10.8649H100.769L100.779 10.8849ZM110.289 10.5949C113.599 10.5949 115.639 12.5149 115.639 15.9449V21.3349C115.639 24.3849 113.539 26.6149 110.169 26.6149C107.149 26.6149 105.039 24.9649 104.699 21.9249L107.179 21.2349C107.399 23.1649 108.489 24.1449 110.029 24.1449C112.069 24.1449 112.909 22.8849 112.909 21.2849V15.9749C112.909 14.3149 112.019 13.0549 110.289 13.0549C108.559 13.0549 107.649 14.3149 107.649 15.9749V16.9449H104.939V15.9549C104.939 12.5349 106.969 10.6049 110.289 10.6049V10.5949ZM52.5894 10.8849V13.2649C52.5894 14.9349 51.8994 16.1149 50.6094 16.7649C52.5394 17.4749 53.6894 19.0649 53.6894 21.3449C53.6894 24.3949 51.5394 26.6249 47.9894 26.6249C45.4194 26.6249 43.2194 25.1849 42.6494 22.7149L45.0894 21.7049C45.4794 23.1949 46.5894 24.1549 47.9894 24.1549C49.9594 24.1549 50.9594 22.8949 50.9594 21.2949C50.9594 19.5149 49.8094 18.3049 47.9894 18.3049H46.1994V15.8549H47.3794C49.0694 15.8549 49.8594 14.8649 49.8594 13.4749V10.9049H52.5894V10.8849Z" fill="#555F62"/>
<path d="M13.9193 6.86463C14.0293 6.92463 14.1793 7.09463 14.2093 7.12463C15.6793 8.82463 18.4093 13.3246 19.5193 15.2146C20.9093 17.5746 24.0993 23.5046 24.3693 24.2846C24.3993 24.3646 24.3693 24.4646 24.2993 24.5146C24.2193 24.5646 24.1293 24.6046 23.8993 24.3646C22.6593 23.1146 19.7893 20.6846 15.0593 18.7646C14.8093 18.6646 14.5893 18.5746 14.3793 18.4846C13.7193 18.1546 13.3493 17.6646 13.1693 16.9846C12.6393 14.9746 12.2593 11.2246 12.7793 7.98463C12.7993 7.87463 12.8593 7.48463 12.9893 7.18463C13.1993 6.73463 13.5893 6.68463 13.9093 6.86463H13.9193ZM12.1393 6.42463C12.2293 6.46463 12.2993 6.52463 12.2093 6.83463C11.7393 8.53463 11.0693 12.2246 11.7593 17.2746C11.7993 17.5346 11.8293 17.7746 11.8493 18.0046C11.8893 18.7446 11.6493 19.3046 11.1593 19.7946C9.67928 21.2546 6.61928 23.4546 3.54928 24.6246C3.43928 24.6646 3.07928 24.8046 2.74928 24.8346C2.24928 24.8846 2.00928 24.5746 2.00928 24.2046C2.00928 24.0746 2.07928 23.8646 2.08928 23.8246C2.82928 21.7046 5.37928 17.0946 6.45928 15.1946C7.80928 12.8146 11.3693 7.09463 11.9093 6.46463C11.9593 6.39463 12.0593 6.36463 12.1393 6.40463V6.42463ZM14.6193 20.1246C16.6293 20.6746 20.0693 22.2146 22.6193 24.2846C22.7093 24.3546 23.0093 24.6046 23.1993 24.8646C23.4893 25.2746 23.3393 25.6346 23.0193 25.8146C22.9093 25.8746 22.6893 25.9246 22.6493 25.9346C20.4393 26.3546 15.1693 26.4646 12.9793 26.4746C10.2393 26.4946 3.48928 26.2846 2.67928 26.1346C2.58928 26.1246 2.51928 26.0546 2.50928 25.9646C2.50928 25.8646 2.50928 25.7746 2.82928 25.6946C4.53928 25.2446 8.07928 23.9846 12.1093 20.8546C12.3193 20.6946 12.5093 20.5446 12.6893 20.4146C13.3093 20.0046 13.9193 19.9346 14.5893 20.1146L14.6193 20.1246Z" fill="#555F62"/>
<path d="M34.0496 1.78467H33.0596V31.1047H34.0496V1.78467Z" fill="#555F62"/>
</svg>
